G04 #@! TF.GenerationSoftware,KiCad,Pcbnew,(5.1.6)-1*
G04 #@! TF.CreationDate,2020-10-24T15:43:35-04:00*
G04 #@! TF.ProjectId,flight_computer,666c6967-6874-45f6-936f-6d7075746572,rev?*
G04 #@! TF.SameCoordinates,Original*
G04 #@! TF.FileFunction,Soldermask,Top*
G04 #@! TF.FilePolarity,Negative*
%FSLAX46Y46*%
G04 Gerber Fmt 4.6, Leading zero omitted, Abs format (unit mm)*
G04 Created by KiCad (PCBNEW (5.1.6)-1) date 2020-10-24 15:43:35*
%MOMM*%
%LPD*%
G01*
G04 APERTURE LIST*
%ADD10C,0.100000*%
%ADD11C,0.010000*%
%ADD12C,0.152400*%
G04 APERTURE END LIST*
D10*
G36*
X104736000Y-145892000D02*
G01*
X103036000Y-145892000D01*
X103036000Y-144692000D01*
X103636000Y-144692000D01*
X103636000Y-144442000D01*
X104136000Y-144442000D01*
X104136000Y-144692000D01*
X104736000Y-144692000D01*
X104736000Y-145892000D01*
G37*
D11*
G36*
X104286507Y-146042000D02*
G01*
X104786000Y-146042000D01*
X104786000Y-146643390D01*
X104286507Y-146643390D01*
X104286507Y-146042000D01*
G37*
X104286507Y-146042000D02*
X104786000Y-146042000D01*
X104786000Y-146643390D01*
X104286507Y-146643390D01*
X104286507Y-146042000D01*
G36*
X102984745Y-146042000D02*
G01*
X103486000Y-146042000D01*
X103486000Y-146643530D01*
X102984745Y-146643530D01*
X102984745Y-146042000D01*
G37*
X102984745Y-146042000D02*
X103486000Y-146042000D01*
X103486000Y-146643530D01*
X102984745Y-146643530D01*
X102984745Y-146042000D01*
D12*
X116829777Y-153425962D02*
X116839141Y-153425040D01*
X116820772Y-153428692D02*
X116829777Y-153425962D01*
X116812474Y-153433130D02*
X116820772Y-153428692D01*
X116805199Y-153439099D02*
X116812474Y-153433130D01*
X116799230Y-153446373D02*
X116805199Y-153439099D01*
X116794793Y-153454672D02*
X116799230Y-153446373D01*
X116792063Y-153463676D02*
X116794793Y-153454672D01*
X116791141Y-153473041D02*
X116792063Y-153463676D01*
X116791141Y-155777039D02*
X116791141Y-153473041D01*
X116792063Y-155786404D02*
X116791141Y-155777039D01*
X116794793Y-155795408D02*
X116792063Y-155786404D01*
X116799230Y-155803707D02*
X116794793Y-155795408D01*
X116805199Y-155810981D02*
X116799230Y-155803707D01*
X116812474Y-155816950D02*
X116805199Y-155810981D01*
X116820772Y-155821388D02*
X116812474Y-155816950D01*
X116829777Y-155824118D02*
X116820772Y-155821388D01*
X116839141Y-155825040D02*
X116829777Y-155824118D01*
X119843139Y-155825040D02*
X116839141Y-155825040D01*
X119852503Y-155824118D02*
X119843139Y-155825040D01*
X119861508Y-155821388D02*
X119852503Y-155824118D01*
X119869806Y-155816950D02*
X119861508Y-155821388D01*
X119877081Y-155810981D02*
X119869806Y-155816950D01*
X119883050Y-155803707D02*
X119877081Y-155810981D01*
X119887487Y-155795408D02*
X119883050Y-155803707D01*
X119890217Y-155786404D02*
X119887487Y-155795408D01*
X119891139Y-155777039D02*
X119890217Y-155786404D01*
X119891139Y-153473041D02*
X119891139Y-155777039D01*
X119890217Y-153463676D02*
X119891139Y-153473041D01*
X119887487Y-153454672D02*
X119890217Y-153463676D01*
X119883050Y-153446373D02*
X119887487Y-153454672D01*
X119877081Y-153439099D02*
X119883050Y-153446373D01*
X119869806Y-153433130D02*
X119877081Y-153439099D01*
X119861508Y-153428692D02*
X119869806Y-153433130D01*
X119852503Y-153425962D02*
X119861508Y-153428692D01*
X119843139Y-153425040D02*
X119852503Y-153425962D01*
X116839141Y-153425040D02*
X119843139Y-153425040D01*
X119672100Y-125231200D02*
X118579900Y-125231200D01*
X119672100Y-125840800D02*
X119672100Y-125231200D01*
X118579900Y-125840800D02*
X119672100Y-125840800D01*
X118579900Y-125231200D02*
X118579900Y-125840800D01*
X119672100Y-126481200D02*
X118579900Y-126481200D01*
X119672100Y-127090800D02*
X119672100Y-126481200D01*
X118579900Y-127090800D02*
X119672100Y-127090800D01*
X118579900Y-126481200D02*
X118579900Y-127090800D01*
X119672100Y-127731200D02*
X118579900Y-127731200D01*
X119672100Y-128340800D02*
X119672100Y-127731200D01*
X118579900Y-128340800D02*
X119672100Y-128340800D01*
X118579900Y-127731200D02*
X118579900Y-128340800D01*
X119672100Y-128981200D02*
X118579900Y-128981200D01*
X119672100Y-129590800D02*
X119672100Y-128981200D01*
X118579900Y-129590800D02*
X119672100Y-129590800D01*
X118579900Y-128981200D02*
X118579900Y-129590800D01*
X117472100Y-128981200D02*
X116379900Y-128981200D01*
X117472100Y-129590800D02*
X117472100Y-128981200D01*
X116379900Y-129590800D02*
X117472100Y-129590800D01*
X116379900Y-128981200D02*
X116379900Y-129590800D01*
X117472100Y-127731200D02*
X116379900Y-127731200D01*
X117472100Y-128340800D02*
X117472100Y-127731200D01*
X116379900Y-128340800D02*
X117472100Y-128340800D01*
X116379900Y-127731200D02*
X116379900Y-128340800D01*
X117472100Y-126481200D02*
X116379900Y-126481200D01*
X117472100Y-127090800D02*
X117472100Y-126481200D01*
X116379900Y-127090800D02*
X117472100Y-127090800D01*
X116379900Y-126481200D02*
X116379900Y-127090800D01*
X117472100Y-125231200D02*
X116379900Y-125231200D01*
X117472100Y-125840800D02*
X117472100Y-125231200D01*
X116379900Y-125840800D02*
X117472100Y-125840800D01*
X116379900Y-125231200D02*
X116379900Y-125840800D01*
D10*
G36*
X140960000Y-160198000D02*
G01*
X139658000Y-160198000D01*
X139658000Y-158296000D01*
X140960000Y-158296000D01*
X140960000Y-160198000D01*
G37*
G36*
X131360000Y-160198000D02*
G01*
X130058000Y-160198000D01*
X130058000Y-158296000D01*
X131360000Y-158296000D01*
X131360000Y-160198000D01*
G37*
G36*
X113497000Y-158181000D02*
G01*
X112695000Y-158181000D01*
X112695000Y-156779000D01*
X113497000Y-156779000D01*
X113497000Y-158181000D01*
G37*
G36*
X115397000Y-158181000D02*
G01*
X114595000Y-158181000D01*
X114595000Y-156779000D01*
X115397000Y-156779000D01*
X115397000Y-158181000D01*
G37*
G36*
X116787139Y-158126038D02*
G01*
X116085141Y-158126038D01*
X116085141Y-156574038D01*
X116787139Y-156574038D01*
X116787139Y-158126038D01*
G37*
G36*
X118057139Y-158126038D02*
G01*
X117355141Y-158126038D01*
X117355141Y-156574038D01*
X118057139Y-156574038D01*
X118057139Y-158126038D01*
G37*
G36*
X120597139Y-158126038D02*
G01*
X119895141Y-158126038D01*
X119895141Y-156574038D01*
X120597139Y-156574038D01*
X120597139Y-158126038D01*
G37*
G36*
X119327139Y-158126038D02*
G01*
X118625141Y-158126038D01*
X118625141Y-156574038D01*
X119327139Y-156574038D01*
X119327139Y-158126038D01*
G37*
G36*
X105786834Y-157027826D02*
G01*
X104830826Y-157983834D01*
X104051594Y-157204602D01*
X105007602Y-156248594D01*
X105786834Y-157027826D01*
G37*
G36*
X124419000Y-157355500D02*
G01*
X123617000Y-157355500D01*
X123617000Y-155953500D01*
X124419000Y-155953500D01*
X124419000Y-157355500D01*
G37*
G36*
X126319000Y-157355500D02*
G01*
X125517000Y-157355500D01*
X125517000Y-155953500D01*
X126319000Y-155953500D01*
X126319000Y-157355500D01*
G37*
G36*
X107111727Y-155685719D02*
G01*
X106155719Y-156641727D01*
X105376487Y-155862495D01*
X106332495Y-154906487D01*
X107111727Y-155685719D01*
G37*
G36*
X104372620Y-155613612D02*
G01*
X103416612Y-156569620D01*
X102637380Y-155790388D01*
X103593388Y-154834380D01*
X104372620Y-155613612D01*
G37*
G36*
X135360000Y-156198000D02*
G01*
X134658000Y-156198000D01*
X134658000Y-154546000D01*
X135360000Y-154546000D01*
X135360000Y-156198000D01*
G37*
G36*
X132360000Y-156198000D02*
G01*
X131658000Y-156198000D01*
X131658000Y-154546000D01*
X132360000Y-154546000D01*
X132360000Y-156198000D01*
G37*
G36*
X133360000Y-156198000D02*
G01*
X132658000Y-156198000D01*
X132658000Y-154546000D01*
X133360000Y-154546000D01*
X133360000Y-156198000D01*
G37*
G36*
X139360000Y-156198000D02*
G01*
X138658000Y-156198000D01*
X138658000Y-154546000D01*
X139360000Y-154546000D01*
X139360000Y-156198000D01*
G37*
G36*
X138360000Y-156198000D02*
G01*
X137658000Y-156198000D01*
X137658000Y-154546000D01*
X138360000Y-154546000D01*
X138360000Y-156198000D01*
G37*
G36*
X137360000Y-156198000D02*
G01*
X136658000Y-156198000D01*
X136658000Y-154546000D01*
X137360000Y-154546000D01*
X137360000Y-156198000D01*
G37*
G36*
X136360000Y-156198000D02*
G01*
X135658000Y-156198000D01*
X135658000Y-154546000D01*
X136360000Y-154546000D01*
X136360000Y-156198000D01*
G37*
G36*
X134360000Y-156198000D02*
G01*
X133658000Y-156198000D01*
X133658000Y-154546000D01*
X134360000Y-154546000D01*
X134360000Y-156198000D01*
G37*
G36*
X120842140Y-156151039D02*
G01*
X115840140Y-156151039D01*
X115840140Y-153099041D01*
X120842140Y-153099041D01*
X120842140Y-156151039D01*
G37*
G36*
X98895100Y-156108600D02*
G01*
X95694300Y-156108600D01*
X95694300Y-154787400D01*
X98895100Y-154787400D01*
X98895100Y-156108600D01*
G37*
G36*
X93789700Y-156108600D02*
G01*
X90588900Y-156108600D01*
X90588900Y-154787400D01*
X93789700Y-154787400D01*
X93789700Y-156108600D01*
G37*
G36*
X124519000Y-155425500D02*
G01*
X123417000Y-155425500D01*
X123417000Y-154073500D01*
X124519000Y-154073500D01*
X124519000Y-155425500D01*
G37*
G36*
X126519000Y-155425500D02*
G01*
X125417000Y-155425500D01*
X125417000Y-154073500D01*
X126519000Y-154073500D01*
X126519000Y-155425500D01*
G37*
G36*
X105697513Y-154271505D02*
G01*
X104741505Y-155227513D01*
X103962273Y-154448281D01*
X104918281Y-153492273D01*
X105697513Y-154271505D01*
G37*
G36*
X102285000Y-154723000D02*
G01*
X100153000Y-154723000D01*
X100153000Y-151971000D01*
X102285000Y-151971000D01*
X102285000Y-154723000D01*
G37*
G36*
X126319000Y-153545500D02*
G01*
X125517000Y-153545500D01*
X125517000Y-152143500D01*
X126319000Y-152143500D01*
X126319000Y-153545500D01*
G37*
G36*
X124419000Y-153545500D02*
G01*
X123617000Y-153545500D01*
X123617000Y-152143500D01*
X124419000Y-152143500D01*
X124419000Y-153545500D01*
G37*
G36*
X128184000Y-153443000D02*
G01*
X126832000Y-153443000D01*
X126832000Y-152341000D01*
X128184000Y-152341000D01*
X128184000Y-153443000D01*
G37*
G36*
X106505000Y-152846000D02*
G01*
X104603000Y-152846000D01*
X104603000Y-148144000D01*
X106505000Y-148144000D01*
X106505000Y-152846000D01*
G37*
G36*
X115505000Y-152846000D02*
G01*
X113603000Y-152846000D01*
X113603000Y-148144000D01*
X115505000Y-148144000D01*
X115505000Y-152846000D01*
G37*
G36*
X119327139Y-152676039D02*
G01*
X118625141Y-152676039D01*
X118625141Y-151124039D01*
X119327139Y-151124039D01*
X119327139Y-152676039D01*
G37*
G36*
X116787139Y-152676039D02*
G01*
X116085141Y-152676039D01*
X116085141Y-151124039D01*
X116787139Y-151124039D01*
X116787139Y-152676039D01*
G37*
G36*
X118057139Y-152676039D02*
G01*
X117355141Y-152676039D01*
X117355141Y-151124039D01*
X118057139Y-151124039D01*
X118057139Y-152676039D01*
G37*
G36*
X120597139Y-152676039D02*
G01*
X119895141Y-152676039D01*
X119895141Y-151124039D01*
X120597139Y-151124039D01*
X120597139Y-152676039D01*
G37*
G36*
X126319000Y-151627800D02*
G01*
X125517000Y-151627800D01*
X125517000Y-150225800D01*
X126319000Y-150225800D01*
X126319000Y-151627800D01*
G37*
G36*
X124419000Y-151627800D02*
G01*
X123617000Y-151627800D01*
X123617000Y-150225800D01*
X124419000Y-150225800D01*
X124419000Y-151627800D01*
G37*
G36*
X128184000Y-151443000D02*
G01*
X126832000Y-151443000D01*
X126832000Y-150341000D01*
X128184000Y-150341000D01*
X128184000Y-151443000D01*
G37*
G36*
X92415000Y-151069000D02*
G01*
X91613000Y-151069000D01*
X91613000Y-149667000D01*
X92415000Y-149667000D01*
X92415000Y-151069000D01*
G37*
G36*
X94315000Y-151069000D02*
G01*
X93513000Y-151069000D01*
X93513000Y-149667000D01*
X94315000Y-149667000D01*
X94315000Y-151069000D01*
G37*
G36*
X95717000Y-151069000D02*
G01*
X94915000Y-151069000D01*
X94915000Y-149667000D01*
X95717000Y-149667000D01*
X95717000Y-151069000D01*
G37*
G36*
X97617000Y-151069000D02*
G01*
X96815000Y-151069000D01*
X96815000Y-149667000D01*
X97617000Y-149667000D01*
X97617000Y-151069000D01*
G37*
G36*
X121199000Y-150776000D02*
G01*
X119847000Y-150776000D01*
X119847000Y-149674000D01*
X121199000Y-149674000D01*
X121199000Y-150776000D01*
G37*
G36*
X102285000Y-150543000D02*
G01*
X100153000Y-150543000D01*
X100153000Y-147791000D01*
X102285000Y-147791000D01*
X102285000Y-150543000D01*
G37*
G36*
X126319000Y-149697400D02*
G01*
X125517000Y-149697400D01*
X125517000Y-148295400D01*
X126319000Y-148295400D01*
X126319000Y-149697400D01*
G37*
G36*
X124419000Y-149697400D02*
G01*
X123617000Y-149697400D01*
X123617000Y-148295400D01*
X124419000Y-148295400D01*
X124419000Y-149697400D01*
G37*
G36*
X133023955Y-147791000D02*
G01*
X133162221Y-147818502D01*
X133298622Y-147875001D01*
X133421379Y-147957025D01*
X133525775Y-148061421D01*
X133607799Y-148184178D01*
X133664298Y-148320579D01*
X133693100Y-148465381D01*
X133693100Y-148613019D01*
X133664298Y-148757821D01*
X133607799Y-148894222D01*
X133525775Y-149016979D01*
X133421379Y-149121375D01*
X133298622Y-149203399D01*
X133162221Y-149259898D01*
X133038025Y-149284601D01*
X133017420Y-149288700D01*
X132869780Y-149288700D01*
X132849175Y-149284601D01*
X132724979Y-149259898D01*
X132588578Y-149203399D01*
X132465821Y-149121375D01*
X132361425Y-149016979D01*
X132279401Y-148894222D01*
X132222902Y-148757821D01*
X132194100Y-148613019D01*
X132194100Y-148465381D01*
X132222902Y-148320579D01*
X132279401Y-148184178D01*
X132361425Y-148061421D01*
X132465821Y-147957025D01*
X132588578Y-147875001D01*
X132724979Y-147818502D01*
X132863245Y-147791000D01*
X132869780Y-147789700D01*
X133017420Y-147789700D01*
X133023955Y-147791000D01*
G37*
G36*
X130483955Y-147791000D02*
G01*
X130622221Y-147818502D01*
X130758622Y-147875001D01*
X130881379Y-147957025D01*
X130985775Y-148061421D01*
X131067799Y-148184178D01*
X131124298Y-148320579D01*
X131153100Y-148465381D01*
X131153100Y-148613019D01*
X131124298Y-148757821D01*
X131067799Y-148894222D01*
X130985775Y-149016979D01*
X130881379Y-149121375D01*
X130758622Y-149203399D01*
X130622221Y-149259898D01*
X130498025Y-149284601D01*
X130477420Y-149288700D01*
X130329780Y-149288700D01*
X130309175Y-149284601D01*
X130184979Y-149259898D01*
X130048578Y-149203399D01*
X129925821Y-149121375D01*
X129821425Y-149016979D01*
X129739401Y-148894222D01*
X129682902Y-148757821D01*
X129654100Y-148613019D01*
X129654100Y-148465381D01*
X129682902Y-148320579D01*
X129739401Y-148184178D01*
X129821425Y-148061421D01*
X129925821Y-147957025D01*
X130048578Y-147875001D01*
X130184979Y-147818502D01*
X130323245Y-147791000D01*
X130329780Y-147789700D01*
X130477420Y-147789700D01*
X130483955Y-147791000D01*
G37*
G36*
X121199000Y-148776000D02*
G01*
X119847000Y-148776000D01*
X119847000Y-147674000D01*
X121199000Y-147674000D01*
X121199000Y-148776000D01*
G37*
G36*
X124419000Y-147767000D02*
G01*
X123617000Y-147767000D01*
X123617000Y-146365000D01*
X124419000Y-146365000D01*
X124419000Y-147767000D01*
G37*
G36*
X126319000Y-147767000D02*
G01*
X125517000Y-147767000D01*
X125517000Y-146365000D01*
X126319000Y-146365000D01*
X126319000Y-147767000D01*
G37*
G36*
X119280000Y-147742000D02*
G01*
X118178000Y-147742000D01*
X118178000Y-146390000D01*
X119280000Y-146390000D01*
X119280000Y-147742000D01*
G37*
G36*
X117280000Y-147742000D02*
G01*
X116178000Y-147742000D01*
X116178000Y-146390000D01*
X117280000Y-146390000D01*
X117280000Y-147742000D01*
G37*
G36*
X151196000Y-147646000D02*
G01*
X149794000Y-147646000D01*
X149794000Y-146044000D01*
X151196000Y-146044000D01*
X151196000Y-147646000D01*
G37*
G36*
X148764000Y-147578000D02*
G01*
X148162000Y-147578000D01*
X148162000Y-146976000D01*
X148764000Y-146976000D01*
X148764000Y-147578000D01*
G37*
G36*
X153203000Y-146966000D02*
G01*
X151851000Y-146966000D01*
X151851000Y-145864000D01*
X153203000Y-145864000D01*
X153203000Y-146966000D01*
G37*
G36*
X159190000Y-146496000D02*
G01*
X156388000Y-146496000D01*
X156388000Y-145394000D01*
X159190000Y-145394000D01*
X159190000Y-146496000D01*
G37*
G36*
X119280000Y-145964000D02*
G01*
X118178000Y-145964000D01*
X118178000Y-144612000D01*
X119280000Y-144612000D01*
X119280000Y-145964000D01*
G37*
G36*
X117280000Y-145964000D02*
G01*
X116178000Y-145964000D01*
X116178000Y-144612000D01*
X117280000Y-144612000D01*
X117280000Y-145964000D01*
G37*
G36*
X104737000Y-145839000D02*
G01*
X103035000Y-145839000D01*
X103035000Y-144737000D01*
X104737000Y-144737000D01*
X104737000Y-145839000D01*
G37*
G36*
X148764000Y-145378000D02*
G01*
X148162000Y-145378000D01*
X148162000Y-144776000D01*
X148764000Y-144776000D01*
X148764000Y-145378000D01*
G37*
G36*
X101443000Y-145335000D02*
G01*
X100741000Y-145335000D01*
X100741000Y-144733000D01*
X101443000Y-144733000D01*
X101443000Y-145335000D01*
G37*
G36*
X102543000Y-145335000D02*
G01*
X101841000Y-145335000D01*
X101841000Y-144733000D01*
X102543000Y-144733000D01*
X102543000Y-145335000D01*
G37*
G36*
X153203000Y-144966000D02*
G01*
X151851000Y-144966000D01*
X151851000Y-143864000D01*
X153203000Y-143864000D01*
X153203000Y-144966000D01*
G37*
G36*
X151196000Y-144946000D02*
G01*
X149794000Y-144946000D01*
X149794000Y-143344000D01*
X151196000Y-143344000D01*
X151196000Y-144946000D01*
G37*
G36*
X155490000Y-144446000D02*
G01*
X153688000Y-144446000D01*
X153688000Y-143744000D01*
X155490000Y-143744000D01*
X155490000Y-144446000D01*
G37*
G36*
X122455540Y-143969700D02*
G01*
X121653540Y-143969700D01*
X121653540Y-142567700D01*
X122455540Y-142567700D01*
X122455540Y-143969700D01*
G37*
G36*
X124355540Y-143969700D02*
G01*
X123553540Y-143969700D01*
X123553540Y-142567700D01*
X124355540Y-142567700D01*
X124355540Y-143969700D01*
G37*
G36*
X121051000Y-143957000D02*
G01*
X120249000Y-143957000D01*
X120249000Y-142555000D01*
X121051000Y-142555000D01*
X121051000Y-143957000D01*
G37*
G36*
X119151000Y-143957000D02*
G01*
X118349000Y-143957000D01*
X118349000Y-142555000D01*
X119151000Y-142555000D01*
X119151000Y-143957000D01*
G37*
G36*
X98895100Y-143916600D02*
G01*
X95694300Y-143916600D01*
X95694300Y-142595400D01*
X98895100Y-142595400D01*
X98895100Y-143916600D01*
G37*
G36*
X93789700Y-143916600D02*
G01*
X90588900Y-143916600D01*
X90588900Y-142595400D01*
X93789700Y-142595400D01*
X93789700Y-143916600D01*
G37*
G36*
X155490000Y-143196000D02*
G01*
X153688000Y-143196000D01*
X153688000Y-142494000D01*
X155490000Y-142494000D01*
X155490000Y-143196000D01*
G37*
G36*
X155490000Y-141946000D02*
G01*
X153688000Y-141946000D01*
X153688000Y-141244000D01*
X155490000Y-141244000D01*
X155490000Y-141946000D01*
G37*
G36*
X103946600Y-141163000D02*
G01*
X103144600Y-141163000D01*
X103144600Y-139761000D01*
X103946600Y-139761000D01*
X103946600Y-141163000D01*
G37*
G36*
X105846600Y-141163000D02*
G01*
X105044600Y-141163000D01*
X105044600Y-139761000D01*
X105846600Y-139761000D01*
X105846600Y-141163000D01*
G37*
G36*
X100452500Y-141113000D02*
G01*
X99150500Y-141113000D01*
X99150500Y-139811000D01*
X100452500Y-139811000D01*
X100452500Y-141113000D01*
G37*
G36*
X102652500Y-141113000D02*
G01*
X101350500Y-141113000D01*
X101350500Y-139811000D01*
X102652500Y-139811000D01*
X102652500Y-141113000D01*
G37*
G36*
X155490000Y-140696000D02*
G01*
X153688000Y-140696000D01*
X153688000Y-139994000D01*
X155490000Y-139994000D01*
X155490000Y-140696000D01*
G37*
G36*
X155490000Y-139446000D02*
G01*
X153688000Y-139446000D01*
X153688000Y-138744000D01*
X155490000Y-138744000D01*
X155490000Y-139446000D01*
G37*
G36*
X155490000Y-138196000D02*
G01*
X153688000Y-138196000D01*
X153688000Y-137494000D01*
X155490000Y-137494000D01*
X155490000Y-138196000D01*
G37*
G36*
X128932000Y-137836000D02*
G01*
X127830000Y-137836000D01*
X127830000Y-136484000D01*
X128932000Y-136484000D01*
X128932000Y-137836000D01*
G37*
G36*
X126932000Y-137836000D02*
G01*
X125830000Y-137836000D01*
X125830000Y-136484000D01*
X126932000Y-136484000D01*
X126932000Y-137836000D01*
G37*
G36*
X142418483Y-136603619D02*
G01*
X141427119Y-137594983D01*
X140860019Y-137027883D01*
X141851383Y-136036519D01*
X142418483Y-136603619D01*
G37*
G36*
X159190000Y-136546000D02*
G01*
X156388000Y-136546000D01*
X156388000Y-135444000D01*
X159190000Y-135444000D01*
X159190000Y-136546000D01*
G37*
G36*
X117883880Y-136294420D02*
G01*
X117431880Y-136294420D01*
X117431880Y-135612420D01*
X117883880Y-135612420D01*
X117883880Y-136294420D01*
G37*
G36*
X143754483Y-135270119D02*
G01*
X142763119Y-136261483D01*
X142196019Y-135694383D01*
X143187383Y-134703019D01*
X143754483Y-135270119D01*
G37*
G36*
X141074981Y-135260117D02*
G01*
X140083617Y-136251481D01*
X139516517Y-135684381D01*
X140507881Y-134693017D01*
X141074981Y-135260117D01*
G37*
G36*
X127938501Y-136054001D02*
G01*
X126061499Y-136054001D01*
X126061499Y-134678998D01*
X126438499Y-134678998D01*
X126438499Y-135577002D01*
X126440901Y-135601388D01*
X126448014Y-135624837D01*
X126459565Y-135646448D01*
X126475110Y-135665390D01*
X126494052Y-135680935D01*
X126515663Y-135692486D01*
X126539112Y-135699599D01*
X126563498Y-135702001D01*
X127436502Y-135702001D01*
X127460888Y-135699599D01*
X127484337Y-135692486D01*
X127505948Y-135680935D01*
X127524890Y-135665390D01*
X127540435Y-135646448D01*
X127551986Y-135624837D01*
X127559099Y-135601388D01*
X127561501Y-135577002D01*
X127561501Y-134678998D01*
X127559099Y-134654612D01*
X127551986Y-134631163D01*
X127540435Y-134609552D01*
X127524890Y-134590610D01*
X127505948Y-134575065D01*
X127484337Y-134563514D01*
X127460888Y-134556401D01*
X127436502Y-134553999D01*
X126563498Y-134553999D01*
X126539112Y-134556401D01*
X126515663Y-134563514D01*
X126494052Y-134575065D01*
X126475110Y-134590610D01*
X126459565Y-134609552D01*
X126448014Y-134631163D01*
X126440901Y-134654612D01*
X126438499Y-134678998D01*
X126061499Y-134678998D01*
X126061499Y-134201999D01*
X127938501Y-134201999D01*
X127938501Y-136054001D01*
G37*
G36*
X119158880Y-135769420D02*
G01*
X118476880Y-135769420D01*
X118476880Y-132317420D01*
X119158880Y-132317420D01*
X119158880Y-135769420D01*
G37*
G36*
X116838880Y-135769420D02*
G01*
X116156880Y-135769420D01*
X116156880Y-132317420D01*
X116838880Y-132317420D01*
X116838880Y-135769420D01*
G37*
G36*
X113769500Y-135409000D02*
G01*
X112417500Y-135409000D01*
X112417500Y-134307000D01*
X113769500Y-134307000D01*
X113769500Y-135409000D01*
G37*
G36*
X115611000Y-135409000D02*
G01*
X114259000Y-135409000D01*
X114259000Y-134307000D01*
X115611000Y-134307000D01*
X115611000Y-135409000D01*
G37*
G36*
X131549500Y-135091500D02*
G01*
X130197500Y-135091500D01*
X130197500Y-133989500D01*
X131549500Y-133989500D01*
X131549500Y-135091500D01*
G37*
G36*
X129708000Y-135091500D02*
G01*
X128356000Y-135091500D01*
X128356000Y-133989500D01*
X129708000Y-133989500D01*
X129708000Y-135091500D01*
G37*
G36*
X142410981Y-133926617D02*
G01*
X141419617Y-134917981D01*
X140852517Y-134350881D01*
X141843881Y-133359517D01*
X142410981Y-133926617D01*
G37*
G36*
X83802098Y-129671033D02*
G01*
X84266350Y-129863332D01*
X84266352Y-129863333D01*
X84684168Y-130142509D01*
X85039491Y-130497832D01*
X85318667Y-130915648D01*
X85318668Y-130915650D01*
X85510967Y-131379902D01*
X85609000Y-131872747D01*
X85609000Y-132375253D01*
X85510967Y-132868098D01*
X85418431Y-133091500D01*
X85318667Y-133332352D01*
X85039491Y-133750168D01*
X84684168Y-134105491D01*
X84266352Y-134384667D01*
X84266351Y-134384668D01*
X84266350Y-134384668D01*
X83802098Y-134576967D01*
X83309253Y-134675000D01*
X82806747Y-134675000D01*
X82313902Y-134576967D01*
X81849650Y-134384668D01*
X81849649Y-134384668D01*
X81849648Y-134384667D01*
X81431832Y-134105491D01*
X81076509Y-133750168D01*
X80797333Y-133332352D01*
X80697569Y-133091500D01*
X80605033Y-132868098D01*
X80507000Y-132375253D01*
X80507000Y-131872747D01*
X80605033Y-131379902D01*
X80797332Y-130915650D01*
X80797333Y-130915648D01*
X81076509Y-130497832D01*
X81431832Y-130142509D01*
X81849648Y-129863333D01*
X81849650Y-129863332D01*
X82313902Y-129671033D01*
X82806747Y-129573000D01*
X83309253Y-129573000D01*
X83802098Y-129671033D01*
G37*
G36*
X106802098Y-129671033D02*
G01*
X107266350Y-129863332D01*
X107266352Y-129863333D01*
X107684168Y-130142509D01*
X108039491Y-130497832D01*
X108318667Y-130915648D01*
X108318668Y-130915650D01*
X108510967Y-131379902D01*
X108609000Y-131872747D01*
X108609000Y-132375253D01*
X108510967Y-132868098D01*
X108418431Y-133091500D01*
X108318667Y-133332352D01*
X108039491Y-133750168D01*
X107684168Y-134105491D01*
X107266352Y-134384667D01*
X107266351Y-134384668D01*
X107266350Y-134384668D01*
X106802098Y-134576967D01*
X106309253Y-134675000D01*
X105806747Y-134675000D01*
X105313902Y-134576967D01*
X104849650Y-134384668D01*
X104849649Y-134384668D01*
X104849648Y-134384667D01*
X104431832Y-134105491D01*
X104076509Y-133750168D01*
X103797333Y-133332352D01*
X103697569Y-133091500D01*
X103605033Y-132868098D01*
X103507000Y-132375253D01*
X103507000Y-131872747D01*
X103605033Y-131379902D01*
X103797332Y-130915650D01*
X103797333Y-130915648D01*
X104076509Y-130497832D01*
X104431832Y-130142509D01*
X104849648Y-129863333D01*
X104849650Y-129863332D01*
X105313902Y-129671033D01*
X105806747Y-129573000D01*
X106309253Y-129573000D01*
X106802098Y-129671033D01*
G37*
G36*
X153076000Y-133758000D02*
G01*
X151724000Y-133758000D01*
X151724000Y-132656000D01*
X153076000Y-132656000D01*
X153076000Y-133758000D01*
G37*
G36*
X113769500Y-133409000D02*
G01*
X112417500Y-133409000D01*
X112417500Y-132307000D01*
X113769500Y-132307000D01*
X113769500Y-133409000D01*
G37*
G36*
X115611000Y-133409000D02*
G01*
X114259000Y-133409000D01*
X114259000Y-132307000D01*
X115611000Y-132307000D01*
X115611000Y-133409000D01*
G37*
G36*
X159171000Y-133181000D02*
G01*
X156369000Y-133181000D01*
X156369000Y-132079000D01*
X159171000Y-132079000D01*
X159171000Y-133181000D01*
G37*
G36*
X131549500Y-133091500D02*
G01*
X130197500Y-133091500D01*
X130197500Y-131989500D01*
X131549500Y-131989500D01*
X131549500Y-133091500D01*
G37*
G36*
X129708000Y-133091500D02*
G01*
X128356000Y-133091500D01*
X128356000Y-131989500D01*
X129708000Y-131989500D01*
X129708000Y-133091500D01*
G37*
G36*
X117883880Y-132474420D02*
G01*
X117431880Y-132474420D01*
X117431880Y-131792420D01*
X117883880Y-131792420D01*
X117883880Y-132474420D01*
G37*
G36*
X149435000Y-132164000D02*
G01*
X146983000Y-132164000D01*
X146983000Y-130962000D01*
X149435000Y-130962000D01*
X149435000Y-132164000D01*
G37*
G36*
X153076000Y-131758000D02*
G01*
X151724000Y-131758000D01*
X151724000Y-130656000D01*
X153076000Y-130656000D01*
X153076000Y-131758000D01*
G37*
G36*
X155471000Y-131131000D02*
G01*
X153669000Y-131131000D01*
X153669000Y-130429000D01*
X155471000Y-130429000D01*
X155471000Y-131131000D01*
G37*
G36*
X151216000Y-129987000D02*
G01*
X150414000Y-129987000D01*
X150414000Y-128585000D01*
X151216000Y-128585000D01*
X151216000Y-129987000D01*
G37*
G36*
X153116000Y-129987000D02*
G01*
X152314000Y-129987000D01*
X152314000Y-128585000D01*
X153116000Y-128585000D01*
X153116000Y-129987000D01*
G37*
G36*
X155471000Y-129881000D02*
G01*
X153669000Y-129881000D01*
X153669000Y-129179000D01*
X155471000Y-129179000D01*
X155471000Y-129881000D01*
G37*
G36*
X119723100Y-129641800D02*
G01*
X118528900Y-129641800D01*
X118528900Y-128930200D01*
X119723100Y-128930200D01*
X119723100Y-129641800D01*
G37*
G36*
X117523100Y-129641800D02*
G01*
X116328900Y-129641800D01*
X116328900Y-128930200D01*
X117523100Y-128930200D01*
X117523100Y-129641800D01*
G37*
G36*
X155471000Y-128631000D02*
G01*
X153669000Y-128631000D01*
X153669000Y-127929000D01*
X155471000Y-127929000D01*
X155471000Y-128631000D01*
G37*
G36*
X119723100Y-128391800D02*
G01*
X118528900Y-128391800D01*
X118528900Y-127680200D01*
X119723100Y-127680200D01*
X119723100Y-128391800D01*
G37*
G36*
X117523100Y-128391800D02*
G01*
X116328900Y-128391800D01*
X116328900Y-127680200D01*
X117523100Y-127680200D01*
X117523100Y-128391800D01*
G37*
G36*
X115865000Y-128220800D02*
G01*
X114513000Y-128220800D01*
X114513000Y-127118800D01*
X115865000Y-127118800D01*
X115865000Y-128220800D01*
G37*
G36*
X151216000Y-128056600D02*
G01*
X150414000Y-128056600D01*
X150414000Y-126654600D01*
X151216000Y-126654600D01*
X151216000Y-128056600D01*
G37*
G36*
X153116000Y-128056600D02*
G01*
X152314000Y-128056600D01*
X152314000Y-126654600D01*
X153116000Y-126654600D01*
X153116000Y-128056600D01*
G37*
G36*
X84422425Y-126508599D02*
G01*
X84546621Y-126533302D01*
X84683022Y-126589801D01*
X84805779Y-126671825D01*
X84910175Y-126776221D01*
X84992199Y-126898978D01*
X85048698Y-127035379D01*
X85077500Y-127180181D01*
X85077500Y-127327819D01*
X85048698Y-127472621D01*
X84992199Y-127609022D01*
X84910175Y-127731779D01*
X84805779Y-127836175D01*
X84683022Y-127918199D01*
X84546621Y-127974698D01*
X84422425Y-127999401D01*
X84401820Y-128003500D01*
X84254180Y-128003500D01*
X84233575Y-127999401D01*
X84109379Y-127974698D01*
X83972978Y-127918199D01*
X83850221Y-127836175D01*
X83745825Y-127731779D01*
X83663801Y-127609022D01*
X83607302Y-127472621D01*
X83578500Y-127327819D01*
X83578500Y-127180181D01*
X83607302Y-127035379D01*
X83663801Y-126898978D01*
X83745825Y-126776221D01*
X83850221Y-126671825D01*
X83972978Y-126589801D01*
X84109379Y-126533302D01*
X84233575Y-126508599D01*
X84254180Y-126504500D01*
X84401820Y-126504500D01*
X84422425Y-126508599D01*
G37*
G36*
X81882425Y-126508599D02*
G01*
X82006621Y-126533302D01*
X82143022Y-126589801D01*
X82265779Y-126671825D01*
X82370175Y-126776221D01*
X82452199Y-126898978D01*
X82508698Y-127035379D01*
X82537500Y-127180181D01*
X82537500Y-127327819D01*
X82508698Y-127472621D01*
X82452199Y-127609022D01*
X82370175Y-127731779D01*
X82265779Y-127836175D01*
X82143022Y-127918199D01*
X82006621Y-127974698D01*
X81882425Y-127999401D01*
X81861820Y-128003500D01*
X81714180Y-128003500D01*
X81693575Y-127999401D01*
X81569379Y-127974698D01*
X81432978Y-127918199D01*
X81310221Y-127836175D01*
X81205825Y-127731779D01*
X81123801Y-127609022D01*
X81067302Y-127472621D01*
X81038500Y-127327819D01*
X81038500Y-127180181D01*
X81067302Y-127035379D01*
X81123801Y-126898978D01*
X81205825Y-126776221D01*
X81310221Y-126671825D01*
X81432978Y-126589801D01*
X81569379Y-126533302D01*
X81693575Y-126508599D01*
X81714180Y-126504500D01*
X81861820Y-126504500D01*
X81882425Y-126508599D01*
G37*
G36*
X149435000Y-127864000D02*
G01*
X146983000Y-127864000D01*
X146983000Y-126662000D01*
X149435000Y-126662000D01*
X149435000Y-127864000D01*
G37*
G36*
X103927000Y-127408000D02*
G01*
X102575000Y-127408000D01*
X102575000Y-126306000D01*
X103927000Y-126306000D01*
X103927000Y-127408000D01*
G37*
G36*
X105832000Y-127408000D02*
G01*
X104480000Y-127408000D01*
X104480000Y-126306000D01*
X105832000Y-126306000D01*
X105832000Y-127408000D01*
G37*
G36*
X155471000Y-127381000D02*
G01*
X153669000Y-127381000D01*
X153669000Y-126679000D01*
X155471000Y-126679000D01*
X155471000Y-127381000D01*
G37*
G36*
X102011000Y-127310000D02*
G01*
X100849000Y-127310000D01*
X100849000Y-126558000D01*
X102011000Y-126558000D01*
X102011000Y-127310000D01*
G37*
G36*
X99811000Y-127310000D02*
G01*
X98649000Y-127310000D01*
X98649000Y-124658000D01*
X99811000Y-124658000D01*
X99811000Y-127310000D01*
G37*
G36*
X119723100Y-127141800D02*
G01*
X118528900Y-127141800D01*
X118528900Y-126430200D01*
X119723100Y-126430200D01*
X119723100Y-127141800D01*
G37*
G36*
X117523100Y-127141800D02*
G01*
X116328900Y-127141800D01*
X116328900Y-126430200D01*
X117523100Y-126430200D01*
X117523100Y-127141800D01*
G37*
G36*
X92392700Y-126708100D02*
G01*
X91782700Y-126708100D01*
X91782700Y-126250500D01*
X92392700Y-126250500D01*
X92392700Y-126708100D01*
G37*
G36*
X87847000Y-126285000D02*
G01*
X87245000Y-126285000D01*
X87245000Y-125683000D01*
X87847000Y-125683000D01*
X87847000Y-126285000D01*
G37*
G36*
X90047000Y-126285000D02*
G01*
X89445000Y-126285000D01*
X89445000Y-125683000D01*
X90047000Y-125683000D01*
X90047000Y-126285000D01*
G37*
G36*
X115865000Y-126220800D02*
G01*
X114513000Y-126220800D01*
X114513000Y-125118800D01*
X115865000Y-125118800D01*
X115865000Y-126220800D01*
G37*
G36*
X91097300Y-126212800D02*
G01*
X90487300Y-126212800D01*
X90487300Y-125755200D01*
X91097300Y-125755200D01*
X91097300Y-126212800D01*
G37*
G36*
X117523100Y-125891800D02*
G01*
X116328900Y-125891800D01*
X116328900Y-125180200D01*
X117523100Y-125180200D01*
X117523100Y-125891800D01*
G37*
G36*
X119723100Y-125891800D02*
G01*
X118528900Y-125891800D01*
X118528900Y-125180200D01*
X119723100Y-125180200D01*
X119723100Y-125891800D01*
G37*
G36*
X159171000Y-125731000D02*
G01*
X156369000Y-125731000D01*
X156369000Y-124629000D01*
X159171000Y-124629000D01*
X159171000Y-125731000D01*
G37*
G36*
X92392700Y-125717500D02*
G01*
X91782700Y-125717500D01*
X91782700Y-125259900D01*
X92392700Y-125259900D01*
X92392700Y-125717500D01*
G37*
G36*
X97833000Y-125644000D02*
G01*
X96731000Y-125644000D01*
X96731000Y-124292000D01*
X97833000Y-124292000D01*
X97833000Y-125644000D01*
G37*
G36*
X95833000Y-125644000D02*
G01*
X94731000Y-125644000D01*
X94731000Y-124292000D01*
X95833000Y-124292000D01*
X95833000Y-125644000D01*
G37*
G36*
X84422425Y-123968599D02*
G01*
X84546621Y-123993302D01*
X84683022Y-124049801D01*
X84805779Y-124131825D01*
X84910175Y-124236221D01*
X84992199Y-124358978D01*
X85048698Y-124495379D01*
X85077500Y-124640181D01*
X85077500Y-124787819D01*
X85048698Y-124932621D01*
X84992199Y-125069022D01*
X84910175Y-125191779D01*
X84805779Y-125296175D01*
X84683022Y-125378199D01*
X84546621Y-125434698D01*
X84422425Y-125459401D01*
X84401820Y-125463500D01*
X84254180Y-125463500D01*
X84233575Y-125459401D01*
X84109379Y-125434698D01*
X83972978Y-125378199D01*
X83850221Y-125296175D01*
X83745825Y-125191779D01*
X83663801Y-125069022D01*
X83607302Y-124932621D01*
X83578500Y-124787819D01*
X83578500Y-124640181D01*
X83607302Y-124495379D01*
X83663801Y-124358978D01*
X83745825Y-124236221D01*
X83850221Y-124131825D01*
X83972978Y-124049801D01*
X84109379Y-123993302D01*
X84233575Y-123968599D01*
X84254180Y-123964500D01*
X84401820Y-123964500D01*
X84422425Y-123968599D01*
G37*
G36*
X81882425Y-123968599D02*
G01*
X82006621Y-123993302D01*
X82143022Y-124049801D01*
X82265779Y-124131825D01*
X82370175Y-124236221D01*
X82452199Y-124358978D01*
X82508698Y-124495379D01*
X82537500Y-124640181D01*
X82537500Y-124787819D01*
X82508698Y-124932621D01*
X82452199Y-125069022D01*
X82370175Y-125191779D01*
X82265779Y-125296175D01*
X82143022Y-125378199D01*
X82006621Y-125434698D01*
X81882425Y-125459401D01*
X81861820Y-125463500D01*
X81714180Y-125463500D01*
X81693575Y-125459401D01*
X81569379Y-125434698D01*
X81432978Y-125378199D01*
X81310221Y-125296175D01*
X81205825Y-125191779D01*
X81123801Y-125069022D01*
X81067302Y-124932621D01*
X81038500Y-124787819D01*
X81038500Y-124640181D01*
X81067302Y-124495379D01*
X81123801Y-124358978D01*
X81205825Y-124236221D01*
X81310221Y-124131825D01*
X81432978Y-124049801D01*
X81569379Y-123993302D01*
X81693575Y-123968599D01*
X81714180Y-123964500D01*
X81861820Y-123964500D01*
X81882425Y-123968599D01*
G37*
G36*
X102011000Y-125410000D02*
G01*
X100849000Y-125410000D01*
X100849000Y-124658000D01*
X102011000Y-124658000D01*
X102011000Y-125410000D01*
G37*
G36*
X103927000Y-125408000D02*
G01*
X102575000Y-125408000D01*
X102575000Y-124306000D01*
X103927000Y-124306000D01*
X103927000Y-125408000D01*
G37*
G36*
X105832000Y-125408000D02*
G01*
X104480000Y-125408000D01*
X104480000Y-124306000D01*
X105832000Y-124306000D01*
X105832000Y-125408000D01*
G37*
G36*
X99384000Y-123779000D02*
G01*
X98482000Y-123779000D01*
X98482000Y-123077000D01*
X99384000Y-123077000D01*
X99384000Y-123779000D01*
G37*
G36*
X102047000Y-123779000D02*
G01*
X100645000Y-123779000D01*
X100645000Y-122977000D01*
X102047000Y-122977000D01*
X102047000Y-123779000D01*
G37*
G36*
X84422425Y-121428599D02*
G01*
X84546621Y-121453302D01*
X84683022Y-121509801D01*
X84805779Y-121591825D01*
X84910175Y-121696221D01*
X84992199Y-121818978D01*
X85048698Y-121955379D01*
X85077500Y-122100181D01*
X85077500Y-122247819D01*
X85048698Y-122392621D01*
X84992199Y-122529022D01*
X84910175Y-122651779D01*
X84805779Y-122756175D01*
X84683022Y-122838199D01*
X84546621Y-122894698D01*
X84422425Y-122919401D01*
X84401820Y-122923500D01*
X84254180Y-122923500D01*
X84233575Y-122919401D01*
X84109379Y-122894698D01*
X83972978Y-122838199D01*
X83850221Y-122756175D01*
X83745825Y-122651779D01*
X83663801Y-122529022D01*
X83607302Y-122392621D01*
X83578500Y-122247819D01*
X83578500Y-122100181D01*
X83607302Y-121955379D01*
X83663801Y-121818978D01*
X83745825Y-121696221D01*
X83850221Y-121591825D01*
X83972978Y-121509801D01*
X84109379Y-121453302D01*
X84233575Y-121428599D01*
X84254180Y-121424500D01*
X84401820Y-121424500D01*
X84422425Y-121428599D01*
G37*
G36*
X81882425Y-121428599D02*
G01*
X82006621Y-121453302D01*
X82143022Y-121509801D01*
X82265779Y-121591825D01*
X82370175Y-121696221D01*
X82452199Y-121818978D01*
X82508698Y-121955379D01*
X82537500Y-122100181D01*
X82537500Y-122247819D01*
X82508698Y-122392621D01*
X82452199Y-122529022D01*
X82370175Y-122651779D01*
X82265779Y-122756175D01*
X82143022Y-122838199D01*
X82006621Y-122894698D01*
X81882425Y-122919401D01*
X81861820Y-122923500D01*
X81714180Y-122923500D01*
X81693575Y-122919401D01*
X81569379Y-122894698D01*
X81432978Y-122838199D01*
X81310221Y-122756175D01*
X81205825Y-122651779D01*
X81123801Y-122529022D01*
X81067302Y-122392621D01*
X81038500Y-122247819D01*
X81038500Y-122100181D01*
X81067302Y-121955379D01*
X81123801Y-121818978D01*
X81205825Y-121696221D01*
X81310221Y-121591825D01*
X81432978Y-121509801D01*
X81569379Y-121453302D01*
X81693575Y-121428599D01*
X81714180Y-121424500D01*
X81861820Y-121424500D01*
X81882425Y-121428599D01*
G37*
G36*
X99934000Y-122779000D02*
G01*
X97932000Y-122779000D01*
X97932000Y-122077000D01*
X99934000Y-122077000D01*
X99934000Y-122779000D01*
G37*
G36*
X159215202Y-122396701D02*
G01*
X156233204Y-122396701D01*
X156233204Y-121202501D01*
X159215202Y-121202501D01*
X159215202Y-122396701D01*
G37*
G36*
X102047000Y-121879000D02*
G01*
X100645000Y-121879000D01*
X100645000Y-121077000D01*
X102047000Y-121077000D01*
X102047000Y-121879000D01*
G37*
G36*
X99384000Y-121779000D02*
G01*
X98482000Y-121779000D01*
X98482000Y-121077000D01*
X99384000Y-121077000D01*
X99384000Y-121779000D01*
G37*
G36*
X123367727Y-120252719D02*
G01*
X122411719Y-121208727D01*
X121632487Y-120429495D01*
X122588495Y-119473487D01*
X123367727Y-120252719D01*
G37*
G36*
X148046000Y-121072000D02*
G01*
X145594000Y-121072000D01*
X145594000Y-119870000D01*
X148046000Y-119870000D01*
X148046000Y-121072000D01*
G37*
G36*
X150589000Y-120990500D02*
G01*
X149787000Y-120990500D01*
X149787000Y-119588500D01*
X150589000Y-119588500D01*
X150589000Y-120990500D01*
G37*
G36*
X152489000Y-120990500D02*
G01*
X151687000Y-120990500D01*
X151687000Y-119588500D01*
X152489000Y-119588500D01*
X152489000Y-120990500D01*
G37*
G36*
X116899000Y-120564000D02*
G01*
X115797000Y-120564000D01*
X115797000Y-119212000D01*
X116899000Y-119212000D01*
X116899000Y-120564000D01*
G37*
G36*
X118899000Y-120564000D02*
G01*
X117797000Y-120564000D01*
X117797000Y-119212000D01*
X118899000Y-119212000D01*
X118899000Y-120564000D01*
G37*
G36*
X81882425Y-118888599D02*
G01*
X82006621Y-118913302D01*
X82143022Y-118969801D01*
X82265779Y-119051825D01*
X82370175Y-119156221D01*
X82452199Y-119278978D01*
X82508698Y-119415379D01*
X82537500Y-119560181D01*
X82537500Y-119707819D01*
X82508698Y-119852621D01*
X82452199Y-119989022D01*
X82370175Y-120111779D01*
X82265779Y-120216175D01*
X82143022Y-120298199D01*
X82006621Y-120354698D01*
X81882425Y-120379401D01*
X81861820Y-120383500D01*
X81714180Y-120383500D01*
X81693575Y-120379401D01*
X81569379Y-120354698D01*
X81432978Y-120298199D01*
X81310221Y-120216175D01*
X81205825Y-120111779D01*
X81123801Y-119989022D01*
X81067302Y-119852621D01*
X81038500Y-119707819D01*
X81038500Y-119560181D01*
X81067302Y-119415379D01*
X81123801Y-119278978D01*
X81205825Y-119156221D01*
X81310221Y-119051825D01*
X81432978Y-118969801D01*
X81569379Y-118913302D01*
X81693575Y-118888599D01*
X81714180Y-118884500D01*
X81861820Y-118884500D01*
X81882425Y-118888599D01*
G37*
G36*
X84422425Y-118888599D02*
G01*
X84546621Y-118913302D01*
X84683022Y-118969801D01*
X84805779Y-119051825D01*
X84910175Y-119156221D01*
X84992199Y-119278978D01*
X85048698Y-119415379D01*
X85077500Y-119560181D01*
X85077500Y-119707819D01*
X85048698Y-119852621D01*
X84992199Y-119989022D01*
X84910175Y-120111779D01*
X84805779Y-120216175D01*
X84683022Y-120298199D01*
X84546621Y-120354698D01*
X84422425Y-120379401D01*
X84401820Y-120383500D01*
X84254180Y-120383500D01*
X84233575Y-120379401D01*
X84109379Y-120354698D01*
X83972978Y-120298199D01*
X83850221Y-120216175D01*
X83745825Y-120111779D01*
X83663801Y-119989022D01*
X83607302Y-119852621D01*
X83578500Y-119707819D01*
X83578500Y-119560181D01*
X83607302Y-119415379D01*
X83663801Y-119278978D01*
X83745825Y-119156221D01*
X83850221Y-119051825D01*
X83972978Y-118969801D01*
X84109379Y-118913302D01*
X84233575Y-118888599D01*
X84254180Y-118884500D01*
X84401820Y-118884500D01*
X84422425Y-118888599D01*
G37*
G36*
X155476902Y-120330800D02*
G01*
X153571502Y-120330800D01*
X153571502Y-119568400D01*
X155476902Y-119568400D01*
X155476902Y-120330800D01*
G37*
G36*
X124637727Y-118982719D02*
G01*
X123681719Y-119938727D01*
X122902487Y-119159495D01*
X123858495Y-118203487D01*
X124637727Y-118982719D01*
G37*
G36*
X121953513Y-118838505D02*
G01*
X120997505Y-119794513D01*
X120218273Y-119015281D01*
X121174281Y-118059273D01*
X121953513Y-118838505D01*
G37*
G36*
X150589000Y-119085500D02*
G01*
X149787000Y-119085500D01*
X149787000Y-117683500D01*
X150589000Y-117683500D01*
X150589000Y-119085500D01*
G37*
G36*
X152489000Y-119085500D02*
G01*
X151687000Y-119085500D01*
X151687000Y-117683500D01*
X152489000Y-117683500D01*
X152489000Y-119085500D01*
G37*
G36*
X155476902Y-119080800D02*
G01*
X153571502Y-119080800D01*
X153571502Y-118318400D01*
X155476902Y-118318400D01*
X155476902Y-119080800D01*
G37*
G36*
X118872200Y-118592800D02*
G01*
X117932000Y-118592800D01*
X117932000Y-117195400D01*
X118872200Y-117195400D01*
X118872200Y-118592800D01*
G37*
G36*
X117272000Y-118592800D02*
G01*
X116331800Y-118592800D01*
X116331800Y-117195400D01*
X117272000Y-117195400D01*
X117272000Y-118592800D01*
G37*
G36*
X123223513Y-117568505D02*
G01*
X122267505Y-118524513D01*
X121488273Y-117745281D01*
X122444281Y-116789273D01*
X123223513Y-117568505D01*
G37*
G36*
X81882425Y-116348599D02*
G01*
X82006621Y-116373302D01*
X82143022Y-116429801D01*
X82265779Y-116511825D01*
X82370175Y-116616221D01*
X82452199Y-116738978D01*
X82508698Y-116875379D01*
X82537500Y-117020181D01*
X82537500Y-117167819D01*
X82508698Y-117312621D01*
X82452199Y-117449022D01*
X82370175Y-117571779D01*
X82265779Y-117676175D01*
X82143022Y-117758199D01*
X82006621Y-117814698D01*
X81890058Y-117837883D01*
X81861820Y-117843500D01*
X81714180Y-117843500D01*
X81685942Y-117837883D01*
X81569379Y-117814698D01*
X81432978Y-117758199D01*
X81310221Y-117676175D01*
X81205825Y-117571779D01*
X81123801Y-117449022D01*
X81067302Y-117312621D01*
X81038500Y-117167819D01*
X81038500Y-117020181D01*
X81067302Y-116875379D01*
X81123801Y-116738978D01*
X81205825Y-116616221D01*
X81310221Y-116511825D01*
X81432978Y-116429801D01*
X81569379Y-116373302D01*
X81693575Y-116348599D01*
X81714180Y-116344500D01*
X81861820Y-116344500D01*
X81882425Y-116348599D01*
G37*
G36*
X84422425Y-116348599D02*
G01*
X84546621Y-116373302D01*
X84683022Y-116429801D01*
X84805779Y-116511825D01*
X84910175Y-116616221D01*
X84992199Y-116738978D01*
X85048698Y-116875379D01*
X85077500Y-117020181D01*
X85077500Y-117167819D01*
X85048698Y-117312621D01*
X84992199Y-117449022D01*
X84910175Y-117571779D01*
X84805779Y-117676175D01*
X84683022Y-117758199D01*
X84546621Y-117814698D01*
X84430058Y-117837883D01*
X84401820Y-117843500D01*
X84254180Y-117843500D01*
X84225942Y-117837883D01*
X84109379Y-117814698D01*
X83972978Y-117758199D01*
X83850221Y-117676175D01*
X83745825Y-117571779D01*
X83663801Y-117449022D01*
X83607302Y-117312621D01*
X83578500Y-117167819D01*
X83578500Y-117020181D01*
X83607302Y-116875379D01*
X83663801Y-116738978D01*
X83745825Y-116616221D01*
X83850221Y-116511825D01*
X83972978Y-116429801D01*
X84109379Y-116373302D01*
X84233575Y-116348599D01*
X84254180Y-116344500D01*
X84401820Y-116344500D01*
X84422425Y-116348599D01*
G37*
G36*
X137141884Y-109082487D02*
G01*
X136299719Y-109924652D01*
X136169611Y-110054761D01*
X135722721Y-110501651D01*
X135374117Y-110850254D01*
X134662060Y-111562311D01*
X134401844Y-111822528D01*
X133954954Y-112269418D01*
X133606350Y-112618021D01*
X131833633Y-114390738D01*
X131573417Y-114650955D01*
X131126527Y-115097845D01*
X130777923Y-115446448D01*
X130065866Y-116158505D01*
X129805650Y-116418722D01*
X129358760Y-116865612D01*
X129010156Y-117214215D01*
X128740041Y-117484330D01*
X128386488Y-117837884D01*
X128386487Y-117837884D01*
X127211276Y-116662673D01*
X127481391Y-116392558D01*
X127481392Y-116392559D01*
X127564831Y-116309120D01*
X127564830Y-116309119D01*
X127834945Y-116039004D01*
X127834946Y-116039005D01*
X127918384Y-115955567D01*
X127918383Y-115955566D01*
X128188498Y-115685451D01*
X128188499Y-115685452D01*
X128276876Y-115597074D01*
X128542052Y-115331898D01*
X128625491Y-115248460D01*
X128625490Y-115248459D01*
X128895605Y-114978344D01*
X128895606Y-114978345D01*
X128979044Y-114894907D01*
X128979043Y-114894906D01*
X129249158Y-114624791D01*
X129249159Y-114624792D01*
X129332598Y-114541353D01*
X129332597Y-114541352D01*
X129602712Y-114271237D01*
X129602713Y-114271238D01*
X129686151Y-114187800D01*
X129686150Y-114187799D01*
X129956265Y-113917684D01*
X129956266Y-113917685D01*
X130044643Y-113829307D01*
X130309819Y-113564131D01*
X130393258Y-113480693D01*
X130393257Y-113480692D01*
X130663372Y-113210577D01*
X130663373Y-113210578D01*
X130746811Y-113127140D01*
X130746810Y-113127139D01*
X131016925Y-112857024D01*
X131016926Y-112857025D01*
X131100365Y-112773586D01*
X131100364Y-112773585D01*
X131370479Y-112503470D01*
X131370480Y-112503471D01*
X131453918Y-112420033D01*
X131453917Y-112420032D01*
X131724032Y-112149917D01*
X131724033Y-112149918D01*
X131807471Y-112066480D01*
X131807470Y-112066479D01*
X132077585Y-111796364D01*
X132077586Y-111796365D01*
X132161025Y-111712926D01*
X132161024Y-111712925D01*
X132431139Y-111442810D01*
X132431140Y-111442811D01*
X132514578Y-111359373D01*
X132514577Y-111359372D01*
X132784692Y-111089257D01*
X132784693Y-111089258D01*
X132873070Y-111000880D01*
X133138246Y-110735704D01*
X133221685Y-110652266D01*
X133221684Y-110652265D01*
X133491799Y-110382150D01*
X133491800Y-110382151D01*
X133575238Y-110298713D01*
X133575237Y-110298712D01*
X133845352Y-110028597D01*
X133845353Y-110028598D01*
X133928792Y-109945159D01*
X133928791Y-109945158D01*
X134198906Y-109675043D01*
X134198907Y-109675044D01*
X134282345Y-109591606D01*
X134282344Y-109591605D01*
X134552459Y-109321490D01*
X134552460Y-109321491D01*
X134640837Y-109233113D01*
X134906013Y-108967937D01*
X134989452Y-108884499D01*
X134989451Y-108884498D01*
X135259566Y-108614383D01*
X135259567Y-108614384D01*
X135343005Y-108530946D01*
X135343004Y-108530945D01*
X135613119Y-108260830D01*
X135613120Y-108260831D01*
X135696559Y-108177392D01*
X135696558Y-108177391D01*
X135966673Y-107907276D01*
X137141884Y-109082487D01*
G37*
G36*
X117795442Y-108177391D02*
G01*
X117795442Y-108177392D01*
X117878881Y-108260831D01*
X117878881Y-108260830D01*
X118148996Y-108530945D01*
X118148996Y-108530946D01*
X118232434Y-108614384D01*
X118232434Y-108614383D01*
X118502549Y-108884498D01*
X118502549Y-108884499D01*
X118939541Y-109321491D01*
X118939541Y-109321490D01*
X119209656Y-109591605D01*
X119209656Y-109591606D01*
X119293094Y-109675044D01*
X119293094Y-109675043D01*
X119563209Y-109945158D01*
X119563209Y-109945159D01*
X119646648Y-110028598D01*
X119646648Y-110028597D01*
X119916763Y-110298712D01*
X119916763Y-110298713D01*
X120000201Y-110382151D01*
X120000201Y-110382150D01*
X120270316Y-110652265D01*
X120270316Y-110652266D01*
X120707308Y-111089258D01*
X120707308Y-111089257D01*
X120977423Y-111359372D01*
X120977423Y-111359373D01*
X121060861Y-111442811D01*
X121060861Y-111442810D01*
X121330976Y-111712925D01*
X121330976Y-111712926D01*
X121414415Y-111796365D01*
X121414415Y-111796364D01*
X121684530Y-112066479D01*
X121684530Y-112066480D01*
X121767968Y-112149918D01*
X121767968Y-112149917D01*
X122038083Y-112420032D01*
X122038083Y-112420033D01*
X122121521Y-112503471D01*
X122121521Y-112503470D01*
X122391636Y-112773585D01*
X122391636Y-112773586D01*
X122475075Y-112857025D01*
X122475075Y-112857024D01*
X122745190Y-113127139D01*
X122745190Y-113127140D01*
X122828628Y-113210578D01*
X122828628Y-113210577D01*
X123098743Y-113480692D01*
X123098743Y-113480693D01*
X123535735Y-113917685D01*
X123535735Y-113917684D01*
X123805850Y-114187799D01*
X123805850Y-114187800D01*
X123889288Y-114271238D01*
X123889288Y-114271237D01*
X124159403Y-114541352D01*
X124159403Y-114541353D01*
X124242842Y-114624792D01*
X124242842Y-114624791D01*
X124512957Y-114894906D01*
X124512957Y-114894907D01*
X124596395Y-114978345D01*
X124596395Y-114978344D01*
X124866510Y-115248459D01*
X124866510Y-115248460D01*
X125303502Y-115685452D01*
X125303502Y-115685451D01*
X125573617Y-115955566D01*
X125573617Y-115955567D01*
X125657055Y-116039005D01*
X125657055Y-116039004D01*
X125927170Y-116309119D01*
X125927170Y-116309120D01*
X126010609Y-116392559D01*
X126010609Y-116392558D01*
X126280724Y-116662673D01*
X125105513Y-117837884D01*
X124835398Y-117567769D01*
X124835399Y-117567769D01*
X124751960Y-117484330D01*
X124751959Y-117484330D01*
X124481844Y-117214215D01*
X124481845Y-117214215D01*
X124398407Y-117130777D01*
X124398406Y-117130777D01*
X124044853Y-116777224D01*
X124044852Y-116777224D01*
X123774737Y-116507109D01*
X123774738Y-116507109D01*
X123421184Y-116153555D01*
X123421185Y-116153555D01*
X123337747Y-116070117D01*
X123337746Y-116070117D01*
X123067631Y-115800002D01*
X123067632Y-115800002D01*
X122984193Y-115716563D01*
X122984192Y-115716563D01*
X122714077Y-115446448D01*
X122714078Y-115446448D01*
X122630640Y-115363010D01*
X122630639Y-115363010D01*
X122277086Y-115009457D01*
X122277085Y-115009457D01*
X122006970Y-114739342D01*
X122006971Y-114739342D01*
X121653417Y-114385788D01*
X121653418Y-114385788D01*
X121569980Y-114302350D01*
X121569979Y-114302350D01*
X121299864Y-114032235D01*
X121299865Y-114032235D01*
X121216426Y-113948796D01*
X121216425Y-113948796D01*
X120946310Y-113678681D01*
X120946311Y-113678681D01*
X120862873Y-113595243D01*
X120862872Y-113595243D01*
X120592757Y-113325128D01*
X120592758Y-113325128D01*
X120509320Y-113241690D01*
X120509319Y-113241690D01*
X120239204Y-112971575D01*
X120239205Y-112971575D01*
X120155766Y-112888136D01*
X120155765Y-112888136D01*
X119885650Y-112618021D01*
X119885651Y-112618021D01*
X119802213Y-112534583D01*
X119802212Y-112534583D01*
X119448659Y-112181030D01*
X119448658Y-112181030D01*
X119178543Y-111910915D01*
X119178544Y-111910915D01*
X118824990Y-111557361D01*
X118824991Y-111557361D01*
X118741553Y-111473923D01*
X118741552Y-111473923D01*
X118471437Y-111203808D01*
X118471438Y-111203808D01*
X118387999Y-111120369D01*
X118387998Y-111120369D01*
X118117883Y-110850254D01*
X118117884Y-110850254D01*
X118034446Y-110766816D01*
X118034445Y-110766816D01*
X117680892Y-110413263D01*
X117680891Y-110413263D01*
X117410776Y-110143148D01*
X117410777Y-110143148D01*
X117057223Y-109789594D01*
X117057224Y-109789594D01*
X116973786Y-109706156D01*
X116973785Y-109706156D01*
X116703670Y-109436041D01*
X116703671Y-109436041D01*
X116620232Y-109352602D01*
X116620231Y-109352602D01*
X116350116Y-109082487D01*
X117525327Y-107907276D01*
X117795442Y-108177391D01*
G37*
G36*
X155476902Y-117830800D02*
G01*
X153571502Y-117830800D01*
X153571502Y-117068400D01*
X155476902Y-117068400D01*
X155476902Y-117830800D01*
G37*
G36*
X115738000Y-117629000D02*
G01*
X114386000Y-117629000D01*
X114386000Y-116527000D01*
X115738000Y-116527000D01*
X115738000Y-117629000D01*
G37*
G36*
X148046000Y-116772000D02*
G01*
X145594000Y-116772000D01*
X145594000Y-115570000D01*
X148046000Y-115570000D01*
X148046000Y-116772000D01*
G37*
G36*
X155476902Y-116580800D02*
G01*
X153571502Y-116580800D01*
X153571502Y-115818400D01*
X155476902Y-115818400D01*
X155476902Y-116580800D01*
G37*
G36*
X151006000Y-116328000D02*
G01*
X149654000Y-116328000D01*
X149654000Y-115226000D01*
X151006000Y-115226000D01*
X151006000Y-116328000D01*
G37*
G36*
X152911000Y-116328000D02*
G01*
X151559000Y-116328000D01*
X151559000Y-115226000D01*
X152911000Y-115226000D01*
X152911000Y-116328000D01*
G37*
G36*
X117272000Y-115976600D02*
G01*
X116331800Y-115976600D01*
X116331800Y-114579200D01*
X117272000Y-114579200D01*
X117272000Y-115976600D01*
G37*
G36*
X118872200Y-115976600D02*
G01*
X117932000Y-115976600D01*
X117932000Y-114579200D01*
X118872200Y-114579200D01*
X118872200Y-115976600D01*
G37*
G36*
X107610000Y-115867000D02*
G01*
X106258000Y-115867000D01*
X106258000Y-114765000D01*
X107610000Y-114765000D01*
X107610000Y-115867000D01*
G37*
G36*
X109239000Y-115848000D02*
G01*
X108337000Y-115848000D01*
X108337000Y-114846000D01*
X109239000Y-114846000D01*
X109239000Y-115848000D01*
G37*
G36*
X111139000Y-115848000D02*
G01*
X110237000Y-115848000D01*
X110237000Y-114846000D01*
X111139000Y-114846000D01*
X111139000Y-115848000D01*
G37*
G36*
X115738000Y-115629000D02*
G01*
X114386000Y-115629000D01*
X114386000Y-114527000D01*
X115738000Y-114527000D01*
X115738000Y-115629000D01*
G37*
G36*
X155476902Y-115330800D02*
G01*
X153571502Y-115330800D01*
X153571502Y-114568400D01*
X155476902Y-114568400D01*
X155476902Y-115330800D01*
G37*
G36*
X81882425Y-113808599D02*
G01*
X82006621Y-113833302D01*
X82143022Y-113889801D01*
X82265779Y-113971825D01*
X82370175Y-114076221D01*
X82452199Y-114198978D01*
X82508698Y-114335379D01*
X82537500Y-114480181D01*
X82537500Y-114627819D01*
X82508698Y-114772621D01*
X82452199Y-114909022D01*
X82370175Y-115031779D01*
X82265779Y-115136175D01*
X82143022Y-115218199D01*
X82006621Y-115274698D01*
X81882425Y-115299401D01*
X81861820Y-115303500D01*
X81714180Y-115303500D01*
X81693575Y-115299401D01*
X81569379Y-115274698D01*
X81432978Y-115218199D01*
X81310221Y-115136175D01*
X81205825Y-115031779D01*
X81123801Y-114909022D01*
X81067302Y-114772621D01*
X81038500Y-114627819D01*
X81038500Y-114480181D01*
X81067302Y-114335379D01*
X81123801Y-114198978D01*
X81205825Y-114076221D01*
X81310221Y-113971825D01*
X81432978Y-113889801D01*
X81569379Y-113833302D01*
X81693575Y-113808599D01*
X81714180Y-113804500D01*
X81861820Y-113804500D01*
X81882425Y-113808599D01*
G37*
G36*
X84422425Y-113808599D02*
G01*
X84546621Y-113833302D01*
X84683022Y-113889801D01*
X84805779Y-113971825D01*
X84910175Y-114076221D01*
X84992199Y-114198978D01*
X85048698Y-114335379D01*
X85077500Y-114480181D01*
X85077500Y-114627819D01*
X85048698Y-114772621D01*
X84992199Y-114909022D01*
X84910175Y-115031779D01*
X84805779Y-115136175D01*
X84683022Y-115218199D01*
X84546621Y-115274698D01*
X84422425Y-115299401D01*
X84401820Y-115303500D01*
X84254180Y-115303500D01*
X84233575Y-115299401D01*
X84109379Y-115274698D01*
X83972978Y-115218199D01*
X83850221Y-115136175D01*
X83745825Y-115031779D01*
X83663801Y-114909022D01*
X83607302Y-114772621D01*
X83578500Y-114627819D01*
X83578500Y-114480181D01*
X83607302Y-114335379D01*
X83663801Y-114198978D01*
X83745825Y-114076221D01*
X83850221Y-113971825D01*
X83972978Y-113889801D01*
X84109379Y-113833302D01*
X84233575Y-113808599D01*
X84254180Y-113804500D01*
X84401820Y-113804500D01*
X84422425Y-113808599D01*
G37*
G36*
X104470468Y-113766065D02*
G01*
X104509138Y-113777796D01*
X104544777Y-113796846D01*
X104576017Y-113822483D01*
X104601654Y-113853723D01*
X104620704Y-113889362D01*
X104632435Y-113928032D01*
X104637000Y-113974388D01*
X104637000Y-114625612D01*
X104632435Y-114671968D01*
X104620704Y-114710638D01*
X104601654Y-114746277D01*
X104576017Y-114777517D01*
X104544777Y-114803154D01*
X104509138Y-114822204D01*
X104470468Y-114833935D01*
X104424112Y-114838500D01*
X103347888Y-114838500D01*
X103301532Y-114833935D01*
X103262862Y-114822204D01*
X103227223Y-114803154D01*
X103195983Y-114777517D01*
X103170346Y-114746277D01*
X103151296Y-114710638D01*
X103139565Y-114671968D01*
X103135000Y-114625612D01*
X103135000Y-113974388D01*
X103139565Y-113928032D01*
X103151296Y-113889362D01*
X103170346Y-113853723D01*
X103195983Y-113822483D01*
X103227223Y-113796846D01*
X103262862Y-113777796D01*
X103301532Y-113766065D01*
X103347888Y-113761500D01*
X104424112Y-113761500D01*
X104470468Y-113766065D01*
G37*
G36*
X151006000Y-114328000D02*
G01*
X149654000Y-114328000D01*
X149654000Y-113226000D01*
X151006000Y-113226000D01*
X151006000Y-114328000D01*
G37*
G36*
X152911000Y-114328000D02*
G01*
X151559000Y-114328000D01*
X151559000Y-113226000D01*
X152911000Y-113226000D01*
X152911000Y-114328000D01*
G37*
G36*
X140766727Y-113013719D02*
G01*
X139810719Y-113969727D01*
X139031487Y-113190495D01*
X139987495Y-112234487D01*
X140766727Y-113013719D01*
G37*
G36*
X107610000Y-113867000D02*
G01*
X106258000Y-113867000D01*
X106258000Y-112765000D01*
X107610000Y-112765000D01*
X107610000Y-113867000D01*
G37*
G36*
X110189000Y-113848000D02*
G01*
X109287000Y-113848000D01*
X109287000Y-112846000D01*
X110189000Y-112846000D01*
X110189000Y-113848000D01*
G37*
G36*
X159215202Y-113696699D02*
G01*
X156233204Y-113696699D01*
X156233204Y-112502499D01*
X159215202Y-112502499D01*
X159215202Y-113696699D01*
G37*
G36*
X149089002Y-113600799D02*
G01*
X148487002Y-113600799D01*
X148487002Y-112493201D01*
X149089002Y-112493201D01*
X149089002Y-113600799D01*
G37*
G36*
X147189000Y-113600799D02*
G01*
X146587000Y-113600799D01*
X146587000Y-112493201D01*
X147189000Y-112493201D01*
X147189000Y-113600799D01*
G37*
G36*
X104470468Y-111891065D02*
G01*
X104509138Y-111902796D01*
X104544777Y-111921846D01*
X104576017Y-111947483D01*
X104601654Y-111978723D01*
X104620704Y-112014362D01*
X104632435Y-112053032D01*
X104637000Y-112099388D01*
X104637000Y-112750612D01*
X104632435Y-112796968D01*
X104620704Y-112835638D01*
X104601654Y-112871277D01*
X104576017Y-112902517D01*
X104544777Y-112928154D01*
X104509138Y-112947204D01*
X104470468Y-112958935D01*
X104424112Y-112963500D01*
X103347888Y-112963500D01*
X103301532Y-112958935D01*
X103262862Y-112947204D01*
X103227223Y-112928154D01*
X103195983Y-112902517D01*
X103170346Y-112871277D01*
X103151296Y-112835638D01*
X103139565Y-112796968D01*
X103135000Y-112750612D01*
X103135000Y-112099388D01*
X103139565Y-112053032D01*
X103151296Y-112014362D01*
X103170346Y-111978723D01*
X103195983Y-111947483D01*
X103227223Y-111921846D01*
X103262862Y-111902796D01*
X103301532Y-111891065D01*
X103347888Y-111886500D01*
X104424112Y-111886500D01*
X104470468Y-111891065D01*
G37*
G36*
X81882425Y-111268599D02*
G01*
X82006621Y-111293302D01*
X82143022Y-111349801D01*
X82265779Y-111431825D01*
X82370175Y-111536221D01*
X82452199Y-111658978D01*
X82508698Y-111795379D01*
X82537500Y-111940181D01*
X82537500Y-112087819D01*
X82508698Y-112232621D01*
X82452199Y-112369022D01*
X82370175Y-112491779D01*
X82265779Y-112596175D01*
X82143022Y-112678199D01*
X82006621Y-112734698D01*
X81882425Y-112759401D01*
X81861820Y-112763500D01*
X81714180Y-112763500D01*
X81693575Y-112759401D01*
X81569379Y-112734698D01*
X81432978Y-112678199D01*
X81310221Y-112596175D01*
X81205825Y-112491779D01*
X81123801Y-112369022D01*
X81067302Y-112232621D01*
X81038500Y-112087819D01*
X81038500Y-111940181D01*
X81067302Y-111795379D01*
X81123801Y-111658978D01*
X81205825Y-111536221D01*
X81310221Y-111431825D01*
X81432978Y-111349801D01*
X81569379Y-111293302D01*
X81693575Y-111268599D01*
X81714180Y-111264500D01*
X81861820Y-111264500D01*
X81882425Y-111268599D01*
G37*
G36*
X84422425Y-111268599D02*
G01*
X84546621Y-111293302D01*
X84683022Y-111349801D01*
X84805779Y-111431825D01*
X84910175Y-111536221D01*
X84992199Y-111658978D01*
X85048698Y-111795379D01*
X85077500Y-111940181D01*
X85077500Y-112087819D01*
X85048698Y-112232621D01*
X84992199Y-112369022D01*
X84910175Y-112491779D01*
X84805779Y-112596175D01*
X84683022Y-112678199D01*
X84546621Y-112734698D01*
X84422425Y-112759401D01*
X84401820Y-112763500D01*
X84254180Y-112763500D01*
X84233575Y-112759401D01*
X84109379Y-112734698D01*
X83972978Y-112678199D01*
X83850221Y-112596175D01*
X83745825Y-112491779D01*
X83663801Y-112369022D01*
X83607302Y-112232621D01*
X83578500Y-112087819D01*
X83578500Y-111940181D01*
X83607302Y-111795379D01*
X83663801Y-111658978D01*
X83745825Y-111536221D01*
X83850221Y-111431825D01*
X83972978Y-111349801D01*
X84109379Y-111293302D01*
X84233575Y-111268599D01*
X84254180Y-111264500D01*
X84401820Y-111264500D01*
X84422425Y-111268599D01*
G37*
G36*
X142163727Y-111616719D02*
G01*
X141207719Y-112572727D01*
X140428487Y-111793495D01*
X141384495Y-110837487D01*
X142163727Y-111616719D01*
G37*
G36*
X139352513Y-111599505D02*
G01*
X138396505Y-112555513D01*
X137617273Y-111776281D01*
X138573281Y-110820273D01*
X139352513Y-111599505D01*
G37*
G36*
X140749513Y-110202505D02*
G01*
X139793505Y-111158513D01*
X139014273Y-110379281D01*
X139970281Y-109423273D01*
X140749513Y-110202505D01*
G37*
G36*
X153549000Y-110903000D02*
G01*
X152447000Y-110903000D01*
X152447000Y-109551000D01*
X153549000Y-109551000D01*
X153549000Y-110903000D01*
G37*
G36*
X151549000Y-110903000D02*
G01*
X150447000Y-110903000D01*
X150447000Y-109551000D01*
X151549000Y-109551000D01*
X151549000Y-110903000D01*
G37*
G36*
X147189000Y-110895201D02*
G01*
X146587000Y-110895201D01*
X146587000Y-109787603D01*
X147189000Y-109787603D01*
X147189000Y-110895201D01*
G37*
G36*
X149089002Y-110895201D02*
G01*
X148487002Y-110895201D01*
X148487002Y-109787603D01*
X149089002Y-109787603D01*
X149089002Y-110895201D01*
G37*
G36*
X148139001Y-110895201D02*
G01*
X147537001Y-110895201D01*
X147537001Y-109787603D01*
X148139001Y-109787603D01*
X148139001Y-110895201D01*
G37*
G36*
X145259000Y-110738000D02*
G01*
X143857000Y-110738000D01*
X143857000Y-109936000D01*
X145259000Y-109936000D01*
X145259000Y-110738000D01*
G37*
G36*
X107559968Y-108981565D02*
G01*
X107598638Y-108993296D01*
X107634277Y-109012346D01*
X107665517Y-109037983D01*
X107691154Y-109069223D01*
X107710204Y-109104862D01*
X107721935Y-109143532D01*
X107726500Y-109189888D01*
X107726500Y-110266112D01*
X107721935Y-110312468D01*
X107710204Y-110351138D01*
X107691154Y-110386777D01*
X107665517Y-110418017D01*
X107634277Y-110443654D01*
X107598638Y-110462704D01*
X107559968Y-110474435D01*
X107513612Y-110479000D01*
X106862388Y-110479000D01*
X106816032Y-110474435D01*
X106777362Y-110462704D01*
X106741723Y-110443654D01*
X106710483Y-110418017D01*
X106684846Y-110386777D01*
X106665796Y-110351138D01*
X106654065Y-110312468D01*
X106649500Y-110266112D01*
X106649500Y-109189888D01*
X106654065Y-109143532D01*
X106665796Y-109104862D01*
X106684846Y-109069223D01*
X106710483Y-109037983D01*
X106741723Y-109012346D01*
X106777362Y-108993296D01*
X106816032Y-108981565D01*
X106862388Y-108977000D01*
X107513612Y-108977000D01*
X107559968Y-108981565D01*
G37*
G36*
X105684968Y-108981565D02*
G01*
X105723638Y-108993296D01*
X105759277Y-109012346D01*
X105790517Y-109037983D01*
X105816154Y-109069223D01*
X105835204Y-109104862D01*
X105846935Y-109143532D01*
X105851500Y-109189888D01*
X105851500Y-110266112D01*
X105846935Y-110312468D01*
X105835204Y-110351138D01*
X105816154Y-110386777D01*
X105790517Y-110418017D01*
X105759277Y-110443654D01*
X105723638Y-110462704D01*
X105684968Y-110474435D01*
X105638612Y-110479000D01*
X104987388Y-110479000D01*
X104941032Y-110474435D01*
X104902362Y-110462704D01*
X104866723Y-110443654D01*
X104835483Y-110418017D01*
X104809846Y-110386777D01*
X104790796Y-110351138D01*
X104779065Y-110312468D01*
X104774500Y-110266112D01*
X104774500Y-109189888D01*
X104779065Y-109143532D01*
X104790796Y-109104862D01*
X104809846Y-109069223D01*
X104835483Y-109037983D01*
X104866723Y-109012346D01*
X104902362Y-108993296D01*
X104941032Y-108981565D01*
X104987388Y-108977000D01*
X105638612Y-108977000D01*
X105684968Y-108981565D01*
G37*
G36*
X84422425Y-108728599D02*
G01*
X84546621Y-108753302D01*
X84683022Y-108809801D01*
X84805779Y-108891825D01*
X84910175Y-108996221D01*
X84992199Y-109118978D01*
X85048698Y-109255379D01*
X85077500Y-109400181D01*
X85077500Y-109547819D01*
X85048698Y-109692621D01*
X84992199Y-109829022D01*
X84910175Y-109951779D01*
X84805779Y-110056175D01*
X84683022Y-110138199D01*
X84546621Y-110194698D01*
X84422425Y-110219401D01*
X84401820Y-110223500D01*
X84254180Y-110223500D01*
X84233575Y-110219401D01*
X84109379Y-110194698D01*
X83972978Y-110138199D01*
X83850221Y-110056175D01*
X83745825Y-109951779D01*
X83663801Y-109829022D01*
X83607302Y-109692621D01*
X83578500Y-109547819D01*
X83578500Y-109400181D01*
X83607302Y-109255379D01*
X83663801Y-109118978D01*
X83745825Y-108996221D01*
X83850221Y-108891825D01*
X83972978Y-108809801D01*
X84109379Y-108753302D01*
X84233575Y-108728599D01*
X84254180Y-108724500D01*
X84401820Y-108724500D01*
X84422425Y-108728599D01*
G37*
G36*
X81882425Y-108728599D02*
G01*
X82006621Y-108753302D01*
X82143022Y-108809801D01*
X82265779Y-108891825D01*
X82370175Y-108996221D01*
X82452199Y-109118978D01*
X82508698Y-109255379D01*
X82537500Y-109400181D01*
X82537500Y-109547819D01*
X82508698Y-109692621D01*
X82452199Y-109829022D01*
X82370175Y-109951779D01*
X82265779Y-110056175D01*
X82143022Y-110138199D01*
X82006621Y-110194698D01*
X81882425Y-110219401D01*
X81861820Y-110223500D01*
X81714180Y-110223500D01*
X81693575Y-110219401D01*
X81569379Y-110194698D01*
X81432978Y-110138199D01*
X81310221Y-110056175D01*
X81205825Y-109951779D01*
X81123801Y-109829022D01*
X81067302Y-109692621D01*
X81038500Y-109547819D01*
X81038500Y-109400181D01*
X81067302Y-109255379D01*
X81123801Y-109118978D01*
X81205825Y-108996221D01*
X81310221Y-108891825D01*
X81432978Y-108809801D01*
X81569379Y-108753302D01*
X81693575Y-108728599D01*
X81714180Y-108724500D01*
X81861820Y-108724500D01*
X81882425Y-108728599D01*
G37*
G36*
X111356500Y-109056500D02*
G01*
X110004500Y-109056500D01*
X110004500Y-107954500D01*
X111356500Y-107954500D01*
X111356500Y-109056500D01*
G37*
G36*
X113286500Y-108856500D02*
G01*
X111884500Y-108856500D01*
X111884500Y-108054500D01*
X113286500Y-108054500D01*
X113286500Y-108856500D01*
G37*
G36*
X145259000Y-108838000D02*
G01*
X143857000Y-108838000D01*
X143857000Y-108036000D01*
X145259000Y-108036000D01*
X145259000Y-108838000D01*
G37*
G36*
X105578000Y-108469000D02*
G01*
X104226000Y-108469000D01*
X104226000Y-107367000D01*
X105578000Y-107367000D01*
X105578000Y-108469000D01*
G37*
G36*
X107261000Y-108194000D02*
G01*
X106099000Y-108194000D01*
X106099000Y-105542000D01*
X107261000Y-105542000D01*
X107261000Y-108194000D01*
G37*
G36*
X109461000Y-108194000D02*
G01*
X108299000Y-108194000D01*
X108299000Y-107442000D01*
X109461000Y-107442000D01*
X109461000Y-108194000D01*
G37*
G36*
X154899000Y-107959000D02*
G01*
X154097000Y-107959000D01*
X154097000Y-106557000D01*
X154899000Y-106557000D01*
X154899000Y-107959000D01*
G37*
G36*
X156799000Y-107959000D02*
G01*
X155997000Y-107959000D01*
X155997000Y-106557000D01*
X156799000Y-106557000D01*
X156799000Y-107959000D01*
G37*
G36*
X151359000Y-107909000D02*
G01*
X150057000Y-107909000D01*
X150057000Y-106607000D01*
X151359000Y-106607000D01*
X151359000Y-107909000D01*
G37*
G36*
X153559000Y-107909000D02*
G01*
X152257000Y-107909000D01*
X152257000Y-106607000D01*
X153559000Y-106607000D01*
X153559000Y-107909000D01*
G37*
G36*
X84422425Y-106188599D02*
G01*
X84546621Y-106213302D01*
X84683022Y-106269801D01*
X84805779Y-106351825D01*
X84910175Y-106456221D01*
X84992199Y-106578978D01*
X85048698Y-106715379D01*
X85077500Y-106860181D01*
X85077500Y-107007819D01*
X85048698Y-107152621D01*
X84992199Y-107289022D01*
X84910175Y-107411779D01*
X84805779Y-107516175D01*
X84683022Y-107598199D01*
X84546621Y-107654698D01*
X84422425Y-107679401D01*
X84401820Y-107683500D01*
X84254180Y-107683500D01*
X84233575Y-107679401D01*
X84109379Y-107654698D01*
X83972978Y-107598199D01*
X83850221Y-107516175D01*
X83745825Y-107411779D01*
X83663801Y-107289022D01*
X83607302Y-107152621D01*
X83578500Y-107007819D01*
X83578500Y-106860181D01*
X83607302Y-106715379D01*
X83663801Y-106578978D01*
X83745825Y-106456221D01*
X83850221Y-106351825D01*
X83972978Y-106269801D01*
X84109379Y-106213302D01*
X84233575Y-106188599D01*
X84254180Y-106184500D01*
X84401820Y-106184500D01*
X84422425Y-106188599D01*
G37*
G36*
X81882425Y-106188599D02*
G01*
X82006621Y-106213302D01*
X82143022Y-106269801D01*
X82265779Y-106351825D01*
X82370175Y-106456221D01*
X82452199Y-106578978D01*
X82508698Y-106715379D01*
X82537500Y-106860181D01*
X82537500Y-107007819D01*
X82508698Y-107152621D01*
X82452199Y-107289022D01*
X82370175Y-107411779D01*
X82265779Y-107516175D01*
X82143022Y-107598199D01*
X82006621Y-107654698D01*
X81882425Y-107679401D01*
X81861820Y-107683500D01*
X81714180Y-107683500D01*
X81693575Y-107679401D01*
X81569379Y-107654698D01*
X81432978Y-107598199D01*
X81310221Y-107516175D01*
X81205825Y-107411779D01*
X81123801Y-107289022D01*
X81067302Y-107152621D01*
X81038500Y-107007819D01*
X81038500Y-106860181D01*
X81067302Y-106715379D01*
X81123801Y-106578978D01*
X81205825Y-106456221D01*
X81310221Y-106351825D01*
X81432978Y-106269801D01*
X81569379Y-106213302D01*
X81693575Y-106188599D01*
X81714180Y-106184500D01*
X81861820Y-106184500D01*
X81882425Y-106188599D01*
G37*
G36*
X111356500Y-107056500D02*
G01*
X110004500Y-107056500D01*
X110004500Y-105954500D01*
X111356500Y-105954500D01*
X111356500Y-107056500D01*
G37*
G36*
X126280724Y-98221327D02*
G01*
X125303502Y-99198549D01*
X125220063Y-99281987D01*
X124949948Y-99552102D01*
X124866510Y-99635541D01*
X123535735Y-100966316D01*
X123452296Y-101049754D01*
X123182181Y-101319869D01*
X123098743Y-101403308D01*
X120707308Y-103794743D01*
X120623869Y-103878181D01*
X120353754Y-104148296D01*
X120270316Y-104231735D01*
X118939541Y-105562510D01*
X118856102Y-105645948D01*
X118585987Y-105916063D01*
X118502549Y-105999502D01*
X117525327Y-106976724D01*
X116350116Y-105801513D01*
X116620231Y-105531398D01*
X116620232Y-105531399D01*
X116703671Y-105447960D01*
X116703670Y-105447959D01*
X116973785Y-105177844D01*
X116973786Y-105177845D01*
X117057224Y-105094407D01*
X117057223Y-105094406D01*
X117327338Y-104824291D01*
X117410777Y-104740853D01*
X117410776Y-104740852D01*
X117680891Y-104470737D01*
X117680892Y-104470738D01*
X117769269Y-104382360D01*
X118034445Y-104117184D01*
X118034446Y-104117185D01*
X118117884Y-104033747D01*
X118117883Y-104033746D01*
X118387998Y-103763631D01*
X118387999Y-103763632D01*
X118471438Y-103680193D01*
X118471437Y-103680192D01*
X118741552Y-103410077D01*
X118741553Y-103410078D01*
X118824991Y-103326640D01*
X118824990Y-103326639D01*
X119095105Y-103056524D01*
X119178544Y-102973086D01*
X119178543Y-102973085D01*
X119448658Y-102702970D01*
X119448659Y-102702971D01*
X119537036Y-102614593D01*
X119802212Y-102349417D01*
X119802213Y-102349418D01*
X119885651Y-102265980D01*
X119885650Y-102265979D01*
X120155765Y-101995864D01*
X120155766Y-101995865D01*
X120239205Y-101912426D01*
X120239204Y-101912425D01*
X120509319Y-101642310D01*
X120509320Y-101642311D01*
X120592758Y-101558873D01*
X120592757Y-101558872D01*
X120862872Y-101288757D01*
X120862873Y-101288758D01*
X120946311Y-101205320D01*
X120946310Y-101205319D01*
X121216425Y-100935204D01*
X121216426Y-100935205D01*
X121299865Y-100851766D01*
X121299864Y-100851765D01*
X121569979Y-100581650D01*
X121569980Y-100581651D01*
X121653418Y-100498213D01*
X121653417Y-100498212D01*
X121923532Y-100228097D01*
X122006971Y-100144659D01*
X122006970Y-100144658D01*
X122277085Y-99874543D01*
X122277086Y-99874544D01*
X122365463Y-99786166D01*
X122630639Y-99520990D01*
X122630640Y-99520991D01*
X122714078Y-99437553D01*
X122714077Y-99437552D01*
X122984192Y-99167437D01*
X122984193Y-99167438D01*
X123067632Y-99083999D01*
X123067631Y-99083998D01*
X123337746Y-98813883D01*
X123337747Y-98813884D01*
X123421185Y-98730446D01*
X123421184Y-98730445D01*
X123691299Y-98460330D01*
X123774738Y-98376892D01*
X123774737Y-98376891D01*
X124044852Y-98106776D01*
X124044853Y-98106777D01*
X124133230Y-98018399D01*
X124398406Y-97753223D01*
X124398407Y-97753224D01*
X124481845Y-97669786D01*
X124481844Y-97669785D01*
X124751959Y-97399670D01*
X124751960Y-97399671D01*
X124835399Y-97316232D01*
X124835398Y-97316231D01*
X125105513Y-97046116D01*
X126280724Y-98221327D01*
G37*
G36*
X128656602Y-97316231D02*
G01*
X128656602Y-97316232D01*
X128740041Y-97399671D01*
X128740041Y-97399670D01*
X129010156Y-97669785D01*
X129010156Y-97669786D01*
X129093594Y-97753224D01*
X129093594Y-97753223D01*
X129447148Y-98106777D01*
X129447148Y-98106776D01*
X129717263Y-98376891D01*
X129717263Y-98376892D01*
X130070816Y-98730445D01*
X130070816Y-98730446D01*
X130154254Y-98813884D01*
X130154254Y-98813883D01*
X130424369Y-99083998D01*
X130424369Y-99083999D01*
X130507808Y-99167438D01*
X130507808Y-99167437D01*
X130777923Y-99437552D01*
X130777923Y-99437553D01*
X130861361Y-99520991D01*
X130861361Y-99520990D01*
X131214915Y-99874544D01*
X131214915Y-99874543D01*
X131485030Y-100144658D01*
X131485030Y-100144659D01*
X131838583Y-100498212D01*
X131838583Y-100498213D01*
X131922021Y-100581651D01*
X131922021Y-100581650D01*
X132192136Y-100851765D01*
X132192136Y-100851766D01*
X132275575Y-100935205D01*
X132275575Y-100935204D01*
X132545690Y-101205319D01*
X132545690Y-101205320D01*
X132629128Y-101288758D01*
X132629128Y-101288757D01*
X132899243Y-101558872D01*
X132899243Y-101558873D01*
X132982681Y-101642311D01*
X132982681Y-101642310D01*
X133252796Y-101912425D01*
X133252796Y-101912426D01*
X133336235Y-101995865D01*
X133336235Y-101995864D01*
X133606350Y-102265979D01*
X133606350Y-102265980D01*
X133689788Y-102349418D01*
X133689788Y-102349417D01*
X134043342Y-102702971D01*
X134043342Y-102702970D01*
X134313457Y-102973085D01*
X134313457Y-102973086D01*
X134667010Y-103326639D01*
X134667010Y-103326640D01*
X134750448Y-103410078D01*
X134750448Y-103410077D01*
X135020563Y-103680192D01*
X135020563Y-103680193D01*
X135104002Y-103763632D01*
X135104002Y-103763631D01*
X135374117Y-104033746D01*
X135374117Y-104033747D01*
X135457555Y-104117185D01*
X135457555Y-104117184D01*
X135811109Y-104470738D01*
X135811109Y-104470737D01*
X136081224Y-104740852D01*
X136081224Y-104740853D01*
X136434777Y-105094406D01*
X136434777Y-105094407D01*
X136518215Y-105177845D01*
X136518215Y-105177844D01*
X136788330Y-105447959D01*
X136788330Y-105447960D01*
X136871769Y-105531399D01*
X136871769Y-105531398D01*
X137141884Y-105801513D01*
X135966673Y-106976724D01*
X135696558Y-106706609D01*
X135696559Y-106706609D01*
X135613120Y-106623170D01*
X135613119Y-106623170D01*
X135343004Y-106353055D01*
X135343005Y-106353055D01*
X135259567Y-106269617D01*
X135259566Y-106269617D01*
X134989451Y-105999502D01*
X134989452Y-105999502D01*
X134552460Y-105562510D01*
X134552459Y-105562510D01*
X134282344Y-105292395D01*
X134282345Y-105292395D01*
X134198907Y-105208957D01*
X134198906Y-105208957D01*
X133928791Y-104938842D01*
X133928792Y-104938842D01*
X133845353Y-104855403D01*
X133845352Y-104855403D01*
X133575237Y-104585288D01*
X133575238Y-104585288D01*
X133491800Y-104501850D01*
X133491799Y-104501850D01*
X133221684Y-104231735D01*
X133221685Y-104231735D01*
X132784693Y-103794743D01*
X132784692Y-103794743D01*
X132514577Y-103524628D01*
X132514578Y-103524628D01*
X132431140Y-103441190D01*
X132431139Y-103441190D01*
X132161024Y-103171075D01*
X132161025Y-103171075D01*
X132077586Y-103087636D01*
X132077585Y-103087636D01*
X131807470Y-102817521D01*
X131807471Y-102817521D01*
X131724033Y-102734083D01*
X131724032Y-102734083D01*
X131453917Y-102463968D01*
X131453918Y-102463968D01*
X131370480Y-102380530D01*
X131370479Y-102380530D01*
X131100364Y-102110415D01*
X131100365Y-102110415D01*
X131016926Y-102026976D01*
X131016925Y-102026976D01*
X130746810Y-101756861D01*
X130746811Y-101756861D01*
X130663373Y-101673423D01*
X130663372Y-101673423D01*
X130393257Y-101403308D01*
X130393258Y-101403308D01*
X129956266Y-100966316D01*
X129956265Y-100966316D01*
X129686150Y-100696201D01*
X129686151Y-100696201D01*
X129602713Y-100612763D01*
X129602712Y-100612763D01*
X129332597Y-100342648D01*
X129332598Y-100342648D01*
X129249159Y-100259209D01*
X129249158Y-100259209D01*
X128979043Y-99989094D01*
X128979044Y-99989094D01*
X128895606Y-99905656D01*
X128895605Y-99905656D01*
X128625490Y-99635541D01*
X128625491Y-99635541D01*
X128188499Y-99198549D01*
X128188498Y-99198549D01*
X127918383Y-98928434D01*
X127918384Y-98928434D01*
X127834946Y-98844996D01*
X127834945Y-98844996D01*
X127564830Y-98574881D01*
X127564831Y-98574881D01*
X127481392Y-98491442D01*
X127481391Y-98491442D01*
X127211276Y-98221327D01*
X128386487Y-97046116D01*
X128656602Y-97316231D01*
G37*
G36*
X113286500Y-106956500D02*
G01*
X111884500Y-106956500D01*
X111884500Y-106154500D01*
X113286500Y-106154500D01*
X113286500Y-106956500D01*
G37*
G36*
X105578000Y-106469000D02*
G01*
X104226000Y-106469000D01*
X104226000Y-105367000D01*
X105578000Y-105367000D01*
X105578000Y-106469000D01*
G37*
G36*
X141787835Y-105936323D02*
G01*
X141291446Y-106432712D01*
X140123305Y-105264571D01*
X140619694Y-104768182D01*
X141787835Y-105936323D01*
G37*
G36*
X144813513Y-105570495D02*
G01*
X144034281Y-106349727D01*
X143078273Y-105393719D01*
X143857505Y-104614487D01*
X144813513Y-105570495D01*
G37*
G36*
X109461000Y-106294000D02*
G01*
X108299000Y-106294000D01*
X108299000Y-105542000D01*
X109461000Y-105542000D01*
X109461000Y-106294000D01*
G37*
G36*
X116009913Y-105443495D02*
G01*
X115230681Y-106222727D01*
X114274673Y-105266719D01*
X115053905Y-104487487D01*
X116009913Y-105443495D01*
G37*
G36*
X142685861Y-105038297D02*
G01*
X142189472Y-105534686D01*
X141021331Y-104366545D01*
X141517720Y-103870156D01*
X142685861Y-105038297D01*
G37*
G36*
X84422425Y-103648599D02*
G01*
X84546621Y-103673302D01*
X84683022Y-103729801D01*
X84805779Y-103811825D01*
X84910175Y-103916221D01*
X84992199Y-104038978D01*
X85048698Y-104175379D01*
X85077500Y-104320181D01*
X85077500Y-104467819D01*
X85048698Y-104612621D01*
X84992199Y-104749022D01*
X84910175Y-104871779D01*
X84805779Y-104976175D01*
X84683022Y-105058199D01*
X84546621Y-105114698D01*
X84422425Y-105139401D01*
X84401820Y-105143500D01*
X84254180Y-105143500D01*
X84233575Y-105139401D01*
X84109379Y-105114698D01*
X83972978Y-105058199D01*
X83850221Y-104976175D01*
X83745825Y-104871779D01*
X83663801Y-104749022D01*
X83607302Y-104612621D01*
X83578500Y-104467819D01*
X83578500Y-104320181D01*
X83607302Y-104175379D01*
X83663801Y-104038978D01*
X83745825Y-103916221D01*
X83850221Y-103811825D01*
X83972978Y-103729801D01*
X84109379Y-103673302D01*
X84233575Y-103648599D01*
X84254180Y-103644500D01*
X84401820Y-103644500D01*
X84422425Y-103648599D01*
G37*
G36*
X81882425Y-103648599D02*
G01*
X82006621Y-103673302D01*
X82143022Y-103729801D01*
X82265779Y-103811825D01*
X82370175Y-103916221D01*
X82452199Y-104038978D01*
X82508698Y-104175379D01*
X82537500Y-104320181D01*
X82537500Y-104467819D01*
X82508698Y-104612621D01*
X82452199Y-104749022D01*
X82370175Y-104871779D01*
X82265779Y-104976175D01*
X82143022Y-105058199D01*
X82006621Y-105114698D01*
X81882425Y-105139401D01*
X81861820Y-105143500D01*
X81714180Y-105143500D01*
X81693575Y-105139401D01*
X81569379Y-105114698D01*
X81432978Y-105058199D01*
X81310221Y-104976175D01*
X81205825Y-104871779D01*
X81123801Y-104749022D01*
X81067302Y-104612621D01*
X81038500Y-104467819D01*
X81038500Y-104320181D01*
X81067302Y-104175379D01*
X81123801Y-104038978D01*
X81205825Y-103916221D01*
X81310221Y-103811825D01*
X81432978Y-103729801D01*
X81569379Y-103673302D01*
X81693575Y-103648599D01*
X81714180Y-103644500D01*
X81861820Y-103644500D01*
X81882425Y-103648599D01*
G37*
G36*
X146227727Y-104156281D02*
G01*
X145448495Y-104935513D01*
X144492487Y-103979505D01*
X145271719Y-103200273D01*
X146227727Y-104156281D01*
G37*
G36*
X154899000Y-104911000D02*
G01*
X154097000Y-104911000D01*
X154097000Y-103509000D01*
X154899000Y-103509000D01*
X154899000Y-104911000D01*
G37*
G36*
X156799000Y-104911000D02*
G01*
X155997000Y-104911000D01*
X155997000Y-103509000D01*
X156799000Y-103509000D01*
X156799000Y-104911000D01*
G37*
G36*
X114663713Y-104122695D02*
G01*
X113884481Y-104901927D01*
X112928473Y-103945919D01*
X113707705Y-103166687D01*
X114663713Y-104122695D01*
G37*
G36*
X153559000Y-104861000D02*
G01*
X152257000Y-104861000D01*
X152257000Y-103559000D01*
X153559000Y-103559000D01*
X153559000Y-104861000D01*
G37*
G36*
X151359000Y-104861000D02*
G01*
X150057000Y-104861000D01*
X150057000Y-103559000D01*
X151359000Y-103559000D01*
X151359000Y-104861000D01*
G37*
G36*
X117424127Y-104029281D02*
G01*
X116644895Y-104808513D01*
X115688887Y-103852505D01*
X116468119Y-103073273D01*
X117424127Y-104029281D01*
G37*
G36*
X143583886Y-104140272D02*
G01*
X143087497Y-104636661D01*
X141919356Y-103468520D01*
X142415745Y-102972131D01*
X143583886Y-104140272D01*
G37*
G36*
X144481912Y-103242246D02*
G01*
X143985523Y-103738635D01*
X142817382Y-102570494D01*
X143313771Y-102074105D01*
X144481912Y-103242246D01*
G37*
G36*
X116077927Y-102708481D02*
G01*
X115298695Y-103487713D01*
X114342687Y-102531705D01*
X115121919Y-101752473D01*
X116077927Y-102708481D01*
G37*
G36*
X118290983Y-102313619D02*
G01*
X117299619Y-103304983D01*
X116732519Y-102737883D01*
X117723883Y-101746519D01*
X118290983Y-102313619D01*
G37*
G36*
X137969458Y-102117946D02*
G01*
X137473069Y-102614335D01*
X136304928Y-101446194D01*
X136801317Y-100949805D01*
X137969458Y-102117946D01*
G37*
G36*
X81882425Y-101108599D02*
G01*
X82006621Y-101133302D01*
X82143022Y-101189801D01*
X82265779Y-101271825D01*
X82370175Y-101376221D01*
X82452199Y-101498978D01*
X82508698Y-101635379D01*
X82537500Y-101780181D01*
X82537500Y-101927819D01*
X82508698Y-102072621D01*
X82452199Y-102209022D01*
X82370175Y-102331779D01*
X82265779Y-102436175D01*
X82143022Y-102518199D01*
X82006621Y-102574698D01*
X81882425Y-102599401D01*
X81861820Y-102603500D01*
X81714180Y-102603500D01*
X81693575Y-102599401D01*
X81569379Y-102574698D01*
X81432978Y-102518199D01*
X81310221Y-102436175D01*
X81205825Y-102331779D01*
X81123801Y-102209022D01*
X81067302Y-102072621D01*
X81038500Y-101927819D01*
X81038500Y-101780181D01*
X81067302Y-101635379D01*
X81123801Y-101498978D01*
X81205825Y-101376221D01*
X81310221Y-101271825D01*
X81432978Y-101189801D01*
X81569379Y-101133302D01*
X81693575Y-101108599D01*
X81714180Y-101104500D01*
X81861820Y-101104500D01*
X81882425Y-101108599D01*
G37*
G36*
X84422425Y-101108599D02*
G01*
X84546621Y-101133302D01*
X84683022Y-101189801D01*
X84805779Y-101271825D01*
X84910175Y-101376221D01*
X84992199Y-101498978D01*
X85048698Y-101635379D01*
X85077500Y-101780181D01*
X85077500Y-101927819D01*
X85048698Y-102072621D01*
X84992199Y-102209022D01*
X84910175Y-102331779D01*
X84805779Y-102436175D01*
X84683022Y-102518199D01*
X84546621Y-102574698D01*
X84422425Y-102599401D01*
X84401820Y-102603500D01*
X84254180Y-102603500D01*
X84233575Y-102599401D01*
X84109379Y-102574698D01*
X83972978Y-102518199D01*
X83850221Y-102436175D01*
X83745825Y-102331779D01*
X83663801Y-102209022D01*
X83607302Y-102072621D01*
X83578500Y-101927819D01*
X83578500Y-101780181D01*
X83607302Y-101635379D01*
X83663801Y-101498978D01*
X83745825Y-101376221D01*
X83850221Y-101271825D01*
X83972978Y-101189801D01*
X84109379Y-101133302D01*
X84233575Y-101108599D01*
X84254180Y-101104500D01*
X84401820Y-101104500D01*
X84422425Y-101108599D01*
G37*
G36*
X116947481Y-100970117D02*
G01*
X115956117Y-101961481D01*
X115389017Y-101394381D01*
X116380381Y-100403017D01*
X116947481Y-100970117D01*
G37*
G36*
X138867484Y-101219920D02*
G01*
X138371095Y-101716309D01*
X137202954Y-100548168D01*
X137699343Y-100051779D01*
X138867484Y-101219920D01*
G37*
G36*
X155026000Y-101158000D02*
G01*
X154224000Y-101158000D01*
X154224000Y-99756000D01*
X155026000Y-99756000D01*
X155026000Y-101158000D01*
G37*
G36*
X156926000Y-101158000D02*
G01*
X156124000Y-101158000D01*
X156124000Y-99756000D01*
X156926000Y-99756000D01*
X156926000Y-101158000D01*
G37*
G36*
X153584000Y-101119000D02*
G01*
X152232000Y-101119000D01*
X152232000Y-100017000D01*
X153584000Y-100017000D01*
X153584000Y-101119000D01*
G37*
G36*
X151577000Y-100985000D02*
G01*
X150175000Y-100985000D01*
X150175000Y-100183000D01*
X151577000Y-100183000D01*
X151577000Y-100985000D01*
G37*
G36*
X139765509Y-100321895D02*
G01*
X139269120Y-100818284D01*
X138100979Y-99650143D01*
X138597368Y-99153754D01*
X139765509Y-100321895D01*
G37*
G36*
X114452600Y-100520700D02*
G01*
X113131400Y-100520700D01*
X113131400Y-97421500D01*
X114452600Y-97421500D01*
X114452600Y-100520700D01*
G37*
G36*
X84422425Y-98568599D02*
G01*
X84546621Y-98593302D01*
X84683022Y-98649801D01*
X84805779Y-98731825D01*
X84910175Y-98836221D01*
X84992199Y-98958978D01*
X85048698Y-99095379D01*
X85077500Y-99240181D01*
X85077500Y-99387819D01*
X85048698Y-99532621D01*
X84992199Y-99669022D01*
X84910175Y-99791779D01*
X84805779Y-99896175D01*
X84683022Y-99978199D01*
X84546621Y-100034698D01*
X84422425Y-100059401D01*
X84401820Y-100063500D01*
X84254180Y-100063500D01*
X84233575Y-100059401D01*
X84109379Y-100034698D01*
X83972978Y-99978199D01*
X83850221Y-99896175D01*
X83745825Y-99791779D01*
X83663801Y-99669022D01*
X83607302Y-99532621D01*
X83578500Y-99387819D01*
X83578500Y-99240181D01*
X83607302Y-99095379D01*
X83663801Y-98958978D01*
X83745825Y-98836221D01*
X83850221Y-98731825D01*
X83972978Y-98649801D01*
X84109379Y-98593302D01*
X84233575Y-98568599D01*
X84254180Y-98564500D01*
X84401820Y-98564500D01*
X84422425Y-98568599D01*
G37*
G36*
X81882425Y-98568599D02*
G01*
X82006621Y-98593302D01*
X82143022Y-98649801D01*
X82265779Y-98731825D01*
X82370175Y-98836221D01*
X82452199Y-98958978D01*
X82508698Y-99095379D01*
X82537500Y-99240181D01*
X82537500Y-99387819D01*
X82508698Y-99532621D01*
X82452199Y-99669022D01*
X82370175Y-99791779D01*
X82265779Y-99896175D01*
X82143022Y-99978199D01*
X82006621Y-100034698D01*
X81882425Y-100059401D01*
X81861820Y-100063500D01*
X81714180Y-100063500D01*
X81693575Y-100059401D01*
X81569379Y-100034698D01*
X81432978Y-99978199D01*
X81310221Y-99896175D01*
X81205825Y-99791779D01*
X81123801Y-99669022D01*
X81067302Y-99532621D01*
X81038500Y-99387819D01*
X81038500Y-99240181D01*
X81067302Y-99095379D01*
X81123801Y-98958978D01*
X81205825Y-98836221D01*
X81310221Y-98731825D01*
X81432978Y-98649801D01*
X81569379Y-98593302D01*
X81693575Y-98568599D01*
X81714180Y-98564500D01*
X81861820Y-98564500D01*
X81882425Y-98568599D01*
G37*
G36*
X140663535Y-99423869D02*
G01*
X140167146Y-99920258D01*
X138999005Y-98752117D01*
X139495394Y-98255728D01*
X140663535Y-99423869D01*
G37*
G36*
X153584000Y-99119000D02*
G01*
X152232000Y-99119000D01*
X152232000Y-98017000D01*
X153584000Y-98017000D01*
X153584000Y-99119000D01*
G37*
G36*
X151577000Y-99085000D02*
G01*
X150175000Y-99085000D01*
X150175000Y-98283000D01*
X151577000Y-98283000D01*
X151577000Y-99085000D01*
G37*
G36*
X158989000Y-94540500D02*
G01*
X156987000Y-94540500D01*
X156987000Y-93192999D01*
X156984598Y-93168613D01*
X156977485Y-93145164D01*
X156965934Y-93123553D01*
X156950389Y-93104611D01*
X156931447Y-93089066D01*
X156909836Y-93077515D01*
X156886387Y-93070402D01*
X156862001Y-93068000D01*
X156193999Y-93068000D01*
X156169613Y-93070402D01*
X156146164Y-93077515D01*
X156124553Y-93089066D01*
X156105611Y-93104611D01*
X156090066Y-93123553D01*
X156078515Y-93145164D01*
X156071402Y-93168613D01*
X156069000Y-93192999D01*
X156069000Y-96291001D01*
X156071402Y-96315387D01*
X156078515Y-96338836D01*
X156090066Y-96360447D01*
X156105611Y-96379389D01*
X156124553Y-96394934D01*
X156146164Y-96406485D01*
X156169613Y-96413598D01*
X156193999Y-96416000D01*
X156862001Y-96416000D01*
X156886387Y-96413598D01*
X156909836Y-96406485D01*
X156931447Y-96394934D01*
X156950389Y-96379389D01*
X156965934Y-96360447D01*
X156977485Y-96338836D01*
X156984598Y-96315387D01*
X156987000Y-96291001D01*
X156987000Y-94943500D01*
X158989000Y-94943500D01*
X158989000Y-98890500D01*
X156987000Y-98890500D01*
X156987000Y-98117999D01*
X156984598Y-98093613D01*
X156977485Y-98070164D01*
X156965934Y-98048553D01*
X156950389Y-98029611D01*
X156931447Y-98014066D01*
X156909836Y-98002515D01*
X156886387Y-97995402D01*
X156862001Y-97993000D01*
X154587000Y-97993000D01*
X154587000Y-91491000D01*
X156862001Y-91491000D01*
X156886387Y-91488598D01*
X156909836Y-91481485D01*
X156931447Y-91469934D01*
X156950389Y-91454389D01*
X156965934Y-91435447D01*
X156977485Y-91413836D01*
X156984598Y-91390387D01*
X156987000Y-91366001D01*
X156987000Y-90593500D01*
X158989000Y-90593500D01*
X158989000Y-94540500D01*
G37*
G36*
X119192000Y-98887000D02*
G01*
X117790000Y-98887000D01*
X117790000Y-98085000D01*
X119192000Y-98085000D01*
X119192000Y-98887000D01*
G37*
G36*
X133510513Y-96807495D02*
G01*
X132731281Y-97586727D01*
X131775273Y-96630719D01*
X132554505Y-95851487D01*
X133510513Y-96807495D01*
G37*
G36*
X81882425Y-96028599D02*
G01*
X82006621Y-96053302D01*
X82143022Y-96109801D01*
X82265779Y-96191825D01*
X82370175Y-96296221D01*
X82452199Y-96418978D01*
X82508698Y-96555379D01*
X82537500Y-96700181D01*
X82537500Y-96847819D01*
X82508698Y-96992621D01*
X82452199Y-97129022D01*
X82370175Y-97251779D01*
X82265779Y-97356175D01*
X82143022Y-97438199D01*
X82006621Y-97494698D01*
X81882425Y-97519401D01*
X81861820Y-97523500D01*
X81714180Y-97523500D01*
X81693575Y-97519401D01*
X81569379Y-97494698D01*
X81432978Y-97438199D01*
X81310221Y-97356175D01*
X81205825Y-97251779D01*
X81123801Y-97129022D01*
X81067302Y-96992621D01*
X81038500Y-96847819D01*
X81038500Y-96700181D01*
X81067302Y-96555379D01*
X81123801Y-96418978D01*
X81205825Y-96296221D01*
X81310221Y-96191825D01*
X81432978Y-96109801D01*
X81569379Y-96053302D01*
X81693575Y-96028599D01*
X81714180Y-96024500D01*
X81861820Y-96024500D01*
X81882425Y-96028599D01*
G37*
G36*
X84422425Y-96028599D02*
G01*
X84546621Y-96053302D01*
X84683022Y-96109801D01*
X84805779Y-96191825D01*
X84910175Y-96296221D01*
X84992199Y-96418978D01*
X85048698Y-96555379D01*
X85077500Y-96700181D01*
X85077500Y-96847819D01*
X85048698Y-96992621D01*
X84992199Y-97129022D01*
X84910175Y-97251779D01*
X84805779Y-97356175D01*
X84683022Y-97438199D01*
X84546621Y-97494698D01*
X84422425Y-97519401D01*
X84401820Y-97523500D01*
X84254180Y-97523500D01*
X84233575Y-97519401D01*
X84109379Y-97494698D01*
X83972978Y-97438199D01*
X83850221Y-97356175D01*
X83745825Y-97251779D01*
X83663801Y-97129022D01*
X83607302Y-96992621D01*
X83578500Y-96847819D01*
X83578500Y-96700181D01*
X83607302Y-96555379D01*
X83663801Y-96418978D01*
X83745825Y-96296221D01*
X83850221Y-96191825D01*
X83972978Y-96109801D01*
X84109379Y-96053302D01*
X84233575Y-96028599D01*
X84254180Y-96024500D01*
X84401820Y-96024500D01*
X84422425Y-96028599D01*
G37*
G36*
X119192000Y-96987000D02*
G01*
X117790000Y-96987000D01*
X117790000Y-96185000D01*
X119192000Y-96185000D01*
X119192000Y-96987000D01*
G37*
G36*
X150774000Y-96840000D02*
G01*
X149972000Y-96840000D01*
X149972000Y-95438000D01*
X150774000Y-95438000D01*
X150774000Y-96840000D01*
G37*
G36*
X152674000Y-96840000D02*
G01*
X151872000Y-96840000D01*
X151872000Y-95438000D01*
X152674000Y-95438000D01*
X152674000Y-96840000D01*
G37*
G36*
X132113513Y-95410495D02*
G01*
X131334281Y-96189727D01*
X130378273Y-95233719D01*
X131157505Y-94454487D01*
X132113513Y-95410495D01*
G37*
G36*
X134924727Y-95393281D02*
G01*
X134145495Y-96172513D01*
X133189487Y-95216505D01*
X133968719Y-94437273D01*
X134924727Y-95393281D01*
G37*
G36*
X118792000Y-95635000D02*
G01*
X118190000Y-95635000D01*
X118190000Y-95033000D01*
X118792000Y-95033000D01*
X118792000Y-95635000D01*
G37*
G36*
X114452600Y-95110500D02*
G01*
X113131400Y-95110500D01*
X113131400Y-92011300D01*
X114452600Y-92011300D01*
X114452600Y-95110500D01*
G37*
G36*
X81882425Y-93488599D02*
G01*
X82006621Y-93513302D01*
X82143022Y-93569801D01*
X82265779Y-93651825D01*
X82370175Y-93756221D01*
X82452199Y-93878978D01*
X82508698Y-94015379D01*
X82537500Y-94160181D01*
X82537500Y-94307819D01*
X82508698Y-94452621D01*
X82452199Y-94589022D01*
X82370175Y-94711779D01*
X82265779Y-94816175D01*
X82143022Y-94898199D01*
X82006621Y-94954698D01*
X81882425Y-94979401D01*
X81861820Y-94983500D01*
X81714180Y-94983500D01*
X81693575Y-94979401D01*
X81569379Y-94954698D01*
X81432978Y-94898199D01*
X81310221Y-94816175D01*
X81205825Y-94711779D01*
X81123801Y-94589022D01*
X81067302Y-94452621D01*
X81038500Y-94307819D01*
X81038500Y-94160181D01*
X81067302Y-94015379D01*
X81123801Y-93878978D01*
X81205825Y-93756221D01*
X81310221Y-93651825D01*
X81432978Y-93569801D01*
X81569379Y-93513302D01*
X81693575Y-93488599D01*
X81714180Y-93484500D01*
X81861820Y-93484500D01*
X81882425Y-93488599D01*
G37*
G36*
X84422425Y-93488599D02*
G01*
X84546621Y-93513302D01*
X84683022Y-93569801D01*
X84805779Y-93651825D01*
X84910175Y-93756221D01*
X84992199Y-93878978D01*
X85048698Y-94015379D01*
X85077500Y-94160181D01*
X85077500Y-94307819D01*
X85048698Y-94452621D01*
X84992199Y-94589022D01*
X84910175Y-94711779D01*
X84805779Y-94816175D01*
X84683022Y-94898199D01*
X84546621Y-94954698D01*
X84422425Y-94979401D01*
X84401820Y-94983500D01*
X84254180Y-94983500D01*
X84233575Y-94979401D01*
X84109379Y-94954698D01*
X83972978Y-94898199D01*
X83850221Y-94816175D01*
X83745825Y-94711779D01*
X83663801Y-94589022D01*
X83607302Y-94452621D01*
X83578500Y-94307819D01*
X83578500Y-94160181D01*
X83607302Y-94015379D01*
X83663801Y-93878978D01*
X83745825Y-93756221D01*
X83850221Y-93651825D01*
X83972978Y-93569801D01*
X84109379Y-93513302D01*
X84233575Y-93488599D01*
X84254180Y-93484500D01*
X84401820Y-93484500D01*
X84422425Y-93488599D01*
G37*
G36*
X150769000Y-94808000D02*
G01*
X149967000Y-94808000D01*
X149967000Y-93406000D01*
X150769000Y-93406000D01*
X150769000Y-94808000D01*
G37*
G36*
X152669000Y-94808000D02*
G01*
X151867000Y-94808000D01*
X151867000Y-93406000D01*
X152669000Y-93406000D01*
X152669000Y-94808000D01*
G37*
G36*
X130716513Y-94013495D02*
G01*
X129937281Y-94792727D01*
X128981273Y-93836719D01*
X129760505Y-93057487D01*
X130716513Y-94013495D01*
G37*
G36*
X133527727Y-93996281D02*
G01*
X132748495Y-94775513D01*
X131792487Y-93819505D01*
X132571719Y-93040273D01*
X133527727Y-93996281D01*
G37*
G36*
X118792000Y-93435000D02*
G01*
X118190000Y-93435000D01*
X118190000Y-92833000D01*
X118792000Y-92833000D01*
X118792000Y-93435000D01*
G37*
G36*
X132130727Y-92599281D02*
G01*
X131351495Y-93378513D01*
X130395487Y-92422505D01*
X131174719Y-91643273D01*
X132130727Y-92599281D01*
G37*
G36*
X81882425Y-90948599D02*
G01*
X82006621Y-90973302D01*
X82143022Y-91029801D01*
X82265779Y-91111825D01*
X82370175Y-91216221D01*
X82452199Y-91338978D01*
X82508698Y-91475379D01*
X82537500Y-91620181D01*
X82537500Y-91767819D01*
X82508698Y-91912621D01*
X82452199Y-92049022D01*
X82370175Y-92171779D01*
X82265779Y-92276175D01*
X82143022Y-92358199D01*
X82006621Y-92414698D01*
X81882425Y-92439401D01*
X81861820Y-92443500D01*
X81714180Y-92443500D01*
X81693575Y-92439401D01*
X81569379Y-92414698D01*
X81432978Y-92358199D01*
X81310221Y-92276175D01*
X81205825Y-92171779D01*
X81123801Y-92049022D01*
X81067302Y-91912621D01*
X81038500Y-91767819D01*
X81038500Y-91620181D01*
X81067302Y-91475379D01*
X81123801Y-91338978D01*
X81205825Y-91216221D01*
X81310221Y-91111825D01*
X81432978Y-91029801D01*
X81569379Y-90973302D01*
X81693575Y-90948599D01*
X81714180Y-90944500D01*
X81861820Y-90944500D01*
X81882425Y-90948599D01*
G37*
G36*
X84422425Y-90948599D02*
G01*
X84546621Y-90973302D01*
X84683022Y-91029801D01*
X84805779Y-91111825D01*
X84910175Y-91216221D01*
X84992199Y-91338978D01*
X85048698Y-91475379D01*
X85077500Y-91620181D01*
X85077500Y-91767819D01*
X85048698Y-91912621D01*
X84992199Y-92049022D01*
X84910175Y-92171779D01*
X84805779Y-92276175D01*
X84683022Y-92358199D01*
X84546621Y-92414698D01*
X84422425Y-92439401D01*
X84401820Y-92443500D01*
X84254180Y-92443500D01*
X84233575Y-92439401D01*
X84109379Y-92414698D01*
X83972978Y-92358199D01*
X83850221Y-92276175D01*
X83745825Y-92171779D01*
X83663801Y-92049022D01*
X83607302Y-91912621D01*
X83578500Y-91767819D01*
X83578500Y-91620181D01*
X83607302Y-91475379D01*
X83663801Y-91338978D01*
X83745825Y-91216221D01*
X83850221Y-91111825D01*
X83972978Y-91029801D01*
X84109379Y-90973302D01*
X84233575Y-90948599D01*
X84254180Y-90944500D01*
X84401820Y-90944500D01*
X84422425Y-90948599D01*
G37*
G36*
X112420187Y-88544600D02*
G01*
X112523666Y-88565183D01*
X112589738Y-88592551D01*
X112683177Y-88631255D01*
X112826736Y-88727178D01*
X112948822Y-88849264D01*
X113044745Y-88992823D01*
X113110817Y-89152335D01*
X113144500Y-89321671D01*
X113144500Y-89494329D01*
X113110817Y-89663665D01*
X113044745Y-89823177D01*
X112948822Y-89966736D01*
X112826736Y-90088822D01*
X112683177Y-90184745D01*
X112589738Y-90223449D01*
X112523666Y-90250817D01*
X112438997Y-90267658D01*
X112354329Y-90284500D01*
X112181671Y-90284500D01*
X112097003Y-90267658D01*
X112012334Y-90250817D01*
X111946262Y-90223449D01*
X111852823Y-90184745D01*
X111709264Y-90088822D01*
X111587178Y-89966736D01*
X111491255Y-89823177D01*
X111425183Y-89663665D01*
X111391500Y-89494329D01*
X111391500Y-89321671D01*
X111425183Y-89152335D01*
X111491255Y-88992823D01*
X111587178Y-88849264D01*
X111709264Y-88727178D01*
X111852823Y-88631255D01*
X111946262Y-88592551D01*
X112012334Y-88565183D01*
X112115813Y-88544600D01*
X112181671Y-88531500D01*
X112354329Y-88531500D01*
X112420187Y-88544600D01*
G37*
G36*
X114960187Y-88544600D02*
G01*
X115063666Y-88565183D01*
X115129738Y-88592551D01*
X115223177Y-88631255D01*
X115366736Y-88727178D01*
X115488822Y-88849264D01*
X115584745Y-88992823D01*
X115650817Y-89152335D01*
X115684500Y-89321671D01*
X115684500Y-89494329D01*
X115650817Y-89663665D01*
X115584745Y-89823177D01*
X115488822Y-89966736D01*
X115366736Y-90088822D01*
X115223177Y-90184745D01*
X115129738Y-90223449D01*
X115063666Y-90250817D01*
X114978997Y-90267658D01*
X114894329Y-90284500D01*
X114721671Y-90284500D01*
X114637003Y-90267658D01*
X114552334Y-90250817D01*
X114486262Y-90223449D01*
X114392823Y-90184745D01*
X114249264Y-90088822D01*
X114127178Y-89966736D01*
X114031255Y-89823177D01*
X113965183Y-89663665D01*
X113931500Y-89494329D01*
X113931500Y-89321671D01*
X113965183Y-89152335D01*
X114031255Y-88992823D01*
X114127178Y-88849264D01*
X114249264Y-88727178D01*
X114392823Y-88631255D01*
X114486262Y-88592551D01*
X114552334Y-88565183D01*
X114655813Y-88544600D01*
X114721671Y-88531500D01*
X114894329Y-88531500D01*
X114960187Y-88544600D01*
G37*
G36*
X131742997Y-88294341D02*
G01*
X131827666Y-88311183D01*
X131893738Y-88338551D01*
X131987177Y-88377255D01*
X132130736Y-88473178D01*
X132252822Y-88595264D01*
X132348745Y-88738823D01*
X132414817Y-88898335D01*
X132448500Y-89067671D01*
X132448500Y-89240329D01*
X132414817Y-89409665D01*
X132348745Y-89569177D01*
X132252822Y-89712736D01*
X132130736Y-89834822D01*
X131987177Y-89930745D01*
X131900287Y-89966736D01*
X131827666Y-89996817D01*
X131742997Y-90013659D01*
X131658329Y-90030500D01*
X131485671Y-90030500D01*
X131401003Y-90013659D01*
X131316334Y-89996817D01*
X131243713Y-89966736D01*
X131156823Y-89930745D01*
X131013264Y-89834822D01*
X130891178Y-89712736D01*
X130795255Y-89569177D01*
X130729183Y-89409665D01*
X130695500Y-89240329D01*
X130695500Y-89067671D01*
X130729183Y-88898335D01*
X130795255Y-88738823D01*
X130891178Y-88595264D01*
X131013264Y-88473178D01*
X131156823Y-88377255D01*
X131250262Y-88338551D01*
X131316334Y-88311183D01*
X131401003Y-88294342D01*
X131485671Y-88277500D01*
X131658329Y-88277500D01*
X131742997Y-88294341D01*
G37*
G36*
X134988500Y-90030500D02*
G01*
X133235500Y-90030500D01*
X133235500Y-88277500D01*
X134988500Y-88277500D01*
X134988500Y-90030500D01*
G37*
G36*
X84422425Y-88408599D02*
G01*
X84546621Y-88433302D01*
X84683022Y-88489801D01*
X84805779Y-88571825D01*
X84910175Y-88676221D01*
X84992199Y-88798978D01*
X85048698Y-88935379D01*
X85077500Y-89080181D01*
X85077500Y-89227819D01*
X85048698Y-89372621D01*
X84992199Y-89509022D01*
X84910175Y-89631779D01*
X84805779Y-89736175D01*
X84683022Y-89818199D01*
X84546621Y-89874698D01*
X84422425Y-89899401D01*
X84401820Y-89903500D01*
X84254180Y-89903500D01*
X84233575Y-89899401D01*
X84109379Y-89874698D01*
X83972978Y-89818199D01*
X83850221Y-89736175D01*
X83745825Y-89631779D01*
X83663801Y-89509022D01*
X83607302Y-89372621D01*
X83578500Y-89227819D01*
X83578500Y-89080181D01*
X83607302Y-88935379D01*
X83663801Y-88798978D01*
X83745825Y-88676221D01*
X83850221Y-88571825D01*
X83972978Y-88489801D01*
X84109379Y-88433302D01*
X84233575Y-88408599D01*
X84254180Y-88404500D01*
X84401820Y-88404500D01*
X84422425Y-88408599D01*
G37*
G36*
X81882425Y-88408599D02*
G01*
X82006621Y-88433302D01*
X82143022Y-88489801D01*
X82265779Y-88571825D01*
X82370175Y-88676221D01*
X82452199Y-88798978D01*
X82508698Y-88935379D01*
X82537500Y-89080181D01*
X82537500Y-89227819D01*
X82508698Y-89372621D01*
X82452199Y-89509022D01*
X82370175Y-89631779D01*
X82265779Y-89736175D01*
X82143022Y-89818199D01*
X82006621Y-89874698D01*
X81882425Y-89899401D01*
X81861820Y-89903500D01*
X81714180Y-89903500D01*
X81693575Y-89899401D01*
X81569379Y-89874698D01*
X81432978Y-89818199D01*
X81310221Y-89736175D01*
X81205825Y-89631779D01*
X81123801Y-89509022D01*
X81067302Y-89372621D01*
X81038500Y-89227819D01*
X81038500Y-89080181D01*
X81067302Y-88935379D01*
X81123801Y-88798978D01*
X81205825Y-88676221D01*
X81310221Y-88571825D01*
X81432978Y-88489801D01*
X81569379Y-88433302D01*
X81693575Y-88408599D01*
X81714180Y-88404500D01*
X81861820Y-88404500D01*
X81882425Y-88408599D01*
G37*
G36*
X155876000Y-89589800D02*
G01*
X155274000Y-89589800D01*
X155274000Y-88987800D01*
X155876000Y-88987800D01*
X155876000Y-89589800D01*
G37*
G36*
X154368700Y-88544600D02*
G01*
X151269500Y-88544600D01*
X151269500Y-87223400D01*
X154368700Y-87223400D01*
X154368700Y-88544600D01*
G37*
G36*
X148958500Y-88544600D02*
G01*
X145859300Y-88544600D01*
X145859300Y-87223400D01*
X148958500Y-87223400D01*
X148958500Y-88544600D01*
G37*
G36*
X114978997Y-86008342D02*
G01*
X115063666Y-86025183D01*
X115129738Y-86052551D01*
X115223177Y-86091255D01*
X115366736Y-86187178D01*
X115488822Y-86309264D01*
X115584745Y-86452823D01*
X115650817Y-86612335D01*
X115684500Y-86781671D01*
X115684500Y-86954329D01*
X115650817Y-87123665D01*
X115584745Y-87283177D01*
X115488822Y-87426736D01*
X115366736Y-87548822D01*
X115223177Y-87644745D01*
X115129738Y-87683449D01*
X115063666Y-87710817D01*
X114978997Y-87727658D01*
X114894329Y-87744500D01*
X114721671Y-87744500D01*
X114637003Y-87727658D01*
X114552334Y-87710817D01*
X114486262Y-87683449D01*
X114392823Y-87644745D01*
X114249264Y-87548822D01*
X114127178Y-87426736D01*
X114031255Y-87283177D01*
X113965183Y-87123665D01*
X113931500Y-86954329D01*
X113931500Y-86781671D01*
X113965183Y-86612335D01*
X114031255Y-86452823D01*
X114127178Y-86309264D01*
X114249264Y-86187178D01*
X114392823Y-86091255D01*
X114486262Y-86052551D01*
X114552334Y-86025183D01*
X114637003Y-86008341D01*
X114721671Y-85991500D01*
X114894329Y-85991500D01*
X114978997Y-86008342D01*
G37*
G36*
X112438997Y-86008342D02*
G01*
X112523666Y-86025183D01*
X112589738Y-86052551D01*
X112683177Y-86091255D01*
X112826736Y-86187178D01*
X112948822Y-86309264D01*
X113044745Y-86452823D01*
X113110817Y-86612335D01*
X113144500Y-86781671D01*
X113144500Y-86954329D01*
X113110817Y-87123665D01*
X113044745Y-87283177D01*
X112948822Y-87426736D01*
X112826736Y-87548822D01*
X112683177Y-87644745D01*
X112589738Y-87683449D01*
X112523666Y-87710817D01*
X112438997Y-87727658D01*
X112354329Y-87744500D01*
X112181671Y-87744500D01*
X112097003Y-87727658D01*
X112012334Y-87710817D01*
X111946262Y-87683449D01*
X111852823Y-87644745D01*
X111709264Y-87548822D01*
X111587178Y-87426736D01*
X111491255Y-87283177D01*
X111425183Y-87123665D01*
X111391500Y-86954329D01*
X111391500Y-86781671D01*
X111425183Y-86612335D01*
X111491255Y-86452823D01*
X111587178Y-86309264D01*
X111709264Y-86187178D01*
X111852823Y-86091255D01*
X111946262Y-86052551D01*
X112012334Y-86025183D01*
X112097003Y-86008341D01*
X112181671Y-85991500D01*
X112354329Y-85991500D01*
X112438997Y-86008342D01*
G37*
G36*
X131742997Y-85754342D02*
G01*
X131827666Y-85771183D01*
X131893738Y-85798551D01*
X131987177Y-85837255D01*
X132130736Y-85933178D01*
X132252822Y-86055264D01*
X132348745Y-86198823D01*
X132414817Y-86358335D01*
X132448500Y-86527671D01*
X132448500Y-86700329D01*
X132414817Y-86869665D01*
X132348745Y-87029177D01*
X132252822Y-87172736D01*
X132130736Y-87294822D01*
X131987177Y-87390745D01*
X131900287Y-87426736D01*
X131827666Y-87456817D01*
X131742997Y-87473658D01*
X131658329Y-87490500D01*
X131485671Y-87490500D01*
X131401003Y-87473658D01*
X131316334Y-87456817D01*
X131243713Y-87426736D01*
X131156823Y-87390745D01*
X131013264Y-87294822D01*
X130891178Y-87172736D01*
X130795255Y-87029177D01*
X130729183Y-86869665D01*
X130695500Y-86700329D01*
X130695500Y-86527671D01*
X130729183Y-86358335D01*
X130795255Y-86198823D01*
X130891178Y-86055264D01*
X131013264Y-85933178D01*
X131156823Y-85837255D01*
X131250262Y-85798551D01*
X131316334Y-85771183D01*
X131401003Y-85754342D01*
X131485671Y-85737500D01*
X131658329Y-85737500D01*
X131742997Y-85754342D01*
G37*
G36*
X134282997Y-85754342D02*
G01*
X134367666Y-85771183D01*
X134433738Y-85798551D01*
X134527177Y-85837255D01*
X134670736Y-85933178D01*
X134792822Y-86055264D01*
X134888745Y-86198823D01*
X134954817Y-86358335D01*
X134988500Y-86527671D01*
X134988500Y-86700329D01*
X134954817Y-86869665D01*
X134888745Y-87029177D01*
X134792822Y-87172736D01*
X134670736Y-87294822D01*
X134527177Y-87390745D01*
X134440287Y-87426736D01*
X134367666Y-87456817D01*
X134282997Y-87473658D01*
X134198329Y-87490500D01*
X134025671Y-87490500D01*
X133941003Y-87473658D01*
X133856334Y-87456817D01*
X133783713Y-87426736D01*
X133696823Y-87390745D01*
X133553264Y-87294822D01*
X133431178Y-87172736D01*
X133335255Y-87029177D01*
X133269183Y-86869665D01*
X133235500Y-86700329D01*
X133235500Y-86527671D01*
X133269183Y-86358335D01*
X133335255Y-86198823D01*
X133431178Y-86055264D01*
X133553264Y-85933178D01*
X133696823Y-85837255D01*
X133790262Y-85798551D01*
X133856334Y-85771183D01*
X133941003Y-85754342D01*
X134025671Y-85737500D01*
X134198329Y-85737500D01*
X134282997Y-85754342D01*
G37*
G36*
X155876000Y-87389800D02*
G01*
X155274000Y-87389800D01*
X155274000Y-86787800D01*
X155876000Y-86787800D01*
X155876000Y-87389800D01*
G37*
G36*
X81882425Y-85868599D02*
G01*
X82006621Y-85893302D01*
X82143022Y-85949801D01*
X82265779Y-86031825D01*
X82370175Y-86136221D01*
X82452199Y-86258978D01*
X82508698Y-86395379D01*
X82537500Y-86540181D01*
X82537500Y-86687819D01*
X82508698Y-86832621D01*
X82452199Y-86969022D01*
X82370175Y-87091779D01*
X82265779Y-87196175D01*
X82143022Y-87278199D01*
X82006621Y-87334698D01*
X81882425Y-87359401D01*
X81861820Y-87363500D01*
X81714180Y-87363500D01*
X81693575Y-87359401D01*
X81569379Y-87334698D01*
X81432978Y-87278199D01*
X81310221Y-87196175D01*
X81205825Y-87091779D01*
X81123801Y-86969022D01*
X81067302Y-86832621D01*
X81038500Y-86687819D01*
X81038500Y-86540181D01*
X81067302Y-86395379D01*
X81123801Y-86258978D01*
X81205825Y-86136221D01*
X81310221Y-86031825D01*
X81432978Y-85949801D01*
X81569379Y-85893302D01*
X81693575Y-85868599D01*
X81714180Y-85864500D01*
X81861820Y-85864500D01*
X81882425Y-85868599D01*
G37*
G36*
X84422425Y-85868599D02*
G01*
X84546621Y-85893302D01*
X84683022Y-85949801D01*
X84805779Y-86031825D01*
X84910175Y-86136221D01*
X84992199Y-86258978D01*
X85048698Y-86395379D01*
X85077500Y-86540181D01*
X85077500Y-86687819D01*
X85048698Y-86832621D01*
X84992199Y-86969022D01*
X84910175Y-87091779D01*
X84805779Y-87196175D01*
X84683022Y-87278199D01*
X84546621Y-87334698D01*
X84422425Y-87359401D01*
X84401820Y-87363500D01*
X84254180Y-87363500D01*
X84233575Y-87359401D01*
X84109379Y-87334698D01*
X83972978Y-87278199D01*
X83850221Y-87196175D01*
X83745825Y-87091779D01*
X83663801Y-86969022D01*
X83607302Y-86832621D01*
X83578500Y-86687819D01*
X83578500Y-86540181D01*
X83607302Y-86395379D01*
X83663801Y-86258978D01*
X83745825Y-86136221D01*
X83850221Y-86031825D01*
X83972978Y-85949801D01*
X84109379Y-85893302D01*
X84233575Y-85868599D01*
X84254180Y-85864500D01*
X84401820Y-85864500D01*
X84422425Y-85868599D01*
G37*
G36*
X156276000Y-86314000D02*
G01*
X154874000Y-86314000D01*
X154874000Y-85512000D01*
X156276000Y-85512000D01*
X156276000Y-86314000D01*
G37*
G36*
X114978997Y-83468342D02*
G01*
X115063666Y-83485183D01*
X115129738Y-83512551D01*
X115223177Y-83551255D01*
X115366736Y-83647178D01*
X115488822Y-83769264D01*
X115584745Y-83912823D01*
X115650817Y-84072335D01*
X115684500Y-84241671D01*
X115684500Y-84414329D01*
X115650817Y-84583665D01*
X115584745Y-84743177D01*
X115488822Y-84886736D01*
X115366736Y-85008822D01*
X115223177Y-85104745D01*
X115129738Y-85143449D01*
X115063666Y-85170817D01*
X114978997Y-85187659D01*
X114894329Y-85204500D01*
X114721671Y-85204500D01*
X114637003Y-85187658D01*
X114552334Y-85170817D01*
X114486262Y-85143449D01*
X114392823Y-85104745D01*
X114249264Y-85008822D01*
X114127178Y-84886736D01*
X114031255Y-84743177D01*
X113965183Y-84583665D01*
X113931500Y-84414329D01*
X113931500Y-84241671D01*
X113965183Y-84072335D01*
X114031255Y-83912823D01*
X114127178Y-83769264D01*
X114249264Y-83647178D01*
X114392823Y-83551255D01*
X114486262Y-83512551D01*
X114552334Y-83485183D01*
X114637003Y-83468342D01*
X114721671Y-83451500D01*
X114894329Y-83451500D01*
X114978997Y-83468342D01*
G37*
G36*
X113144500Y-85204500D02*
G01*
X111391500Y-85204500D01*
X111391500Y-83451500D01*
X113144500Y-83451500D01*
X113144500Y-85204500D01*
G37*
G36*
X134282997Y-83214342D02*
G01*
X134367666Y-83231183D01*
X134433738Y-83258551D01*
X134527177Y-83297255D01*
X134670736Y-83393178D01*
X134792822Y-83515264D01*
X134888745Y-83658823D01*
X134954817Y-83818335D01*
X134988500Y-83987671D01*
X134988500Y-84160329D01*
X134954817Y-84329665D01*
X134888745Y-84489177D01*
X134792822Y-84632736D01*
X134670736Y-84754822D01*
X134527177Y-84850745D01*
X134440287Y-84886736D01*
X134367666Y-84916817D01*
X134282997Y-84933659D01*
X134198329Y-84950500D01*
X134025671Y-84950500D01*
X133941003Y-84933659D01*
X133856334Y-84916817D01*
X133783713Y-84886736D01*
X133696823Y-84850745D01*
X133553264Y-84754822D01*
X133431178Y-84632736D01*
X133335255Y-84489177D01*
X133269183Y-84329665D01*
X133235500Y-84160329D01*
X133235500Y-83987671D01*
X133269183Y-83818335D01*
X133335255Y-83658823D01*
X133431178Y-83515264D01*
X133553264Y-83393178D01*
X133696823Y-83297255D01*
X133790262Y-83258551D01*
X133856334Y-83231183D01*
X133941003Y-83214342D01*
X134025671Y-83197500D01*
X134198329Y-83197500D01*
X134282997Y-83214342D01*
G37*
G36*
X131742997Y-83214342D02*
G01*
X131827666Y-83231183D01*
X131893738Y-83258551D01*
X131987177Y-83297255D01*
X132130736Y-83393178D01*
X132252822Y-83515264D01*
X132348745Y-83658823D01*
X132414817Y-83818335D01*
X132448500Y-83987671D01*
X132448500Y-84160329D01*
X132414817Y-84329665D01*
X132348745Y-84489177D01*
X132252822Y-84632736D01*
X132130736Y-84754822D01*
X131987177Y-84850745D01*
X131900287Y-84886736D01*
X131827666Y-84916817D01*
X131742997Y-84933659D01*
X131658329Y-84950500D01*
X131485671Y-84950500D01*
X131401003Y-84933659D01*
X131316334Y-84916817D01*
X131243713Y-84886736D01*
X131156823Y-84850745D01*
X131013264Y-84754822D01*
X130891178Y-84632736D01*
X130795255Y-84489177D01*
X130729183Y-84329665D01*
X130695500Y-84160329D01*
X130695500Y-83987671D01*
X130729183Y-83818335D01*
X130795255Y-83658823D01*
X130891178Y-83515264D01*
X131013264Y-83393178D01*
X131156823Y-83297255D01*
X131250262Y-83258551D01*
X131316334Y-83231183D01*
X131401003Y-83214342D01*
X131485671Y-83197500D01*
X131658329Y-83197500D01*
X131742997Y-83214342D01*
G37*
G36*
X84422425Y-83328599D02*
G01*
X84546621Y-83353302D01*
X84683022Y-83409801D01*
X84805779Y-83491825D01*
X84910175Y-83596221D01*
X84992199Y-83718978D01*
X85048698Y-83855379D01*
X85077500Y-84000181D01*
X85077500Y-84147819D01*
X85048698Y-84292621D01*
X84992199Y-84429022D01*
X84910175Y-84551779D01*
X84805779Y-84656175D01*
X84683022Y-84738199D01*
X84546621Y-84794698D01*
X84422425Y-84819401D01*
X84401820Y-84823500D01*
X84254180Y-84823500D01*
X84233575Y-84819401D01*
X84109379Y-84794698D01*
X83972978Y-84738199D01*
X83850221Y-84656175D01*
X83745825Y-84551779D01*
X83663801Y-84429022D01*
X83607302Y-84292621D01*
X83578500Y-84147819D01*
X83578500Y-84000181D01*
X83607302Y-83855379D01*
X83663801Y-83718978D01*
X83745825Y-83596221D01*
X83850221Y-83491825D01*
X83972978Y-83409801D01*
X84109379Y-83353302D01*
X84233575Y-83328599D01*
X84254180Y-83324500D01*
X84401820Y-83324500D01*
X84422425Y-83328599D01*
G37*
G36*
X81882425Y-83328599D02*
G01*
X82006621Y-83353302D01*
X82143022Y-83409801D01*
X82265779Y-83491825D01*
X82370175Y-83596221D01*
X82452199Y-83718978D01*
X82508698Y-83855379D01*
X82537500Y-84000181D01*
X82537500Y-84147819D01*
X82508698Y-84292621D01*
X82452199Y-84429022D01*
X82370175Y-84551779D01*
X82265779Y-84656175D01*
X82143022Y-84738199D01*
X82006621Y-84794698D01*
X81882425Y-84819401D01*
X81861820Y-84823500D01*
X81714180Y-84823500D01*
X81693575Y-84819401D01*
X81569379Y-84794698D01*
X81432978Y-84738199D01*
X81310221Y-84656175D01*
X81205825Y-84551779D01*
X81123801Y-84429022D01*
X81067302Y-84292621D01*
X81038500Y-84147819D01*
X81038500Y-84000181D01*
X81067302Y-83855379D01*
X81123801Y-83718978D01*
X81205825Y-83596221D01*
X81310221Y-83491825D01*
X81432978Y-83409801D01*
X81569379Y-83353302D01*
X81693575Y-83328599D01*
X81714180Y-83324500D01*
X81861820Y-83324500D01*
X81882425Y-83328599D01*
G37*
G36*
X156276000Y-84414000D02*
G01*
X154874000Y-84414000D01*
X154874000Y-83612000D01*
X156276000Y-83612000D01*
X156276000Y-84414000D01*
G37*
G36*
X144623000Y-83551000D02*
G01*
X143921000Y-83551000D01*
X143921000Y-81549000D01*
X144623000Y-81549000D01*
X144623000Y-83551000D01*
G37*
G36*
X147379000Y-83378400D02*
G01*
X146277000Y-83378400D01*
X146277000Y-82026400D01*
X147379000Y-82026400D01*
X147379000Y-83378400D01*
G37*
G36*
X149379000Y-83378400D02*
G01*
X148277000Y-83378400D01*
X148277000Y-82026400D01*
X149379000Y-82026400D01*
X149379000Y-83378400D01*
G37*
G36*
X143623000Y-83001000D02*
G01*
X142921000Y-83001000D01*
X142921000Y-82099000D01*
X143623000Y-82099000D01*
X143623000Y-83001000D01*
G37*
G36*
X145623000Y-83001000D02*
G01*
X144921000Y-83001000D01*
X144921000Y-82099000D01*
X145623000Y-82099000D01*
X145623000Y-83001000D01*
G37*
G36*
X115482000Y-82362000D02*
G01*
X113880000Y-82362000D01*
X113880000Y-80960000D01*
X115482000Y-80960000D01*
X115482000Y-82362000D01*
G37*
G36*
X112782000Y-82362000D02*
G01*
X111180000Y-82362000D01*
X111180000Y-80960000D01*
X112782000Y-80960000D01*
X112782000Y-82362000D01*
G37*
G36*
X81882425Y-80788599D02*
G01*
X82006621Y-80813302D01*
X82143022Y-80869801D01*
X82265779Y-80951825D01*
X82370175Y-81056221D01*
X82452199Y-81178978D01*
X82508698Y-81315379D01*
X82537500Y-81460181D01*
X82537500Y-81607819D01*
X82508698Y-81752621D01*
X82452199Y-81889022D01*
X82370175Y-82011779D01*
X82265779Y-82116175D01*
X82143022Y-82198199D01*
X82006621Y-82254698D01*
X81882425Y-82279401D01*
X81861820Y-82283500D01*
X81714180Y-82283500D01*
X81693575Y-82279401D01*
X81569379Y-82254698D01*
X81432978Y-82198199D01*
X81310221Y-82116175D01*
X81205825Y-82011779D01*
X81123801Y-81889022D01*
X81067302Y-81752621D01*
X81038500Y-81607819D01*
X81038500Y-81460181D01*
X81067302Y-81315379D01*
X81123801Y-81178978D01*
X81205825Y-81056221D01*
X81310221Y-80951825D01*
X81432978Y-80869801D01*
X81569379Y-80813302D01*
X81693575Y-80788599D01*
X81714180Y-80784500D01*
X81861820Y-80784500D01*
X81882425Y-80788599D01*
G37*
G36*
X84422425Y-80788599D02*
G01*
X84546621Y-80813302D01*
X84683022Y-80869801D01*
X84805779Y-80951825D01*
X84910175Y-81056221D01*
X84992199Y-81178978D01*
X85048698Y-81315379D01*
X85077500Y-81460181D01*
X85077500Y-81607819D01*
X85048698Y-81752621D01*
X84992199Y-81889022D01*
X84910175Y-82011779D01*
X84805779Y-82116175D01*
X84683022Y-82198199D01*
X84546621Y-82254698D01*
X84422425Y-82279401D01*
X84401820Y-82283500D01*
X84254180Y-82283500D01*
X84233575Y-82279401D01*
X84109379Y-82254698D01*
X83972978Y-82198199D01*
X83850221Y-82116175D01*
X83745825Y-82011779D01*
X83663801Y-81889022D01*
X83607302Y-81752621D01*
X83578500Y-81607819D01*
X83578500Y-81460181D01*
X83607302Y-81315379D01*
X83663801Y-81178978D01*
X83745825Y-81056221D01*
X83850221Y-80951825D01*
X83972978Y-80869801D01*
X84109379Y-80813302D01*
X84233575Y-80788599D01*
X84254180Y-80784500D01*
X84401820Y-80784500D01*
X84422425Y-80788599D01*
G37*
G36*
X158741840Y-81479020D02*
G01*
X145639840Y-81479020D01*
X145639840Y-79877020D01*
X158741840Y-79877020D01*
X158741840Y-81479020D01*
G37*
G36*
X122113000Y-80665000D02*
G01*
X120711000Y-80665000D01*
X120711000Y-79863000D01*
X122113000Y-79863000D01*
X122113000Y-80665000D01*
G37*
G36*
X125669000Y-80279000D02*
G01*
X124267000Y-80279000D01*
X124267000Y-79477000D01*
X125669000Y-79477000D01*
X125669000Y-80279000D01*
G37*
G36*
X84422425Y-78248599D02*
G01*
X84546621Y-78273302D01*
X84683022Y-78329801D01*
X84805779Y-78411825D01*
X84910175Y-78516221D01*
X84992199Y-78638978D01*
X85048698Y-78775379D01*
X85077500Y-78920181D01*
X85077500Y-79067819D01*
X85048698Y-79212621D01*
X84992199Y-79349022D01*
X84910175Y-79471779D01*
X84805779Y-79576175D01*
X84683022Y-79658199D01*
X84546621Y-79714698D01*
X84422425Y-79739401D01*
X84401820Y-79743500D01*
X84254180Y-79743500D01*
X84233575Y-79739401D01*
X84109379Y-79714698D01*
X83972978Y-79658199D01*
X83850221Y-79576175D01*
X83745825Y-79471779D01*
X83663801Y-79349022D01*
X83607302Y-79212621D01*
X83578500Y-79067819D01*
X83578500Y-78920181D01*
X83607302Y-78775379D01*
X83663801Y-78638978D01*
X83745825Y-78516221D01*
X83850221Y-78411825D01*
X83972978Y-78329801D01*
X84109379Y-78273302D01*
X84233575Y-78248599D01*
X84254180Y-78244500D01*
X84401820Y-78244500D01*
X84422425Y-78248599D01*
G37*
G36*
X81882425Y-78248599D02*
G01*
X82006621Y-78273302D01*
X82143022Y-78329801D01*
X82265779Y-78411825D01*
X82370175Y-78516221D01*
X82452199Y-78638978D01*
X82508698Y-78775379D01*
X82537500Y-78920181D01*
X82537500Y-79067819D01*
X82508698Y-79212621D01*
X82452199Y-79349022D01*
X82370175Y-79471779D01*
X82265779Y-79576175D01*
X82143022Y-79658199D01*
X82006621Y-79714698D01*
X81882425Y-79739401D01*
X81861820Y-79743500D01*
X81714180Y-79743500D01*
X81693575Y-79739401D01*
X81569379Y-79714698D01*
X81432978Y-79658199D01*
X81310221Y-79576175D01*
X81205825Y-79471779D01*
X81123801Y-79349022D01*
X81067302Y-79212621D01*
X81038500Y-79067819D01*
X81038500Y-78920181D01*
X81067302Y-78775379D01*
X81123801Y-78638978D01*
X81205825Y-78516221D01*
X81310221Y-78411825D01*
X81432978Y-78329801D01*
X81569379Y-78273302D01*
X81693575Y-78248599D01*
X81714180Y-78244500D01*
X81861820Y-78244500D01*
X81882425Y-78248599D01*
G37*
G36*
X117561000Y-78933000D02*
G01*
X116759000Y-78933000D01*
X116759000Y-77531000D01*
X117561000Y-77531000D01*
X117561000Y-78933000D01*
G37*
G36*
X129367000Y-78933000D02*
G01*
X128565000Y-78933000D01*
X128565000Y-77531000D01*
X129367000Y-77531000D01*
X129367000Y-78933000D01*
G37*
G36*
X127467000Y-78933000D02*
G01*
X126665000Y-78933000D01*
X126665000Y-77531000D01*
X127467000Y-77531000D01*
X127467000Y-78933000D01*
G37*
G36*
X119461000Y-78933000D02*
G01*
X118659000Y-78933000D01*
X118659000Y-77531000D01*
X119461000Y-77531000D01*
X119461000Y-78933000D01*
G37*
G36*
X116159000Y-78933000D02*
G01*
X115357000Y-78933000D01*
X115357000Y-77531000D01*
X116159000Y-77531000D01*
X116159000Y-78933000D01*
G37*
G36*
X114259000Y-78933000D02*
G01*
X113457000Y-78933000D01*
X113457000Y-77531000D01*
X114259000Y-77531000D01*
X114259000Y-78933000D01*
G37*
G36*
X122113000Y-78765000D02*
G01*
X120711000Y-78765000D01*
X120711000Y-77963000D01*
X122113000Y-77963000D01*
X122113000Y-78765000D01*
G37*
G36*
X146441840Y-78679020D02*
G01*
X144839840Y-78679020D01*
X144839840Y-73877020D01*
X146441840Y-73877020D01*
X146441840Y-78679020D01*
G37*
G36*
X125669000Y-78379000D02*
G01*
X124267000Y-78379000D01*
X124267000Y-77577000D01*
X125669000Y-77577000D01*
X125669000Y-78379000D01*
G37*
G36*
X127305000Y-76898700D02*
G01*
X125399600Y-76898700D01*
X125399600Y-75399700D01*
X127305000Y-75399700D01*
X127305000Y-76898700D01*
G37*
G36*
X121590000Y-76898700D02*
G01*
X119684600Y-76898700D01*
X119684600Y-75399700D01*
X121590000Y-75399700D01*
X121590000Y-76898700D01*
G37*
G36*
X106802098Y-71671033D02*
G01*
X107266350Y-71863332D01*
X107266352Y-71863333D01*
X107684168Y-72142509D01*
X108039491Y-72497832D01*
X108160557Y-72679020D01*
X108318668Y-72915650D01*
X108510967Y-73379902D01*
X108609000Y-73872747D01*
X108609000Y-74375253D01*
X108510967Y-74868098D01*
X108318668Y-75332350D01*
X108318667Y-75332352D01*
X108039491Y-75750168D01*
X107684168Y-76105491D01*
X107266352Y-76384667D01*
X107266351Y-76384668D01*
X107266350Y-76384668D01*
X106802098Y-76576967D01*
X106309253Y-76675000D01*
X105806747Y-76675000D01*
X105313902Y-76576967D01*
X104849650Y-76384668D01*
X104849649Y-76384668D01*
X104849648Y-76384667D01*
X104431832Y-76105491D01*
X104076509Y-75750168D01*
X103797333Y-75332352D01*
X103797332Y-75332350D01*
X103605033Y-74868098D01*
X103507000Y-74375253D01*
X103507000Y-73872747D01*
X103605033Y-73379902D01*
X103797332Y-72915650D01*
X103955443Y-72679020D01*
X104076509Y-72497832D01*
X104431832Y-72142509D01*
X104849648Y-71863333D01*
X104849650Y-71863332D01*
X105313902Y-71671033D01*
X105806747Y-71573000D01*
X106309253Y-71573000D01*
X106802098Y-71671033D01*
G37*
G36*
X83802098Y-71671033D02*
G01*
X84266350Y-71863332D01*
X84266352Y-71863333D01*
X84684168Y-72142509D01*
X85039491Y-72497832D01*
X85160557Y-72679020D01*
X85318668Y-72915650D01*
X85510967Y-73379902D01*
X85609000Y-73872747D01*
X85609000Y-74375253D01*
X85510967Y-74868098D01*
X85318668Y-75332350D01*
X85318667Y-75332352D01*
X85039491Y-75750168D01*
X84684168Y-76105491D01*
X84266352Y-76384667D01*
X84266351Y-76384668D01*
X84266350Y-76384668D01*
X83802098Y-76576967D01*
X83309253Y-76675000D01*
X82806747Y-76675000D01*
X82313902Y-76576967D01*
X81849650Y-76384668D01*
X81849649Y-76384668D01*
X81849648Y-76384667D01*
X81431832Y-76105491D01*
X81076509Y-75750168D01*
X80797333Y-75332352D01*
X80797332Y-75332350D01*
X80605033Y-74868098D01*
X80507000Y-74375253D01*
X80507000Y-73872747D01*
X80605033Y-73379902D01*
X80797332Y-72915650D01*
X80955443Y-72679020D01*
X81076509Y-72497832D01*
X81431832Y-72142509D01*
X81849648Y-71863333D01*
X81849650Y-71863332D01*
X82313902Y-71671033D01*
X82806747Y-71573000D01*
X83309253Y-71573000D01*
X83802098Y-71671033D01*
G37*
G36*
X143703000Y-76027000D02*
G01*
X142301000Y-76027000D01*
X142301000Y-75225000D01*
X143703000Y-75225000D01*
X143703000Y-76027000D01*
G37*
G36*
X141823400Y-76027000D02*
G01*
X140421400Y-76027000D01*
X140421400Y-75225000D01*
X141823400Y-75225000D01*
X141823400Y-76027000D01*
G37*
G36*
X143703000Y-74127000D02*
G01*
X142301000Y-74127000D01*
X142301000Y-73325000D01*
X143703000Y-73325000D01*
X143703000Y-74127000D01*
G37*
G36*
X141823400Y-74127000D02*
G01*
X140421400Y-74127000D01*
X140421400Y-73325000D01*
X141823400Y-73325000D01*
X141823400Y-74127000D01*
G37*
G36*
X158741840Y-72679020D02*
G01*
X145639840Y-72679020D01*
X145639840Y-71077020D01*
X158741840Y-71077020D01*
X158741840Y-72679020D01*
G37*
G36*
X132831800Y-69550000D02*
G01*
X131429800Y-69550000D01*
X131429800Y-68748000D01*
X132831800Y-68748000D01*
X132831800Y-69550000D01*
G37*
G36*
X135026702Y-69496701D02*
G01*
X133375302Y-69496701D01*
X133375302Y-68099301D01*
X135026702Y-68099301D01*
X135026702Y-69496701D01*
G37*
G36*
X142976698Y-69496701D02*
G01*
X141325298Y-69496701D01*
X141325298Y-68099301D01*
X142976698Y-68099301D01*
X142976698Y-69496701D01*
G37*
G36*
X132831800Y-67650000D02*
G01*
X131429800Y-67650000D01*
X131429800Y-66848000D01*
X132831800Y-66848000D01*
X132831800Y-67650000D01*
G37*
G36*
X123373972Y-64586828D02*
G01*
X123376374Y-64611214D01*
X123383487Y-64634663D01*
X123395038Y-64656274D01*
X123410583Y-64675216D01*
X123429525Y-64690761D01*
X123451136Y-64702312D01*
X123474585Y-64709425D01*
X123498971Y-64711827D01*
X124518573Y-64711827D01*
X124542959Y-64709425D01*
X124566408Y-64702312D01*
X124588019Y-64690761D01*
X124606961Y-64675216D01*
X124622506Y-64656274D01*
X124634057Y-64634663D01*
X124641170Y-64611214D01*
X124643572Y-64586828D01*
X124643572Y-64508627D01*
X125558372Y-64508627D01*
X125558372Y-64586828D01*
X125560774Y-64611214D01*
X125567887Y-64634663D01*
X125579438Y-64656274D01*
X125594983Y-64675216D01*
X125613925Y-64690761D01*
X125635536Y-64702312D01*
X125658985Y-64709425D01*
X125683371Y-64711827D01*
X127742772Y-64711827D01*
X127742772Y-66312427D01*
X125735772Y-66312427D01*
X125735772Y-66234226D01*
X125733370Y-66209840D01*
X125726257Y-66186391D01*
X125714706Y-66164780D01*
X125699161Y-66145838D01*
X125680219Y-66130293D01*
X125658608Y-66118742D01*
X125635159Y-66111629D01*
X125610773Y-66109227D01*
X124591171Y-66109227D01*
X124566785Y-66111629D01*
X124543336Y-66118742D01*
X124521725Y-66130293D01*
X124502783Y-66145838D01*
X124487238Y-66164780D01*
X124475687Y-66186391D01*
X124468574Y-66209840D01*
X124466172Y-66234226D01*
X124466172Y-66312427D01*
X123551372Y-66312427D01*
X123551372Y-66234226D01*
X123548970Y-66209840D01*
X123541857Y-66186391D01*
X123530306Y-66164780D01*
X123514761Y-66145838D01*
X123495819Y-66130293D01*
X123474208Y-66118742D01*
X123450759Y-66111629D01*
X123426373Y-66109227D01*
X122406771Y-66109227D01*
X122382385Y-66111629D01*
X122358936Y-66118742D01*
X122337325Y-66130293D01*
X122318383Y-66145838D01*
X122302838Y-66164780D01*
X122291287Y-66186391D01*
X122284174Y-66209840D01*
X122281772Y-66234226D01*
X122281772Y-66312427D01*
X121314571Y-66312427D01*
X121290185Y-66314829D01*
X121266736Y-66321942D01*
X121245125Y-66333493D01*
X121226183Y-66349038D01*
X121210638Y-66367980D01*
X121199087Y-66389591D01*
X121191974Y-66413040D01*
X121189572Y-66437426D01*
X121189572Y-66718827D01*
X120274772Y-66718827D01*
X120274772Y-66437426D01*
X120272370Y-66413040D01*
X120265257Y-66389591D01*
X120253706Y-66367980D01*
X120238161Y-66349038D01*
X120219219Y-66333493D01*
X120197608Y-66321942D01*
X120174159Y-66314829D01*
X120149773Y-66312427D01*
X119182572Y-66312427D01*
X119182572Y-64711827D01*
X120097372Y-64711827D01*
X120097372Y-64993228D01*
X120099774Y-65017614D01*
X120106887Y-65041063D01*
X120118438Y-65062674D01*
X120133983Y-65081616D01*
X120152925Y-65097161D01*
X120174536Y-65108712D01*
X120197985Y-65115825D01*
X120222371Y-65118227D01*
X121241973Y-65118227D01*
X121266359Y-65115825D01*
X121289808Y-65108712D01*
X121311419Y-65097161D01*
X121330361Y-65081616D01*
X121345906Y-65062674D01*
X121357457Y-65041063D01*
X121364570Y-65017614D01*
X121366972Y-64993228D01*
X121366972Y-64711827D01*
X122334173Y-64711827D01*
X122358559Y-64709425D01*
X122382008Y-64702312D01*
X122403619Y-64690761D01*
X122422561Y-64675216D01*
X122438106Y-64656274D01*
X122449657Y-64634663D01*
X122456770Y-64611214D01*
X122459172Y-64586828D01*
X122459172Y-64508627D01*
X123373972Y-64508627D01*
X123373972Y-64586828D01*
G37*
G36*
X132806800Y-66371800D02*
G01*
X131454800Y-66371800D01*
X131454800Y-65269800D01*
X132806800Y-65269800D01*
X132806800Y-66371800D01*
G37*
G36*
X135026702Y-64996699D02*
G01*
X133375302Y-64996699D01*
X133375302Y-63599299D01*
X135026702Y-63599299D01*
X135026702Y-64996699D01*
G37*
G36*
X142976698Y-64996699D02*
G01*
X141325298Y-64996699D01*
X141325298Y-63599299D01*
X142976698Y-63599299D01*
X142976698Y-64996699D01*
G37*
G36*
X132806800Y-64371800D02*
G01*
X131454800Y-64371800D01*
X131454800Y-63269800D01*
X132806800Y-63269800D01*
X132806800Y-64371800D01*
G37*
G36*
X128712242Y-63688117D02*
G01*
X127213242Y-63688117D01*
X127213242Y-61681117D01*
X128712242Y-61681117D01*
X128712242Y-63688117D01*
G37*
G36*
X115468600Y-62966800D02*
G01*
X113969600Y-62966800D01*
X113969600Y-60959800D01*
X115468600Y-60959800D01*
X115468600Y-62966800D01*
G37*
M02*
