M48
; DRILL file {KiCad (5.1.6)-1} date 10/24/20 15:44:07
; FORMAT={-:-/ absolute / metric / decimal}
; #@! TF.CreationDate,2020-10-24T15:44:07-04:00
; #@! TF.GenerationSoftware,Kicad,Pcbnew,(5.1.6)-1
; #@! TF.FileFunction,Plated,1,4,PTH
FMAT,2
METRIC
T1C0.400
T2C0.889
T3C1.143
T4C2.900
%
G90
G05
T1
X81.153Y-136.652
X81.153Y-139.192
X81.153Y-141.732
X81.153Y-144.272
X81.153Y-146.812
X81.153Y-149.352
X81.153Y-152.527
X88.138Y-62.357
X89.916Y-143.256
X89.916Y-155.448
X90.547Y-118.296
X90.551Y-127.635
X90.932Y-150.368
X91.948Y-62.357
X92.202Y-141.922
X92.202Y-144.589
X92.202Y-154.178
X92.202Y-156.718
X92.456Y-124.46
X92.583Y-114.427
X93.853Y-118.872
X94.488Y-112.522
X95.25Y-123.444
X95.758Y-62.357
X95.758Y-116.967
X96.393Y-110.617
X97.028Y-122.428
X97.536Y-126.492
X97.663Y-115.062
X98.933Y-120.523
X99.441Y-143.764
X99.568Y-62.357
X99.568Y-113.157
X100.076Y-145.034
X100.33Y-143.002
X101.092Y-120.396
X101.219Y-143.764
X102.108Y-143.002
X102.87Y-119.126
X102.997Y-143.764
X103.378Y-62.357
X103.378Y-107.95
X103.505Y-106.299
X103.632Y-128.524
X103.759Y-143.002
X104.902Y-128.27
X105.156Y-115.316
X105.156Y-146.558
X105.448Y-139.065
X105.918Y-157.988
X106.426Y-146.558
X106.934Y-127.762
X107.188Y-62.357
X107.188Y-156.718
X107.442Y-154.686
X108.458Y-136.017
X108.966Y-109.728
X109.728Y-104.394
X109.728Y-123.952
X109.788Y-112.147
X110.49Y-81.661
X110.49Y-105.41
X110.68Y-109.728
X110.998Y-62.357
X110.998Y-138.557
X111.252Y-104.394
X111.963Y-80.264
X112.014Y-96.266
X112.014Y-105.41
X112.268Y-64.897
X112.268Y-68.707
X112.268Y-72.517
X112.395Y-100.838
X112.585Y-109.728
X112.776Y-104.394
X113.03Y-102.362
X113.03Y-111.76
X113.093Y-131.508
X113.538Y-105.41
X113.538Y-113.284
X113.538Y-141.097
X113.665Y-136.271
X113.728Y-124.587
X113.751Y-125.67
X113.792Y-75.438
X114.427Y-101.727
X114.554Y-79.756
X114.554Y-148.717
X114.554Y-150.495
X114.554Y-152.146
X114.554Y-153.924
X114.554Y-155.194
X114.808Y-145.796
X114.808Y-147.32
X114.935Y-131.572
X114.935Y-136.207
X115.062Y-110.915
X115.062Y-112.776
X115.062Y-119.634
X115.189Y-124.587
X115.189Y-128.905
X115.316Y-100.33
X115.316Y-118.364
X115.57Y-91.948
X115.57Y-145.034
X115.57Y-146.558
X115.951Y-106.553
X116.285Y-113.934
X116.481Y-80.01
X116.586Y-99.06
X116.586Y-153.924
X116.586Y-155.448
X116.975Y-113.254
X117.177Y-131.191
X117.265Y-111.252
X117.729Y-148.59
X117.729Y-149.606
X117.729Y-150.622
X117.856Y-81.28
X117.856Y-153.924
X117.856Y-155.448
X117.948Y-113.254
X118.796Y-102.094
X118.872Y-100.076
X118.872Y-113.538
X118.872Y-153.924
X118.872Y-155.448
X118.971Y-81.435
X118.999Y-124.079
X119.093Y-79.723
X119.442Y-106.315
X119.491Y-136.423
X120.006Y-93.354
X120.015Y-132.364
X120.015Y-133.723
X120.015Y-134.675
X120.015Y-135.628
X120.142Y-115.062
X120.142Y-153.924
X120.142Y-155.448
X120.269Y-118.11
X120.269Y-145.225
X120.394Y-106.315
X120.523Y-129.286
X120.523Y-146.939
X121.063Y-117.094
X121.158Y-110.236
X121.412Y-82.042
X121.412Y-87.122
X121.412Y-107.525
X121.412Y-126.746
X121.475Y-115.189
X121.543Y-132.782
X121.672Y-133.872
X121.745Y-111.259
X122.765Y-93.571
X122.936Y-90.17
X123.19Y-107.442
X123.194Y-106.485
X123.503Y-126.805
X123.924Y-91.976
X124.4Y-109.026
X124.587Y-118.237
X124.714Y-81.534
X124.968Y-143.256
X125.158Y-137.16
X125.222Y-67.056
X125.222Y-134.199
X125.349Y-114.808
X125.938Y-121.874
X126.321Y-100.838
X126.365Y-138.493
X126.484Y-89.916
X126.873Y-112.459
X126.917Y-80.772
X127.0Y-147.066
X127.127Y-119.507
X127.127Y-156.654
X127.254Y-118.237
X127.254Y-154.686
X127.508Y-149.606
X127.534Y-115.283
X127.552Y-111.574
X127.679Y-99.568
X127.698Y-113.474
X128.607Y-89.491
X128.638Y-108.712
X128.68Y-113.523
X128.778Y-94.996
X128.829Y-118.364
X129.032Y-131.318
X129.032Y-135.89
X129.286Y-83.312
X129.286Y-91.44
X129.286Y-121.666
X129.54Y-95.504
X129.54Y-112.014
X129.957Y-120.94
X129.986Y-97.658
X130.048Y-72.644
X130.048Y-96.266
X130.874Y-131.318
X130.874Y-135.89
X131.445Y-103.632
X131.796Y-99.588
X131.826Y-108.896
X132.251Y-91.567
X132.588Y-99.06
X132.639Y-125.527
X133.604Y-116.586
X133.686Y-92.964
X133.725Y-114.554
X133.725Y-115.506
X134.804Y-127.762
X134.81Y-123.952
X135.001Y-94.361
X135.227Y-125.512
X135.636Y-102.616
X135.763Y-61.722
X135.89Y-64.262
X136.398Y-94.234
X136.652Y-102.87
X137.033Y-152.781
X137.033Y-153.797
X137.033Y-156.845
X137.033Y-157.734
X137.336Y-95.998
X137.414Y-94.234
X137.514Y-105.178
X137.751Y-109.708
X137.986Y-127.127
X138.176Y-125.73
X138.267Y-117.207
X138.303Y-95.998
X138.303Y-102.743
X138.366Y-94.243
X138.635Y-119.53
X138.684Y-131.318
X138.939Y-106.427
X139.001Y-152.654
X139.001Y-153.606
X139.065Y-102.108
X139.192Y-125.73
X139.573Y-61.722
X139.573Y-105.664
X139.762Y-123.382
X140.081Y-101.092
X140.144Y-125.73
X140.462Y-64.262
X140.716Y-93.853
X140.716Y-96.393
X140.716Y-109.474
X140.824Y-126.522
X140.97Y-114.471
X140.978Y-120.147
X141.318Y-117.762
X141.605Y-102.743
X142.24Y-82.55
X142.43Y-137.605
X142.494Y-101.854
X142.494Y-110.744
X142.748Y-61.722
X142.748Y-93.853
X142.748Y-96.393
X142.748Y-112.347
X142.748Y-158.877
X142.958Y-115.167
X142.958Y-128.717
X143.764Y-136.271
X144.018Y-78.232
X144.272Y-80.772
X144.272Y-84.201
X144.272Y-101.981
X144.78Y-93.853
X144.78Y-96.393
X144.86Y-116.161
X145.12Y-114.015
X145.288Y-87.884
X145.288Y-113.03
X145.923Y-61.722
X146.098Y-108.397
X146.304Y-127.254
X146.558Y-158.877
X146.57Y-118.96
X146.812Y-93.853
X146.812Y-96.393
X147.066Y-74.231
X147.308Y-108.157
X147.574Y-125.984
X148.088Y-105.897
X148.336Y-144.018
X148.59Y-125.984
X148.844Y-93.853
X148.844Y-96.393
X148.976Y-120.559
X149.098Y-61.722
X149.288Y-103.847
X150.05Y-70.358
X150.241Y-125.857
X150.266Y-82.448
X150.368Y-158.877
X150.398Y-112.507
X150.495Y-142.748
X150.812Y-133.223
X150.988Y-108.797
X150.998Y-111.597
X151.066Y-70.358
X152.146Y-125.857
X152.268Y-112.347
X152.273Y-61.722
X152.522Y-147.902
X152.527Y-143.256
X152.908Y-101.854
X153.035Y-70.358
X153.035Y-82.169
X153.035Y-85.344
X153.035Y-137.795
X153.416Y-92.71
X153.797Y-131.953
X154.076Y-70.358
X154.178Y-158.877
X154.458Y-110.237
X154.559Y-125.857
X154.686Y-102.108
X155.067Y-82.169
X155.067Y-131.699
X156.019Y-144.082
X156.083Y-82.169
X156.083Y-127.0
X156.21Y-114.935
X156.4Y-119.951
X157.035Y-70.421
X157.035Y-82.169
X157.498Y-107.257
X157.508Y-104.207
X157.734Y-100.584
X157.988Y-148.717
X157.988Y-152.527
X158.178Y-70.421
X158.178Y-82.169
T2
X81.788Y-78.994
X81.788Y-81.534
X81.788Y-84.074
X81.788Y-86.614
X81.788Y-89.154
X81.788Y-91.694
X81.788Y-94.234
X81.788Y-96.774
X81.788Y-99.314
X81.788Y-101.854
X81.788Y-104.394
X81.788Y-106.934
X81.788Y-109.474
X81.788Y-112.014
X81.788Y-114.554
X81.788Y-117.094
X81.788Y-119.634
X81.788Y-122.174
X81.788Y-124.714
X81.788Y-127.254
X84.328Y-78.994
X84.328Y-81.534
X84.328Y-84.074
X84.328Y-86.614
X84.328Y-89.154
X84.328Y-91.694
X84.328Y-94.234
X84.328Y-96.774
X84.328Y-99.314
X84.328Y-101.854
X84.328Y-104.394
X84.328Y-106.934
X84.328Y-109.474
X84.328Y-112.014
X84.328Y-114.554
X84.328Y-117.094
X84.328Y-119.634
X84.328Y-122.174
X84.328Y-124.714
X84.328Y-127.254
X130.404Y-148.539
X132.944Y-148.539
T3
X131.572Y-84.074
X131.572Y-86.614
X131.572Y-89.154
X134.112Y-84.074
X134.112Y-86.614
X134.112Y-89.154
X112.268Y-84.328
X112.268Y-86.868
X112.268Y-89.408
X114.808Y-84.328
X114.808Y-86.868
X114.808Y-89.408
T4
X83.058Y-74.124
X83.058Y-132.124
X106.058Y-74.124
X106.058Y-132.124
T0
M30
