G04 #@! TF.GenerationSoftware,KiCad,Pcbnew,(5.1.5)-3*
G04 #@! TF.CreationDate,2020-10-19T10:12:20-04:00*
G04 #@! TF.ProjectId,flight_computer,666c6967-6874-45f6-936f-6d7075746572,rev?*
G04 #@! TF.SameCoordinates,Original*
G04 #@! TF.FileFunction,Paste,Top*
G04 #@! TF.FilePolarity,Positive*
%FSLAX46Y46*%
G04 Gerber Fmt 4.6, Leading zero omitted, Abs format (unit mm)*
G04 Created by KiCad (PCBNEW (5.1.5)-3) date 2020-10-19 10:12:20*
%MOMM*%
%LPD*%
G04 APERTURE LIST*
%ADD10C,0.100000*%
%ADD11C,0.152400*%
%ADD12R,1.500000X0.700000*%
%ADD13R,0.700000X1.500000*%
%ADD14R,1.000000X1.500000*%
%ADD15R,1.219200X2.997200*%
%ADD16R,0.400000X0.500000*%
%ADD17R,1.600000X1.000000*%
%ADD18R,4.900001X2.949999*%
%ADD19R,0.599999X1.450000*%
%ADD20R,0.800000X0.900000*%
%ADD21R,1.380000X0.450000*%
%ADD22R,2.100000X1.475000*%
%ADD23R,1.900000X2.375000*%
%ADD24R,1.900000X1.175000*%
%ADD25R,1.800000X4.600000*%
%ADD26R,1.250000X1.000000*%
%ADD27R,1.000000X1.250000*%
%ADD28R,3.098800X1.219200*%
%ADD29R,0.500000X0.500000*%
%ADD30R,0.600000X0.500000*%
%ADD31R,2.030000X2.650000*%
%ADD32R,1.300000X1.500000*%
%ADD33R,1.500000X1.300000*%
%ADD34R,0.800000X0.600000*%
%ADD35R,1.900000X0.600000*%
%ADD36R,0.600000X0.800000*%
%ADD37R,0.600000X1.900000*%
%ADD38R,1.200000X1.800000*%
%ADD39R,0.600000X1.550000*%
%ADD40R,1.700000X0.600000*%
%ADD41R,2.700000X1.000000*%
%ADD42R,1.803400X0.660400*%
%ADD43R,2.879999X1.092200*%
%ADD44R,0.700000X1.300000*%
%ADD45R,1.300000X0.700000*%
%ADD46R,0.400000X1.100000*%
%ADD47R,1.005599X0.500000*%
%ADD48R,1.060000X0.650000*%
%ADD49R,0.254000X0.482600*%
%ADD50R,0.482600X0.254000*%
%ADD51R,0.275000X0.250000*%
%ADD52R,1.092200X0.609600*%
%ADD53R,0.838200X1.295400*%
%ADD54R,0.508000X0.355600*%
%ADD55R,0.812800X1.498600*%
%ADD56R,1.397000X1.905000*%
%ADD57R,1.803400X1.397000*%
%ADD58R,1.200000X1.200000*%
G04 APERTURE END LIST*
D10*
G36*
X104686000Y-145842000D02*
G01*
X103086000Y-145842000D01*
X103086000Y-144742000D01*
X103686000Y-144742000D01*
X103686000Y-144492000D01*
X104086000Y-144492000D01*
X104086000Y-144742000D01*
X104686000Y-144742000D01*
X104686000Y-145842000D01*
G37*
D11*
X116839141Y-153425040D02*
X119843139Y-153425040D01*
X119843139Y-153425040D02*
X119852503Y-153425962D01*
X119852503Y-153425962D02*
X119861508Y-153428692D01*
X119861508Y-153428692D02*
X119869806Y-153433130D01*
X119869806Y-153433130D02*
X119877081Y-153439099D01*
X119877081Y-153439099D02*
X119883050Y-153446373D01*
X119883050Y-153446373D02*
X119887487Y-153454672D01*
X119887487Y-153454672D02*
X119890217Y-153463676D01*
X119890217Y-153463676D02*
X119891139Y-153473041D01*
X119891139Y-153473041D02*
X119891139Y-155777039D01*
X119891139Y-155777039D02*
X119890217Y-155786404D01*
X119890217Y-155786404D02*
X119887487Y-155795408D01*
X119887487Y-155795408D02*
X119883050Y-155803707D01*
X119883050Y-155803707D02*
X119877081Y-155810981D01*
X119877081Y-155810981D02*
X119869806Y-155816950D01*
X119869806Y-155816950D02*
X119861508Y-155821388D01*
X119861508Y-155821388D02*
X119852503Y-155824118D01*
X119852503Y-155824118D02*
X119843139Y-155825040D01*
X119843139Y-155825040D02*
X116839141Y-155825040D01*
X116839141Y-155825040D02*
X116829777Y-155824118D01*
X116829777Y-155824118D02*
X116820772Y-155821388D01*
X116820772Y-155821388D02*
X116812474Y-155816950D01*
X116812474Y-155816950D02*
X116805199Y-155810981D01*
X116805199Y-155810981D02*
X116799230Y-155803707D01*
X116799230Y-155803707D02*
X116794793Y-155795408D01*
X116794793Y-155795408D02*
X116792063Y-155786404D01*
X116792063Y-155786404D02*
X116791141Y-155777039D01*
X116791141Y-155777039D02*
X116791141Y-153473041D01*
X116791141Y-153473041D02*
X116792063Y-153463676D01*
X116792063Y-153463676D02*
X116794793Y-153454672D01*
X116794793Y-153454672D02*
X116799230Y-153446373D01*
X116799230Y-153446373D02*
X116805199Y-153439099D01*
X116805199Y-153439099D02*
X116812474Y-153433130D01*
X116812474Y-153433130D02*
X116820772Y-153428692D01*
X116820772Y-153428692D02*
X116829777Y-153425962D01*
X116829777Y-153425962D02*
X116839141Y-153425040D01*
X115871900Y-125231200D02*
X115871900Y-125840800D01*
X115871900Y-125840800D02*
X116964100Y-125840800D01*
X116964100Y-125840800D02*
X116964100Y-125231200D01*
X116964100Y-125231200D02*
X115871900Y-125231200D01*
X115871900Y-126481200D02*
X115871900Y-127090800D01*
X115871900Y-127090800D02*
X116964100Y-127090800D01*
X116964100Y-127090800D02*
X116964100Y-126481200D01*
X116964100Y-126481200D02*
X115871900Y-126481200D01*
X115871900Y-127731200D02*
X115871900Y-128340800D01*
X115871900Y-128340800D02*
X116964100Y-128340800D01*
X116964100Y-128340800D02*
X116964100Y-127731200D01*
X116964100Y-127731200D02*
X115871900Y-127731200D01*
X115871900Y-128981200D02*
X115871900Y-129590800D01*
X115871900Y-129590800D02*
X116964100Y-129590800D01*
X116964100Y-129590800D02*
X116964100Y-128981200D01*
X116964100Y-128981200D02*
X115871900Y-128981200D01*
X118071900Y-128981200D02*
X118071900Y-129590800D01*
X118071900Y-129590800D02*
X119164100Y-129590800D01*
X119164100Y-129590800D02*
X119164100Y-128981200D01*
X119164100Y-128981200D02*
X118071900Y-128981200D01*
X118071900Y-127731200D02*
X118071900Y-128340800D01*
X118071900Y-128340800D02*
X119164100Y-128340800D01*
X119164100Y-128340800D02*
X119164100Y-127731200D01*
X119164100Y-127731200D02*
X118071900Y-127731200D01*
X118071900Y-126481200D02*
X118071900Y-127090800D01*
X118071900Y-127090800D02*
X119164100Y-127090800D01*
X119164100Y-127090800D02*
X119164100Y-126481200D01*
X119164100Y-126481200D02*
X118071900Y-126481200D01*
X118071900Y-125231200D02*
X118071900Y-125840800D01*
X118071900Y-125840800D02*
X119164100Y-125840800D01*
X119164100Y-125840800D02*
X119164100Y-125231200D01*
X119164100Y-125231200D02*
X118071900Y-125231200D01*
D12*
X145640840Y-76278020D03*
X145640840Y-75278020D03*
X145640840Y-77278020D03*
X145640840Y-78278020D03*
X145640840Y-74278020D03*
D13*
X146040840Y-80678020D03*
X147040840Y-80678020D03*
X148040840Y-80678020D03*
X149040840Y-80678020D03*
X150040840Y-80678020D03*
X151040840Y-80678020D03*
X152040840Y-80678020D03*
X153040840Y-80678020D03*
X154040840Y-80678020D03*
X155040840Y-80678020D03*
X156040840Y-80678020D03*
X157040840Y-80678020D03*
X146040840Y-71878020D03*
X147040840Y-71878020D03*
X148040840Y-71878020D03*
X149040840Y-71878020D03*
X150040840Y-71878020D03*
X151040840Y-71878020D03*
X152040840Y-71878020D03*
X153040840Y-71878020D03*
X154040840Y-71878020D03*
X155040840Y-71878020D03*
X156040840Y-71878020D03*
X157040840Y-71878020D03*
D14*
X158190840Y-71878020D03*
X158190840Y-80678020D03*
D15*
X150114000Y-85178900D03*
X150114000Y-90589100D03*
D10*
G36*
X128386487Y-117765759D02*
G01*
X127283401Y-116662673D01*
X127481391Y-116464683D01*
X128584477Y-117567769D01*
X128386487Y-117765759D01*
G37*
G36*
X128740041Y-117412205D02*
G01*
X127636955Y-116309119D01*
X127834945Y-116111129D01*
X128938031Y-117214215D01*
X128740041Y-117412205D01*
G37*
G36*
X129093594Y-117058652D02*
G01*
X127990508Y-115955566D01*
X128188498Y-115757576D01*
X129291584Y-116860662D01*
X129093594Y-117058652D01*
G37*
G36*
X129447148Y-116705099D02*
G01*
X128344062Y-115602013D01*
X128542052Y-115404023D01*
X129645138Y-116507109D01*
X129447148Y-116705099D01*
G37*
G36*
X129800701Y-116351545D02*
G01*
X128697615Y-115248459D01*
X128895605Y-115050469D01*
X129998691Y-116153555D01*
X129800701Y-116351545D01*
G37*
G36*
X130154254Y-115997992D02*
G01*
X129051168Y-114894906D01*
X129249158Y-114696916D01*
X130352244Y-115800002D01*
X130154254Y-115997992D01*
G37*
G36*
X130507808Y-115644438D02*
G01*
X129404722Y-114541352D01*
X129602712Y-114343362D01*
X130705798Y-115446448D01*
X130507808Y-115644438D01*
G37*
G36*
X130861361Y-115290885D02*
G01*
X129758275Y-114187799D01*
X129956265Y-113989809D01*
X131059351Y-115092895D01*
X130861361Y-115290885D01*
G37*
G36*
X131214915Y-114937332D02*
G01*
X130111829Y-113834246D01*
X130309819Y-113636256D01*
X131412905Y-114739342D01*
X131214915Y-114937332D01*
G37*
G36*
X131568468Y-114583778D02*
G01*
X130465382Y-113480692D01*
X130663372Y-113282702D01*
X131766458Y-114385788D01*
X131568468Y-114583778D01*
G37*
G36*
X131922021Y-114230225D02*
G01*
X130818935Y-113127139D01*
X131016925Y-112929149D01*
X132120011Y-114032235D01*
X131922021Y-114230225D01*
G37*
G36*
X132275575Y-113876671D02*
G01*
X131172489Y-112773585D01*
X131370479Y-112575595D01*
X132473565Y-113678681D01*
X132275575Y-113876671D01*
G37*
G36*
X132629128Y-113523118D02*
G01*
X131526042Y-112420032D01*
X131724032Y-112222042D01*
X132827118Y-113325128D01*
X132629128Y-113523118D01*
G37*
G36*
X132982681Y-113169565D02*
G01*
X131879595Y-112066479D01*
X132077585Y-111868489D01*
X133180671Y-112971575D01*
X132982681Y-113169565D01*
G37*
G36*
X133336235Y-112816011D02*
G01*
X132233149Y-111712925D01*
X132431139Y-111514935D01*
X133534225Y-112618021D01*
X133336235Y-112816011D01*
G37*
G36*
X133689788Y-112462458D02*
G01*
X132586702Y-111359372D01*
X132784692Y-111161382D01*
X133887778Y-112264468D01*
X133689788Y-112462458D01*
G37*
G36*
X134043342Y-112108905D02*
G01*
X132940256Y-111005819D01*
X133138246Y-110807829D01*
X134241332Y-111910915D01*
X134043342Y-112108905D01*
G37*
G36*
X134396895Y-111755351D02*
G01*
X133293809Y-110652265D01*
X133491799Y-110454275D01*
X134594885Y-111557361D01*
X134396895Y-111755351D01*
G37*
G36*
X134750448Y-111401798D02*
G01*
X133647362Y-110298712D01*
X133845352Y-110100722D01*
X134948438Y-111203808D01*
X134750448Y-111401798D01*
G37*
G36*
X135104002Y-111048244D02*
G01*
X134000916Y-109945158D01*
X134198906Y-109747168D01*
X135301992Y-110850254D01*
X135104002Y-111048244D01*
G37*
G36*
X135457555Y-110694691D02*
G01*
X134354469Y-109591605D01*
X134552459Y-109393615D01*
X135655545Y-110496701D01*
X135457555Y-110694691D01*
G37*
G36*
X135811109Y-110341138D02*
G01*
X134708023Y-109238052D01*
X134906013Y-109040062D01*
X136009099Y-110143148D01*
X135811109Y-110341138D01*
G37*
G36*
X136164662Y-109987584D02*
G01*
X135061576Y-108884498D01*
X135259566Y-108686508D01*
X136362652Y-109789594D01*
X136164662Y-109987584D01*
G37*
G36*
X136518215Y-109634031D02*
G01*
X135415129Y-108530945D01*
X135613119Y-108332955D01*
X136716205Y-109436041D01*
X136518215Y-109634031D01*
G37*
G36*
X136871769Y-109280477D02*
G01*
X135768683Y-108177391D01*
X135966673Y-107979401D01*
X137069759Y-109082487D01*
X136871769Y-109280477D01*
G37*
G36*
X126010609Y-98419317D02*
G01*
X124907523Y-97316231D01*
X125105513Y-97118241D01*
X126208599Y-98221327D01*
X126010609Y-98419317D01*
G37*
G36*
X125657055Y-98772871D02*
G01*
X124553969Y-97669785D01*
X124751959Y-97471795D01*
X125855045Y-98574881D01*
X125657055Y-98772871D01*
G37*
G36*
X125303502Y-99126424D02*
G01*
X124200416Y-98023338D01*
X124398406Y-97825348D01*
X125501492Y-98928434D01*
X125303502Y-99126424D01*
G37*
G36*
X124949948Y-99479977D02*
G01*
X123846862Y-98376891D01*
X124044852Y-98178901D01*
X125147938Y-99281987D01*
X124949948Y-99479977D01*
G37*
G36*
X124596395Y-99833531D02*
G01*
X123493309Y-98730445D01*
X123691299Y-98532455D01*
X124794385Y-99635541D01*
X124596395Y-99833531D01*
G37*
G36*
X124242842Y-100187084D02*
G01*
X123139756Y-99083998D01*
X123337746Y-98886008D01*
X124440832Y-99989094D01*
X124242842Y-100187084D01*
G37*
G36*
X123889288Y-100540638D02*
G01*
X122786202Y-99437552D01*
X122984192Y-99239562D01*
X124087278Y-100342648D01*
X123889288Y-100540638D01*
G37*
G36*
X123535735Y-100894191D02*
G01*
X122432649Y-99791105D01*
X122630639Y-99593115D01*
X123733725Y-100696201D01*
X123535735Y-100894191D01*
G37*
G36*
X123182181Y-101247744D02*
G01*
X122079095Y-100144658D01*
X122277085Y-99946668D01*
X123380171Y-101049754D01*
X123182181Y-101247744D01*
G37*
G36*
X122828628Y-101601298D02*
G01*
X121725542Y-100498212D01*
X121923532Y-100300222D01*
X123026618Y-101403308D01*
X122828628Y-101601298D01*
G37*
G36*
X122475075Y-101954851D02*
G01*
X121371989Y-100851765D01*
X121569979Y-100653775D01*
X122673065Y-101756861D01*
X122475075Y-101954851D01*
G37*
G36*
X122121521Y-102308405D02*
G01*
X121018435Y-101205319D01*
X121216425Y-101007329D01*
X122319511Y-102110415D01*
X122121521Y-102308405D01*
G37*
G36*
X121767968Y-102661958D02*
G01*
X120664882Y-101558872D01*
X120862872Y-101360882D01*
X121965958Y-102463968D01*
X121767968Y-102661958D01*
G37*
G36*
X121414415Y-103015511D02*
G01*
X120311329Y-101912425D01*
X120509319Y-101714435D01*
X121612405Y-102817521D01*
X121414415Y-103015511D01*
G37*
G36*
X121060861Y-103369065D02*
G01*
X119957775Y-102265979D01*
X120155765Y-102067989D01*
X121258851Y-103171075D01*
X121060861Y-103369065D01*
G37*
G36*
X120707308Y-103722618D02*
G01*
X119604222Y-102619532D01*
X119802212Y-102421542D01*
X120905298Y-103524628D01*
X120707308Y-103722618D01*
G37*
G36*
X120353754Y-104076171D02*
G01*
X119250668Y-102973085D01*
X119448658Y-102775095D01*
X120551744Y-103878181D01*
X120353754Y-104076171D01*
G37*
G36*
X120000201Y-104429725D02*
G01*
X118897115Y-103326639D01*
X119095105Y-103128649D01*
X120198191Y-104231735D01*
X120000201Y-104429725D01*
G37*
G36*
X119646648Y-104783278D02*
G01*
X118543562Y-103680192D01*
X118741552Y-103482202D01*
X119844638Y-104585288D01*
X119646648Y-104783278D01*
G37*
G36*
X119293094Y-105136832D02*
G01*
X118190008Y-104033746D01*
X118387998Y-103835756D01*
X119491084Y-104938842D01*
X119293094Y-105136832D01*
G37*
G36*
X118939541Y-105490385D02*
G01*
X117836455Y-104387299D01*
X118034445Y-104189309D01*
X119137531Y-105292395D01*
X118939541Y-105490385D01*
G37*
G36*
X118585987Y-105843938D02*
G01*
X117482901Y-104740852D01*
X117680891Y-104542862D01*
X118783977Y-105645948D01*
X118585987Y-105843938D01*
G37*
G36*
X118232434Y-106197492D02*
G01*
X117129348Y-105094406D01*
X117327338Y-104896416D01*
X118430424Y-105999502D01*
X118232434Y-106197492D01*
G37*
G36*
X117878881Y-106551045D02*
G01*
X116775795Y-105447959D01*
X116973785Y-105249969D01*
X118076871Y-106353055D01*
X117878881Y-106551045D01*
G37*
G36*
X117525327Y-106904599D02*
G01*
X116422241Y-105801513D01*
X116620231Y-105603523D01*
X117723317Y-106706609D01*
X117525327Y-106904599D01*
G37*
G36*
X116620231Y-109280477D02*
G01*
X116422241Y-109082487D01*
X117525327Y-107979401D01*
X117723317Y-108177391D01*
X116620231Y-109280477D01*
G37*
G36*
X116973785Y-109634031D02*
G01*
X116775795Y-109436041D01*
X117878881Y-108332955D01*
X118076871Y-108530945D01*
X116973785Y-109634031D01*
G37*
G36*
X117327338Y-109987584D02*
G01*
X117129348Y-109789594D01*
X118232434Y-108686508D01*
X118430424Y-108884498D01*
X117327338Y-109987584D01*
G37*
G36*
X117680891Y-110341138D02*
G01*
X117482901Y-110143148D01*
X118585987Y-109040062D01*
X118783977Y-109238052D01*
X117680891Y-110341138D01*
G37*
G36*
X118034445Y-110694691D02*
G01*
X117836455Y-110496701D01*
X118939541Y-109393615D01*
X119137531Y-109591605D01*
X118034445Y-110694691D01*
G37*
G36*
X118387998Y-111048244D02*
G01*
X118190008Y-110850254D01*
X119293094Y-109747168D01*
X119491084Y-109945158D01*
X118387998Y-111048244D01*
G37*
G36*
X118741552Y-111401798D02*
G01*
X118543562Y-111203808D01*
X119646648Y-110100722D01*
X119844638Y-110298712D01*
X118741552Y-111401798D01*
G37*
G36*
X119095105Y-111755351D02*
G01*
X118897115Y-111557361D01*
X120000201Y-110454275D01*
X120198191Y-110652265D01*
X119095105Y-111755351D01*
G37*
G36*
X119448658Y-112108905D02*
G01*
X119250668Y-111910915D01*
X120353754Y-110807829D01*
X120551744Y-111005819D01*
X119448658Y-112108905D01*
G37*
G36*
X119802212Y-112462458D02*
G01*
X119604222Y-112264468D01*
X120707308Y-111161382D01*
X120905298Y-111359372D01*
X119802212Y-112462458D01*
G37*
G36*
X120155765Y-112816011D02*
G01*
X119957775Y-112618021D01*
X121060861Y-111514935D01*
X121258851Y-111712925D01*
X120155765Y-112816011D01*
G37*
G36*
X120509319Y-113169565D02*
G01*
X120311329Y-112971575D01*
X121414415Y-111868489D01*
X121612405Y-112066479D01*
X120509319Y-113169565D01*
G37*
G36*
X120862872Y-113523118D02*
G01*
X120664882Y-113325128D01*
X121767968Y-112222042D01*
X121965958Y-112420032D01*
X120862872Y-113523118D01*
G37*
G36*
X121216425Y-113876671D02*
G01*
X121018435Y-113678681D01*
X122121521Y-112575595D01*
X122319511Y-112773585D01*
X121216425Y-113876671D01*
G37*
G36*
X121569979Y-114230225D02*
G01*
X121371989Y-114032235D01*
X122475075Y-112929149D01*
X122673065Y-113127139D01*
X121569979Y-114230225D01*
G37*
G36*
X121923532Y-114583778D02*
G01*
X121725542Y-114385788D01*
X122828628Y-113282702D01*
X123026618Y-113480692D01*
X121923532Y-114583778D01*
G37*
G36*
X122277085Y-114937332D02*
G01*
X122079095Y-114739342D01*
X123182181Y-113636256D01*
X123380171Y-113834246D01*
X122277085Y-114937332D01*
G37*
G36*
X122630639Y-115290885D02*
G01*
X122432649Y-115092895D01*
X123535735Y-113989809D01*
X123733725Y-114187799D01*
X122630639Y-115290885D01*
G37*
G36*
X122984192Y-115644438D02*
G01*
X122786202Y-115446448D01*
X123889288Y-114343362D01*
X124087278Y-114541352D01*
X122984192Y-115644438D01*
G37*
G36*
X123337746Y-115997992D02*
G01*
X123139756Y-115800002D01*
X124242842Y-114696916D01*
X124440832Y-114894906D01*
X123337746Y-115997992D01*
G37*
G36*
X123691299Y-116351545D02*
G01*
X123493309Y-116153555D01*
X124596395Y-115050469D01*
X124794385Y-115248459D01*
X123691299Y-116351545D01*
G37*
G36*
X124044852Y-116705099D02*
G01*
X123846862Y-116507109D01*
X124949948Y-115404023D01*
X125147938Y-115602013D01*
X124044852Y-116705099D01*
G37*
G36*
X124398406Y-117058652D02*
G01*
X124200416Y-116860662D01*
X125303502Y-115757576D01*
X125501492Y-115955566D01*
X124398406Y-117058652D01*
G37*
G36*
X124751959Y-117412205D02*
G01*
X124553969Y-117214215D01*
X125657055Y-116111129D01*
X125855045Y-116309119D01*
X124751959Y-117412205D01*
G37*
G36*
X125105513Y-117765759D02*
G01*
X124907523Y-117567769D01*
X126010609Y-116464683D01*
X126208599Y-116662673D01*
X125105513Y-117765759D01*
G37*
G36*
X135966673Y-106904599D02*
G01*
X135768683Y-106706609D01*
X136871769Y-105603523D01*
X137069759Y-105801513D01*
X135966673Y-106904599D01*
G37*
G36*
X135613119Y-106551045D02*
G01*
X135415129Y-106353055D01*
X136518215Y-105249969D01*
X136716205Y-105447959D01*
X135613119Y-106551045D01*
G37*
G36*
X135259566Y-106197492D02*
G01*
X135061576Y-105999502D01*
X136164662Y-104896416D01*
X136362652Y-105094406D01*
X135259566Y-106197492D01*
G37*
G36*
X134906013Y-105843938D02*
G01*
X134708023Y-105645948D01*
X135811109Y-104542862D01*
X136009099Y-104740852D01*
X134906013Y-105843938D01*
G37*
G36*
X134552459Y-105490385D02*
G01*
X134354469Y-105292395D01*
X135457555Y-104189309D01*
X135655545Y-104387299D01*
X134552459Y-105490385D01*
G37*
G36*
X134198906Y-105136832D02*
G01*
X134000916Y-104938842D01*
X135104002Y-103835756D01*
X135301992Y-104033746D01*
X134198906Y-105136832D01*
G37*
G36*
X133845352Y-104783278D02*
G01*
X133647362Y-104585288D01*
X134750448Y-103482202D01*
X134948438Y-103680192D01*
X133845352Y-104783278D01*
G37*
G36*
X133491799Y-104429725D02*
G01*
X133293809Y-104231735D01*
X134396895Y-103128649D01*
X134594885Y-103326639D01*
X133491799Y-104429725D01*
G37*
G36*
X133138246Y-104076171D02*
G01*
X132940256Y-103878181D01*
X134043342Y-102775095D01*
X134241332Y-102973085D01*
X133138246Y-104076171D01*
G37*
G36*
X132784692Y-103722618D02*
G01*
X132586702Y-103524628D01*
X133689788Y-102421542D01*
X133887778Y-102619532D01*
X132784692Y-103722618D01*
G37*
G36*
X132431139Y-103369065D02*
G01*
X132233149Y-103171075D01*
X133336235Y-102067989D01*
X133534225Y-102265979D01*
X132431139Y-103369065D01*
G37*
G36*
X132077585Y-103015511D02*
G01*
X131879595Y-102817521D01*
X132982681Y-101714435D01*
X133180671Y-101912425D01*
X132077585Y-103015511D01*
G37*
G36*
X131724032Y-102661958D02*
G01*
X131526042Y-102463968D01*
X132629128Y-101360882D01*
X132827118Y-101558872D01*
X131724032Y-102661958D01*
G37*
G36*
X131370479Y-102308405D02*
G01*
X131172489Y-102110415D01*
X132275575Y-101007329D01*
X132473565Y-101205319D01*
X131370479Y-102308405D01*
G37*
G36*
X131016925Y-101954851D02*
G01*
X130818935Y-101756861D01*
X131922021Y-100653775D01*
X132120011Y-100851765D01*
X131016925Y-101954851D01*
G37*
G36*
X130663372Y-101601298D02*
G01*
X130465382Y-101403308D01*
X131568468Y-100300222D01*
X131766458Y-100498212D01*
X130663372Y-101601298D01*
G37*
G36*
X130309819Y-101247744D02*
G01*
X130111829Y-101049754D01*
X131214915Y-99946668D01*
X131412905Y-100144658D01*
X130309819Y-101247744D01*
G37*
G36*
X129956265Y-100894191D02*
G01*
X129758275Y-100696201D01*
X130861361Y-99593115D01*
X131059351Y-99791105D01*
X129956265Y-100894191D01*
G37*
G36*
X129602712Y-100540638D02*
G01*
X129404722Y-100342648D01*
X130507808Y-99239562D01*
X130705798Y-99437552D01*
X129602712Y-100540638D01*
G37*
G36*
X129249158Y-100187084D02*
G01*
X129051168Y-99989094D01*
X130154254Y-98886008D01*
X130352244Y-99083998D01*
X129249158Y-100187084D01*
G37*
G36*
X128895605Y-99833531D02*
G01*
X128697615Y-99635541D01*
X129800701Y-98532455D01*
X129998691Y-98730445D01*
X128895605Y-99833531D01*
G37*
G36*
X128542052Y-99479977D02*
G01*
X128344062Y-99281987D01*
X129447148Y-98178901D01*
X129645138Y-98376891D01*
X128542052Y-99479977D01*
G37*
G36*
X128188498Y-99126424D02*
G01*
X127990508Y-98928434D01*
X129093594Y-97825348D01*
X129291584Y-98023338D01*
X128188498Y-99126424D01*
G37*
G36*
X127834945Y-98772871D02*
G01*
X127636955Y-98574881D01*
X128740041Y-97471795D01*
X128938031Y-97669785D01*
X127834945Y-98772871D01*
G37*
G36*
X127481391Y-98419317D02*
G01*
X127283401Y-98221327D01*
X128386487Y-97118241D01*
X128584477Y-97316231D01*
X127481391Y-98419317D01*
G37*
D16*
X103886000Y-144729200D03*
X103236000Y-146342000D03*
X104536000Y-146342000D03*
D17*
X103886000Y-145288000D03*
D18*
X118341140Y-154625040D03*
D19*
X120246140Y-157350038D03*
X118976140Y-157350038D03*
X117706140Y-157350038D03*
X116436140Y-157350038D03*
X116436140Y-151900039D03*
X117706140Y-151900039D03*
X118976140Y-151900039D03*
X120246140Y-151900039D03*
D20*
X110678000Y-113316000D03*
X108778000Y-113316000D03*
X109728000Y-115316000D03*
D10*
G36*
X102709505Y-155790388D02*
G01*
X103593388Y-154906505D01*
X104300495Y-155613612D01*
X103416612Y-156497495D01*
X102709505Y-155790388D01*
G37*
G36*
X104123719Y-157204602D02*
G01*
X105007602Y-156320719D01*
X105714709Y-157027826D01*
X104830826Y-157911709D01*
X104123719Y-157204602D01*
G37*
D21*
X155328000Y-96042000D03*
X155328000Y-95392000D03*
X155328000Y-94742000D03*
X155328000Y-94092000D03*
X155328000Y-93442000D03*
D22*
X155688000Y-97204500D03*
X155688000Y-92279500D03*
D23*
X157988000Y-97652000D03*
X157988000Y-91832000D03*
D24*
X157988000Y-95582000D03*
X157988000Y-93902000D03*
D15*
X113792000Y-98971100D03*
X113792000Y-93560900D03*
D25*
X105554000Y-150495000D03*
X114554000Y-150495000D03*
D26*
X152908000Y-98568000D03*
X152908000Y-100568000D03*
X115062000Y-115078000D03*
X115062000Y-117078000D03*
D10*
G36*
X137689398Y-111776281D02*
G01*
X138573281Y-110892398D01*
X139280388Y-111599505D01*
X138396505Y-112483388D01*
X137689398Y-111776281D01*
G37*
G36*
X139103612Y-113190495D02*
G01*
X139987495Y-112306612D01*
X140694602Y-113013719D01*
X139810719Y-113897602D01*
X139103612Y-113190495D01*
G37*
D27*
X116348000Y-119888000D03*
X118348000Y-119888000D03*
D10*
G36*
X132731281Y-97514602D02*
G01*
X131847398Y-96630719D01*
X132554505Y-95923612D01*
X133438388Y-96807495D01*
X132731281Y-97514602D01*
G37*
G36*
X134145495Y-96100388D02*
G01*
X133261612Y-95216505D01*
X133968719Y-94509398D01*
X134852602Y-95393281D01*
X134145495Y-96100388D01*
G37*
G36*
X142699831Y-100098914D02*
G01*
X143583714Y-99215031D01*
X144290821Y-99922138D01*
X143406938Y-100806021D01*
X142699831Y-100098914D01*
G37*
G36*
X144114045Y-101513128D02*
G01*
X144997928Y-100629245D01*
X145705035Y-101336352D01*
X144821152Y-102220235D01*
X144114045Y-101513128D01*
G37*
D26*
X122555000Y-120253000D03*
X122555000Y-118253000D03*
D10*
G36*
X132571719Y-93112398D02*
G01*
X133455602Y-93996281D01*
X132748495Y-94703388D01*
X131864612Y-93819505D01*
X132571719Y-93112398D01*
G37*
G36*
X131157505Y-94526612D02*
G01*
X132041388Y-95410495D01*
X131334281Y-96117602D01*
X130450398Y-95233719D01*
X131157505Y-94526612D01*
G37*
G36*
X142091602Y-111616719D02*
G01*
X141207719Y-112500602D01*
X140500612Y-111793495D01*
X141384495Y-110909612D01*
X142091602Y-111616719D01*
G37*
G36*
X140677388Y-110202505D02*
G01*
X139793505Y-111086388D01*
X139086398Y-110379281D01*
X139970281Y-109495398D01*
X140677388Y-110202505D01*
G37*
D26*
X112014000Y-102632000D03*
X112014000Y-104632000D03*
X109982000Y-102602280D03*
X109982000Y-104602280D03*
X106934000Y-115316000D03*
X106934000Y-113316000D03*
X120650000Y-120253000D03*
X120650000Y-118253000D03*
D10*
G36*
X131174719Y-91715398D02*
G01*
X132058602Y-92599281D01*
X131351495Y-93306388D01*
X130467612Y-92422505D01*
X131174719Y-91715398D01*
G37*
G36*
X129760505Y-93129612D02*
G01*
X130644388Y-94013495D01*
X129937281Y-94720602D01*
X129053398Y-93836719D01*
X129760505Y-93129612D01*
G37*
D26*
X152527000Y-144415000D03*
X152527000Y-146415000D03*
X152400000Y-131207000D03*
X152400000Y-133207000D03*
D27*
X116729000Y-145288000D03*
X118729000Y-145288000D03*
D28*
X97294700Y-155448000D03*
X92189300Y-155448000D03*
D27*
X118729000Y-147066000D03*
X116729000Y-147066000D03*
D26*
X127508000Y-152892000D03*
X127508000Y-150892000D03*
X120523000Y-148225000D03*
X120523000Y-150225000D03*
D27*
X123968000Y-154749500D03*
X125968000Y-154749500D03*
D10*
G36*
X104034398Y-154448281D02*
G01*
X104918281Y-153564398D01*
X105625388Y-154271505D01*
X104741505Y-155155388D01*
X104034398Y-154448281D01*
G37*
G36*
X105448612Y-155862495D02*
G01*
X106332495Y-154978612D01*
X107039602Y-155685719D01*
X106155719Y-156569602D01*
X105448612Y-155862495D01*
G37*
D28*
X97294700Y-143256000D03*
X92189300Y-143256000D03*
D26*
X144145000Y-120793000D03*
X144145000Y-122793000D03*
D27*
X97282000Y-124968000D03*
X95282000Y-124968000D03*
D26*
X104902000Y-106553000D03*
X104902000Y-108553000D03*
X152146000Y-122317000D03*
X152146000Y-124317000D03*
X105156000Y-124857000D03*
X105156000Y-126857000D03*
X150241000Y-122317000D03*
X150241000Y-124317000D03*
X103251000Y-124857000D03*
X103251000Y-126857000D03*
X110680500Y-106505500D03*
X110680500Y-108505500D03*
X111252000Y-135467600D03*
X111252000Y-133467600D03*
X113284000Y-133467600D03*
X113284000Y-135467600D03*
X143002000Y-90678000D03*
X143002000Y-88678000D03*
D27*
X127984000Y-137922000D03*
X125984000Y-137922000D03*
X126000000Y-139954000D03*
X128000000Y-139954000D03*
D26*
X130302000Y-135922000D03*
X130302000Y-137922000D03*
X114300000Y-126508000D03*
X114300000Y-128508000D03*
D29*
X118491000Y-93134000D03*
X118491000Y-95334000D03*
D30*
X101092000Y-145034000D03*
X102192000Y-145034000D03*
D29*
X148463000Y-147277000D03*
X148463000Y-145077000D03*
D31*
X101219000Y-153347000D03*
X101219000Y-149167000D03*
D32*
X150495000Y-146845000D03*
X150495000Y-144145000D03*
D33*
X111981000Y-81661000D03*
X114681000Y-81661000D03*
D34*
X98933000Y-121428000D03*
X98933000Y-123428000D03*
D35*
X98933000Y-122428000D03*
D36*
X140986000Y-85344000D03*
X142986000Y-85344000D03*
D37*
X141986000Y-85344000D03*
D38*
X140309000Y-159247000D03*
X130709000Y-159247000D03*
D39*
X132009000Y-155372000D03*
X133009000Y-155372000D03*
X134009000Y-155372000D03*
X135009000Y-155372000D03*
X136009000Y-155372000D03*
X137009000Y-155372000D03*
X138009000Y-155372000D03*
X139009000Y-155372000D03*
D40*
X154589000Y-144095000D03*
X154589000Y-142845000D03*
X154589000Y-141595000D03*
X154589000Y-140345000D03*
X154589000Y-139095000D03*
X154589000Y-137845000D03*
D41*
X157789000Y-135995000D03*
X157789000Y-145945000D03*
X157770000Y-132630000D03*
D40*
X154570000Y-129530000D03*
X154570000Y-130780000D03*
X154570000Y-128280000D03*
X154570000Y-127030000D03*
D41*
X157770000Y-125180000D03*
D42*
X154524202Y-114949600D03*
X154524202Y-116199600D03*
X154524202Y-117449600D03*
X154524202Y-118699600D03*
X154524202Y-119949600D03*
D43*
X157724203Y-121799601D03*
X157724203Y-113099599D03*
D44*
X150373000Y-96139000D03*
X152273000Y-96139000D03*
X150368000Y-94107000D03*
X152268000Y-94107000D03*
D45*
X118491000Y-96586000D03*
X118491000Y-98486000D03*
D10*
G36*
X118218858Y-102313619D02*
G01*
X117299619Y-103232858D01*
X116804644Y-102737883D01*
X117723883Y-101818644D01*
X118218858Y-102313619D01*
G37*
G36*
X116875356Y-100970117D02*
G01*
X115956117Y-101889356D01*
X115461142Y-101394381D01*
X116380381Y-100475142D01*
X116875356Y-100970117D01*
G37*
D45*
X121412000Y-80264000D03*
X121412000Y-78364000D03*
D44*
X119060000Y-78232000D03*
X117160000Y-78232000D03*
X113858000Y-78232000D03*
X115758000Y-78232000D03*
X127066000Y-78232000D03*
X128966000Y-78232000D03*
D45*
X124968000Y-79878000D03*
X124968000Y-77978000D03*
D44*
X152588000Y-117856000D03*
X150688000Y-117856000D03*
X152588000Y-115125500D03*
X150688000Y-115125500D03*
X150815000Y-129286000D03*
X152715000Y-129286000D03*
X150815000Y-127355600D03*
X152715000Y-127355600D03*
X124018000Y-148996400D03*
X125918000Y-148996400D03*
X125918000Y-150926800D03*
X124018000Y-150926800D03*
X118750000Y-143256000D03*
X120650000Y-143256000D03*
X122054540Y-143268700D03*
X123954540Y-143268700D03*
D45*
X150876000Y-98684000D03*
X150876000Y-100584000D03*
D44*
X154625000Y-100457000D03*
X156525000Y-100457000D03*
X106050000Y-119380000D03*
X107950000Y-119380000D03*
X107950000Y-121412000D03*
X106050000Y-121412000D03*
X124018000Y-147066000D03*
X125918000Y-147066000D03*
X97216000Y-150368000D03*
X95316000Y-150368000D03*
X93914000Y-150368000D03*
X92014000Y-150368000D03*
X124018000Y-152844500D03*
X125918000Y-152844500D03*
X113096000Y-157480000D03*
X114996000Y-157480000D03*
X124018000Y-156654500D03*
X125918000Y-156654500D03*
X144434600Y-124536200D03*
X142534600Y-124536200D03*
D45*
X112585500Y-106555500D03*
X112585500Y-108455500D03*
X101346000Y-123378000D03*
X101346000Y-121478000D03*
X141224000Y-75626000D03*
X141224000Y-73726000D03*
X143002000Y-73726000D03*
X143002000Y-75626000D03*
D10*
G36*
X139071130Y-98752117D02*
G01*
X139495394Y-98327853D01*
X140591410Y-99423869D01*
X140167146Y-99848133D01*
X139071130Y-98752117D01*
G37*
G36*
X138173104Y-99650143D02*
G01*
X138597368Y-99225879D01*
X139693384Y-100321895D01*
X139269120Y-100746159D01*
X138173104Y-99650143D01*
G37*
G36*
X137275079Y-100548168D02*
G01*
X137699343Y-100123904D01*
X138795359Y-101219920D01*
X138371095Y-101644184D01*
X137275079Y-100548168D01*
G37*
G36*
X136377053Y-101446194D02*
G01*
X136801317Y-101021930D01*
X137897333Y-102117946D01*
X137473069Y-102542210D01*
X136377053Y-101446194D01*
G37*
G36*
X140195430Y-105264571D02*
G01*
X140619694Y-104840307D01*
X141715710Y-105936323D01*
X141291446Y-106360587D01*
X140195430Y-105264571D01*
G37*
G36*
X141093456Y-104366545D02*
G01*
X141517720Y-103942281D01*
X142613736Y-105038297D01*
X142189472Y-105462561D01*
X141093456Y-104366545D01*
G37*
G36*
X141991481Y-103468520D02*
G01*
X142415745Y-103044256D01*
X143511761Y-104140272D01*
X143087497Y-104564536D01*
X141991481Y-103468520D01*
G37*
G36*
X142889507Y-102570494D02*
G01*
X143313771Y-102146230D01*
X144409787Y-103242246D01*
X143985523Y-103666510D01*
X142889507Y-102570494D01*
G37*
D46*
X146345000Y-119371000D03*
X146995000Y-119371000D03*
X147645000Y-119371000D03*
X148295000Y-119371000D03*
X148295000Y-115071000D03*
X147645000Y-115071000D03*
X146995000Y-115071000D03*
X146345000Y-115071000D03*
X149184000Y-127263000D03*
X148534000Y-127263000D03*
X147884000Y-127263000D03*
X147234000Y-127263000D03*
X147234000Y-131563000D03*
X147884000Y-131563000D03*
X148534000Y-131563000D03*
X149184000Y-131563000D03*
D47*
X145840201Y-122112999D03*
X145840201Y-123063000D03*
X145840201Y-124013001D03*
X148545799Y-124013001D03*
X148545799Y-122112999D03*
D48*
X99230000Y-125034000D03*
X99230000Y-125984000D03*
X99230000Y-126934000D03*
X101430000Y-126934000D03*
X101430000Y-125034000D03*
X106689980Y-106547880D03*
X106689980Y-107497880D03*
X106689980Y-108447880D03*
X108889980Y-108447880D03*
X108889980Y-106547880D03*
D49*
X117657880Y-135954720D03*
D50*
X118813580Y-135543420D03*
X118813580Y-135043421D03*
X118813580Y-134543419D03*
X118813580Y-134043420D03*
X118813580Y-133543421D03*
X118813580Y-133043419D03*
X118813580Y-132543420D03*
D49*
X117657880Y-132132120D03*
D50*
X116502180Y-132543420D03*
X116502180Y-133043419D03*
X116502180Y-133543421D03*
X116502180Y-134043420D03*
X116502180Y-134543419D03*
X116502180Y-135043421D03*
X116502180Y-135543420D03*
D51*
X126249999Y-135378000D03*
X126249999Y-134878000D03*
X126249999Y-134377999D03*
X126750000Y-134377999D03*
X127250000Y-134377999D03*
X127750001Y-134377999D03*
X127750001Y-134878000D03*
X127750001Y-135378000D03*
X127750001Y-135878001D03*
X127250000Y-135878001D03*
X126750000Y-135878001D03*
X126249999Y-135878001D03*
D52*
X116418000Y-125536000D03*
X116418000Y-126786000D03*
X116418000Y-128036000D03*
X116418000Y-129286000D03*
X118618000Y-129286000D03*
X118618000Y-128036000D03*
X118618000Y-126786000D03*
X118618000Y-125536000D03*
D53*
X118402100Y-117894100D03*
X118402100Y-115277900D03*
X116801900Y-115277900D03*
X116801900Y-117894100D03*
D29*
X87546000Y-125984000D03*
X89746000Y-125984000D03*
X145288000Y-85090000D03*
X145288000Y-87290000D03*
D54*
X92087700Y-126479300D03*
X92087700Y-125488700D03*
X90792300Y-125984000D03*
D45*
X145288000Y-88646000D03*
X145288000Y-90546000D03*
D55*
X119639972Y-65512127D03*
X120732172Y-65918527D03*
X121824372Y-65512127D03*
X122916572Y-65308927D03*
X124008772Y-65512127D03*
X125100972Y-65308927D03*
X126193172Y-65512127D03*
X127285372Y-65512127D03*
D56*
X114719100Y-61963300D03*
X127962742Y-62684617D03*
D57*
X126352300Y-76149200D03*
X120637300Y-76149200D03*
D58*
X102001500Y-140462000D03*
X99801500Y-140462000D03*
D44*
X97274001Y-86347501D03*
X95374001Y-86347501D03*
X101424001Y-86347501D03*
X99524001Y-86347501D03*
X103444000Y-140462000D03*
X105344000Y-140462000D03*
D58*
X97903001Y-78292001D03*
X100103001Y-78292001D03*
X100103001Y-81492001D03*
X97903001Y-81492001D03*
M02*
