G04 #@! TF.GenerationSoftware,KiCad,Pcbnew,(5.1.5)-3*
G04 #@! TF.CreationDate,2020-10-19T10:12:20-04:00*
G04 #@! TF.ProjectId,flight_computer,666c6967-6874-45f6-936f-6d7075746572,rev?*
G04 #@! TF.SameCoordinates,Original*
G04 #@! TF.FileFunction,Copper,L1,Top*
G04 #@! TF.FilePolarity,Positive*
%FSLAX46Y46*%
G04 Gerber Fmt 4.6, Leading zero omitted, Abs format (unit mm)*
G04 Created by KiCad (PCBNEW (5.1.5)-3) date 2020-10-19 10:12:20*
%MOMM*%
%LPD*%
G04 APERTURE LIST*
%ADD10R,1.500000X0.700000*%
%ADD11R,0.700000X1.500000*%
%ADD12R,1.000000X1.500000*%
%ADD13R,1.219200X2.997200*%
%ADD14C,0.100000*%
%ADD15C,5.000000*%
%ADD16C,1.397000*%
%ADD17R,0.400000X0.500000*%
%ADD18R,1.600000X1.000000*%
%ADD19R,4.900001X2.949999*%
%ADD20R,0.599999X1.450000*%
%ADD21R,0.800000X0.900000*%
%ADD22R,1.380000X0.450000*%
%ADD23R,2.100000X1.475000*%
%ADD24R,1.900000X2.375000*%
%ADD25R,1.900000X1.175000*%
%ADD26R,1.800000X4.600000*%
%ADD27R,1.250000X1.000000*%
%ADD28R,1.000000X1.250000*%
%ADD29R,3.098800X1.219200*%
%ADD30R,0.500000X0.500000*%
%ADD31R,0.600000X0.500000*%
%ADD32R,2.030000X2.650000*%
%ADD33R,1.300000X1.500000*%
%ADD34R,1.500000X1.300000*%
%ADD35R,0.800000X0.600000*%
%ADD36R,1.900000X0.600000*%
%ADD37R,0.600000X0.800000*%
%ADD38R,0.600000X1.900000*%
%ADD39R,1.200000X1.800000*%
%ADD40R,0.600000X1.550000*%
%ADD41R,1.700000X0.600000*%
%ADD42R,2.700000X1.000000*%
%ADD43R,1.803400X0.660400*%
%ADD44R,2.879999X1.092200*%
%ADD45R,1.651000X1.651000*%
%ADD46C,1.651000*%
%ADD47R,0.700000X1.300000*%
%ADD48R,1.300000X0.700000*%
%ADD49R,0.400000X1.100000*%
%ADD50R,1.005599X0.500000*%
%ADD51R,1.060000X0.650000*%
%ADD52R,0.254000X0.482600*%
%ADD53R,0.482600X0.254000*%
%ADD54R,0.275000X0.250000*%
%ADD55R,1.092200X0.609600*%
%ADD56R,0.838200X1.295400*%
%ADD57R,0.508000X0.355600*%
%ADD58R,0.812800X1.498600*%
%ADD59R,1.397000X1.905000*%
%ADD60R,1.803400X1.397000*%
%ADD61R,1.200000X1.200000*%
%ADD62C,0.800000*%
%ADD63C,0.254000*%
%ADD64C,0.762000*%
%ADD65C,0.635000*%
%ADD66C,0.508000*%
%ADD67C,0.381000*%
%ADD68C,0.200000*%
G04 APERTURE END LIST*
D10*
X145640840Y-76278020D03*
X145640840Y-75278020D03*
X145640840Y-77278020D03*
X145640840Y-78278020D03*
X145640840Y-74278020D03*
D11*
X146040840Y-80678020D03*
X147040840Y-80678020D03*
X148040840Y-80678020D03*
X149040840Y-80678020D03*
X150040840Y-80678020D03*
X151040840Y-80678020D03*
X152040840Y-80678020D03*
X153040840Y-80678020D03*
X154040840Y-80678020D03*
X155040840Y-80678020D03*
X156040840Y-80678020D03*
X157040840Y-80678020D03*
X146040840Y-71878020D03*
X147040840Y-71878020D03*
X148040840Y-71878020D03*
X149040840Y-71878020D03*
X150040840Y-71878020D03*
X151040840Y-71878020D03*
X152040840Y-71878020D03*
X153040840Y-71878020D03*
X154040840Y-71878020D03*
X155040840Y-71878020D03*
X156040840Y-71878020D03*
X157040840Y-71878020D03*
D12*
X158190840Y-71878020D03*
X158190840Y-80678020D03*
D13*
X150114000Y-85178900D03*
X150114000Y-90589100D03*
G04 #@! TA.AperFunction,SMDPad,CuDef*
D14*
G36*
X128386487Y-117765759D02*
G01*
X127283401Y-116662673D01*
X127481391Y-116464683D01*
X128584477Y-117567769D01*
X128386487Y-117765759D01*
G37*
G04 #@! TD.AperFunction*
G04 #@! TA.AperFunction,SMDPad,CuDef*
G36*
X128740041Y-117412205D02*
G01*
X127636955Y-116309119D01*
X127834945Y-116111129D01*
X128938031Y-117214215D01*
X128740041Y-117412205D01*
G37*
G04 #@! TD.AperFunction*
G04 #@! TA.AperFunction,SMDPad,CuDef*
G36*
X129093594Y-117058652D02*
G01*
X127990508Y-115955566D01*
X128188498Y-115757576D01*
X129291584Y-116860662D01*
X129093594Y-117058652D01*
G37*
G04 #@! TD.AperFunction*
G04 #@! TA.AperFunction,SMDPad,CuDef*
G36*
X129447148Y-116705099D02*
G01*
X128344062Y-115602013D01*
X128542052Y-115404023D01*
X129645138Y-116507109D01*
X129447148Y-116705099D01*
G37*
G04 #@! TD.AperFunction*
G04 #@! TA.AperFunction,SMDPad,CuDef*
G36*
X129800701Y-116351545D02*
G01*
X128697615Y-115248459D01*
X128895605Y-115050469D01*
X129998691Y-116153555D01*
X129800701Y-116351545D01*
G37*
G04 #@! TD.AperFunction*
G04 #@! TA.AperFunction,SMDPad,CuDef*
G36*
X130154254Y-115997992D02*
G01*
X129051168Y-114894906D01*
X129249158Y-114696916D01*
X130352244Y-115800002D01*
X130154254Y-115997992D01*
G37*
G04 #@! TD.AperFunction*
G04 #@! TA.AperFunction,SMDPad,CuDef*
G36*
X130507808Y-115644438D02*
G01*
X129404722Y-114541352D01*
X129602712Y-114343362D01*
X130705798Y-115446448D01*
X130507808Y-115644438D01*
G37*
G04 #@! TD.AperFunction*
G04 #@! TA.AperFunction,SMDPad,CuDef*
G36*
X130861361Y-115290885D02*
G01*
X129758275Y-114187799D01*
X129956265Y-113989809D01*
X131059351Y-115092895D01*
X130861361Y-115290885D01*
G37*
G04 #@! TD.AperFunction*
G04 #@! TA.AperFunction,SMDPad,CuDef*
G36*
X131214915Y-114937332D02*
G01*
X130111829Y-113834246D01*
X130309819Y-113636256D01*
X131412905Y-114739342D01*
X131214915Y-114937332D01*
G37*
G04 #@! TD.AperFunction*
G04 #@! TA.AperFunction,SMDPad,CuDef*
G36*
X131568468Y-114583778D02*
G01*
X130465382Y-113480692D01*
X130663372Y-113282702D01*
X131766458Y-114385788D01*
X131568468Y-114583778D01*
G37*
G04 #@! TD.AperFunction*
G04 #@! TA.AperFunction,SMDPad,CuDef*
G36*
X131922021Y-114230225D02*
G01*
X130818935Y-113127139D01*
X131016925Y-112929149D01*
X132120011Y-114032235D01*
X131922021Y-114230225D01*
G37*
G04 #@! TD.AperFunction*
G04 #@! TA.AperFunction,SMDPad,CuDef*
G36*
X132275575Y-113876671D02*
G01*
X131172489Y-112773585D01*
X131370479Y-112575595D01*
X132473565Y-113678681D01*
X132275575Y-113876671D01*
G37*
G04 #@! TD.AperFunction*
G04 #@! TA.AperFunction,SMDPad,CuDef*
G36*
X132629128Y-113523118D02*
G01*
X131526042Y-112420032D01*
X131724032Y-112222042D01*
X132827118Y-113325128D01*
X132629128Y-113523118D01*
G37*
G04 #@! TD.AperFunction*
G04 #@! TA.AperFunction,SMDPad,CuDef*
G36*
X132982681Y-113169565D02*
G01*
X131879595Y-112066479D01*
X132077585Y-111868489D01*
X133180671Y-112971575D01*
X132982681Y-113169565D01*
G37*
G04 #@! TD.AperFunction*
G04 #@! TA.AperFunction,SMDPad,CuDef*
G36*
X133336235Y-112816011D02*
G01*
X132233149Y-111712925D01*
X132431139Y-111514935D01*
X133534225Y-112618021D01*
X133336235Y-112816011D01*
G37*
G04 #@! TD.AperFunction*
G04 #@! TA.AperFunction,SMDPad,CuDef*
G36*
X133689788Y-112462458D02*
G01*
X132586702Y-111359372D01*
X132784692Y-111161382D01*
X133887778Y-112264468D01*
X133689788Y-112462458D01*
G37*
G04 #@! TD.AperFunction*
G04 #@! TA.AperFunction,SMDPad,CuDef*
G36*
X134043342Y-112108905D02*
G01*
X132940256Y-111005819D01*
X133138246Y-110807829D01*
X134241332Y-111910915D01*
X134043342Y-112108905D01*
G37*
G04 #@! TD.AperFunction*
G04 #@! TA.AperFunction,SMDPad,CuDef*
G36*
X134396895Y-111755351D02*
G01*
X133293809Y-110652265D01*
X133491799Y-110454275D01*
X134594885Y-111557361D01*
X134396895Y-111755351D01*
G37*
G04 #@! TD.AperFunction*
G04 #@! TA.AperFunction,SMDPad,CuDef*
G36*
X134750448Y-111401798D02*
G01*
X133647362Y-110298712D01*
X133845352Y-110100722D01*
X134948438Y-111203808D01*
X134750448Y-111401798D01*
G37*
G04 #@! TD.AperFunction*
G04 #@! TA.AperFunction,SMDPad,CuDef*
G36*
X135104002Y-111048244D02*
G01*
X134000916Y-109945158D01*
X134198906Y-109747168D01*
X135301992Y-110850254D01*
X135104002Y-111048244D01*
G37*
G04 #@! TD.AperFunction*
G04 #@! TA.AperFunction,SMDPad,CuDef*
G36*
X135457555Y-110694691D02*
G01*
X134354469Y-109591605D01*
X134552459Y-109393615D01*
X135655545Y-110496701D01*
X135457555Y-110694691D01*
G37*
G04 #@! TD.AperFunction*
G04 #@! TA.AperFunction,SMDPad,CuDef*
G36*
X135811109Y-110341138D02*
G01*
X134708023Y-109238052D01*
X134906013Y-109040062D01*
X136009099Y-110143148D01*
X135811109Y-110341138D01*
G37*
G04 #@! TD.AperFunction*
G04 #@! TA.AperFunction,SMDPad,CuDef*
G36*
X136164662Y-109987584D02*
G01*
X135061576Y-108884498D01*
X135259566Y-108686508D01*
X136362652Y-109789594D01*
X136164662Y-109987584D01*
G37*
G04 #@! TD.AperFunction*
G04 #@! TA.AperFunction,SMDPad,CuDef*
G36*
X136518215Y-109634031D02*
G01*
X135415129Y-108530945D01*
X135613119Y-108332955D01*
X136716205Y-109436041D01*
X136518215Y-109634031D01*
G37*
G04 #@! TD.AperFunction*
G04 #@! TA.AperFunction,SMDPad,CuDef*
G36*
X136871769Y-109280477D02*
G01*
X135768683Y-108177391D01*
X135966673Y-107979401D01*
X137069759Y-109082487D01*
X136871769Y-109280477D01*
G37*
G04 #@! TD.AperFunction*
G04 #@! TA.AperFunction,SMDPad,CuDef*
G36*
X126010609Y-98419317D02*
G01*
X124907523Y-97316231D01*
X125105513Y-97118241D01*
X126208599Y-98221327D01*
X126010609Y-98419317D01*
G37*
G04 #@! TD.AperFunction*
G04 #@! TA.AperFunction,SMDPad,CuDef*
G36*
X125657055Y-98772871D02*
G01*
X124553969Y-97669785D01*
X124751959Y-97471795D01*
X125855045Y-98574881D01*
X125657055Y-98772871D01*
G37*
G04 #@! TD.AperFunction*
G04 #@! TA.AperFunction,SMDPad,CuDef*
G36*
X125303502Y-99126424D02*
G01*
X124200416Y-98023338D01*
X124398406Y-97825348D01*
X125501492Y-98928434D01*
X125303502Y-99126424D01*
G37*
G04 #@! TD.AperFunction*
G04 #@! TA.AperFunction,SMDPad,CuDef*
G36*
X124949948Y-99479977D02*
G01*
X123846862Y-98376891D01*
X124044852Y-98178901D01*
X125147938Y-99281987D01*
X124949948Y-99479977D01*
G37*
G04 #@! TD.AperFunction*
G04 #@! TA.AperFunction,SMDPad,CuDef*
G36*
X124596395Y-99833531D02*
G01*
X123493309Y-98730445D01*
X123691299Y-98532455D01*
X124794385Y-99635541D01*
X124596395Y-99833531D01*
G37*
G04 #@! TD.AperFunction*
G04 #@! TA.AperFunction,SMDPad,CuDef*
G36*
X124242842Y-100187084D02*
G01*
X123139756Y-99083998D01*
X123337746Y-98886008D01*
X124440832Y-99989094D01*
X124242842Y-100187084D01*
G37*
G04 #@! TD.AperFunction*
G04 #@! TA.AperFunction,SMDPad,CuDef*
G36*
X123889288Y-100540638D02*
G01*
X122786202Y-99437552D01*
X122984192Y-99239562D01*
X124087278Y-100342648D01*
X123889288Y-100540638D01*
G37*
G04 #@! TD.AperFunction*
G04 #@! TA.AperFunction,SMDPad,CuDef*
G36*
X123535735Y-100894191D02*
G01*
X122432649Y-99791105D01*
X122630639Y-99593115D01*
X123733725Y-100696201D01*
X123535735Y-100894191D01*
G37*
G04 #@! TD.AperFunction*
G04 #@! TA.AperFunction,SMDPad,CuDef*
G36*
X123182181Y-101247744D02*
G01*
X122079095Y-100144658D01*
X122277085Y-99946668D01*
X123380171Y-101049754D01*
X123182181Y-101247744D01*
G37*
G04 #@! TD.AperFunction*
G04 #@! TA.AperFunction,SMDPad,CuDef*
G36*
X122828628Y-101601298D02*
G01*
X121725542Y-100498212D01*
X121923532Y-100300222D01*
X123026618Y-101403308D01*
X122828628Y-101601298D01*
G37*
G04 #@! TD.AperFunction*
G04 #@! TA.AperFunction,SMDPad,CuDef*
G36*
X122475075Y-101954851D02*
G01*
X121371989Y-100851765D01*
X121569979Y-100653775D01*
X122673065Y-101756861D01*
X122475075Y-101954851D01*
G37*
G04 #@! TD.AperFunction*
G04 #@! TA.AperFunction,SMDPad,CuDef*
G36*
X122121521Y-102308405D02*
G01*
X121018435Y-101205319D01*
X121216425Y-101007329D01*
X122319511Y-102110415D01*
X122121521Y-102308405D01*
G37*
G04 #@! TD.AperFunction*
G04 #@! TA.AperFunction,SMDPad,CuDef*
G36*
X121767968Y-102661958D02*
G01*
X120664882Y-101558872D01*
X120862872Y-101360882D01*
X121965958Y-102463968D01*
X121767968Y-102661958D01*
G37*
G04 #@! TD.AperFunction*
G04 #@! TA.AperFunction,SMDPad,CuDef*
G36*
X121414415Y-103015511D02*
G01*
X120311329Y-101912425D01*
X120509319Y-101714435D01*
X121612405Y-102817521D01*
X121414415Y-103015511D01*
G37*
G04 #@! TD.AperFunction*
G04 #@! TA.AperFunction,SMDPad,CuDef*
G36*
X121060861Y-103369065D02*
G01*
X119957775Y-102265979D01*
X120155765Y-102067989D01*
X121258851Y-103171075D01*
X121060861Y-103369065D01*
G37*
G04 #@! TD.AperFunction*
G04 #@! TA.AperFunction,SMDPad,CuDef*
G36*
X120707308Y-103722618D02*
G01*
X119604222Y-102619532D01*
X119802212Y-102421542D01*
X120905298Y-103524628D01*
X120707308Y-103722618D01*
G37*
G04 #@! TD.AperFunction*
G04 #@! TA.AperFunction,SMDPad,CuDef*
G36*
X120353754Y-104076171D02*
G01*
X119250668Y-102973085D01*
X119448658Y-102775095D01*
X120551744Y-103878181D01*
X120353754Y-104076171D01*
G37*
G04 #@! TD.AperFunction*
G04 #@! TA.AperFunction,SMDPad,CuDef*
G36*
X120000201Y-104429725D02*
G01*
X118897115Y-103326639D01*
X119095105Y-103128649D01*
X120198191Y-104231735D01*
X120000201Y-104429725D01*
G37*
G04 #@! TD.AperFunction*
G04 #@! TA.AperFunction,SMDPad,CuDef*
G36*
X119646648Y-104783278D02*
G01*
X118543562Y-103680192D01*
X118741552Y-103482202D01*
X119844638Y-104585288D01*
X119646648Y-104783278D01*
G37*
G04 #@! TD.AperFunction*
G04 #@! TA.AperFunction,SMDPad,CuDef*
G36*
X119293094Y-105136832D02*
G01*
X118190008Y-104033746D01*
X118387998Y-103835756D01*
X119491084Y-104938842D01*
X119293094Y-105136832D01*
G37*
G04 #@! TD.AperFunction*
G04 #@! TA.AperFunction,SMDPad,CuDef*
G36*
X118939541Y-105490385D02*
G01*
X117836455Y-104387299D01*
X118034445Y-104189309D01*
X119137531Y-105292395D01*
X118939541Y-105490385D01*
G37*
G04 #@! TD.AperFunction*
G04 #@! TA.AperFunction,SMDPad,CuDef*
G36*
X118585987Y-105843938D02*
G01*
X117482901Y-104740852D01*
X117680891Y-104542862D01*
X118783977Y-105645948D01*
X118585987Y-105843938D01*
G37*
G04 #@! TD.AperFunction*
G04 #@! TA.AperFunction,SMDPad,CuDef*
G36*
X118232434Y-106197492D02*
G01*
X117129348Y-105094406D01*
X117327338Y-104896416D01*
X118430424Y-105999502D01*
X118232434Y-106197492D01*
G37*
G04 #@! TD.AperFunction*
G04 #@! TA.AperFunction,SMDPad,CuDef*
G36*
X117878881Y-106551045D02*
G01*
X116775795Y-105447959D01*
X116973785Y-105249969D01*
X118076871Y-106353055D01*
X117878881Y-106551045D01*
G37*
G04 #@! TD.AperFunction*
G04 #@! TA.AperFunction,SMDPad,CuDef*
G36*
X117525327Y-106904599D02*
G01*
X116422241Y-105801513D01*
X116620231Y-105603523D01*
X117723317Y-106706609D01*
X117525327Y-106904599D01*
G37*
G04 #@! TD.AperFunction*
G04 #@! TA.AperFunction,SMDPad,CuDef*
G36*
X116620231Y-109280477D02*
G01*
X116422241Y-109082487D01*
X117525327Y-107979401D01*
X117723317Y-108177391D01*
X116620231Y-109280477D01*
G37*
G04 #@! TD.AperFunction*
G04 #@! TA.AperFunction,SMDPad,CuDef*
G36*
X116973785Y-109634031D02*
G01*
X116775795Y-109436041D01*
X117878881Y-108332955D01*
X118076871Y-108530945D01*
X116973785Y-109634031D01*
G37*
G04 #@! TD.AperFunction*
G04 #@! TA.AperFunction,SMDPad,CuDef*
G36*
X117327338Y-109987584D02*
G01*
X117129348Y-109789594D01*
X118232434Y-108686508D01*
X118430424Y-108884498D01*
X117327338Y-109987584D01*
G37*
G04 #@! TD.AperFunction*
G04 #@! TA.AperFunction,SMDPad,CuDef*
G36*
X117680891Y-110341138D02*
G01*
X117482901Y-110143148D01*
X118585987Y-109040062D01*
X118783977Y-109238052D01*
X117680891Y-110341138D01*
G37*
G04 #@! TD.AperFunction*
G04 #@! TA.AperFunction,SMDPad,CuDef*
G36*
X118034445Y-110694691D02*
G01*
X117836455Y-110496701D01*
X118939541Y-109393615D01*
X119137531Y-109591605D01*
X118034445Y-110694691D01*
G37*
G04 #@! TD.AperFunction*
G04 #@! TA.AperFunction,SMDPad,CuDef*
G36*
X118387998Y-111048244D02*
G01*
X118190008Y-110850254D01*
X119293094Y-109747168D01*
X119491084Y-109945158D01*
X118387998Y-111048244D01*
G37*
G04 #@! TD.AperFunction*
G04 #@! TA.AperFunction,SMDPad,CuDef*
G36*
X118741552Y-111401798D02*
G01*
X118543562Y-111203808D01*
X119646648Y-110100722D01*
X119844638Y-110298712D01*
X118741552Y-111401798D01*
G37*
G04 #@! TD.AperFunction*
G04 #@! TA.AperFunction,SMDPad,CuDef*
G36*
X119095105Y-111755351D02*
G01*
X118897115Y-111557361D01*
X120000201Y-110454275D01*
X120198191Y-110652265D01*
X119095105Y-111755351D01*
G37*
G04 #@! TD.AperFunction*
G04 #@! TA.AperFunction,SMDPad,CuDef*
G36*
X119448658Y-112108905D02*
G01*
X119250668Y-111910915D01*
X120353754Y-110807829D01*
X120551744Y-111005819D01*
X119448658Y-112108905D01*
G37*
G04 #@! TD.AperFunction*
G04 #@! TA.AperFunction,SMDPad,CuDef*
G36*
X119802212Y-112462458D02*
G01*
X119604222Y-112264468D01*
X120707308Y-111161382D01*
X120905298Y-111359372D01*
X119802212Y-112462458D01*
G37*
G04 #@! TD.AperFunction*
G04 #@! TA.AperFunction,SMDPad,CuDef*
G36*
X120155765Y-112816011D02*
G01*
X119957775Y-112618021D01*
X121060861Y-111514935D01*
X121258851Y-111712925D01*
X120155765Y-112816011D01*
G37*
G04 #@! TD.AperFunction*
G04 #@! TA.AperFunction,SMDPad,CuDef*
G36*
X120509319Y-113169565D02*
G01*
X120311329Y-112971575D01*
X121414415Y-111868489D01*
X121612405Y-112066479D01*
X120509319Y-113169565D01*
G37*
G04 #@! TD.AperFunction*
G04 #@! TA.AperFunction,SMDPad,CuDef*
G36*
X120862872Y-113523118D02*
G01*
X120664882Y-113325128D01*
X121767968Y-112222042D01*
X121965958Y-112420032D01*
X120862872Y-113523118D01*
G37*
G04 #@! TD.AperFunction*
G04 #@! TA.AperFunction,SMDPad,CuDef*
G36*
X121216425Y-113876671D02*
G01*
X121018435Y-113678681D01*
X122121521Y-112575595D01*
X122319511Y-112773585D01*
X121216425Y-113876671D01*
G37*
G04 #@! TD.AperFunction*
G04 #@! TA.AperFunction,SMDPad,CuDef*
G36*
X121569979Y-114230225D02*
G01*
X121371989Y-114032235D01*
X122475075Y-112929149D01*
X122673065Y-113127139D01*
X121569979Y-114230225D01*
G37*
G04 #@! TD.AperFunction*
G04 #@! TA.AperFunction,SMDPad,CuDef*
G36*
X121923532Y-114583778D02*
G01*
X121725542Y-114385788D01*
X122828628Y-113282702D01*
X123026618Y-113480692D01*
X121923532Y-114583778D01*
G37*
G04 #@! TD.AperFunction*
G04 #@! TA.AperFunction,SMDPad,CuDef*
G36*
X122277085Y-114937332D02*
G01*
X122079095Y-114739342D01*
X123182181Y-113636256D01*
X123380171Y-113834246D01*
X122277085Y-114937332D01*
G37*
G04 #@! TD.AperFunction*
G04 #@! TA.AperFunction,SMDPad,CuDef*
G36*
X122630639Y-115290885D02*
G01*
X122432649Y-115092895D01*
X123535735Y-113989809D01*
X123733725Y-114187799D01*
X122630639Y-115290885D01*
G37*
G04 #@! TD.AperFunction*
G04 #@! TA.AperFunction,SMDPad,CuDef*
G36*
X122984192Y-115644438D02*
G01*
X122786202Y-115446448D01*
X123889288Y-114343362D01*
X124087278Y-114541352D01*
X122984192Y-115644438D01*
G37*
G04 #@! TD.AperFunction*
G04 #@! TA.AperFunction,SMDPad,CuDef*
G36*
X123337746Y-115997992D02*
G01*
X123139756Y-115800002D01*
X124242842Y-114696916D01*
X124440832Y-114894906D01*
X123337746Y-115997992D01*
G37*
G04 #@! TD.AperFunction*
G04 #@! TA.AperFunction,SMDPad,CuDef*
G36*
X123691299Y-116351545D02*
G01*
X123493309Y-116153555D01*
X124596395Y-115050469D01*
X124794385Y-115248459D01*
X123691299Y-116351545D01*
G37*
G04 #@! TD.AperFunction*
G04 #@! TA.AperFunction,SMDPad,CuDef*
G36*
X124044852Y-116705099D02*
G01*
X123846862Y-116507109D01*
X124949948Y-115404023D01*
X125147938Y-115602013D01*
X124044852Y-116705099D01*
G37*
G04 #@! TD.AperFunction*
G04 #@! TA.AperFunction,SMDPad,CuDef*
G36*
X124398406Y-117058652D02*
G01*
X124200416Y-116860662D01*
X125303502Y-115757576D01*
X125501492Y-115955566D01*
X124398406Y-117058652D01*
G37*
G04 #@! TD.AperFunction*
G04 #@! TA.AperFunction,SMDPad,CuDef*
G36*
X124751959Y-117412205D02*
G01*
X124553969Y-117214215D01*
X125657055Y-116111129D01*
X125855045Y-116309119D01*
X124751959Y-117412205D01*
G37*
G04 #@! TD.AperFunction*
G04 #@! TA.AperFunction,SMDPad,CuDef*
G36*
X125105513Y-117765759D02*
G01*
X124907523Y-117567769D01*
X126010609Y-116464683D01*
X126208599Y-116662673D01*
X125105513Y-117765759D01*
G37*
G04 #@! TD.AperFunction*
G04 #@! TA.AperFunction,SMDPad,CuDef*
G36*
X135966673Y-106904599D02*
G01*
X135768683Y-106706609D01*
X136871769Y-105603523D01*
X137069759Y-105801513D01*
X135966673Y-106904599D01*
G37*
G04 #@! TD.AperFunction*
G04 #@! TA.AperFunction,SMDPad,CuDef*
G36*
X135613119Y-106551045D02*
G01*
X135415129Y-106353055D01*
X136518215Y-105249969D01*
X136716205Y-105447959D01*
X135613119Y-106551045D01*
G37*
G04 #@! TD.AperFunction*
G04 #@! TA.AperFunction,SMDPad,CuDef*
G36*
X135259566Y-106197492D02*
G01*
X135061576Y-105999502D01*
X136164662Y-104896416D01*
X136362652Y-105094406D01*
X135259566Y-106197492D01*
G37*
G04 #@! TD.AperFunction*
G04 #@! TA.AperFunction,SMDPad,CuDef*
G36*
X134906013Y-105843938D02*
G01*
X134708023Y-105645948D01*
X135811109Y-104542862D01*
X136009099Y-104740852D01*
X134906013Y-105843938D01*
G37*
G04 #@! TD.AperFunction*
G04 #@! TA.AperFunction,SMDPad,CuDef*
G36*
X134552459Y-105490385D02*
G01*
X134354469Y-105292395D01*
X135457555Y-104189309D01*
X135655545Y-104387299D01*
X134552459Y-105490385D01*
G37*
G04 #@! TD.AperFunction*
G04 #@! TA.AperFunction,SMDPad,CuDef*
G36*
X134198906Y-105136832D02*
G01*
X134000916Y-104938842D01*
X135104002Y-103835756D01*
X135301992Y-104033746D01*
X134198906Y-105136832D01*
G37*
G04 #@! TD.AperFunction*
G04 #@! TA.AperFunction,SMDPad,CuDef*
G36*
X133845352Y-104783278D02*
G01*
X133647362Y-104585288D01*
X134750448Y-103482202D01*
X134948438Y-103680192D01*
X133845352Y-104783278D01*
G37*
G04 #@! TD.AperFunction*
G04 #@! TA.AperFunction,SMDPad,CuDef*
G36*
X133491799Y-104429725D02*
G01*
X133293809Y-104231735D01*
X134396895Y-103128649D01*
X134594885Y-103326639D01*
X133491799Y-104429725D01*
G37*
G04 #@! TD.AperFunction*
G04 #@! TA.AperFunction,SMDPad,CuDef*
G36*
X133138246Y-104076171D02*
G01*
X132940256Y-103878181D01*
X134043342Y-102775095D01*
X134241332Y-102973085D01*
X133138246Y-104076171D01*
G37*
G04 #@! TD.AperFunction*
G04 #@! TA.AperFunction,SMDPad,CuDef*
G36*
X132784692Y-103722618D02*
G01*
X132586702Y-103524628D01*
X133689788Y-102421542D01*
X133887778Y-102619532D01*
X132784692Y-103722618D01*
G37*
G04 #@! TD.AperFunction*
G04 #@! TA.AperFunction,SMDPad,CuDef*
G36*
X132431139Y-103369065D02*
G01*
X132233149Y-103171075D01*
X133336235Y-102067989D01*
X133534225Y-102265979D01*
X132431139Y-103369065D01*
G37*
G04 #@! TD.AperFunction*
G04 #@! TA.AperFunction,SMDPad,CuDef*
G36*
X132077585Y-103015511D02*
G01*
X131879595Y-102817521D01*
X132982681Y-101714435D01*
X133180671Y-101912425D01*
X132077585Y-103015511D01*
G37*
G04 #@! TD.AperFunction*
G04 #@! TA.AperFunction,SMDPad,CuDef*
G36*
X131724032Y-102661958D02*
G01*
X131526042Y-102463968D01*
X132629128Y-101360882D01*
X132827118Y-101558872D01*
X131724032Y-102661958D01*
G37*
G04 #@! TD.AperFunction*
G04 #@! TA.AperFunction,SMDPad,CuDef*
G36*
X131370479Y-102308405D02*
G01*
X131172489Y-102110415D01*
X132275575Y-101007329D01*
X132473565Y-101205319D01*
X131370479Y-102308405D01*
G37*
G04 #@! TD.AperFunction*
G04 #@! TA.AperFunction,SMDPad,CuDef*
G36*
X131016925Y-101954851D02*
G01*
X130818935Y-101756861D01*
X131922021Y-100653775D01*
X132120011Y-100851765D01*
X131016925Y-101954851D01*
G37*
G04 #@! TD.AperFunction*
G04 #@! TA.AperFunction,SMDPad,CuDef*
G36*
X130663372Y-101601298D02*
G01*
X130465382Y-101403308D01*
X131568468Y-100300222D01*
X131766458Y-100498212D01*
X130663372Y-101601298D01*
G37*
G04 #@! TD.AperFunction*
G04 #@! TA.AperFunction,SMDPad,CuDef*
G36*
X130309819Y-101247744D02*
G01*
X130111829Y-101049754D01*
X131214915Y-99946668D01*
X131412905Y-100144658D01*
X130309819Y-101247744D01*
G37*
G04 #@! TD.AperFunction*
G04 #@! TA.AperFunction,SMDPad,CuDef*
G36*
X129956265Y-100894191D02*
G01*
X129758275Y-100696201D01*
X130861361Y-99593115D01*
X131059351Y-99791105D01*
X129956265Y-100894191D01*
G37*
G04 #@! TD.AperFunction*
G04 #@! TA.AperFunction,SMDPad,CuDef*
G36*
X129602712Y-100540638D02*
G01*
X129404722Y-100342648D01*
X130507808Y-99239562D01*
X130705798Y-99437552D01*
X129602712Y-100540638D01*
G37*
G04 #@! TD.AperFunction*
G04 #@! TA.AperFunction,SMDPad,CuDef*
G36*
X129249158Y-100187084D02*
G01*
X129051168Y-99989094D01*
X130154254Y-98886008D01*
X130352244Y-99083998D01*
X129249158Y-100187084D01*
G37*
G04 #@! TD.AperFunction*
G04 #@! TA.AperFunction,SMDPad,CuDef*
G36*
X128895605Y-99833531D02*
G01*
X128697615Y-99635541D01*
X129800701Y-98532455D01*
X129998691Y-98730445D01*
X128895605Y-99833531D01*
G37*
G04 #@! TD.AperFunction*
G04 #@! TA.AperFunction,SMDPad,CuDef*
G36*
X128542052Y-99479977D02*
G01*
X128344062Y-99281987D01*
X129447148Y-98178901D01*
X129645138Y-98376891D01*
X128542052Y-99479977D01*
G37*
G04 #@! TD.AperFunction*
G04 #@! TA.AperFunction,SMDPad,CuDef*
G36*
X128188498Y-99126424D02*
G01*
X127990508Y-98928434D01*
X129093594Y-97825348D01*
X129291584Y-98023338D01*
X128188498Y-99126424D01*
G37*
G04 #@! TD.AperFunction*
G04 #@! TA.AperFunction,SMDPad,CuDef*
G36*
X127834945Y-98772871D02*
G01*
X127636955Y-98574881D01*
X128740041Y-97471795D01*
X128938031Y-97669785D01*
X127834945Y-98772871D01*
G37*
G04 #@! TD.AperFunction*
G04 #@! TA.AperFunction,SMDPad,CuDef*
G36*
X127481391Y-98419317D02*
G01*
X127283401Y-98221327D01*
X128386487Y-97118241D01*
X128584477Y-97316231D01*
X127481391Y-98419317D01*
G37*
G04 #@! TD.AperFunction*
D15*
X106058000Y-74124000D03*
X106058000Y-132124000D03*
X83058000Y-74124000D03*
X83058000Y-132124000D03*
D16*
X84328000Y-78994000D03*
X81788000Y-78994000D03*
X84328000Y-81534000D03*
X81788000Y-81534000D03*
X84328000Y-84074000D03*
X81788000Y-84074000D03*
X84328000Y-86614000D03*
X81788000Y-86614000D03*
X84328000Y-89154000D03*
X81788000Y-89154000D03*
X84328000Y-91694000D03*
X81788000Y-91694000D03*
X84328000Y-94234000D03*
X81788000Y-94234000D03*
X84328000Y-96774000D03*
X81788000Y-96774000D03*
X84328000Y-99314000D03*
X81788000Y-99314000D03*
X84328000Y-101854000D03*
X81788000Y-101854000D03*
X84328000Y-104394000D03*
X81788000Y-104394000D03*
X84328000Y-106934000D03*
X81788000Y-106934000D03*
X84328000Y-109474000D03*
X81788000Y-109474000D03*
X84328000Y-112014000D03*
X81788000Y-112014000D03*
X84328000Y-114554000D03*
X81788000Y-114554000D03*
X84328000Y-117094000D03*
X81788000Y-117094000D03*
X84328000Y-119634000D03*
X81788000Y-119634000D03*
X84328000Y-122174000D03*
X81788000Y-122174000D03*
X84328000Y-124714000D03*
X81788000Y-124714000D03*
X84328000Y-127254000D03*
X81788000Y-127254000D03*
D17*
X103886000Y-144729200D03*
X103236000Y-146342000D03*
X104536000Y-146342000D03*
D18*
X103886000Y-145288000D03*
D19*
X118341140Y-154625040D03*
D20*
X120246140Y-157350038D03*
X118976140Y-157350038D03*
X117706140Y-157350038D03*
X116436140Y-157350038D03*
X116436140Y-151900039D03*
X117706140Y-151900039D03*
X118976140Y-151900039D03*
X120246140Y-151900039D03*
D21*
X110678000Y-113316000D03*
X108778000Y-113316000D03*
X109728000Y-115316000D03*
G04 #@! TA.AperFunction,SMDPad,CuDef*
D14*
G36*
X102709505Y-155790388D02*
G01*
X103593388Y-154906505D01*
X104300495Y-155613612D01*
X103416612Y-156497495D01*
X102709505Y-155790388D01*
G37*
G04 #@! TD.AperFunction*
G04 #@! TA.AperFunction,SMDPad,CuDef*
G36*
X104123719Y-157204602D02*
G01*
X105007602Y-156320719D01*
X105714709Y-157027826D01*
X104830826Y-157911709D01*
X104123719Y-157204602D01*
G37*
G04 #@! TD.AperFunction*
D22*
X155328000Y-96042000D03*
X155328000Y-95392000D03*
X155328000Y-94742000D03*
X155328000Y-94092000D03*
X155328000Y-93442000D03*
D23*
X155688000Y-97204500D03*
X155688000Y-92279500D03*
D24*
X157988000Y-97652000D03*
X157988000Y-91832000D03*
D25*
X157988000Y-95582000D03*
X157988000Y-93902000D03*
D13*
X113792000Y-98971100D03*
X113792000Y-93560900D03*
D26*
X105554000Y-150495000D03*
X114554000Y-150495000D03*
D27*
X152908000Y-98568000D03*
X152908000Y-100568000D03*
X115062000Y-115078000D03*
X115062000Y-117078000D03*
G04 #@! TA.AperFunction,SMDPad,CuDef*
D14*
G36*
X137689398Y-111776281D02*
G01*
X138573281Y-110892398D01*
X139280388Y-111599505D01*
X138396505Y-112483388D01*
X137689398Y-111776281D01*
G37*
G04 #@! TD.AperFunction*
G04 #@! TA.AperFunction,SMDPad,CuDef*
G36*
X139103612Y-113190495D02*
G01*
X139987495Y-112306612D01*
X140694602Y-113013719D01*
X139810719Y-113897602D01*
X139103612Y-113190495D01*
G37*
G04 #@! TD.AperFunction*
D28*
X116348000Y-119888000D03*
X118348000Y-119888000D03*
G04 #@! TA.AperFunction,SMDPad,CuDef*
D14*
G36*
X132731281Y-97514602D02*
G01*
X131847398Y-96630719D01*
X132554505Y-95923612D01*
X133438388Y-96807495D01*
X132731281Y-97514602D01*
G37*
G04 #@! TD.AperFunction*
G04 #@! TA.AperFunction,SMDPad,CuDef*
G36*
X134145495Y-96100388D02*
G01*
X133261612Y-95216505D01*
X133968719Y-94509398D01*
X134852602Y-95393281D01*
X134145495Y-96100388D01*
G37*
G04 #@! TD.AperFunction*
G04 #@! TA.AperFunction,SMDPad,CuDef*
G36*
X142699831Y-100098914D02*
G01*
X143583714Y-99215031D01*
X144290821Y-99922138D01*
X143406938Y-100806021D01*
X142699831Y-100098914D01*
G37*
G04 #@! TD.AperFunction*
G04 #@! TA.AperFunction,SMDPad,CuDef*
G36*
X144114045Y-101513128D02*
G01*
X144997928Y-100629245D01*
X145705035Y-101336352D01*
X144821152Y-102220235D01*
X144114045Y-101513128D01*
G37*
G04 #@! TD.AperFunction*
D27*
X122555000Y-120253000D03*
X122555000Y-118253000D03*
G04 #@! TA.AperFunction,SMDPad,CuDef*
D14*
G36*
X132571719Y-93112398D02*
G01*
X133455602Y-93996281D01*
X132748495Y-94703388D01*
X131864612Y-93819505D01*
X132571719Y-93112398D01*
G37*
G04 #@! TD.AperFunction*
G04 #@! TA.AperFunction,SMDPad,CuDef*
G36*
X131157505Y-94526612D02*
G01*
X132041388Y-95410495D01*
X131334281Y-96117602D01*
X130450398Y-95233719D01*
X131157505Y-94526612D01*
G37*
G04 #@! TD.AperFunction*
G04 #@! TA.AperFunction,SMDPad,CuDef*
G36*
X142091602Y-111616719D02*
G01*
X141207719Y-112500602D01*
X140500612Y-111793495D01*
X141384495Y-110909612D01*
X142091602Y-111616719D01*
G37*
G04 #@! TD.AperFunction*
G04 #@! TA.AperFunction,SMDPad,CuDef*
G36*
X140677388Y-110202505D02*
G01*
X139793505Y-111086388D01*
X139086398Y-110379281D01*
X139970281Y-109495398D01*
X140677388Y-110202505D01*
G37*
G04 #@! TD.AperFunction*
D27*
X112014000Y-102632000D03*
X112014000Y-104632000D03*
X109982000Y-102602280D03*
X109982000Y-104602280D03*
X106934000Y-115316000D03*
X106934000Y-113316000D03*
X120650000Y-120253000D03*
X120650000Y-118253000D03*
G04 #@! TA.AperFunction,SMDPad,CuDef*
D14*
G36*
X131174719Y-91715398D02*
G01*
X132058602Y-92599281D01*
X131351495Y-93306388D01*
X130467612Y-92422505D01*
X131174719Y-91715398D01*
G37*
G04 #@! TD.AperFunction*
G04 #@! TA.AperFunction,SMDPad,CuDef*
G36*
X129760505Y-93129612D02*
G01*
X130644388Y-94013495D01*
X129937281Y-94720602D01*
X129053398Y-93836719D01*
X129760505Y-93129612D01*
G37*
G04 #@! TD.AperFunction*
D27*
X152527000Y-144415000D03*
X152527000Y-146415000D03*
X152400000Y-131207000D03*
X152400000Y-133207000D03*
D28*
X116729000Y-145288000D03*
X118729000Y-145288000D03*
D29*
X97294700Y-155448000D03*
X92189300Y-155448000D03*
D28*
X118729000Y-147066000D03*
X116729000Y-147066000D03*
D27*
X127508000Y-152892000D03*
X127508000Y-150892000D03*
X120523000Y-148225000D03*
X120523000Y-150225000D03*
D28*
X123968000Y-154749500D03*
X125968000Y-154749500D03*
G04 #@! TA.AperFunction,SMDPad,CuDef*
D14*
G36*
X104034398Y-154448281D02*
G01*
X104918281Y-153564398D01*
X105625388Y-154271505D01*
X104741505Y-155155388D01*
X104034398Y-154448281D01*
G37*
G04 #@! TD.AperFunction*
G04 #@! TA.AperFunction,SMDPad,CuDef*
G36*
X105448612Y-155862495D02*
G01*
X106332495Y-154978612D01*
X107039602Y-155685719D01*
X106155719Y-156569602D01*
X105448612Y-155862495D01*
G37*
G04 #@! TD.AperFunction*
D29*
X97294700Y-143256000D03*
X92189300Y-143256000D03*
D27*
X144145000Y-120793000D03*
X144145000Y-122793000D03*
D28*
X97282000Y-124968000D03*
X95282000Y-124968000D03*
D27*
X104902000Y-106553000D03*
X104902000Y-108553000D03*
X152146000Y-122317000D03*
X152146000Y-124317000D03*
X105156000Y-124857000D03*
X105156000Y-126857000D03*
X150241000Y-122317000D03*
X150241000Y-124317000D03*
X103251000Y-124857000D03*
X103251000Y-126857000D03*
X110680500Y-106505500D03*
X110680500Y-108505500D03*
X111252000Y-135467600D03*
X111252000Y-133467600D03*
X113284000Y-133467600D03*
X113284000Y-135467600D03*
X143002000Y-90678000D03*
X143002000Y-88678000D03*
D28*
X127984000Y-137922000D03*
X125984000Y-137922000D03*
X126000000Y-139954000D03*
X128000000Y-139954000D03*
D27*
X130302000Y-135922000D03*
X130302000Y-137922000D03*
X114300000Y-126508000D03*
X114300000Y-128508000D03*
D30*
X118491000Y-93134000D03*
X118491000Y-95334000D03*
D31*
X101092000Y-145034000D03*
X102192000Y-145034000D03*
D30*
X148463000Y-147277000D03*
X148463000Y-145077000D03*
D32*
X101219000Y-153347000D03*
X101219000Y-149167000D03*
D33*
X150495000Y-146845000D03*
X150495000Y-144145000D03*
D34*
X111981000Y-81661000D03*
X114681000Y-81661000D03*
D35*
X98933000Y-121428000D03*
X98933000Y-123428000D03*
D36*
X98933000Y-122428000D03*
D37*
X140986000Y-85344000D03*
X142986000Y-85344000D03*
D38*
X141986000Y-85344000D03*
D39*
X140309000Y-159247000D03*
X130709000Y-159247000D03*
D40*
X132009000Y-155372000D03*
X133009000Y-155372000D03*
X134009000Y-155372000D03*
X135009000Y-155372000D03*
X136009000Y-155372000D03*
X137009000Y-155372000D03*
X138009000Y-155372000D03*
X139009000Y-155372000D03*
D41*
X154589000Y-144095000D03*
X154589000Y-142845000D03*
X154589000Y-141595000D03*
X154589000Y-140345000D03*
X154589000Y-139095000D03*
X154589000Y-137845000D03*
D42*
X157789000Y-135995000D03*
X157789000Y-145945000D03*
X157770000Y-132630000D03*
D41*
X154570000Y-129530000D03*
X154570000Y-130780000D03*
X154570000Y-128280000D03*
X154570000Y-127030000D03*
D42*
X157770000Y-125180000D03*
D43*
X154524202Y-114949600D03*
X154524202Y-116199600D03*
X154524202Y-117449600D03*
X154524202Y-118699600D03*
X154524202Y-119949600D03*
D44*
X157724203Y-121799601D03*
X157724203Y-113099599D03*
D45*
X134112000Y-89154000D03*
D46*
X131572000Y-89154000D03*
X134112000Y-86614000D03*
X131572000Y-86614000D03*
X134112000Y-84074000D03*
X131572000Y-84074000D03*
D45*
X112268000Y-84328000D03*
D46*
X114808000Y-84328000D03*
X112268000Y-86868000D03*
X114808000Y-86868000D03*
X112268000Y-89408000D03*
X114808000Y-89408000D03*
D47*
X150373000Y-96139000D03*
X152273000Y-96139000D03*
X150368000Y-94107000D03*
X152268000Y-94107000D03*
D48*
X118491000Y-96586000D03*
X118491000Y-98486000D03*
G04 #@! TA.AperFunction,SMDPad,CuDef*
D14*
G36*
X118218858Y-102313619D02*
G01*
X117299619Y-103232858D01*
X116804644Y-102737883D01*
X117723883Y-101818644D01*
X118218858Y-102313619D01*
G37*
G04 #@! TD.AperFunction*
G04 #@! TA.AperFunction,SMDPad,CuDef*
G36*
X116875356Y-100970117D02*
G01*
X115956117Y-101889356D01*
X115461142Y-101394381D01*
X116380381Y-100475142D01*
X116875356Y-100970117D01*
G37*
G04 #@! TD.AperFunction*
D48*
X121412000Y-80264000D03*
X121412000Y-78364000D03*
D47*
X119060000Y-78232000D03*
X117160000Y-78232000D03*
X113858000Y-78232000D03*
X115758000Y-78232000D03*
X127066000Y-78232000D03*
X128966000Y-78232000D03*
D48*
X124968000Y-79878000D03*
X124968000Y-77978000D03*
D47*
X152588000Y-117856000D03*
X150688000Y-117856000D03*
X152588000Y-115125500D03*
X150688000Y-115125500D03*
X150815000Y-129286000D03*
X152715000Y-129286000D03*
X150815000Y-127355600D03*
X152715000Y-127355600D03*
X124018000Y-148996400D03*
X125918000Y-148996400D03*
X125918000Y-150926800D03*
X124018000Y-150926800D03*
X118750000Y-143256000D03*
X120650000Y-143256000D03*
X122054540Y-143268700D03*
X123954540Y-143268700D03*
D48*
X150876000Y-98684000D03*
X150876000Y-100584000D03*
D47*
X154625000Y-100457000D03*
X156525000Y-100457000D03*
X106050000Y-119380000D03*
X107950000Y-119380000D03*
X107950000Y-121412000D03*
X106050000Y-121412000D03*
X124018000Y-147066000D03*
X125918000Y-147066000D03*
X97216000Y-150368000D03*
X95316000Y-150368000D03*
X93914000Y-150368000D03*
X92014000Y-150368000D03*
X124018000Y-152844500D03*
X125918000Y-152844500D03*
X113096000Y-157480000D03*
X114996000Y-157480000D03*
X124018000Y-156654500D03*
X125918000Y-156654500D03*
X144434600Y-124536200D03*
X142534600Y-124536200D03*
D48*
X112585500Y-106555500D03*
X112585500Y-108455500D03*
X101346000Y-123378000D03*
X101346000Y-121478000D03*
X141224000Y-75626000D03*
X141224000Y-73726000D03*
X143002000Y-73726000D03*
X143002000Y-75626000D03*
G04 #@! TA.AperFunction,SMDPad,CuDef*
D14*
G36*
X139071130Y-98752117D02*
G01*
X139495394Y-98327853D01*
X140591410Y-99423869D01*
X140167146Y-99848133D01*
X139071130Y-98752117D01*
G37*
G04 #@! TD.AperFunction*
G04 #@! TA.AperFunction,SMDPad,CuDef*
G36*
X138173104Y-99650143D02*
G01*
X138597368Y-99225879D01*
X139693384Y-100321895D01*
X139269120Y-100746159D01*
X138173104Y-99650143D01*
G37*
G04 #@! TD.AperFunction*
G04 #@! TA.AperFunction,SMDPad,CuDef*
G36*
X137275079Y-100548168D02*
G01*
X137699343Y-100123904D01*
X138795359Y-101219920D01*
X138371095Y-101644184D01*
X137275079Y-100548168D01*
G37*
G04 #@! TD.AperFunction*
G04 #@! TA.AperFunction,SMDPad,CuDef*
G36*
X136377053Y-101446194D02*
G01*
X136801317Y-101021930D01*
X137897333Y-102117946D01*
X137473069Y-102542210D01*
X136377053Y-101446194D01*
G37*
G04 #@! TD.AperFunction*
G04 #@! TA.AperFunction,SMDPad,CuDef*
G36*
X140195430Y-105264571D02*
G01*
X140619694Y-104840307D01*
X141715710Y-105936323D01*
X141291446Y-106360587D01*
X140195430Y-105264571D01*
G37*
G04 #@! TD.AperFunction*
G04 #@! TA.AperFunction,SMDPad,CuDef*
G36*
X141093456Y-104366545D02*
G01*
X141517720Y-103942281D01*
X142613736Y-105038297D01*
X142189472Y-105462561D01*
X141093456Y-104366545D01*
G37*
G04 #@! TD.AperFunction*
G04 #@! TA.AperFunction,SMDPad,CuDef*
G36*
X141991481Y-103468520D02*
G01*
X142415745Y-103044256D01*
X143511761Y-104140272D01*
X143087497Y-104564536D01*
X141991481Y-103468520D01*
G37*
G04 #@! TD.AperFunction*
G04 #@! TA.AperFunction,SMDPad,CuDef*
G36*
X142889507Y-102570494D02*
G01*
X143313771Y-102146230D01*
X144409787Y-103242246D01*
X143985523Y-103666510D01*
X142889507Y-102570494D01*
G37*
G04 #@! TD.AperFunction*
D49*
X146345000Y-119371000D03*
X146995000Y-119371000D03*
X147645000Y-119371000D03*
X148295000Y-119371000D03*
X148295000Y-115071000D03*
X147645000Y-115071000D03*
X146995000Y-115071000D03*
X146345000Y-115071000D03*
X149184000Y-127263000D03*
X148534000Y-127263000D03*
X147884000Y-127263000D03*
X147234000Y-127263000D03*
X147234000Y-131563000D03*
X147884000Y-131563000D03*
X148534000Y-131563000D03*
X149184000Y-131563000D03*
D50*
X145840201Y-122112999D03*
X145840201Y-123063000D03*
X145840201Y-124013001D03*
X148545799Y-124013001D03*
X148545799Y-122112999D03*
D51*
X99230000Y-125034000D03*
X99230000Y-125984000D03*
X99230000Y-126934000D03*
X101430000Y-126934000D03*
X101430000Y-125034000D03*
X106689980Y-106547880D03*
X106689980Y-107497880D03*
X106689980Y-108447880D03*
X108889980Y-108447880D03*
X108889980Y-106547880D03*
D52*
X117657880Y-135954720D03*
D53*
X118813580Y-135543420D03*
X118813580Y-135043421D03*
X118813580Y-134543419D03*
X118813580Y-134043420D03*
X118813580Y-133543421D03*
X118813580Y-133043419D03*
X118813580Y-132543420D03*
D52*
X117657880Y-132132120D03*
D53*
X116502180Y-132543420D03*
X116502180Y-133043419D03*
X116502180Y-133543421D03*
X116502180Y-134043420D03*
X116502180Y-134543419D03*
X116502180Y-135043421D03*
X116502180Y-135543420D03*
D54*
X126249999Y-135378000D03*
X126249999Y-134878000D03*
X126249999Y-134377999D03*
X126750000Y-134377999D03*
X127250000Y-134377999D03*
X127750001Y-134377999D03*
X127750001Y-134878000D03*
X127750001Y-135378000D03*
X127750001Y-135878001D03*
X127250000Y-135878001D03*
X126750000Y-135878001D03*
X126249999Y-135878001D03*
D55*
X116418000Y-125536000D03*
X116418000Y-126786000D03*
X116418000Y-128036000D03*
X116418000Y-129286000D03*
X118618000Y-129286000D03*
X118618000Y-128036000D03*
X118618000Y-126786000D03*
X118618000Y-125536000D03*
D56*
X118402100Y-117894100D03*
X118402100Y-115277900D03*
X116801900Y-115277900D03*
X116801900Y-117894100D03*
D30*
X87546000Y-125984000D03*
X89746000Y-125984000D03*
X145288000Y-85090000D03*
X145288000Y-87290000D03*
D57*
X92087700Y-126479300D03*
X92087700Y-125488700D03*
X90792300Y-125984000D03*
D48*
X145288000Y-88646000D03*
X145288000Y-90546000D03*
D58*
X119639972Y-65512127D03*
X120732172Y-65918527D03*
X121824372Y-65512127D03*
X122916572Y-65308927D03*
X124008772Y-65512127D03*
X125100972Y-65308927D03*
X126193172Y-65512127D03*
X127285372Y-65512127D03*
D59*
X114719100Y-61963300D03*
X127962742Y-62684617D03*
D60*
X126352300Y-76149200D03*
X120637300Y-76149200D03*
D61*
X102001500Y-140462000D03*
X99801500Y-140462000D03*
D47*
X97274001Y-86347501D03*
X95374001Y-86347501D03*
X101424001Y-86347501D03*
X99524001Y-86347501D03*
X103444000Y-140462000D03*
X105344000Y-140462000D03*
D61*
X97903001Y-78292001D03*
X100103001Y-78292001D03*
X100103001Y-81492001D03*
X97903001Y-81492001D03*
D62*
X115316000Y-118364000D03*
X115062000Y-119634000D03*
X115570000Y-145034000D03*
X114808000Y-145796000D03*
X115570000Y-146558000D03*
X114808000Y-147320000D03*
X105918000Y-157988000D03*
X107188000Y-156718000D03*
X107442000Y-154686000D03*
X116586000Y-153924000D03*
X117856000Y-153924000D03*
X118872000Y-153924000D03*
X120142000Y-153924000D03*
X117856000Y-155448000D03*
X118872000Y-155448000D03*
X120142000Y-155448000D03*
X116586000Y-155448000D03*
X114554000Y-153924000D03*
X114554000Y-155194000D03*
X127000000Y-147066000D03*
X127508000Y-149606000D03*
X127127000Y-156654500D03*
X127254000Y-154686000D03*
X90932000Y-150368000D03*
X89916000Y-155448000D03*
X92202000Y-154178000D03*
X92202000Y-156718000D03*
X124968000Y-143256000D03*
X100076000Y-145034000D03*
X89916000Y-143256000D03*
X92202000Y-144589500D03*
X92202000Y-141922500D03*
X137033000Y-156845000D03*
X137033000Y-153797000D03*
X153035000Y-137795000D03*
X156083000Y-127000000D03*
X154559000Y-125857000D03*
X153416000Y-92710000D03*
X132251400Y-91567000D03*
X133686499Y-92964000D03*
X135001000Y-94361000D03*
X150050500Y-70358000D03*
X151066500Y-70358000D03*
X153035000Y-70358000D03*
X154076400Y-70358000D03*
X157035500Y-70421500D03*
X158178500Y-70421500D03*
X147066000Y-74231500D03*
X155067000Y-82169000D03*
X156083000Y-82169000D03*
X157035500Y-82169000D03*
X158178500Y-82169000D03*
X152521920Y-147901660D03*
X136100820Y-100713540D03*
X142527020Y-99060000D03*
X157734000Y-100584000D03*
X152908000Y-101854000D03*
X110744000Y-109728000D03*
X112522000Y-109728000D03*
X103473000Y-108553000D03*
X97028000Y-122428000D03*
X95250000Y-123444000D03*
X97536000Y-126492000D03*
X114300000Y-129794000D03*
X126746000Y-136652000D03*
X111252000Y-136652000D03*
X113284000Y-136652000D03*
X115824000Y-137160000D03*
X124460000Y-137922000D03*
X129286000Y-139954000D03*
X130302000Y-139192000D03*
X128828989Y-118364000D03*
X146304000Y-127254000D03*
X150812500Y-133223000D03*
X149352000Y-119380000D03*
X125222000Y-67056000D03*
X120650000Y-121666000D03*
X116586000Y-104394000D03*
X148590000Y-92710000D03*
X142494000Y-83820000D03*
X143002000Y-91948000D03*
X149098000Y-82042000D03*
X150114000Y-82042000D03*
X144018000Y-78232000D03*
X117094000Y-86868000D03*
X109982000Y-86868000D03*
X103632000Y-128524000D03*
X104902000Y-128270000D03*
X151892000Y-125730000D03*
X150876000Y-125730000D03*
X141224000Y-124460000D03*
X152952400Y-120528972D03*
X129286000Y-85344000D03*
X115570000Y-91948000D03*
X108458000Y-102616000D03*
X110998000Y-101346000D03*
X115316000Y-100330000D03*
X127679400Y-99568000D03*
X142748000Y-122174000D03*
X142494000Y-110744000D03*
X140970000Y-114471400D03*
X122682000Y-116586000D03*
X104648000Y-121412000D03*
X105156000Y-115316000D03*
X121158000Y-110236000D03*
X101092000Y-120396000D03*
X105346500Y-139065000D03*
X105156000Y-146558000D03*
X106426000Y-146558000D03*
X154686000Y-102108000D03*
X128778000Y-94996000D03*
X130048000Y-96266000D03*
X137751246Y-109708254D03*
X146050000Y-102616000D03*
X138938000Y-108458000D03*
X113792000Y-105664000D03*
X115824000Y-105156000D03*
X127533997Y-115283366D03*
X109220000Y-112268000D03*
X120142000Y-117094000D03*
X121158000Y-117094000D03*
X125476000Y-115062000D03*
X124458413Y-114128830D03*
X121745150Y-111259189D03*
X118872000Y-100076000D03*
X122682000Y-103886000D03*
X129540000Y-95504000D03*
X140716000Y-109474000D03*
X142494000Y-112350600D03*
X137668000Y-108204000D03*
X122936000Y-90170000D03*
X126320600Y-100838000D03*
X121412000Y-82042000D03*
X121412000Y-87122000D03*
X114554000Y-79756000D03*
X119092591Y-79722591D03*
X124714000Y-81534000D03*
X126917400Y-80772000D03*
X144780000Y-130556000D03*
X144780000Y-115824000D03*
X150495000Y-142748000D03*
X152527000Y-143256000D03*
X155067000Y-131699000D03*
X153797000Y-131953000D03*
X156210000Y-114935000D03*
X156019500Y-144081500D03*
X139001500Y-153606500D03*
X139001500Y-152654000D03*
X120269000Y-145224500D03*
X117729000Y-150622000D03*
X117729000Y-149606000D03*
X117729000Y-148590000D03*
X114554000Y-148717000D03*
X114554000Y-150495000D03*
X114554000Y-152146000D03*
X120523000Y-146939000D03*
X92456000Y-124460000D03*
X103505000Y-106553000D03*
X98933000Y-120523000D03*
X101282500Y-143129000D03*
X102425500Y-143129000D03*
X103759000Y-143129000D03*
X111760000Y-80264000D03*
X148336000Y-144018000D03*
X142355973Y-121296027D03*
X104648000Y-119380000D03*
X128778000Y-136601400D03*
X128778000Y-135128000D03*
X129540000Y-81788000D03*
X101600000Y-118110000D03*
X116480600Y-80010000D03*
X117856000Y-81280000D03*
X118971409Y-81434591D03*
X118954600Y-84615409D03*
X123924409Y-91975591D03*
X122764600Y-93571409D03*
X132588000Y-99060000D03*
X129286000Y-91440000D03*
X131795554Y-99588297D03*
X128606599Y-89490599D03*
X119442092Y-106315425D03*
X113030000Y-111760000D03*
X120394495Y-106315425D03*
X115062000Y-110915400D03*
X134810500Y-123952000D03*
X137985500Y-127127000D03*
X127552400Y-111574217D03*
X140823803Y-126522384D03*
X140144403Y-125730000D03*
X128680073Y-113523277D03*
X127698500Y-113474500D03*
X139192000Y-125730000D03*
X138176000Y-125730000D03*
X126873000Y-112458500D03*
X129286000Y-83312000D03*
X126483712Y-89916000D03*
X129985700Y-97658166D03*
X131064000Y-105156000D03*
X140721784Y-93985784D03*
X131826000Y-108896190D03*
X128638210Y-108712000D03*
X121898287Y-97299438D03*
X121279047Y-96575828D03*
X117265400Y-111252000D03*
X115062000Y-112776000D03*
X149606000Y-117856000D03*
X141318166Y-117761834D03*
X138266959Y-117207013D03*
X133724690Y-114554000D03*
X149624909Y-116897909D03*
X149606000Y-115520200D03*
X119888000Y-140716000D03*
X116332000Y-121666000D03*
X123904232Y-117808232D03*
X108712000Y-122936000D03*
X119888000Y-123444000D03*
X112786281Y-123454281D03*
X121748194Y-104311804D03*
X111229144Y-124050600D03*
X95758000Y-148590000D03*
X119281208Y-121567208D03*
X138176000Y-120396000D03*
X133604000Y-116586000D03*
X133350000Y-99822000D03*
X141224000Y-77216000D03*
X134142446Y-100350297D03*
X143002000Y-77216000D03*
X136718040Y-110815120D03*
X142925800Y-105783380D03*
X140208000Y-101346000D03*
X137160000Y-104394000D03*
X146304000Y-113792000D03*
X123190000Y-107442000D03*
X145288000Y-113030000D03*
X123194207Y-106485390D03*
X133724690Y-115506403D03*
X139446000Y-119380000D03*
X139762367Y-123381633D03*
X129540000Y-112014000D03*
X124399761Y-109026239D03*
X148590000Y-125984000D03*
X121412000Y-107524600D03*
X147574000Y-125984000D03*
X109728000Y-123952000D03*
X106934000Y-127762000D03*
X115316000Y-134722820D03*
X122341292Y-122595292D03*
X125730000Y-121158000D03*
X116508972Y-124206000D03*
X117867772Y-130810000D03*
X117761827Y-112681827D03*
X117867773Y-132919567D03*
X121373615Y-130302000D03*
X122936000Y-129671400D03*
X129508389Y-119888000D03*
X125730000Y-114046000D03*
X120142000Y-133350000D03*
X120413079Y-131335079D03*
X121158000Y-128715400D03*
X121373615Y-125984000D03*
X125984000Y-124968000D03*
X123698000Y-134620000D03*
X130867190Y-118872000D03*
X122783986Y-132689986D03*
X126247266Y-126755266D03*
X122453014Y-135661014D03*
X118465986Y-137007986D03*
X122047000Y-123825000D03*
X135227409Y-125511909D03*
X131329600Y-127190500D03*
X124968000Y-134198600D03*
X116586000Y-113030000D03*
X121158000Y-116078000D03*
X119888000Y-129286000D03*
X113538000Y-113284000D03*
X116284824Y-113933528D03*
X118872000Y-113538000D03*
X120142000Y-115062000D03*
X151112239Y-83040239D03*
X153504247Y-82929075D03*
D63*
X115062000Y-117078000D02*
X115062000Y-118110000D01*
X115062000Y-118110000D02*
X115316000Y-118364000D01*
X115785900Y-117894100D02*
X115316000Y-118364000D01*
X116801900Y-117894100D02*
X115785900Y-117894100D01*
X116348000Y-119888000D02*
X115316000Y-119888000D01*
X115316000Y-119888000D02*
X115062000Y-119634000D01*
X116729000Y-145288000D02*
X115824000Y-145288000D01*
X115824000Y-145288000D02*
X115570000Y-145034000D01*
X115570000Y-145034000D02*
X114808000Y-145796000D01*
X114808000Y-145796000D02*
X115570000Y-146558000D01*
X115570000Y-146558000D02*
X114808000Y-147320000D01*
D64*
X127473200Y-150926800D02*
X127508000Y-150892000D01*
X125918000Y-150926800D02*
X127473200Y-150926800D01*
D65*
X104919214Y-157116214D02*
X105046214Y-157116214D01*
X105046214Y-157116214D02*
X105918000Y-157988000D01*
X106244107Y-155774107D02*
X107188000Y-156718000D01*
X106244107Y-155774107D02*
X106353893Y-155774107D01*
X106353893Y-155774107D02*
X107442000Y-154686000D01*
X118341140Y-154625040D02*
X117287040Y-154625040D01*
X117287040Y-154625040D02*
X116586000Y-153924000D01*
X118341140Y-154625040D02*
X118341140Y-154409140D01*
X118341140Y-154409140D02*
X117856000Y-153924000D01*
X118341140Y-154625040D02*
X118341140Y-154454860D01*
X118341140Y-154454860D02*
X118872000Y-153924000D01*
X118341140Y-154625040D02*
X119440960Y-154625040D01*
X119440960Y-154625040D02*
X120142000Y-153924000D01*
X118341140Y-154962860D02*
X117856000Y-155448000D01*
X118341140Y-154625040D02*
X118341140Y-154962860D01*
X118341140Y-154625040D02*
X118341140Y-154917140D01*
X118341140Y-154917140D02*
X118872000Y-155448000D01*
X118341140Y-154625040D02*
X119319040Y-154625040D01*
X119319040Y-154625040D02*
X120142000Y-155448000D01*
X118341140Y-154625040D02*
X117408960Y-154625040D01*
X117408960Y-154625040D02*
X116586000Y-155448000D01*
X118341140Y-154625040D02*
X115255040Y-154625040D01*
X115255040Y-154625040D02*
X114554000Y-153924000D01*
X118341140Y-154625040D02*
X115122960Y-154625040D01*
X115122960Y-154625040D02*
X114554000Y-155194000D01*
D63*
X125918000Y-147066000D02*
X127000000Y-147066000D01*
X127508000Y-150892000D02*
X127508000Y-149606000D01*
X125918000Y-156654500D02*
X127127000Y-156654500D01*
X125968000Y-154749500D02*
X127190500Y-154749500D01*
X127190500Y-154749500D02*
X127254000Y-154686000D01*
X92014000Y-150368000D02*
X90932000Y-150368000D01*
D64*
X92189300Y-155448000D02*
X89916000Y-155448000D01*
X92189300Y-155448000D02*
X92189300Y-154190700D01*
X92189300Y-154190700D02*
X92202000Y-154178000D01*
X92189300Y-155448000D02*
X92189300Y-156705300D01*
X92189300Y-156705300D02*
X92202000Y-156718000D01*
D63*
X123954540Y-143268700D02*
X124955300Y-143268700D01*
X124955300Y-143268700D02*
X124968000Y-143256000D01*
X101092000Y-145034000D02*
X100076000Y-145034000D01*
D64*
X92189300Y-143256000D02*
X89916000Y-143256000D01*
X92189300Y-143256000D02*
X92189300Y-144576800D01*
X92189300Y-144576800D02*
X92202000Y-144589500D01*
X92189300Y-143256000D02*
X92189300Y-141935200D01*
X92189300Y-141935200D02*
X92202000Y-141922500D01*
D65*
X137009000Y-155372000D02*
X137009000Y-156821000D01*
X137009000Y-156821000D02*
X137033000Y-156845000D01*
X137009000Y-155372000D02*
X137009000Y-153821000D01*
X137009000Y-153821000D02*
X137033000Y-153797000D01*
D66*
X154589000Y-137845000D02*
X153085000Y-137845000D01*
X153085000Y-137845000D02*
X153035000Y-137795000D01*
X154570000Y-127030000D02*
X156053000Y-127030000D01*
X156053000Y-127030000D02*
X156083000Y-127000000D01*
X154570000Y-127030000D02*
X154570000Y-125868000D01*
X154570000Y-125868000D02*
X154559000Y-125857000D01*
X105957120Y-107497880D02*
X104902000Y-108553000D01*
X106689980Y-107497880D02*
X105957120Y-107497880D01*
X155328000Y-93442000D02*
X154148000Y-93442000D01*
X154148000Y-93442000D02*
X153416000Y-92710000D01*
D63*
X131263107Y-92510893D02*
X131307507Y-92510893D01*
X131307507Y-92510893D02*
X132251400Y-91567000D01*
X132660107Y-93907893D02*
X132742606Y-93907893D01*
X132742606Y-93907893D02*
X133686499Y-92964000D01*
X134057107Y-95304893D02*
X135001000Y-94361000D01*
D66*
X150040840Y-71878020D02*
X150040840Y-70367660D01*
X150040840Y-70367660D02*
X150050500Y-70358000D01*
X151040840Y-71878020D02*
X151040840Y-70383660D01*
X151040840Y-70383660D02*
X151066500Y-70358000D01*
X153040840Y-71878020D02*
X153040840Y-70363840D01*
X153040840Y-70363840D02*
X153035000Y-70358000D01*
X154040840Y-71878020D02*
X154040840Y-70393560D01*
X154040840Y-70393560D02*
X154076400Y-70358000D01*
X157040840Y-71878020D02*
X157040840Y-70426840D01*
X157040840Y-70426840D02*
X157035500Y-70421500D01*
X145640840Y-74278020D02*
X147019480Y-74278020D01*
X147019480Y-74278020D02*
X147066000Y-74231500D01*
X155040840Y-80678020D02*
X155040840Y-82142840D01*
X155040840Y-82142840D02*
X155067000Y-82169000D01*
X156040840Y-80678020D02*
X156040840Y-82126840D01*
X156040840Y-82126840D02*
X156083000Y-82169000D01*
X157040840Y-80678020D02*
X157040840Y-82163660D01*
X157040840Y-82163660D02*
X157035500Y-82169000D01*
X158190840Y-80678020D02*
X158190840Y-80784340D01*
X158190840Y-80678020D02*
X158190840Y-82156660D01*
X158190840Y-82156660D02*
X158178500Y-82169000D01*
D63*
X152527000Y-146415000D02*
X152527000Y-147896580D01*
X152527000Y-147896580D02*
X152521920Y-147901660D01*
X137137193Y-101782070D02*
X137137193Y-101749913D01*
X137137193Y-101749913D02*
X136100820Y-100713540D01*
X143495326Y-100010526D02*
X143477546Y-100010526D01*
X143477546Y-100010526D02*
X142527020Y-99060000D01*
D66*
X156525000Y-100457000D02*
X157607000Y-100457000D01*
X157607000Y-100457000D02*
X157734000Y-100584000D01*
X152908000Y-100568000D02*
X152908000Y-101854000D01*
X110680500Y-108505500D02*
X110680500Y-109664500D01*
X110680500Y-109664500D02*
X110744000Y-109728000D01*
X112585500Y-108455500D02*
X112585500Y-109410500D01*
X112585500Y-109410500D02*
X112522000Y-109474000D01*
X112522000Y-109474000D02*
X112522000Y-109728000D01*
X104902000Y-108553000D02*
X103473000Y-108553000D01*
X98933000Y-122428000D02*
X97028000Y-122428000D01*
X95282000Y-124968000D02*
X95282000Y-123476000D01*
X95282000Y-123476000D02*
X95250000Y-123444000D01*
X99230000Y-125984000D02*
X98044000Y-125984000D01*
X98044000Y-125984000D02*
X97536000Y-126492000D01*
D67*
X116418000Y-126786000D02*
X116418000Y-128036000D01*
X114772000Y-128036000D02*
X114300000Y-128508000D01*
X116418000Y-128036000D02*
X114772000Y-128036000D01*
X114300000Y-128508000D02*
X114300000Y-129794000D01*
D63*
X126750000Y-135878001D02*
X127250000Y-135878001D01*
X126750000Y-135878001D02*
X126750000Y-136648000D01*
X126750000Y-136648000D02*
X126746000Y-136652000D01*
X111252000Y-135467600D02*
X111252000Y-136652000D01*
X113284000Y-135467600D02*
X113284000Y-136652000D01*
X116502180Y-135043421D02*
X116502180Y-135543420D01*
X116502180Y-135543420D02*
X116502180Y-136481820D01*
X116502180Y-136481820D02*
X115824000Y-137160000D01*
X114708180Y-134043420D02*
X113284000Y-135467600D01*
X116502180Y-134043420D02*
X114708180Y-134043420D01*
X125984000Y-137922000D02*
X124460000Y-137922000D01*
X128000000Y-139954000D02*
X129286000Y-139954000D01*
X130302000Y-137922000D02*
X130302000Y-139192000D01*
X128863887Y-118329102D02*
X128828989Y-118364000D01*
X128287493Y-116761667D02*
X128863887Y-117338061D01*
X128863887Y-117338061D02*
X128863887Y-118329102D01*
X147234000Y-127263000D02*
X146313000Y-127263000D01*
X146313000Y-127263000D02*
X146304000Y-127254000D01*
D66*
X152400000Y-133207000D02*
X150828500Y-133207000D01*
X150828500Y-133207000D02*
X150812500Y-133223000D01*
X148422000Y-119371000D02*
X149343000Y-119371000D01*
X149343000Y-119371000D02*
X149352000Y-119380000D01*
D63*
X125100972Y-65308927D02*
X125100972Y-66934972D01*
X125100972Y-66934972D02*
X125222000Y-67056000D01*
X118402100Y-116293900D02*
X116801900Y-117894100D01*
X118402100Y-115277900D02*
X118402100Y-116293900D01*
X122555000Y-120253000D02*
X120650000Y-120253000D01*
X120650000Y-120253000D02*
X120650000Y-121666000D01*
X117426333Y-105900507D02*
X116586000Y-105060174D01*
X116586000Y-105060174D02*
X116586000Y-104394000D01*
D66*
X158190840Y-70433840D02*
X158178500Y-70421500D01*
X158190840Y-71878020D02*
X158190840Y-70433840D01*
X150114000Y-90589100D02*
X150114000Y-91186000D01*
X150114000Y-91186000D02*
X148590000Y-92710000D01*
D67*
X141986000Y-85344000D02*
X141986000Y-84328000D01*
X141986000Y-84328000D02*
X142494000Y-83820000D01*
X143002000Y-90678000D02*
X143002000Y-91948000D01*
D63*
X149040840Y-80678020D02*
X150040840Y-80678020D01*
D66*
X149040840Y-80678020D02*
X149040840Y-81984840D01*
X149040840Y-81984840D02*
X149098000Y-82042000D01*
X150040840Y-80678020D02*
X150040840Y-81968840D01*
X150040840Y-81968840D02*
X150114000Y-82042000D01*
D67*
X145640840Y-78278020D02*
X144064020Y-78278020D01*
X144064020Y-78278020D02*
X144018000Y-78232000D01*
D64*
X114808000Y-86868000D02*
X117094000Y-86868000D01*
X112268000Y-86868000D02*
X109982000Y-86868000D01*
D67*
X103251000Y-126857000D02*
X103251000Y-128143000D01*
X103251000Y-128143000D02*
X103632000Y-128524000D01*
X105156000Y-126857000D02*
X105156000Y-128016000D01*
X105156000Y-128016000D02*
X104902000Y-128270000D01*
D66*
X154524202Y-119949600D02*
X154287401Y-120186401D01*
X152146000Y-124317000D02*
X152146000Y-125476000D01*
X152146000Y-125476000D02*
X151892000Y-125730000D01*
X150241000Y-124317000D02*
X150241000Y-125095000D01*
X150241000Y-125095000D02*
X150876000Y-125730000D01*
D67*
X144415000Y-123063000D02*
X144145000Y-122793000D01*
X145840201Y-123063000D02*
X144415000Y-123063000D01*
X142534600Y-124536200D02*
X141300200Y-124536200D01*
X141300200Y-124536200D02*
X141224000Y-124460000D01*
D66*
X154524202Y-119949600D02*
X153531772Y-119949600D01*
X153531772Y-119949600D02*
X152952400Y-120528972D01*
X131572000Y-84074000D02*
X130556000Y-84074000D01*
X130556000Y-84074000D02*
X129286000Y-85344000D01*
X113792000Y-93560900D02*
X113957100Y-93560900D01*
X113957100Y-93560900D02*
X115570000Y-91948000D01*
D63*
X109982000Y-102602280D02*
X108471720Y-102602280D01*
X108471720Y-102602280D02*
X108458000Y-102616000D01*
X112014000Y-102632000D02*
X112014000Y-102362000D01*
X112014000Y-102362000D02*
X110998000Y-101346000D01*
X116168249Y-101182249D02*
X115316000Y-100330000D01*
X128287493Y-98122333D02*
X127679400Y-98730426D01*
X127679400Y-98730426D02*
X127679400Y-99568000D01*
D66*
X144145000Y-122793000D02*
X143367000Y-122793000D01*
X143367000Y-122793000D02*
X142748000Y-122174000D01*
X141296107Y-111705107D02*
X141532893Y-111705107D01*
X141532893Y-111705107D02*
X142494000Y-110744000D01*
X139899107Y-113102107D02*
X139899107Y-113400507D01*
X139899107Y-113400507D02*
X140970000Y-114471400D01*
D63*
X123790294Y-115347454D02*
X122682000Y-116455748D01*
X122682000Y-116455748D02*
X122682000Y-116586000D01*
X106050000Y-121412000D02*
X104648000Y-121412000D01*
X106934000Y-115316000D02*
X105156000Y-115316000D01*
X109728000Y-115316000D02*
X106934000Y-115316000D01*
X120254760Y-111811920D02*
X121158000Y-110908680D01*
X121158000Y-110908680D02*
X121158000Y-110236000D01*
X101346000Y-121478000D02*
X101346000Y-120650000D01*
X101346000Y-120650000D02*
X101092000Y-120396000D01*
X105344000Y-140462000D02*
X105344000Y-139067500D01*
X105344000Y-139067500D02*
X105346500Y-139065000D01*
X104536000Y-146342000D02*
X104940000Y-146342000D01*
X104940000Y-146342000D02*
X105156000Y-146558000D01*
X105156000Y-146558000D02*
X106426000Y-146558000D01*
D64*
X154686000Y-100518000D02*
X154625000Y-100457000D01*
X154686000Y-102108000D02*
X154686000Y-100518000D01*
D66*
X154625000Y-100285000D02*
X152908000Y-98568000D01*
X154625000Y-100457000D02*
X154625000Y-100285000D01*
X152908000Y-97465478D02*
X154331478Y-96042000D01*
X154331478Y-96042000D02*
X155328000Y-96042000D01*
X152908000Y-98568000D02*
X152908000Y-97465478D01*
X150992000Y-98568000D02*
X150876000Y-98684000D01*
X152908000Y-98568000D02*
X150992000Y-98568000D01*
D63*
X116602000Y-115078000D02*
X116801900Y-115277900D01*
X115062000Y-115078000D02*
X116602000Y-115078000D01*
X116801900Y-115277900D02*
X117739861Y-114339939D01*
X117739861Y-114339939D02*
X119140955Y-114339939D01*
X119140955Y-114339939D02*
X120961867Y-112519027D01*
X138484893Y-111402719D02*
X136065667Y-108983493D01*
X138484893Y-111687893D02*
X138484893Y-111402719D01*
X119100601Y-115087399D02*
X121315420Y-112872580D01*
X119100601Y-117195599D02*
X119100601Y-115087399D01*
X118402100Y-117894100D02*
X119100601Y-117195599D01*
X118348000Y-117948200D02*
X118402100Y-117894100D01*
X118348000Y-119888000D02*
X118348000Y-117948200D01*
X129286000Y-97830932D02*
X128641046Y-98475886D01*
X129286000Y-97352352D02*
X129286000Y-97830932D01*
X129692951Y-96945401D02*
X129286000Y-97352352D01*
X132416599Y-96945401D02*
X129692951Y-96945401D01*
X132642893Y-96719107D02*
X132416599Y-96945401D01*
X128778000Y-96266000D02*
X128778000Y-94996000D01*
X128778000Y-96266000D02*
X130048000Y-96266000D01*
X130302000Y-96266000D02*
X131245893Y-95322107D01*
X130048000Y-96266000D02*
X130302000Y-96266000D01*
X128778000Y-94996000D02*
X129848893Y-93925107D01*
X136419221Y-108629939D02*
X136672931Y-108629939D01*
X136672931Y-108629939D02*
X137751246Y-109708254D01*
D64*
X142751621Y-103804396D02*
X143649647Y-102906370D01*
X143649647Y-102684633D02*
X144909540Y-101424740D01*
X143649647Y-102906370D02*
X143649647Y-102684633D01*
D66*
X144909540Y-101424740D02*
X144909540Y-101475540D01*
X144909540Y-101475540D02*
X146050000Y-102616000D01*
X141099626Y-102152401D02*
X142751621Y-103804396D01*
X139303576Y-102152401D02*
X141099626Y-102152401D01*
X138035219Y-100884044D02*
X139303576Y-102152401D01*
D64*
X110638120Y-106547880D02*
X110680500Y-106505500D01*
X108889980Y-106547880D02*
X110638120Y-106547880D01*
X112535500Y-106505500D02*
X112585500Y-106555500D01*
X110680500Y-106505500D02*
X112535500Y-106505500D01*
X112585500Y-105203500D02*
X112014000Y-104632000D01*
X112585500Y-106555500D02*
X112585500Y-105203500D01*
X110680500Y-105300780D02*
X109982000Y-104602280D01*
X110680500Y-106505500D02*
X110680500Y-105300780D01*
X111984280Y-104602280D02*
X112014000Y-104632000D01*
X109982000Y-104602280D02*
X111984280Y-104602280D01*
X112585500Y-106555500D02*
X112900500Y-106555500D01*
X112900500Y-106555500D02*
X113792000Y-105664000D01*
D63*
X117072779Y-106254061D02*
X116922061Y-106254061D01*
X116922061Y-106254061D02*
X115824000Y-105156000D01*
X128641046Y-116408114D02*
X128641046Y-116390415D01*
X128641046Y-116390415D02*
X127533997Y-115283366D01*
X122916572Y-78759428D02*
X121412000Y-80264000D01*
X122916572Y-65308927D02*
X122916572Y-78759428D01*
X127933939Y-97110061D02*
X128778000Y-96266000D01*
X127933939Y-97768779D02*
X127933939Y-97110061D01*
X108778000Y-113316000D02*
X108778000Y-112710000D01*
X108778000Y-112710000D02*
X109220000Y-112268000D01*
X106934000Y-113316000D02*
X108778000Y-113316000D01*
X120650000Y-118253000D02*
X120650000Y-117602000D01*
X120650000Y-117602000D02*
X120142000Y-117094000D01*
X122317000Y-118253000D02*
X121158000Y-117094000D01*
X122555000Y-118253000D02*
X122317000Y-118253000D01*
X124497400Y-116054560D02*
X124143847Y-115701007D01*
X124497400Y-116054561D02*
X124497400Y-116054560D01*
X124497400Y-116054561D02*
X124497400Y-116040600D01*
X124497400Y-116040600D02*
X125476000Y-115062000D01*
X123436740Y-114993900D02*
X124301810Y-114128830D01*
X124301810Y-114128830D02*
X124458413Y-114128830D01*
X120608313Y-112165473D02*
X121514597Y-111259189D01*
X121514597Y-111259189D02*
X121745150Y-111259189D01*
X118491000Y-98486000D02*
X118491000Y-99695000D01*
X118491000Y-99695000D02*
X118872000Y-100076000D01*
D66*
X139881893Y-110290893D02*
X139899107Y-110290893D01*
X139899107Y-110290893D02*
X140716000Y-109474000D01*
D63*
X146345000Y-115071000D02*
X145214400Y-115071000D01*
D66*
X121412000Y-80264000D02*
X121412000Y-82042000D01*
X121412000Y-88646000D02*
X122301000Y-89535000D01*
X121412000Y-87122000D02*
X121412000Y-88646000D01*
X122301000Y-89535000D02*
X122936000Y-90170000D01*
D63*
X113858000Y-78232000D02*
X113858000Y-79060000D01*
X113858000Y-79060000D02*
X114554000Y-79756000D01*
X119060000Y-78232000D02*
X119060000Y-79690000D01*
X119060000Y-79690000D02*
X119092591Y-79722591D01*
X124968000Y-79878000D02*
X124968000Y-81280000D01*
X124968000Y-81280000D02*
X124714000Y-81534000D01*
X127066000Y-78232000D02*
X127066000Y-80623400D01*
X127066000Y-80623400D02*
X126917400Y-80772000D01*
X149184000Y-132367000D02*
X148709000Y-132842000D01*
X149184000Y-131563000D02*
X149184000Y-132367000D01*
X148709000Y-132842000D02*
X147066000Y-132842000D01*
X147066000Y-132842000D02*
X144780000Y-130556000D01*
X144780000Y-114636600D02*
X144357700Y-114214300D01*
X144780000Y-115824000D02*
X144780000Y-114636600D01*
X145214400Y-115071000D02*
X144357700Y-114214300D01*
X144357700Y-114214300D02*
X142494000Y-112350600D01*
D66*
X113792000Y-97833000D02*
X113792000Y-98971100D01*
X118491000Y-93134000D02*
X113792000Y-97833000D01*
D63*
X119416941Y-109821311D02*
X119416941Y-108748941D01*
X118840546Y-110397706D02*
X119416941Y-109821311D01*
X119416941Y-108748941D02*
X118110000Y-107442000D01*
X117104486Y-107442000D02*
X113792000Y-104129514D01*
X113792000Y-104129514D02*
X113792000Y-98971100D01*
X118110000Y-107442000D02*
X117104486Y-107442000D01*
D64*
X150495000Y-144145000D02*
X150495000Y-142748000D01*
X154269000Y-144415000D02*
X154589000Y-144095000D01*
X152527000Y-144415000D02*
X154269000Y-144415000D01*
X152527000Y-144415000D02*
X152527000Y-143256000D01*
X154570000Y-130780000D02*
X154570000Y-130799000D01*
X154162000Y-131207000D02*
X152400000Y-131207000D01*
X154570000Y-130799000D02*
X154162000Y-131207000D01*
X152400000Y-131207000D02*
X154575000Y-131207000D01*
X154575000Y-131207000D02*
X155067000Y-131699000D01*
X152400000Y-131207000D02*
X153051000Y-131207000D01*
X153051000Y-131207000D02*
X153797000Y-131953000D01*
X154524202Y-114949600D02*
X156195400Y-114949600D01*
X156195400Y-114949600D02*
X156210000Y-114935000D01*
X154589000Y-144095000D02*
X156006000Y-144095000D01*
X156006000Y-144095000D02*
X156019500Y-144081500D01*
D65*
X118750000Y-145267000D02*
X118729000Y-145288000D01*
X118750000Y-143256000D02*
X118750000Y-145267000D01*
D64*
X139009000Y-155372000D02*
X139009000Y-153614000D01*
X139009000Y-153614000D02*
X139001500Y-153606500D01*
X139001500Y-153606500D02*
X139001500Y-152654000D01*
D67*
X127742901Y-147902499D02*
X127742901Y-145776901D01*
X125918000Y-148996400D02*
X126649000Y-148996400D01*
X126649000Y-148996400D02*
X127742901Y-147902499D01*
X127190500Y-145224500D02*
X120269000Y-145224500D01*
X127742901Y-145776901D02*
X127190500Y-145224500D01*
D64*
X101219000Y-149167000D02*
X101277000Y-149167000D01*
X127460500Y-152844500D02*
X127508000Y-152892000D01*
X125918000Y-152844500D02*
X127460500Y-152844500D01*
D63*
X117706140Y-151900039D02*
X117706140Y-150644860D01*
X117706140Y-150644860D02*
X117729000Y-150622000D01*
X117729000Y-150622000D02*
X117729000Y-149606000D01*
X117729000Y-149606000D02*
X117729000Y-148590000D01*
X114554000Y-150495000D02*
X114554000Y-148717000D01*
X114554000Y-150495000D02*
X114554000Y-152146000D01*
D66*
X120523000Y-148225000D02*
X120523000Y-146939000D01*
D64*
X120246140Y-151900039D02*
X120387961Y-151900039D01*
X120523000Y-151765000D02*
X120523000Y-150225000D01*
X120387961Y-151900039D02*
X120523000Y-151765000D01*
D63*
X117706140Y-158329038D02*
X117706140Y-157350038D01*
X118279511Y-158902409D02*
X117706140Y-158329038D01*
X123968000Y-154749500D02*
X123214000Y-154749500D01*
X122478819Y-157495931D02*
X121072340Y-158902410D01*
X122478820Y-155484680D02*
X122478819Y-157495931D01*
X123214000Y-154749500D02*
X122478820Y-155484680D01*
X121072340Y-158902410D02*
X118279511Y-158902409D01*
D64*
X124018000Y-154699500D02*
X123968000Y-154749500D01*
X124018000Y-152844500D02*
X124018000Y-154699500D01*
D63*
X113096000Y-157480000D02*
X108712000Y-157480000D01*
X108712000Y-157480000D02*
X106680000Y-159512000D01*
X106680000Y-159512000D02*
X105410000Y-159512000D01*
X105410000Y-159512000D02*
X102362000Y-156464000D01*
X104907120Y-106547880D02*
X104902000Y-106553000D01*
X106689980Y-106547880D02*
X104907120Y-106547880D01*
X107473980Y-106547880D02*
X107696000Y-106769900D01*
X106689980Y-106547880D02*
X107473980Y-106547880D01*
X107473980Y-108447880D02*
X106689980Y-108447880D01*
X107696000Y-108225860D02*
X107473980Y-108447880D01*
X107696000Y-106769900D02*
X107696000Y-108225860D01*
D66*
X92087700Y-125488700D02*
X92087700Y-124828300D01*
X92087700Y-124828300D02*
X92456000Y-124460000D01*
X103886000Y-144729200D02*
X103886000Y-144018000D01*
D64*
X104902000Y-106553000D02*
X103505000Y-106553000D01*
X98933000Y-121428000D02*
X98933000Y-120523000D01*
D63*
X100076000Y-143086000D02*
X101239500Y-143086000D01*
X101239500Y-143086000D02*
X101282500Y-143129000D01*
X101282500Y-143129000D02*
X102425500Y-143129000D01*
X102425500Y-143129000D02*
X103759000Y-143129000D01*
D64*
X111981000Y-81661000D02*
X111981000Y-80485000D01*
X111981000Y-80485000D02*
X111760000Y-80264000D01*
X148463000Y-145077000D02*
X148463000Y-144145000D01*
X148463000Y-144145000D02*
X148336000Y-144018000D01*
D66*
X144145000Y-120793000D02*
X142859000Y-120793000D01*
X142859000Y-120793000D02*
X142355973Y-121296027D01*
X145464999Y-122112999D02*
X144145000Y-120793000D01*
X145840201Y-122112999D02*
X145464999Y-122112999D01*
D63*
X106050000Y-119380000D02*
X104648000Y-119380000D01*
X99801500Y-141252500D02*
X99801500Y-140398500D01*
X99801500Y-141252500D02*
X99801500Y-142981500D01*
D66*
X98933000Y-124737000D02*
X99230000Y-125034000D01*
X98933000Y-123428000D02*
X98933000Y-124737000D01*
X98822000Y-123428000D02*
X97282000Y-124968000D01*
X98933000Y-123428000D02*
X98822000Y-123428000D01*
D64*
X101430000Y-123462000D02*
X101346000Y-123378000D01*
X101430000Y-125034000D02*
X101430000Y-123462000D01*
X103074000Y-125034000D02*
X103251000Y-124857000D01*
X101430000Y-125034000D02*
X103074000Y-125034000D01*
X103251000Y-124857000D02*
X105156000Y-124857000D01*
D66*
X115739000Y-124857000D02*
X116418000Y-125536000D01*
X114300000Y-126508000D02*
X113300000Y-126508000D01*
X113300000Y-126508000D02*
X111649000Y-124857000D01*
X111649000Y-124857000D02*
X115739000Y-124857000D01*
X105156000Y-124857000D02*
X106791000Y-124857000D01*
X106791000Y-124857000D02*
X111649000Y-124857000D01*
D63*
X116873403Y-133543421D02*
X116502180Y-133543421D01*
X117873401Y-134543419D02*
X116873403Y-133543421D01*
X118813580Y-134543419D02*
X117873401Y-134543419D01*
D67*
X113284000Y-132985000D02*
X113284000Y-133467600D01*
X111252000Y-130953000D02*
X110291500Y-129992500D01*
X111252000Y-133467600D02*
X111252000Y-130953000D01*
X110291500Y-129992500D02*
X113284000Y-132985000D01*
D63*
X113359821Y-133543421D02*
X113284000Y-133467600D01*
X116502180Y-133543421D02*
X113359821Y-133543421D01*
X113548486Y-139954000D02*
X110037500Y-136443014D01*
X126000000Y-139954000D02*
X113548486Y-139954000D01*
D67*
X105156000Y-124857000D02*
X110037500Y-129738500D01*
D63*
X110037500Y-136443014D02*
X110037500Y-129738500D01*
D67*
X110037500Y-129738500D02*
X110291500Y-129992500D01*
D63*
X127984000Y-137970000D02*
X126000000Y-139954000D01*
X127984000Y-137922000D02*
X127984000Y-137970000D01*
X127984000Y-137922000D02*
X127984000Y-137395400D01*
X127984000Y-137395400D02*
X128778000Y-136601400D01*
X128000001Y-135128000D02*
X127750001Y-135378000D01*
X128778000Y-135128000D02*
X128000001Y-135128000D01*
X128000001Y-135128000D02*
X127750001Y-134878000D01*
X140986000Y-85344000D02*
X140986000Y-84598000D01*
X140986000Y-84598000D02*
X138176000Y-81788000D01*
X138176000Y-81788000D02*
X129540000Y-81788000D01*
X103251000Y-119761000D02*
X103251000Y-124857000D01*
X101600000Y-118110000D02*
X103251000Y-119761000D01*
X127794000Y-135922000D02*
X127750001Y-135878001D01*
X130302000Y-135922000D02*
X127794000Y-135922000D01*
D64*
X83058000Y-125984000D02*
X87546000Y-125984000D01*
X81788000Y-124714000D02*
X83058000Y-125984000D01*
X81788000Y-127254000D02*
X83058000Y-125984000D01*
D63*
X102001500Y-140462000D02*
X103444000Y-140462000D01*
X148895000Y-146845000D02*
X148463000Y-147277000D01*
X150495000Y-146845000D02*
X148895000Y-146845000D01*
D64*
X114681000Y-84201000D02*
X114808000Y-84328000D01*
X114681000Y-81661000D02*
X114681000Y-84201000D01*
D66*
X113499901Y-88176099D02*
X112268000Y-89408000D01*
X113499901Y-85636099D02*
X113499901Y-88176099D01*
X114808000Y-84328000D02*
X113499901Y-85636099D01*
D63*
X154384000Y-94742000D02*
X155328000Y-94742000D01*
X153507000Y-94742000D02*
X154384000Y-94742000D01*
X152872000Y-94107000D02*
X153507000Y-94742000D01*
X152268000Y-94107000D02*
X152872000Y-94107000D01*
X153624000Y-95392000D02*
X154384000Y-95392000D01*
X152877000Y-96139000D02*
X153624000Y-95392000D01*
X154384000Y-95392000D02*
X155328000Y-95392000D01*
X152273000Y-96139000D02*
X152877000Y-96139000D01*
X119639972Y-65512127D02*
X119639972Y-67050028D01*
X115758000Y-70932000D02*
X115758000Y-78232000D01*
X119639972Y-67050028D02*
X115758000Y-70932000D01*
X115758000Y-78232000D02*
X115758000Y-79287400D01*
X115758000Y-79287400D02*
X116480600Y-80010000D01*
X117856000Y-81280000D02*
X120142000Y-83566000D01*
X120142000Y-83566000D02*
X120142000Y-89154000D01*
X123952000Y-97576932D02*
X124850954Y-98475886D01*
X123952000Y-92964000D02*
X123952000Y-97576932D01*
X120142000Y-89154000D02*
X123952000Y-92964000D01*
X120732172Y-65918527D02*
X120732172Y-67227828D01*
X117160000Y-70800000D02*
X117160000Y-78232000D01*
X120732172Y-67227828D02*
X117160000Y-70800000D01*
X117160000Y-78232000D02*
X117160000Y-81722000D01*
X117160000Y-81722000D02*
X119634000Y-84196000D01*
X119634000Y-84196000D02*
X119634000Y-89408000D01*
X119634000Y-89408000D02*
X123444000Y-93218000D01*
X123444000Y-97776039D02*
X124497400Y-98829439D01*
X123444000Y-93218000D02*
X123444000Y-97776039D01*
X121824372Y-65512127D02*
X121824372Y-74580372D01*
X121824372Y-74580372D02*
X122428000Y-75184000D01*
X122428000Y-77348000D02*
X121412000Y-78364000D01*
X122428000Y-75184000D02*
X122428000Y-77348000D01*
X121412000Y-78364000D02*
X118971409Y-80804591D01*
X118971409Y-80804591D02*
X118971409Y-81434591D01*
X120599646Y-97760112D02*
X123083187Y-100243653D01*
X120599646Y-90948396D02*
X120599646Y-97760112D01*
X118954600Y-89303350D02*
X120599646Y-90948396D01*
X118954600Y-84615409D02*
X118954600Y-89303350D01*
X124008772Y-65512127D02*
X124008772Y-91891228D01*
X124008772Y-91891228D02*
X123924409Y-91975591D01*
X122764600Y-97803746D02*
X124143847Y-99182993D01*
X122764600Y-93571409D02*
X122764600Y-97803746D01*
X124968000Y-77978000D02*
X124968000Y-68834000D01*
X126193172Y-67608828D02*
X126193172Y-65512127D01*
X124968000Y-68834000D02*
X126193172Y-67608828D01*
X132593951Y-99065951D02*
X132588000Y-99060000D01*
X131469473Y-101304313D02*
X132593951Y-100179835D01*
X132593951Y-100179835D02*
X132593951Y-99065951D01*
X129286000Y-91440000D02*
X126238000Y-88392000D01*
X126238000Y-79248000D02*
X124968000Y-77978000D01*
X126238000Y-88392000D02*
X126238000Y-79248000D01*
X128966000Y-67192755D02*
X128966000Y-78232000D01*
X127285372Y-65512127D02*
X128966000Y-67192755D01*
X131115920Y-100950760D02*
X131795554Y-100271126D01*
X131795554Y-100271126D02*
X131795554Y-99588297D01*
X128606599Y-78591401D02*
X128966000Y-78232000D01*
X128606599Y-89490599D02*
X128606599Y-78591401D01*
X85852000Y-124714000D02*
X84328000Y-124714000D01*
X98806000Y-111760000D02*
X85852000Y-124714000D01*
X119442092Y-105794946D02*
X119442092Y-106315425D01*
X118486993Y-104839847D02*
X119442092Y-105794946D01*
X113030000Y-111760000D02*
X98806000Y-111760000D01*
X113284000Y-111760000D02*
X113030000Y-111760000D01*
X118840546Y-104486294D02*
X120394495Y-106040243D01*
X120394495Y-106040243D02*
X120394495Y-106315425D01*
X87630000Y-122174000D02*
X84328000Y-122174000D01*
X115062000Y-110915400D02*
X98888600Y-110915400D01*
X98888600Y-110915400D02*
X87630000Y-122174000D01*
X133237240Y-111811920D02*
X134810500Y-113385180D01*
X134810500Y-113385180D02*
X134810500Y-123952000D01*
X137985500Y-155348500D02*
X138009000Y-155372000D01*
X137985500Y-127127000D02*
X137985500Y-155348500D01*
X135005007Y-110107601D02*
X135005007Y-110044153D01*
X137287000Y-112389594D02*
X135005007Y-110107601D01*
X137287000Y-150660090D02*
X137287000Y-112389594D01*
X136009000Y-151938090D02*
X137287000Y-150660090D01*
X136009000Y-155372000D02*
X136009000Y-151938090D01*
X135009000Y-154343000D02*
X135009000Y-155372000D01*
X135009000Y-152363340D02*
X135009000Y-154343000D01*
X136709128Y-150663212D02*
X135009000Y-152363340D01*
X136709128Y-112455380D02*
X136709128Y-150663212D01*
X134651454Y-110397706D02*
X136709128Y-112455380D01*
X134009000Y-127735832D02*
X134009000Y-155372000D01*
X136302719Y-125442113D02*
X134009000Y-127735832D01*
X134297900Y-110751260D02*
X136302719Y-112756079D01*
X136302719Y-112756079D02*
X136302719Y-125442113D01*
X133009000Y-126769500D02*
X133009000Y-155372000D01*
X133590794Y-111458367D02*
X135489901Y-113357474D01*
X135489901Y-124288599D02*
X133009000Y-126769500D01*
X135489901Y-113357474D02*
X135489901Y-124288599D01*
X132009000Y-154343000D02*
X132009000Y-155372000D01*
X132009000Y-125747986D02*
X132009000Y-154343000D01*
X134404090Y-123352896D02*
X132009000Y-125747986D01*
X134404090Y-113685876D02*
X134404090Y-123352896D01*
X132883687Y-112165473D02*
X134404090Y-113685876D01*
X122376080Y-100950760D02*
X123644732Y-102219412D01*
X123644732Y-102219412D02*
X127552400Y-106127080D01*
X127552400Y-106127080D02*
X127552400Y-111574217D01*
X127552400Y-111574217D02*
X127639717Y-111574217D01*
X140823803Y-126522384D02*
X140823803Y-128459553D01*
X151459250Y-139095000D02*
X154589000Y-139095000D01*
X140823803Y-128459553D02*
X151459250Y-139095000D01*
X154589000Y-140345000D02*
X152134500Y-140345000D01*
X152134500Y-140345000D02*
X140144403Y-128354903D01*
X140144403Y-128354903D02*
X140144403Y-125730000D01*
X128680073Y-113523277D02*
X128680073Y-111528763D01*
X127958810Y-105826383D02*
X122729633Y-100597206D01*
X127958810Y-110807500D02*
X127958810Y-105826383D01*
X128680073Y-111528763D02*
X127958810Y-110807500D01*
X122245368Y-102234262D02*
X122245368Y-102242868D01*
X121668973Y-101657867D02*
X122245368Y-102234262D01*
X122245368Y-102242868D02*
X126193599Y-106191099D01*
X126883486Y-113474500D02*
X127698500Y-113474500D01*
X126193599Y-106191099D02*
X126193599Y-112784613D01*
X126193599Y-112784613D02*
X126883486Y-113474500D01*
X139591999Y-126129999D02*
X139591999Y-128377249D01*
X139192000Y-125730000D02*
X139591999Y-126129999D01*
X152809750Y-141595000D02*
X154589000Y-141595000D01*
X139591999Y-128377249D02*
X152809750Y-141595000D01*
X138664901Y-126218901D02*
X138176000Y-125730000D01*
X138664901Y-128024901D02*
X138664901Y-126218901D01*
X154589000Y-142845000D02*
X153485000Y-142845000D01*
X153485000Y-142845000D02*
X138664901Y-128024901D01*
X126873000Y-106154786D02*
X122022527Y-101304313D01*
X126873000Y-112458500D02*
X126873000Y-106154786D01*
X153639400Y-128280000D02*
X154570000Y-128280000D01*
X152715000Y-127355600D02*
X153639400Y-128280000D01*
X152715000Y-129286000D02*
X152715000Y-129347000D01*
X152898000Y-129530000D02*
X154570000Y-129530000D01*
X152715000Y-129347000D02*
X152898000Y-129530000D01*
D66*
X152146000Y-122317000D02*
X150241000Y-122317000D01*
X148749800Y-122317000D02*
X148545799Y-122112999D01*
X150241000Y-122317000D02*
X148749800Y-122317000D01*
X153475922Y-118699600D02*
X154524202Y-118699600D01*
X152146000Y-120029522D02*
X153475922Y-118699600D01*
X152146000Y-122317000D02*
X152146000Y-120029522D01*
D63*
X152994400Y-117449600D02*
X152588000Y-117856000D01*
X154524202Y-117449600D02*
X152994400Y-117449600D01*
X153368502Y-116199600D02*
X154524202Y-116199600D01*
X146995000Y-119371000D02*
X146995000Y-118567000D01*
X150251400Y-116199600D02*
X150500400Y-116199600D01*
X149362400Y-116199600D02*
X150500400Y-116199600D01*
X146995000Y-118567000D02*
X149362400Y-116199600D01*
X150500400Y-116199600D02*
X153368502Y-116199600D01*
X151513900Y-116199600D02*
X150500400Y-116199600D01*
X152588000Y-115125500D02*
X151513900Y-116199600D01*
X129628901Y-82969099D02*
X129286000Y-83312000D01*
X134112000Y-84074000D02*
X133007099Y-82969099D01*
X133007099Y-82969099D02*
X129628901Y-82969099D01*
X126483712Y-89916000D02*
X126483712Y-96528288D01*
X125558061Y-97453939D02*
X125558061Y-97768779D01*
X126483712Y-96528288D02*
X125558061Y-97453939D01*
X128994600Y-98829439D02*
X129985700Y-97838339D01*
X129985700Y-97838339D02*
X129985700Y-97658166D01*
X132176580Y-112872580D02*
X131064000Y-111760000D01*
X131064000Y-111760000D02*
X131064000Y-105156000D01*
X140721784Y-93985784D02*
X140721784Y-91445784D01*
X135890000Y-86614000D02*
X134112000Y-86614000D01*
X140721784Y-91445784D02*
X135890000Y-86614000D01*
X131572000Y-90321433D02*
X127000000Y-94893433D01*
X131572000Y-89154000D02*
X131572000Y-90321433D01*
X127000000Y-104292823D02*
X128365220Y-105658043D01*
X127000000Y-94893433D02*
X127000000Y-104292823D01*
X131953739Y-109023929D02*
X131826000Y-108896190D01*
X132530133Y-112519027D02*
X131953739Y-111942633D01*
X131953739Y-111942633D02*
X131953739Y-109023929D01*
X128638210Y-108712000D02*
X128365220Y-108439010D01*
X128365220Y-108439010D02*
X128365220Y-108299220D01*
X128365220Y-105658043D02*
X128365220Y-108299220D01*
X128365220Y-108299220D02*
X128365220Y-108354114D01*
X123790294Y-99536546D02*
X121898287Y-97644539D01*
X121898287Y-97644539D02*
X121898287Y-97299438D01*
X121218886Y-96635989D02*
X121279047Y-96575828D01*
X123436740Y-99890100D02*
X121218886Y-97672246D01*
X121218886Y-97672246D02*
X121218886Y-96635989D01*
X118486993Y-110044153D02*
X118473247Y-110044153D01*
X118473247Y-110044153D02*
X117265400Y-111252000D01*
X115062000Y-112776000D02*
X110744000Y-117094000D01*
X100594486Y-117094000D02*
X93218000Y-124470486D01*
X110744000Y-117094000D02*
X100594486Y-117094000D01*
X93218000Y-124470486D02*
X93218000Y-125476000D01*
X92214700Y-126479300D02*
X92087700Y-126479300D01*
X93218000Y-125476000D02*
X92214700Y-126479300D01*
X119118740Y-104132740D02*
X117511751Y-102525751D01*
X119194100Y-104132740D02*
X119118740Y-104132740D01*
X150688000Y-117856000D02*
X149606000Y-117856000D01*
X141318166Y-117761834D02*
X138821780Y-117761834D01*
X138821780Y-117761834D02*
X138266959Y-117207013D01*
X133150894Y-114554000D02*
X131823027Y-113226133D01*
X133724690Y-114554000D02*
X133150894Y-114554000D01*
X149314091Y-116897909D02*
X149624909Y-116897909D01*
X147645000Y-119371000D02*
X147645000Y-118567000D01*
X147645000Y-118567000D02*
X149314091Y-116897909D01*
X149606000Y-115520200D02*
X149606000Y-115062000D01*
X150624500Y-115062000D02*
X150688000Y-115125500D01*
X149606000Y-115062000D02*
X150624500Y-115062000D01*
X150211000Y-129286000D02*
X150815000Y-129286000D01*
X148534000Y-131563000D02*
X148534000Y-130963000D01*
X148534000Y-130963000D02*
X150211000Y-129286000D01*
X147884000Y-130286600D02*
X150815000Y-127355600D01*
X147884000Y-131563000D02*
X147884000Y-130286600D01*
X119143102Y-158496000D02*
X118976140Y-158329038D01*
X124018000Y-150926800D02*
X123414000Y-150926800D01*
X118976140Y-158329038D02*
X118976140Y-157350038D01*
X123414000Y-150926800D02*
X122072410Y-152268390D01*
X122072410Y-152268390D02*
X122072410Y-157327590D01*
X122072410Y-157327590D02*
X120904000Y-158496000D01*
X120904000Y-158496000D02*
X119143102Y-158496000D01*
D64*
X124018000Y-148996400D02*
X124018000Y-150926800D01*
D65*
X122041840Y-143256000D02*
X122054540Y-143268700D01*
X120650000Y-143256000D02*
X122041840Y-143256000D01*
D63*
X120650000Y-143256000D02*
X120650000Y-141478000D01*
X120650000Y-141478000D02*
X119888000Y-140716000D01*
X123640881Y-119032401D02*
X125558061Y-117115221D01*
X120242677Y-119032401D02*
X123640881Y-119032401D01*
X119745599Y-119529479D02*
X120242677Y-119032401D01*
X119745599Y-120142000D02*
X119745599Y-119529479D01*
X118221599Y-121666000D02*
X119745599Y-120142000D01*
X116332000Y-121666000D02*
X118221599Y-121666000D01*
X136805157Y-106639997D02*
X144820003Y-106639997D01*
X144820003Y-106639997D02*
X150876000Y-100584000D01*
X136419221Y-106254061D02*
X136805157Y-106639997D01*
X125204507Y-116761667D02*
X124157942Y-117808232D01*
X124157942Y-117808232D02*
X123904232Y-117808232D01*
X108712000Y-122936000D02*
X107950000Y-122174000D01*
X107950000Y-122174000D02*
X107950000Y-121412000D01*
X107950000Y-121412000D02*
X107950000Y-119380000D01*
X119888000Y-123444000D02*
X112796562Y-123444000D01*
X112796562Y-123444000D02*
X112786281Y-123454281D01*
X120800139Y-157350038D02*
X120246140Y-157350038D01*
X121666000Y-156484177D02*
X120800139Y-157350038D01*
X121666000Y-148814000D02*
X121666000Y-156484177D01*
X123414000Y-147066000D02*
X121666000Y-148814000D01*
X124018000Y-147066000D02*
X123414000Y-147066000D01*
X120254760Y-103072080D02*
X121494484Y-104311804D01*
X121494484Y-104311804D02*
X121748194Y-104311804D01*
X94488000Y-149860000D02*
X94488000Y-150368000D01*
X95758000Y-148590000D02*
X94488000Y-149860000D01*
D64*
X93914000Y-150368000D02*
X94488000Y-150368000D01*
X94488000Y-150368000D02*
X95316000Y-150368000D01*
D63*
X112767452Y-122512292D02*
X111229144Y-124050600D01*
X118336124Y-122512292D02*
X118025708Y-122512292D01*
X119281208Y-121567208D02*
X118336124Y-122512292D01*
X112767452Y-122512292D02*
X118025708Y-122512292D01*
X118025708Y-122512292D02*
X118336125Y-122512292D01*
X116436140Y-158329038D02*
X116436140Y-157350038D01*
X121361182Y-159308818D02*
X117415920Y-159308818D01*
X117415920Y-159308818D02*
X116436140Y-158329038D01*
X115125962Y-157350038D02*
X114996000Y-157480000D01*
X116436140Y-157350038D02*
X115125962Y-157350038D01*
X122885229Y-157183271D02*
X122885229Y-157784771D01*
X124018000Y-156654500D02*
X123414000Y-156654500D01*
X123414000Y-156654500D02*
X122885229Y-157183271D01*
X122885229Y-157784771D02*
X121361182Y-159308818D01*
X144957799Y-124013001D02*
X144434600Y-124536200D01*
X145840201Y-124013001D02*
X144957799Y-124013001D01*
X143505199Y-123606799D02*
X143164799Y-123606799D01*
X144434600Y-124536200D02*
X143505199Y-123606799D01*
X143164799Y-123606799D02*
X139954000Y-120396000D01*
X139954000Y-120396000D02*
X138176000Y-120396000D01*
X133061573Y-116586000D02*
X130762367Y-114286794D01*
X133604000Y-116586000D02*
X133061573Y-116586000D01*
X131823027Y-101657867D02*
X133350000Y-100130894D01*
X133350000Y-100130894D02*
X133350000Y-99822000D01*
X141224000Y-77216000D02*
X141224000Y-75626000D01*
X145436840Y-71878020D02*
X146040840Y-71878020D01*
X142467980Y-71878020D02*
X145436840Y-71878020D01*
X141224000Y-73122000D02*
X142467980Y-71878020D01*
X141224000Y-73726000D02*
X141224000Y-73122000D01*
X132176580Y-102011420D02*
X133837703Y-100350297D01*
X133837703Y-100350297D02*
X134142446Y-100350297D01*
X143002000Y-75626000D02*
X143002000Y-77216000D01*
X143906000Y-73726000D02*
X144226000Y-73406000D01*
X143002000Y-73726000D02*
X143906000Y-73726000D01*
X147040840Y-72882020D02*
X147040840Y-71878020D01*
X146516860Y-73406000D02*
X147040840Y-72882020D01*
X144226000Y-73406000D02*
X146516860Y-73406000D01*
X136483081Y-110815120D02*
X135358561Y-109690600D01*
X136718040Y-110815120D02*
X136483081Y-110815120D01*
X141853596Y-104702421D02*
X141853596Y-104711176D01*
X141853596Y-104711176D02*
X142925800Y-105783380D01*
X136837362Y-103714599D02*
X135358561Y-105193400D01*
X139069722Y-103714599D02*
X136837362Y-103714599D01*
X140955570Y-105600447D02*
X139069722Y-103714599D01*
X138933244Y-99986019D02*
X138933244Y-100071244D01*
X138933244Y-100071244D02*
X140208000Y-101346000D01*
X136865068Y-104394000D02*
X135712114Y-105546954D01*
X137160000Y-104394000D02*
X136865068Y-104394000D01*
X139689746Y-98946469D02*
X139677909Y-98946469D01*
X139831270Y-99087993D02*
X139689746Y-98946469D01*
X139677909Y-98946469D02*
X138772900Y-98041460D01*
X138772900Y-98041460D02*
X137723880Y-98041460D01*
X134874295Y-100891045D02*
X134874295Y-103556345D01*
X134874295Y-103556345D02*
X134297900Y-104132740D01*
X137723880Y-98041460D02*
X134874295Y-100891045D01*
X146995000Y-115071000D02*
X146995000Y-114483000D01*
X146995000Y-114483000D02*
X146304000Y-113792000D01*
X119547653Y-103799653D02*
X119547653Y-103779187D01*
X123190000Y-107442000D02*
X119547653Y-103799653D01*
X146547514Y-113030000D02*
X145288000Y-113030000D01*
X147645000Y-115071000D02*
X147645000Y-114127486D01*
X147645000Y-114127486D02*
X146547514Y-113030000D01*
X122960963Y-106485390D02*
X119901206Y-103425633D01*
X123194207Y-106485390D02*
X122960963Y-106485390D01*
X148295000Y-115673922D02*
X148295000Y-115071000D01*
X146345000Y-117623922D02*
X148295000Y-115673922D01*
X146345000Y-119371000D02*
X146345000Y-117623922D01*
X131469473Y-113579687D02*
X133396189Y-115506403D01*
X133396189Y-115506403D02*
X133724690Y-115506403D01*
X139455000Y-119371000D02*
X139446000Y-119380000D01*
X146345000Y-119371000D02*
X139455000Y-119371000D01*
X149184000Y-127865922D02*
X149184000Y-127263000D01*
X147234000Y-129815922D02*
X149184000Y-127865922D01*
X147234000Y-131563000D02*
X147234000Y-129815922D01*
X130055260Y-99890100D02*
X129478865Y-100466495D01*
X129478865Y-100466495D02*
X129478865Y-110936865D01*
X146982917Y-131563000D02*
X147234000Y-131563000D01*
X139762367Y-124342450D02*
X146982917Y-131563000D01*
X139762367Y-123381633D02*
X139762367Y-124342450D01*
X129478865Y-110936865D02*
X129478865Y-111952865D01*
X129478865Y-111952865D02*
X129540000Y-112014000D01*
X117779886Y-105546954D02*
X118356283Y-106123351D01*
X118356283Y-106982549D02*
X119577734Y-108204000D01*
X118356283Y-106123351D02*
X118356283Y-106982549D01*
X119577734Y-108204000D02*
X123444000Y-108204000D01*
X123444000Y-108204000D02*
X123577522Y-108204000D01*
X123577522Y-108204000D02*
X124399761Y-109026239D01*
X148590000Y-127207000D02*
X148534000Y-127263000D01*
X148590000Y-125984000D02*
X148590000Y-127207000D01*
X118133439Y-105193400D02*
X118762692Y-105822653D01*
X118133439Y-105193400D02*
X118133439Y-105307371D01*
X118762691Y-105936623D02*
X118762691Y-106641538D01*
X118133439Y-105307371D02*
X118762691Y-105936623D01*
X118762691Y-106641538D02*
X119645753Y-107524600D01*
X119645753Y-107524600D02*
X121412000Y-107524600D01*
X147884000Y-126294000D02*
X147884000Y-127263000D01*
X147574000Y-125984000D02*
X147884000Y-126294000D01*
X109728000Y-118784078D02*
X109728000Y-123952000D01*
X115906599Y-110503227D02*
X115906599Y-113015130D01*
X115906599Y-113015130D02*
X114623130Y-114298599D01*
X114623130Y-114298599D02*
X114213479Y-114298599D01*
X117426333Y-108983493D02*
X115906599Y-110503227D01*
X114213479Y-114298599D02*
X109728000Y-118784078D01*
X101499401Y-129203401D02*
X99230000Y-126934000D01*
X105492599Y-129203401D02*
X101499401Y-129203401D01*
X106934000Y-127762000D02*
X105492599Y-129203401D01*
X116502180Y-134543419D02*
X115138581Y-134543419D01*
X115138581Y-134543419D02*
X115062000Y-134620000D01*
X125730000Y-121158000D02*
X127762000Y-119126000D01*
X127762000Y-117287160D02*
X127933939Y-117115221D01*
X127762000Y-119126000D02*
X127762000Y-117287160D01*
X122341292Y-122595292D02*
X122271194Y-122595292D01*
X122271194Y-122595292D02*
X120660486Y-124206000D01*
X120660486Y-124206000D02*
X116508972Y-124206000D01*
X117657880Y-132132120D02*
X117657880Y-131019892D01*
X117657880Y-131019892D02*
X117867772Y-130810000D01*
X117970639Y-112681827D02*
X117761827Y-112681827D01*
X119547653Y-111104813D02*
X117970639Y-112681827D01*
X126750000Y-134377999D02*
X126750000Y-134370000D01*
X130302000Y-115947748D02*
X129701706Y-115347454D01*
X130302000Y-118110000D02*
X130302000Y-115947748D01*
X130187789Y-118224211D02*
X130302000Y-118110000D01*
X130187789Y-124309725D02*
X130187789Y-118224211D01*
X118813580Y-135043421D02*
X119454093Y-135043421D01*
X126750000Y-127747514D02*
X127883757Y-126613757D01*
X126750000Y-134377999D02*
X126750000Y-127747514D01*
X127883757Y-126613757D02*
X130187789Y-124309725D01*
X121954094Y-132543420D02*
X122295757Y-132201757D01*
X118813580Y-132543420D02*
X121954094Y-132543420D01*
X119454093Y-135043421D02*
X122295757Y-132201757D01*
X122295757Y-132201757D02*
X125978757Y-128518757D01*
X125978757Y-128518757D02*
X126994757Y-127502757D01*
X126461514Y-128036000D02*
X126994757Y-127502757D01*
X118618000Y-128036000D02*
X126461514Y-128036000D01*
X126994757Y-127502757D02*
X127883757Y-126613757D01*
X118813580Y-133043419D02*
X117991625Y-133043419D01*
X117991625Y-133043419D02*
X117867773Y-132919567D01*
X121373615Y-130302000D02*
X122305400Y-130302000D01*
X122305400Y-130302000D02*
X122936000Y-129671400D01*
X129570994Y-116630955D02*
X128994600Y-116054561D01*
X129508389Y-117039005D02*
X129570994Y-116976400D01*
X129570994Y-116976400D02*
X129570994Y-116630955D01*
X129508389Y-119888000D02*
X129508389Y-117039005D01*
X123779012Y-113944522D02*
X123779012Y-113802717D01*
X123083187Y-114640347D02*
X123779012Y-113944522D01*
X124132300Y-113449429D02*
X125133429Y-113449429D01*
X123779012Y-113802717D02*
X124132300Y-113449429D01*
X125133429Y-113449429D02*
X125730000Y-114046000D01*
X118813580Y-134043420D02*
X119448580Y-134043420D01*
X119448580Y-134043420D02*
X120142000Y-133350000D01*
X120567401Y-129305999D02*
X121158000Y-128715400D01*
X120413079Y-131335079D02*
X120567401Y-131180757D01*
X120567401Y-131180757D02*
X120567401Y-129305999D01*
X121373615Y-125984000D02*
X122389615Y-124968000D01*
X122389615Y-124968000D02*
X125984000Y-124968000D01*
X126249999Y-134878000D02*
X123956000Y-134878000D01*
X123956000Y-134878000D02*
X123698000Y-134620000D01*
X130867190Y-115805830D02*
X130055260Y-114993900D01*
X130867190Y-118872000D02*
X130867190Y-115805830D01*
X118813580Y-135543420D02*
X119930552Y-135543420D01*
X119930552Y-135543420D02*
X122783986Y-132689986D01*
X118618000Y-126786000D02*
X126216532Y-126786000D01*
X126216532Y-126786000D02*
X126247266Y-126755266D01*
X126249999Y-135878001D02*
X122670001Y-135878001D01*
X122670001Y-135878001D02*
X122453014Y-135661014D01*
X117657880Y-135954720D02*
X117657880Y-136707880D01*
X117657880Y-136707880D02*
X117957986Y-137007986D01*
X117957986Y-137007986D02*
X118465986Y-137007986D01*
X118618000Y-125536000D02*
X120361401Y-125536000D01*
X120361401Y-125536000D02*
X120421401Y-125476000D01*
X129234182Y-115701007D02*
X128137140Y-114603965D01*
X129348153Y-115701007D02*
X129234182Y-115701007D01*
X128137140Y-114603965D02*
X127207884Y-114603965D01*
X126854596Y-114957253D02*
X126854596Y-119042805D01*
X127207884Y-114603965D02*
X126854596Y-114957253D01*
X122027951Y-123844049D02*
X122047000Y-123825000D01*
X122027951Y-123869451D02*
X122027951Y-123844049D01*
X122027951Y-123869451D02*
X120421401Y-125476000D01*
X126854596Y-119042805D02*
X122027951Y-123869451D01*
X133944347Y-111147847D02*
X135896311Y-113099811D01*
X133944347Y-111104813D02*
X133944347Y-111147847D01*
X135896311Y-113099811D02*
X135896311Y-124843007D01*
X135896311Y-124843007D02*
X135227409Y-125511909D01*
X130929601Y-127590499D02*
X130918001Y-127590499D01*
X131329600Y-127190500D02*
X130929601Y-127590499D01*
X127250000Y-131258500D02*
X127250000Y-134377999D01*
X130918001Y-127590499D02*
X127250000Y-131258500D01*
X126249999Y-134377999D02*
X125147399Y-134377999D01*
X125147399Y-134377999D02*
X124968000Y-134198600D01*
X116586000Y-110530932D02*
X117779886Y-109337046D01*
X116586000Y-113030000D02*
X116586000Y-110530932D01*
X122729633Y-114286794D02*
X121158000Y-115858427D01*
X121158000Y-115858427D02*
X121158000Y-116078000D01*
X119888000Y-129286000D02*
X118618000Y-129286000D01*
X110678000Y-113316000D02*
X113506000Y-113316000D01*
X113506000Y-113316000D02*
X113538000Y-113284000D01*
X118476472Y-113933528D02*
X118872000Y-113538000D01*
X116284824Y-113933528D02*
X118476472Y-113933528D01*
X120142000Y-115062000D02*
X120396000Y-115062000D01*
X120396000Y-115062000D02*
X120650000Y-114808000D01*
X120650000Y-114245106D02*
X121668973Y-113226133D01*
X120650000Y-114808000D02*
X120650000Y-114245106D01*
D67*
X144870000Y-90546000D02*
X143002000Y-88678000D01*
X145288000Y-90546000D02*
X144870000Y-90546000D01*
X143002000Y-85360000D02*
X142986000Y-85344000D01*
X143002000Y-88678000D02*
X143002000Y-85360000D01*
X142986000Y-85344000D02*
X143002000Y-85344000D01*
X143002000Y-85344000D02*
X145305761Y-83040239D01*
X145305761Y-83040239D02*
X151112239Y-83040239D01*
X154040840Y-82392482D02*
X154040840Y-80678020D01*
X153504247Y-82929075D02*
X154040840Y-82392482D01*
X146040840Y-82305160D02*
X145305761Y-83040239D01*
X146040840Y-80678020D02*
X146040840Y-82305160D01*
D66*
X153040840Y-82252060D02*
X153040840Y-80678020D01*
X150114000Y-85178900D02*
X153040840Y-82252060D01*
X145376900Y-85178900D02*
X145288000Y-85090000D01*
X150114000Y-85178900D02*
X145376900Y-85178900D01*
X89746000Y-125984000D02*
X90792300Y-125984000D01*
D63*
X145288000Y-87290000D02*
X145288000Y-88646000D01*
D68*
X129701706Y-99501192D02*
X130806898Y-98396000D01*
X129701706Y-99536546D02*
X129701706Y-99501192D01*
X130806898Y-98396000D02*
X133951200Y-98396000D01*
X149579500Y-95345500D02*
X150373000Y-96139000D01*
X133951200Y-98396000D02*
X137001700Y-95345500D01*
X137001700Y-95345500D02*
X149579500Y-95345500D01*
X129348153Y-99182993D02*
X129383507Y-99182993D01*
X129383507Y-99182993D02*
X130620500Y-97946000D01*
X130620500Y-97946000D02*
X133764800Y-97946000D01*
X136815300Y-94895500D02*
X149579500Y-94895500D01*
X133764800Y-97946000D02*
X136815300Y-94895500D01*
X149579500Y-94895500D02*
X150368000Y-94107000D01*
D63*
G36*
X118110000Y-152527000D02*
G01*
X117348000Y-152527000D01*
X117348000Y-148209000D01*
X118110000Y-148209000D01*
X118110000Y-152527000D01*
G37*
X118110000Y-152527000D02*
X117348000Y-152527000D01*
X117348000Y-148209000D01*
X118110000Y-148209000D01*
X118110000Y-152527000D01*
G36*
X121031000Y-146342499D02*
G01*
X121020859Y-146332358D01*
X120892942Y-146246887D01*
X120750809Y-146188013D01*
X120599922Y-146158000D01*
X120446078Y-146158000D01*
X120295191Y-146188013D01*
X120153058Y-146246887D01*
X120025141Y-146332358D01*
X119916358Y-146441141D01*
X119830887Y-146569058D01*
X119772013Y-146711191D01*
X119742000Y-146862078D01*
X119742000Y-147015922D01*
X119772013Y-147166809D01*
X119830887Y-147308942D01*
X119855854Y-147346308D01*
X119823311Y-147349513D01*
X119751492Y-147371299D01*
X119685304Y-147406678D01*
X119627289Y-147454289D01*
X119579678Y-147512304D01*
X119544299Y-147578492D01*
X119522513Y-147650311D01*
X119515157Y-147725000D01*
X119515157Y-148021237D01*
X119290197Y-148246197D01*
X119274403Y-148265443D01*
X119262667Y-148287399D01*
X119255440Y-148311224D01*
X119253000Y-148336000D01*
X119253000Y-152767198D01*
X118745000Y-152767198D01*
X118745000Y-148336000D01*
X118742560Y-148311224D01*
X118735333Y-148287399D01*
X118723597Y-148265443D01*
X118707803Y-148246197D01*
X118618000Y-148156394D01*
X118618000Y-148082000D01*
X118610679Y-148007671D01*
X118588998Y-147936198D01*
X118553790Y-147870328D01*
X118506408Y-147812592D01*
X118448672Y-147765210D01*
X118382802Y-147730002D01*
X118311329Y-147708321D01*
X118237000Y-147701000D01*
X118237000Y-144653000D01*
X121031000Y-144653000D01*
X121031000Y-146342499D01*
G37*
X121031000Y-146342499D02*
X121020859Y-146332358D01*
X120892942Y-146246887D01*
X120750809Y-146188013D01*
X120599922Y-146158000D01*
X120446078Y-146158000D01*
X120295191Y-146188013D01*
X120153058Y-146246887D01*
X120025141Y-146332358D01*
X119916358Y-146441141D01*
X119830887Y-146569058D01*
X119772013Y-146711191D01*
X119742000Y-146862078D01*
X119742000Y-147015922D01*
X119772013Y-147166809D01*
X119830887Y-147308942D01*
X119855854Y-147346308D01*
X119823311Y-147349513D01*
X119751492Y-147371299D01*
X119685304Y-147406678D01*
X119627289Y-147454289D01*
X119579678Y-147512304D01*
X119544299Y-147578492D01*
X119522513Y-147650311D01*
X119515157Y-147725000D01*
X119515157Y-148021237D01*
X119290197Y-148246197D01*
X119274403Y-148265443D01*
X119262667Y-148287399D01*
X119255440Y-148311224D01*
X119253000Y-148336000D01*
X119253000Y-152767198D01*
X118745000Y-152767198D01*
X118745000Y-148336000D01*
X118742560Y-148311224D01*
X118735333Y-148287399D01*
X118723597Y-148265443D01*
X118707803Y-148246197D01*
X118618000Y-148156394D01*
X118618000Y-148082000D01*
X118610679Y-148007671D01*
X118588998Y-147936198D01*
X118553790Y-147870328D01*
X118506408Y-147812592D01*
X118448672Y-147765210D01*
X118382802Y-147730002D01*
X118311329Y-147708321D01*
X118237000Y-147701000D01*
X118237000Y-144653000D01*
X121031000Y-144653000D01*
X121031000Y-146342499D01*
G36*
X117221000Y-147701000D02*
G01*
X117146671Y-147708321D01*
X117075198Y-147730002D01*
X117009328Y-147765210D01*
X116951592Y-147812592D01*
X116904210Y-147870328D01*
X116869002Y-147936198D01*
X116847321Y-148007671D01*
X116840000Y-148082000D01*
X116840000Y-148156394D01*
X116750197Y-148246197D01*
X116734403Y-148265443D01*
X116722667Y-148287399D01*
X116715440Y-148311224D01*
X116713000Y-148336000D01*
X116713000Y-153035000D01*
X116205000Y-153035000D01*
X116205000Y-149606000D01*
X116202560Y-149581224D01*
X116195333Y-149557399D01*
X116183597Y-149535443D01*
X116167803Y-149516197D01*
X115836843Y-149185237D01*
X115836843Y-148195000D01*
X115829487Y-148120311D01*
X115807701Y-148048492D01*
X115772322Y-147982304D01*
X115724711Y-147924289D01*
X115666696Y-147876678D01*
X115600508Y-147841299D01*
X115528689Y-147819513D01*
X115454000Y-147812157D01*
X114463763Y-147812157D01*
X114427000Y-147775394D01*
X114427000Y-144653000D01*
X117221000Y-144653000D01*
X117221000Y-147701000D01*
G37*
X117221000Y-147701000D02*
X117146671Y-147708321D01*
X117075198Y-147730002D01*
X117009328Y-147765210D01*
X116951592Y-147812592D01*
X116904210Y-147870328D01*
X116869002Y-147936198D01*
X116847321Y-148007671D01*
X116840000Y-148082000D01*
X116840000Y-148156394D01*
X116750197Y-148246197D01*
X116734403Y-148265443D01*
X116722667Y-148287399D01*
X116715440Y-148311224D01*
X116713000Y-148336000D01*
X116713000Y-153035000D01*
X116205000Y-153035000D01*
X116205000Y-149606000D01*
X116202560Y-149581224D01*
X116195333Y-149557399D01*
X116183597Y-149535443D01*
X116167803Y-149516197D01*
X115836843Y-149185237D01*
X115836843Y-148195000D01*
X115829487Y-148120311D01*
X115807701Y-148048492D01*
X115772322Y-147982304D01*
X115724711Y-147924289D01*
X115666696Y-147876678D01*
X115600508Y-147841299D01*
X115528689Y-147819513D01*
X115454000Y-147812157D01*
X114463763Y-147812157D01*
X114427000Y-147775394D01*
X114427000Y-144653000D01*
X117221000Y-144653000D01*
X117221000Y-147701000D01*
G36*
X113383289Y-153065711D02*
G01*
X113441304Y-153113322D01*
X113507492Y-153148701D01*
X113579311Y-153170487D01*
X113654000Y-153177843D01*
X115454000Y-153177843D01*
X115528689Y-153170487D01*
X115600508Y-153148701D01*
X115666696Y-153113322D01*
X115724711Y-153065711D01*
X115749915Y-153035000D01*
X118260299Y-153035000D01*
X118266002Y-153053802D01*
X118301210Y-153119672D01*
X118348592Y-153177408D01*
X118406328Y-153224790D01*
X118472198Y-153259998D01*
X118543671Y-153281679D01*
X118618000Y-153289000D01*
X119380000Y-153289000D01*
X119454329Y-153281679D01*
X119525802Y-153259998D01*
X119591672Y-153224790D01*
X119649408Y-153177408D01*
X119696790Y-153119672D01*
X119731998Y-153053802D01*
X119737701Y-153035000D01*
X120777000Y-153035000D01*
X120777000Y-156083000D01*
X109220000Y-156083000D01*
X109195224Y-156085440D01*
X109171399Y-156092667D01*
X109149443Y-156104403D01*
X109130197Y-156120197D01*
X106246394Y-159004000D01*
X105620421Y-159004000D01*
X104013000Y-157396580D01*
X104013000Y-157278606D01*
X108256606Y-153035000D01*
X113358085Y-153035000D01*
X113383289Y-153065711D01*
G37*
X113383289Y-153065711D02*
X113441304Y-153113322D01*
X113507492Y-153148701D01*
X113579311Y-153170487D01*
X113654000Y-153177843D01*
X115454000Y-153177843D01*
X115528689Y-153170487D01*
X115600508Y-153148701D01*
X115666696Y-153113322D01*
X115724711Y-153065711D01*
X115749915Y-153035000D01*
X118260299Y-153035000D01*
X118266002Y-153053802D01*
X118301210Y-153119672D01*
X118348592Y-153177408D01*
X118406328Y-153224790D01*
X118472198Y-153259998D01*
X118543671Y-153281679D01*
X118618000Y-153289000D01*
X119380000Y-153289000D01*
X119454329Y-153281679D01*
X119525802Y-153259998D01*
X119591672Y-153224790D01*
X119649408Y-153177408D01*
X119696790Y-153119672D01*
X119731998Y-153053802D01*
X119737701Y-153035000D01*
X120777000Y-153035000D01*
X120777000Y-156083000D01*
X109220000Y-156083000D01*
X109195224Y-156085440D01*
X109171399Y-156092667D01*
X109149443Y-156104403D01*
X109130197Y-156120197D01*
X106246394Y-159004000D01*
X105620421Y-159004000D01*
X104013000Y-157396580D01*
X104013000Y-157278606D01*
X108256606Y-153035000D01*
X113358085Y-153035000D01*
X113383289Y-153065711D01*
G36*
X106553000Y-153617394D02*
G01*
X102870000Y-157300394D01*
X100203000Y-154633394D01*
X100203000Y-152019000D01*
X102108000Y-152019000D01*
X102132776Y-152016560D01*
X102156601Y-152009333D01*
X102178557Y-151997597D01*
X102197803Y-151981803D01*
X104229803Y-149949803D01*
X104245597Y-149930557D01*
X104257333Y-149908601D01*
X104264560Y-149884776D01*
X104267000Y-149860000D01*
X104267000Y-148209000D01*
X106553000Y-148209000D01*
X106553000Y-153617394D01*
G37*
X106553000Y-153617394D02*
X102870000Y-157300394D01*
X100203000Y-154633394D01*
X100203000Y-152019000D01*
X102108000Y-152019000D01*
X102132776Y-152016560D01*
X102156601Y-152009333D01*
X102178557Y-151997597D01*
X102197803Y-151981803D01*
X104229803Y-149949803D01*
X104245597Y-149930557D01*
X104257333Y-149908601D01*
X104264560Y-149884776D01*
X104267000Y-149860000D01*
X104267000Y-148209000D01*
X106553000Y-148209000D01*
X106553000Y-153617394D01*
G36*
X103251000Y-150210184D02*
G01*
X102966184Y-150495000D01*
X101219000Y-150495000D01*
X101219000Y-150368000D01*
X101216560Y-150343224D01*
X101209333Y-150319399D01*
X101197597Y-150297443D01*
X101181803Y-150278197D01*
X101162557Y-150262403D01*
X101140601Y-150250667D01*
X101116776Y-150243440D01*
X101092000Y-150241000D01*
X100330000Y-150241000D01*
X100305224Y-150243440D01*
X100281399Y-150250667D01*
X100259443Y-150262403D01*
X100240197Y-150278197D01*
X98716197Y-151802197D01*
X98700403Y-151821443D01*
X98688667Y-151843399D01*
X98681440Y-151867224D01*
X98679000Y-151892000D01*
X98679000Y-155829000D01*
X95885000Y-155829000D01*
X95885000Y-152198606D01*
X96863803Y-151219803D01*
X96879597Y-151200557D01*
X96891333Y-151178601D01*
X96898560Y-151154776D01*
X96901000Y-151130000D01*
X96901000Y-147955000D01*
X101092000Y-147955000D01*
X101116776Y-147952560D01*
X101140601Y-147945333D01*
X101162557Y-147933597D01*
X101181803Y-147917803D01*
X102922606Y-146177000D01*
X103251000Y-146177000D01*
X103251000Y-150210184D01*
G37*
X103251000Y-150210184D02*
X102966184Y-150495000D01*
X101219000Y-150495000D01*
X101219000Y-150368000D01*
X101216560Y-150343224D01*
X101209333Y-150319399D01*
X101197597Y-150297443D01*
X101181803Y-150278197D01*
X101162557Y-150262403D01*
X101140601Y-150250667D01*
X101116776Y-150243440D01*
X101092000Y-150241000D01*
X100330000Y-150241000D01*
X100305224Y-150243440D01*
X100281399Y-150250667D01*
X100259443Y-150262403D01*
X100240197Y-150278197D01*
X98716197Y-151802197D01*
X98700403Y-151821443D01*
X98688667Y-151843399D01*
X98681440Y-151867224D01*
X98679000Y-151892000D01*
X98679000Y-155829000D01*
X95885000Y-155829000D01*
X95885000Y-152198606D01*
X96863803Y-151219803D01*
X96879597Y-151200557D01*
X96891333Y-151178601D01*
X96898560Y-151154776D01*
X96901000Y-151130000D01*
X96901000Y-147955000D01*
X101092000Y-147955000D01*
X101116776Y-147952560D01*
X101140601Y-147945333D01*
X101162557Y-147933597D01*
X101181803Y-147917803D01*
X102922606Y-146177000D01*
X103251000Y-146177000D01*
X103251000Y-150210184D01*
G36*
X104267000Y-145415000D02*
G01*
X101981000Y-145415000D01*
X101981000Y-144272000D01*
X101978560Y-144247224D01*
X101971333Y-144223399D01*
X101959597Y-144201443D01*
X101943803Y-144182197D01*
X101924557Y-144166403D01*
X101902601Y-144154667D01*
X101878776Y-144147440D01*
X101854000Y-144145000D01*
X96139000Y-144145000D01*
X96139000Y-142621000D01*
X104267000Y-142621000D01*
X104267000Y-145415000D01*
G37*
X104267000Y-145415000D02*
X101981000Y-145415000D01*
X101981000Y-144272000D01*
X101978560Y-144247224D01*
X101971333Y-144223399D01*
X101959597Y-144201443D01*
X101943803Y-144182197D01*
X101924557Y-144166403D01*
X101902601Y-144154667D01*
X101878776Y-144147440D01*
X101854000Y-144145000D01*
X96139000Y-144145000D01*
X96139000Y-142621000D01*
X104267000Y-142621000D01*
X104267000Y-145415000D01*
G36*
X106807000Y-146939000D02*
G01*
X104267000Y-146939000D01*
X104267000Y-146177000D01*
X106807000Y-146177000D01*
X106807000Y-146939000D01*
G37*
X106807000Y-146939000D02*
X104267000Y-146939000D01*
X104267000Y-146177000D01*
X106807000Y-146177000D01*
X106807000Y-146939000D01*
M02*
