G04 #@! TF.GenerationSoftware,KiCad,Pcbnew,(5.1.5)-3*
G04 #@! TF.CreationDate,2020-10-19T10:12:20-04:00*
G04 #@! TF.ProjectId,flight_computer,666c6967-6874-45f6-936f-6d7075746572,rev?*
G04 #@! TF.SameCoordinates,Original*
G04 #@! TF.FileFunction,Copper,L4,Bot*
G04 #@! TF.FilePolarity,Positive*
%FSLAX46Y46*%
G04 Gerber Fmt 4.6, Leading zero omitted, Abs format (unit mm)*
G04 Created by KiCad (PCBNEW (5.1.5)-3) date 2020-10-19 10:12:20*
%MOMM*%
%LPD*%
G04 APERTURE LIST*
%ADD10C,5.000000*%
%ADD11C,1.397000*%
%ADD12R,1.651000X1.651000*%
%ADD13C,1.651000*%
%ADD14C,0.800000*%
%ADD15C,0.508000*%
%ADD16C,0.254000*%
%ADD17C,0.381000*%
G04 APERTURE END LIST*
D10*
X106058000Y-74124000D03*
X106058000Y-132124000D03*
X83058000Y-74124000D03*
X83058000Y-132124000D03*
D11*
X84328000Y-78994000D03*
X81788000Y-78994000D03*
X84328000Y-81534000D03*
X81788000Y-81534000D03*
X84328000Y-84074000D03*
X81788000Y-84074000D03*
X84328000Y-86614000D03*
X81788000Y-86614000D03*
X84328000Y-89154000D03*
X81788000Y-89154000D03*
X84328000Y-91694000D03*
X81788000Y-91694000D03*
X84328000Y-94234000D03*
X81788000Y-94234000D03*
X84328000Y-96774000D03*
X81788000Y-96774000D03*
X84328000Y-99314000D03*
X81788000Y-99314000D03*
X84328000Y-101854000D03*
X81788000Y-101854000D03*
X84328000Y-104394000D03*
X81788000Y-104394000D03*
X84328000Y-106934000D03*
X81788000Y-106934000D03*
X84328000Y-109474000D03*
X81788000Y-109474000D03*
X84328000Y-112014000D03*
X81788000Y-112014000D03*
X84328000Y-114554000D03*
X81788000Y-114554000D03*
X84328000Y-117094000D03*
X81788000Y-117094000D03*
X84328000Y-119634000D03*
X81788000Y-119634000D03*
X84328000Y-122174000D03*
X81788000Y-122174000D03*
X84328000Y-124714000D03*
X81788000Y-124714000D03*
X84328000Y-127254000D03*
X81788000Y-127254000D03*
D12*
X134112000Y-89154000D03*
D13*
X131572000Y-89154000D03*
X134112000Y-86614000D03*
X131572000Y-86614000D03*
X134112000Y-84074000D03*
X131572000Y-84074000D03*
D12*
X112268000Y-84328000D03*
D13*
X114808000Y-84328000D03*
X112268000Y-86868000D03*
X114808000Y-86868000D03*
X112268000Y-89408000D03*
X114808000Y-89408000D03*
D14*
X115316000Y-118364000D03*
X115062000Y-119634000D03*
X115570000Y-145034000D03*
X114808000Y-145796000D03*
X115570000Y-146558000D03*
X114808000Y-147320000D03*
X105918000Y-157988000D03*
X107188000Y-156718000D03*
X107442000Y-154686000D03*
X116586000Y-153924000D03*
X117856000Y-153924000D03*
X118872000Y-153924000D03*
X120142000Y-153924000D03*
X117856000Y-155448000D03*
X118872000Y-155448000D03*
X120142000Y-155448000D03*
X116586000Y-155448000D03*
X114554000Y-153924000D03*
X114554000Y-155194000D03*
X127000000Y-147066000D03*
X127508000Y-149606000D03*
X127127000Y-156654500D03*
X127254000Y-154686000D03*
X90932000Y-150368000D03*
X89916000Y-155448000D03*
X92202000Y-154178000D03*
X92202000Y-156718000D03*
X124968000Y-143256000D03*
X100076000Y-145034000D03*
X89916000Y-143256000D03*
X92202000Y-144589500D03*
X92202000Y-141922500D03*
X137033000Y-156845000D03*
X137033000Y-153797000D03*
X153035000Y-137795000D03*
X156083000Y-127000000D03*
X154559000Y-125857000D03*
X153416000Y-92710000D03*
X132251400Y-91567000D03*
X133686499Y-92964000D03*
X135001000Y-94361000D03*
X150050500Y-70358000D03*
X151066500Y-70358000D03*
X153035000Y-70358000D03*
X154076400Y-70358000D03*
X157035500Y-70421500D03*
X158178500Y-70421500D03*
X147066000Y-74231500D03*
X155067000Y-82169000D03*
X156083000Y-82169000D03*
X157035500Y-82169000D03*
X158178500Y-82169000D03*
X152521920Y-147901660D03*
X136100820Y-100713540D03*
X142527020Y-99060000D03*
X157734000Y-100584000D03*
X152908000Y-101854000D03*
X110744000Y-109728000D03*
X112522000Y-109728000D03*
X103473000Y-108553000D03*
X97028000Y-122428000D03*
X95250000Y-123444000D03*
X97536000Y-126492000D03*
X114300000Y-129794000D03*
X126746000Y-136652000D03*
X111252000Y-136652000D03*
X113284000Y-136652000D03*
X115824000Y-137160000D03*
X124460000Y-137922000D03*
X129286000Y-139954000D03*
X130302000Y-139192000D03*
X128828989Y-118364000D03*
X146304000Y-127254000D03*
X150812500Y-133223000D03*
X149352000Y-119380000D03*
X125222000Y-67056000D03*
X120650000Y-121666000D03*
X116586000Y-104394000D03*
X148590000Y-92710000D03*
X142494000Y-83820000D03*
X143002000Y-91948000D03*
X149098000Y-82042000D03*
X150114000Y-82042000D03*
X144018000Y-78232000D03*
X117094000Y-86868000D03*
X109982000Y-86868000D03*
X103632000Y-128524000D03*
X104902000Y-128270000D03*
X151892000Y-125730000D03*
X150876000Y-125730000D03*
X141224000Y-124460000D03*
X152952400Y-120528972D03*
X129286000Y-85344000D03*
X115570000Y-91948000D03*
X108458000Y-102616000D03*
X110998000Y-101346000D03*
X115316000Y-100330000D03*
X127679400Y-99568000D03*
X142748000Y-122174000D03*
X142494000Y-110744000D03*
X140970000Y-114471400D03*
X122682000Y-116586000D03*
X104648000Y-121412000D03*
X105156000Y-115316000D03*
X121158000Y-110236000D03*
X101092000Y-120396000D03*
X105346500Y-139065000D03*
X105156000Y-146558000D03*
X106426000Y-146558000D03*
X154686000Y-102108000D03*
X128778000Y-94996000D03*
X130048000Y-96266000D03*
X137751246Y-109708254D03*
X146050000Y-102616000D03*
X138938000Y-108458000D03*
X113792000Y-105664000D03*
X115824000Y-105156000D03*
X127533997Y-115283366D03*
X109220000Y-112268000D03*
X120142000Y-117094000D03*
X121158000Y-117094000D03*
X125476000Y-115062000D03*
X124458413Y-114128830D03*
X121745150Y-111259189D03*
X118872000Y-100076000D03*
X122682000Y-103886000D03*
X129540000Y-95504000D03*
X140716000Y-109474000D03*
X142494000Y-112350600D03*
X137668000Y-108204000D03*
X122936000Y-90170000D03*
X126320600Y-100838000D03*
X121412000Y-82042000D03*
X121412000Y-87122000D03*
X114554000Y-79756000D03*
X119092591Y-79722591D03*
X124714000Y-81534000D03*
X126917400Y-80772000D03*
X144780000Y-130556000D03*
X144780000Y-115824000D03*
X150495000Y-142748000D03*
X152527000Y-143256000D03*
X155067000Y-131699000D03*
X153797000Y-131953000D03*
X156210000Y-114935000D03*
X156019500Y-144081500D03*
X139001500Y-153606500D03*
X139001500Y-152654000D03*
X120269000Y-145224500D03*
X117729000Y-150622000D03*
X117729000Y-149606000D03*
X117729000Y-148590000D03*
X114554000Y-148717000D03*
X114554000Y-150495000D03*
X114554000Y-152146000D03*
X120523000Y-146939000D03*
X92456000Y-124460000D03*
X103505000Y-106553000D03*
X98933000Y-120523000D03*
X101282500Y-143129000D03*
X102425500Y-143129000D03*
X103759000Y-143129000D03*
X111760000Y-80264000D03*
X148336000Y-144018000D03*
X142355973Y-121296027D03*
X104648000Y-119380000D03*
X128778000Y-136601400D03*
X128778000Y-135128000D03*
X129540000Y-81788000D03*
X101600000Y-118110000D03*
X116480600Y-80010000D03*
X117856000Y-81280000D03*
X118971409Y-81434591D03*
X118954600Y-84615409D03*
X123924409Y-91975591D03*
X122764600Y-93571409D03*
X132588000Y-99060000D03*
X129286000Y-91440000D03*
X131795554Y-99588297D03*
X128606599Y-89490599D03*
X119442092Y-106315425D03*
X113030000Y-111760000D03*
X120394495Y-106315425D03*
X115062000Y-110915400D03*
X134810500Y-123952000D03*
X137985500Y-127127000D03*
X127552400Y-111574217D03*
X140823803Y-126522384D03*
X140144403Y-125730000D03*
X128680073Y-113523277D03*
X127698500Y-113474500D03*
X139192000Y-125730000D03*
X138176000Y-125730000D03*
X126873000Y-112458500D03*
X129286000Y-83312000D03*
X126483712Y-89916000D03*
X129985700Y-97658166D03*
X131064000Y-105156000D03*
X140721784Y-93985784D03*
X131826000Y-108896190D03*
X128638210Y-108712000D03*
X121898287Y-97299438D03*
X121279047Y-96575828D03*
X117265400Y-111252000D03*
X115062000Y-112776000D03*
X149606000Y-117856000D03*
X141318166Y-117761834D03*
X138266959Y-117207013D03*
X133724690Y-114554000D03*
X149624909Y-116897909D03*
X149606000Y-115520200D03*
X119888000Y-140716000D03*
X116332000Y-121666000D03*
X123904232Y-117808232D03*
X108712000Y-122936000D03*
X119888000Y-123444000D03*
X112786281Y-123454281D03*
X121748194Y-104311804D03*
X111229144Y-124050600D03*
X95758000Y-148590000D03*
X119281208Y-121567208D03*
X138176000Y-120396000D03*
X133604000Y-116586000D03*
X133350000Y-99822000D03*
X141224000Y-77216000D03*
X134142446Y-100350297D03*
X143002000Y-77216000D03*
X136718040Y-110815120D03*
X142925800Y-105783380D03*
X140208000Y-101346000D03*
X137160000Y-104394000D03*
X146304000Y-113792000D03*
X123190000Y-107442000D03*
X145288000Y-113030000D03*
X123194207Y-106485390D03*
X133724690Y-115506403D03*
X139446000Y-119380000D03*
X139762367Y-123381633D03*
X129540000Y-112014000D03*
X124399761Y-109026239D03*
X148590000Y-125984000D03*
X121412000Y-107524600D03*
X147574000Y-125984000D03*
X109728000Y-123952000D03*
X106934000Y-127762000D03*
X115316000Y-134722820D03*
X122341292Y-122595292D03*
X125730000Y-121158000D03*
X116508972Y-124206000D03*
X117867772Y-130810000D03*
X117761827Y-112681827D03*
X117867773Y-132919567D03*
X121373615Y-130302000D03*
X122936000Y-129671400D03*
X129508389Y-119888000D03*
X125730000Y-114046000D03*
X120142000Y-133350000D03*
X120413079Y-131335079D03*
X121158000Y-128715400D03*
X121373615Y-125984000D03*
X125984000Y-124968000D03*
X123698000Y-134620000D03*
X130867190Y-118872000D03*
X122783986Y-132689986D03*
X126247266Y-126755266D03*
X122453014Y-135661014D03*
X118465986Y-137007986D03*
X122047000Y-123825000D03*
X135227409Y-125511909D03*
X131329600Y-127190500D03*
X124968000Y-134198600D03*
X116586000Y-113030000D03*
X121158000Y-116078000D03*
X119888000Y-129286000D03*
X113538000Y-113284000D03*
X116284824Y-113933528D03*
X118872000Y-113538000D03*
X120142000Y-115062000D03*
X151112239Y-83040239D03*
X153504247Y-82929075D03*
D15*
X139057706Y-108458000D02*
X138938000Y-108458000D01*
X146050000Y-102616000D02*
X144899706Y-102616000D01*
X144899706Y-102616000D02*
X139057706Y-108458000D01*
D16*
X116480600Y-80010000D02*
X116586000Y-80010000D01*
X116586000Y-80010000D02*
X117856000Y-81280000D01*
X118971409Y-81434591D02*
X118971409Y-84598600D01*
X118971409Y-84598600D02*
X118954600Y-84615409D01*
X123924409Y-91975591D02*
X123924409Y-92411600D01*
X123924409Y-92411600D02*
X122764600Y-93571409D01*
X132188001Y-94342001D02*
X129286000Y-91440000D01*
X132588000Y-99060000D02*
X132188001Y-98660001D01*
X132188001Y-98660001D02*
X132188001Y-94342001D01*
X131795554Y-99588297D02*
X131395555Y-99188298D01*
X131395555Y-94555069D02*
X128606599Y-91766113D01*
X131395555Y-99188298D02*
X131395555Y-94555069D01*
X128606599Y-91766113D02*
X128606599Y-91186000D01*
X128606599Y-91186000D02*
X128606599Y-89490599D01*
X119442092Y-106315425D02*
X119442092Y-107379908D01*
X119442092Y-107379908D02*
X116586000Y-110236000D01*
X113211886Y-111760000D02*
X113030000Y-111760000D01*
X116586000Y-110236000D02*
X114735887Y-110235999D01*
X114735887Y-110235999D02*
X113211886Y-111760000D01*
X116481350Y-110915400D02*
X115062000Y-110915400D01*
X120394495Y-106315425D02*
X120394495Y-107002255D01*
X120394495Y-107002255D02*
X116481350Y-110915400D01*
X134810500Y-123952000D02*
X137985500Y-127127000D01*
X127552400Y-111574217D02*
X128118085Y-111574217D01*
X129359474Y-112815606D02*
X129048934Y-112505066D01*
X128118085Y-111574217D02*
X129048934Y-112505066D01*
X140823803Y-126522384D02*
X140823803Y-125403886D01*
X129359474Y-113939557D02*
X129359474Y-112815606D01*
X140823803Y-125403886D02*
X129359474Y-113939557D01*
X139744404Y-125330001D02*
X139744404Y-125266404D01*
X140144403Y-125730000D02*
X139744404Y-125330001D01*
X138874500Y-124396500D02*
X138802145Y-124396500D01*
X139744404Y-125266404D02*
X138874500Y-124396500D01*
X138802145Y-124396500D02*
X128680073Y-114274428D01*
X128680073Y-114274428D02*
X128680073Y-113523277D01*
X128098499Y-113874499D02*
X128098499Y-114267604D01*
X127698500Y-113474500D02*
X128098499Y-113874499D01*
X128098499Y-114267604D02*
X139192000Y-125361105D01*
X139192000Y-125361105D02*
X139192000Y-125730000D01*
X126873000Y-113616855D02*
X126873000Y-112458500D01*
X138176000Y-125730000D02*
X138176000Y-124919855D01*
X138176000Y-124919855D02*
X126873000Y-113616855D01*
X129286000Y-83312000D02*
X126483712Y-86114288D01*
X126483712Y-86114288D02*
X126483712Y-89916000D01*
X129985700Y-97658166D02*
X127163112Y-94835578D01*
X127163112Y-89855455D02*
X127163112Y-91349112D01*
X131572000Y-86614000D02*
X130404567Y-86614000D01*
X127163112Y-94835578D02*
X127163112Y-91349112D01*
X130404567Y-86614000D02*
X127163112Y-89855455D01*
X127163112Y-91349112D02*
X127163112Y-91238746D01*
X134821847Y-99885721D02*
X140721784Y-93985784D01*
X131064000Y-105156000D02*
X134821847Y-101398153D01*
X134821847Y-101398153D02*
X134821847Y-99885721D01*
X131826000Y-108896190D02*
X128822400Y-108896190D01*
X128822400Y-108896190D02*
X128638210Y-108712000D01*
X121958448Y-97239277D02*
X121958448Y-93256448D01*
X121898287Y-97299438D02*
X121958448Y-97239277D01*
X113372901Y-85432901D02*
X112268000Y-84328000D01*
X113372901Y-87068155D02*
X113372901Y-85432901D01*
X114277647Y-87972901D02*
X113372901Y-87068155D01*
X116674901Y-87972901D02*
X114277647Y-87972901D01*
X121958448Y-93256448D02*
X116674901Y-87972901D01*
X121279047Y-96575828D02*
X121279047Y-93593047D01*
X117094000Y-89408000D02*
X114808000Y-89408000D01*
X121279047Y-93593047D02*
X117094000Y-89408000D01*
X117265400Y-111252000D02*
X115741400Y-112776000D01*
X115741400Y-112776000D02*
X115062000Y-112776000D01*
X149606000Y-117856000D02*
X141412332Y-117856000D01*
X141412332Y-117856000D02*
X141318166Y-117761834D01*
X138266959Y-117207013D02*
X135613946Y-114554000D01*
X135613946Y-114554000D02*
X133724690Y-114554000D01*
X149624909Y-116897909D02*
X149624909Y-115539109D01*
X149624909Y-115539109D02*
X149606000Y-115520200D01*
X113620599Y-124377401D02*
X116332000Y-121666000D01*
X119888000Y-140150315D02*
X115139906Y-135402221D01*
X114989887Y-135402221D02*
X113620599Y-134032933D01*
X119888000Y-140716000D02*
X119888000Y-140150315D01*
X115139906Y-135402221D02*
X114989887Y-135402221D01*
X113620599Y-134032933D02*
X113620599Y-124377401D01*
X123904232Y-117808232D02*
X123904232Y-119417282D01*
X123904232Y-119417282D02*
X120307151Y-123014363D01*
X108803607Y-123027607D02*
X108712000Y-122936000D01*
X120307151Y-123014363D02*
X120307151Y-123024849D01*
X120307151Y-123024849D02*
X119888000Y-123444000D01*
X108830282Y-123054282D02*
X108712000Y-122936000D01*
X112386282Y-123054282D02*
X108830282Y-123054282D01*
X112786281Y-123454281D02*
X112386282Y-123054282D01*
X111229144Y-124050600D02*
X109474000Y-125805744D01*
X99303514Y-148590000D02*
X95758000Y-148590000D01*
X109474000Y-125805744D02*
X109474000Y-138419514D01*
X109474000Y-138419514D02*
X99303514Y-148590000D01*
X118545887Y-109425613D02*
X118545887Y-112858599D01*
X121748194Y-104311804D02*
X121748194Y-106223306D01*
X121748194Y-106223306D02*
X118545887Y-109425613D01*
X118192599Y-113211887D02*
X118192599Y-116414599D01*
X118545887Y-112858599D02*
X118192599Y-113211887D01*
X118192599Y-116414599D02*
X119281208Y-117503208D01*
X119281208Y-117503208D02*
X119281208Y-121567208D01*
X138176000Y-120396000D02*
X137414000Y-120396000D01*
X137414000Y-120396000D02*
X133604000Y-116586000D01*
X140970000Y-92202000D02*
X133350000Y-99822000D01*
X141224000Y-77216000D02*
X140970000Y-77470000D01*
X140970000Y-77470000D02*
X140970000Y-92202000D01*
X134142446Y-99604304D02*
X134142446Y-100350297D01*
X141376409Y-92370341D02*
X134142446Y-99604304D01*
X143002000Y-77216000D02*
X141376410Y-78841590D01*
X141376410Y-78841590D02*
X141376409Y-92370341D01*
X137649894Y-110815120D02*
X136718040Y-110815120D01*
X137894060Y-110815120D02*
X137649894Y-110815120D01*
X142925800Y-105783380D02*
X137894060Y-110815120D01*
X140208000Y-101346000D02*
X137160000Y-104394000D01*
X136962264Y-113792000D02*
X133152264Y-109982000D01*
X146304000Y-113792000D02*
X136962264Y-113792000D01*
X133152264Y-109982000D02*
X126492000Y-109982000D01*
X126492000Y-109982000D02*
X123952000Y-107442000D01*
X123952000Y-107442000D02*
X123190000Y-107442000D01*
X145288000Y-113030000D02*
X136775014Y-113030000D01*
X136775014Y-113030000D02*
X133320604Y-109575590D01*
X133320604Y-109575590D02*
X126746000Y-109575590D01*
X126746000Y-109575590D02*
X123655800Y-106485390D01*
X123655800Y-106485390D02*
X123194207Y-106485390D01*
X133724690Y-115506403D02*
X135572403Y-115506403D01*
X135572403Y-115506403D02*
X139446000Y-119380000D01*
X129540000Y-112014000D02*
X129794000Y-112268000D01*
X129794000Y-112268000D02*
X129794000Y-113799333D01*
X129794000Y-113799333D02*
X139061333Y-123066666D01*
X139447400Y-123066666D02*
X139762367Y-123381633D01*
X139061333Y-123066666D02*
X139447400Y-123066666D01*
X124399761Y-109026239D02*
X125861928Y-110488406D01*
X148579514Y-125984000D02*
X148590000Y-125984000D01*
X125861928Y-110488406D02*
X133083920Y-110488406D01*
X133083920Y-110488406D02*
X148579514Y-125984000D01*
X121412000Y-107524600D02*
X123615400Y-109728000D01*
X125693588Y-110894816D02*
X132915580Y-110894816D01*
X123615400Y-109728000D02*
X124526772Y-109728000D01*
X124526772Y-109728000D02*
X125693588Y-110894816D01*
X132915580Y-110894816D02*
X147574000Y-125553236D01*
X147574000Y-125553236D02*
X147574000Y-125984000D01*
X109728000Y-123952000D02*
X109728000Y-124968000D01*
X109728000Y-124968000D02*
X106934000Y-127762000D01*
X122341292Y-122595292D02*
X124292708Y-122595292D01*
X124292708Y-122595292D02*
X125730000Y-121158000D01*
X115316000Y-125398972D02*
X116508972Y-124206000D01*
X115316000Y-134722820D02*
X115316000Y-125398972D01*
X117602000Y-112841654D02*
X117761827Y-112681827D01*
X117602000Y-129978543D02*
X117602000Y-112841654D01*
X117867772Y-130810000D02*
X117867772Y-130244315D01*
X117867772Y-130244315D02*
X117602000Y-129978543D01*
X117867773Y-132919567D02*
X120485340Y-130302000D01*
X120485340Y-130302000D02*
X121373615Y-130302000D01*
X129508389Y-122533326D02*
X129508389Y-119888000D01*
X122936000Y-129671400D02*
X122936000Y-129105715D01*
X122936000Y-129105715D02*
X129508389Y-122533326D01*
X126409401Y-114725401D02*
X126409401Y-124542599D01*
X125730000Y-114046000D02*
X126409401Y-114725401D01*
X120142000Y-133350000D02*
X120142000Y-131572000D01*
X120142000Y-131572000D02*
X120378921Y-131335079D01*
X120378921Y-131335079D02*
X120413079Y-131335079D01*
X121158000Y-128715400D02*
X121158000Y-126199615D01*
X121158000Y-126199615D02*
X121373615Y-125984000D01*
X125984000Y-124968000D02*
X126409401Y-124542599D01*
X123698000Y-130770458D02*
X124059229Y-130409229D01*
X123678229Y-130790229D02*
X124059229Y-130409229D01*
X123678229Y-130790229D02*
X123717771Y-130790229D01*
X130867190Y-123640810D02*
X130867190Y-118872000D01*
X123717771Y-130790229D02*
X127000000Y-127508000D01*
X123698000Y-131775972D02*
X123698000Y-131318000D01*
X123698000Y-134620000D02*
X123698000Y-131318000D01*
X122783986Y-132689986D02*
X123698000Y-131775972D01*
X123698000Y-131318000D02*
X123698000Y-130770458D01*
X127752734Y-126755266D02*
X128143000Y-126365000D01*
X126247266Y-126755266D02*
X127752734Y-126755266D01*
X128143000Y-126365000D02*
X130867190Y-123640810D01*
X127000000Y-127508000D02*
X128143000Y-126365000D01*
X122453014Y-135661014D02*
X122053015Y-135261015D01*
X119532014Y-137007986D02*
X122053015Y-134486985D01*
X118465986Y-137007986D02*
X119532014Y-137007986D01*
X122053015Y-135261015D02*
X122053015Y-134486985D01*
X122053015Y-134486985D02*
X122053015Y-124072985D01*
X120421401Y-125476000D02*
X122053015Y-123844386D01*
X135227409Y-125511909D02*
X133548818Y-127190500D01*
X133548818Y-127190500D02*
X131329600Y-127190500D01*
X116840000Y-113030000D02*
X116586000Y-113030000D01*
X124968000Y-134764285D02*
X122044898Y-137687387D01*
X122044898Y-137687387D02*
X118139873Y-137687387D01*
X124968000Y-134198600D02*
X124968000Y-134764285D01*
X118139873Y-137687387D02*
X117188372Y-136735886D01*
X117188372Y-113632372D02*
X116586000Y-113030000D01*
X117188372Y-136735886D02*
X117188372Y-113632372D01*
X121837401Y-116757401D02*
X121837401Y-117938599D01*
X121158000Y-116078000D02*
X121837401Y-116757401D01*
X119960609Y-122365877D02*
X119126000Y-123200486D01*
X121837401Y-117938599D02*
X119960609Y-119815391D01*
X119960609Y-119815391D02*
X119960609Y-122365877D01*
X119126000Y-123200486D02*
X119126000Y-128016000D01*
X119126000Y-128016000D02*
X119888000Y-128778000D01*
X119888000Y-128778000D02*
X119888000Y-129286000D01*
X113538000Y-113284000D02*
X114187528Y-113933528D01*
X114187528Y-113933528D02*
X116284824Y-113933528D01*
X118872000Y-113538000D02*
X118872000Y-113792000D01*
X118872000Y-113792000D02*
X120142000Y-115062000D01*
D17*
X151112239Y-83040239D02*
X153393083Y-83040239D01*
X153393083Y-83040239D02*
X153504247Y-82929075D01*
M02*
