M48
; DRILL file {KiCad (5.1.5)-3} date 10/19/2020 10:12:24 AM
; FORMAT={-:-/ absolute / inch / decimal}
; #@! TF.CreationDate,2020-10-19T10:12:24-04:00
; #@! TF.GenerationSoftware,Kicad,Pcbnew,(5.1.5)-3
; #@! TF.FileFunction,Plated,1,4,PTH
FMAT,2
INCH
T1C0.0157
T2C0.0350
T3C0.0450
T4C0.1142
%
G90
G05
T1
X3.54Y-5.64
X3.54Y-6.12
X3.58Y-5.92
X3.63Y-5.5875
X3.63Y-5.6925
X3.63Y-6.07
X3.63Y-6.17
X3.64Y-4.9
X3.75Y-4.86
X3.77Y-5.85
X3.82Y-4.82
X3.84Y-4.98
X3.895Y-4.745
X3.94Y-5.71
X3.98Y-4.74
X3.9875Y-5.635
X4.0Y-4.65
X4.0325Y-5.635
X4.0737Y-4.2737
X4.075Y-4.195
X4.08Y-5.06
X4.085Y-5.635
X4.12Y-4.7
X4.12Y-4.78
X4.13Y-5.05
X4.14Y-4.54
X4.14Y-5.77
X4.1475Y-5.475
X4.17Y-6.22
X4.19Y-5.77
X4.21Y-5.03
X4.22Y-6.17
X4.23Y-6.09
X4.27Y-4.04
X4.28Y-4.84
X4.3Y-4.42
X4.32Y-4.88
X4.33Y-3.42
X4.36Y-4.32
X4.37Y-3.99
X4.3791Y-4.8839
X4.38Y-5.38
X4.4Y-3.16
X4.43Y-4.32
X4.4404Y-4.8604
X4.45Y-4.4
X4.46Y-5.38
X4.47Y-4.46
X4.48Y-4.16
X4.5Y-5.11
X4.51Y-3.14
X4.51Y-5.855
X4.51Y-5.925
X4.51Y-5.99
X4.51Y-6.06
X4.51Y-6.11
X4.52Y-5.74
X4.52Y-5.8
X4.53Y-4.3667
X4.53Y-4.44
X4.53Y-4.71
X4.54Y-3.95
X4.54Y-4.66
X4.54Y-5.304
X4.55Y-3.62
X4.55Y-5.71
X4.55Y-5.77
X4.56Y-4.14
X4.56Y-5.4
X4.5781Y-4.4856
X4.58Y-4.79
X4.5859Y-3.15
X4.587Y-4.89
X4.59Y-4.11
X4.59Y-4.45
X4.59Y-6.06
X4.59Y-6.12
X4.61Y-3.42
X4.6167Y-4.38
X4.635Y-5.85
X4.635Y-5.89
X4.635Y-5.93
X4.6363Y-4.4363
X4.64Y-3.2
X4.64Y-6.06
X4.64Y-6.12
X4.6405Y-5.15
X4.6405Y-5.2331
X4.664Y-5.394
X4.68Y-3.94
X4.68Y-4.47
X4.68Y-6.06
X4.68Y-6.12
X4.6833Y-3.3313
X4.6839Y-3.2061
X4.6887Y-3.1387
X4.6961Y-4.7861
X4.7024Y-4.1856
X4.72Y-4.86
X4.72Y-5.09
X4.72Y-5.54
X4.73Y-4.53
X4.73Y-4.61
X4.73Y-5.25
X4.73Y-6.06
X4.73Y-6.12
X4.735Y-5.7175
X4.7399Y-4.1856
X4.7407Y-5.1707
X4.745Y-5.785
X4.75Y-4.79
X4.77Y-4.34
X4.77Y-4.57
X4.77Y-4.61
X4.77Y-5.0675
X4.7748Y-3.8022
X4.7785Y-4.96
X4.7785Y-5.13
X4.78Y-3.23
X4.78Y-3.43
X4.78Y-4.2333
X4.7931Y-4.3803
X4.7932Y-4.1068
X4.7991Y-3.8307
X4.805Y-4.875
X4.8166Y-4.8266
X4.821Y-5.341
X4.83Y-4.09
X4.83Y-4.59
X4.8333Y-3.6839
X4.834Y-5.224
X4.84Y-3.55
X4.84Y-5.1052
X4.85Y-4.23
X4.8502Y-4.1923
X4.87Y-5.3
X4.8781Y-4.6381
X4.8789Y-3.6211
X4.8976Y-4.2924
X4.8999Y-4.4933
X4.9Y-5.43
X4.91Y-3.21
X4.92Y-5.2834
X4.92Y-5.64
X4.93Y-2.64
X4.94Y-4.53
X4.95Y-4.49
X4.95Y-4.77
X4.96Y-4.92
X4.9704Y-4.9904
X4.9733Y-3.97
X4.9797Y-3.54
X4.99Y-5.38
X4.995Y-4.4275
X4.9967Y-3.18
X5.0Y-5.79
X5.005Y-6.1675
X5.01Y-6.09
X5.02Y-5.89
X5.021Y-4.5387
X5.0217Y-4.3927
X5.0267Y-3.92
X5.0275Y-4.4675
X5.0633Y-3.5233
X5.0645Y-4.28
X5.0661Y-4.4694
X5.07Y-3.74
X5.07Y-5.32
X5.07Y-5.378
X5.072Y-4.66
X5.09Y-3.28
X5.09Y-3.36
X5.09Y-3.6
X5.09Y-5.51
X5.0988Y-4.72
X5.1Y-3.22
X5.1Y-3.76
X5.1Y-4.41
X5.1175Y-3.8448
X5.12Y-3.79
X5.13Y-5.48
X5.1523Y-4.68
X5.16Y-4.14
X5.1705Y-5.0075
X5.1888Y-3.9208
X5.19Y-4.2873
X5.2067Y-3.605
X5.22Y-3.9
X5.25Y-3.93
X5.26Y-4.59
X5.2632Y-3.66
X5.2648Y-4.51
X5.2648Y-4.5475
X5.2812Y-3.9508
X5.3075Y-4.88
X5.315Y-3.715
X5.3239Y-4.9414
X5.3583Y-3.9651
X5.3826Y-4.3628
X5.395Y-6.055
X5.395Y-6.175
X5.4Y-4.11
X5.42Y-4.26
X5.4233Y-4.3192
X5.4325Y-5.005
X5.44Y-4.74
X5.44Y-4.95
X5.4436Y-4.6144
X5.47Y-4.27
X5.4725Y-6.01
X5.4725Y-6.0475
X5.48Y-4.95
X5.49Y-4.7
X5.5025Y-4.8575
X5.5175Y-4.95
X5.52Y-3.99
X5.54Y-4.31
X5.5402Y-3.7002
X5.5442Y-4.9812
X5.55Y-4.5067
X5.56Y-3.04
X5.56Y-4.9
X5.5637Y-4.6363
X5.6046Y-4.7754
X5.61Y-3.3
X5.61Y-4.36
X5.61Y-4.4233
X5.6113Y-3.9
X5.62Y-4.81
X5.627Y-4.1647
X5.63Y-3.04
X5.63Y-3.62
X5.67Y-3.08
X5.7Y-4.56
X5.7Y-5.14
X5.72Y-4.45
X5.75Y-4.04
X5.76Y-4.48
X5.76Y-5.01
X5.79Y-2.9225
X5.81Y-4.96
X5.84Y-5.67
X5.85Y-3.65
X5.85Y-4.96
X5.87Y-3.23
X5.88Y-4.7
X5.89Y-4.548
X5.89Y-4.64
X5.8907Y-4.6023
X5.9075Y-2.77
X5.91Y-3.23
X5.925Y-5.62
X5.9375Y-5.245
X5.94Y-4.95
X5.9475Y-2.77
X5.9493Y-3.2693
X5.98Y-4.95
X6.0048Y-5.8229
X6.005Y-5.64
X6.02Y-4.01
X6.0217Y-4.7452
X6.025Y-2.77
X6.025Y-5.425
X6.04Y-3.65
X6.0435Y-3.2649
X6.055Y-5.195
X6.066Y-2.77
X6.085Y-4.955
X6.09Y-4.02
X6.105Y-3.235
X6.105Y-5.185
X6.1425Y-5.6725
X6.145Y-3.235
X6.145Y-5.0
X6.15Y-4.525
X6.1825Y-2.7725
X6.1825Y-3.235
X6.21Y-3.96
X6.2275Y-2.7725
X6.2275Y-3.235
T2
X3.22Y-3.11
X3.22Y-3.21
X3.22Y-3.31
X3.22Y-3.41
X3.22Y-3.51
X3.22Y-3.61
X3.22Y-3.71
X3.22Y-3.81
X3.22Y-3.91
X3.22Y-4.01
X3.22Y-4.11
X3.22Y-4.21
X3.22Y-4.31
X3.22Y-4.41
X3.22Y-4.51
X3.22Y-4.61
X3.22Y-4.71
X3.22Y-4.81
X3.22Y-4.91
X3.22Y-5.01
X3.32Y-3.11
X3.32Y-3.21
X3.32Y-3.31
X3.32Y-3.41
X3.32Y-3.51
X3.32Y-3.61
X3.32Y-3.71
X3.32Y-3.81
X3.32Y-3.91
X3.32Y-4.01
X3.32Y-4.11
X3.32Y-4.21
X3.32Y-4.31
X3.32Y-4.41
X3.32Y-4.51
X3.32Y-4.61
X3.32Y-4.71
X3.32Y-4.81
X3.32Y-4.91
X3.32Y-5.01
T3
X4.42Y-3.32
X4.42Y-3.42
X4.42Y-3.52
X4.52Y-3.32
X4.52Y-3.42
X4.52Y-3.52
X5.18Y-3.31
X5.18Y-3.41
X5.18Y-3.51
X5.28Y-3.31
X5.28Y-3.41
X5.28Y-3.51
T4
X3.27Y-2.9183
X3.27Y-5.2017
X4.1755Y-2.9183
X4.1755Y-5.2017
T0
M30
