G04 #@! TF.GenerationSoftware,KiCad,Pcbnew,(5.1.5)-3*
G04 #@! TF.CreationDate,2020-10-24T15:22:03-04:00*
G04 #@! TF.ProjectId,flight_computer,666c6967-6874-45f6-936f-6d7075746572,rev?*
G04 #@! TF.SameCoordinates,Original*
G04 #@! TF.FileFunction,Soldermask,Bot*
G04 #@! TF.FilePolarity,Negative*
%FSLAX46Y46*%
G04 Gerber Fmt 4.6, Leading zero omitted, Abs format (unit mm)*
G04 Created by KiCad (PCBNEW (5.1.5)-3) date 2020-10-24 15:22:03*
%MOMM*%
%LPD*%
G04 APERTURE LIST*
%ADD10C,0.100000*%
G04 APERTURE END LIST*
D10*
G36*
X133038025Y-147793799D02*
G01*
X133162221Y-147818502D01*
X133298622Y-147875001D01*
X133421379Y-147957025D01*
X133525775Y-148061421D01*
X133607799Y-148184178D01*
X133664298Y-148320579D01*
X133693100Y-148465381D01*
X133693100Y-148613019D01*
X133664298Y-148757821D01*
X133607799Y-148894222D01*
X133525775Y-149016979D01*
X133421379Y-149121375D01*
X133298622Y-149203399D01*
X133162221Y-149259898D01*
X133038025Y-149284601D01*
X133017420Y-149288700D01*
X132869780Y-149288700D01*
X132849175Y-149284601D01*
X132724979Y-149259898D01*
X132588578Y-149203399D01*
X132465821Y-149121375D01*
X132361425Y-149016979D01*
X132279401Y-148894222D01*
X132222902Y-148757821D01*
X132194100Y-148613019D01*
X132194100Y-148465381D01*
X132222902Y-148320579D01*
X132279401Y-148184178D01*
X132361425Y-148061421D01*
X132465821Y-147957025D01*
X132588578Y-147875001D01*
X132724979Y-147818502D01*
X132849175Y-147793799D01*
X132869780Y-147789700D01*
X133017420Y-147789700D01*
X133038025Y-147793799D01*
G37*
G36*
X130498025Y-147793799D02*
G01*
X130622221Y-147818502D01*
X130758622Y-147875001D01*
X130881379Y-147957025D01*
X130985775Y-148061421D01*
X131067799Y-148184178D01*
X131124298Y-148320579D01*
X131153100Y-148465381D01*
X131153100Y-148613019D01*
X131124298Y-148757821D01*
X131067799Y-148894222D01*
X130985775Y-149016979D01*
X130881379Y-149121375D01*
X130758622Y-149203399D01*
X130622221Y-149259898D01*
X130498025Y-149284601D01*
X130477420Y-149288700D01*
X130329780Y-149288700D01*
X130309175Y-149284601D01*
X130184979Y-149259898D01*
X130048578Y-149203399D01*
X129925821Y-149121375D01*
X129821425Y-149016979D01*
X129739401Y-148894222D01*
X129682902Y-148757821D01*
X129654100Y-148613019D01*
X129654100Y-148465381D01*
X129682902Y-148320579D01*
X129739401Y-148184178D01*
X129821425Y-148061421D01*
X129925821Y-147957025D01*
X130048578Y-147875001D01*
X130184979Y-147818502D01*
X130309175Y-147793799D01*
X130329780Y-147789700D01*
X130477420Y-147789700D01*
X130498025Y-147793799D01*
G37*
G36*
X83802098Y-129671033D02*
G01*
X84266350Y-129863332D01*
X84266352Y-129863333D01*
X84684168Y-130142509D01*
X85039491Y-130497832D01*
X85318667Y-130915648D01*
X85318668Y-130915650D01*
X85510967Y-131379902D01*
X85609000Y-131872747D01*
X85609000Y-132375253D01*
X85510967Y-132868098D01*
X85318668Y-133332350D01*
X85318667Y-133332352D01*
X85039491Y-133750168D01*
X84684168Y-134105491D01*
X84266352Y-134384667D01*
X84266351Y-134384668D01*
X84266350Y-134384668D01*
X83802098Y-134576967D01*
X83309253Y-134675000D01*
X82806747Y-134675000D01*
X82313902Y-134576967D01*
X81849650Y-134384668D01*
X81849649Y-134384668D01*
X81849648Y-134384667D01*
X81431832Y-134105491D01*
X81076509Y-133750168D01*
X80797333Y-133332352D01*
X80797332Y-133332350D01*
X80605033Y-132868098D01*
X80507000Y-132375253D01*
X80507000Y-131872747D01*
X80605033Y-131379902D01*
X80797332Y-130915650D01*
X80797333Y-130915648D01*
X81076509Y-130497832D01*
X81431832Y-130142509D01*
X81849648Y-129863333D01*
X81849650Y-129863332D01*
X82313902Y-129671033D01*
X82806747Y-129573000D01*
X83309253Y-129573000D01*
X83802098Y-129671033D01*
G37*
G36*
X106802098Y-129671033D02*
G01*
X107266350Y-129863332D01*
X107266352Y-129863333D01*
X107684168Y-130142509D01*
X108039491Y-130497832D01*
X108318667Y-130915648D01*
X108318668Y-130915650D01*
X108510967Y-131379902D01*
X108609000Y-131872747D01*
X108609000Y-132375253D01*
X108510967Y-132868098D01*
X108318668Y-133332350D01*
X108318667Y-133332352D01*
X108039491Y-133750168D01*
X107684168Y-134105491D01*
X107266352Y-134384667D01*
X107266351Y-134384668D01*
X107266350Y-134384668D01*
X106802098Y-134576967D01*
X106309253Y-134675000D01*
X105806747Y-134675000D01*
X105313902Y-134576967D01*
X104849650Y-134384668D01*
X104849649Y-134384668D01*
X104849648Y-134384667D01*
X104431832Y-134105491D01*
X104076509Y-133750168D01*
X103797333Y-133332352D01*
X103797332Y-133332350D01*
X103605033Y-132868098D01*
X103507000Y-132375253D01*
X103507000Y-131872747D01*
X103605033Y-131379902D01*
X103797332Y-130915650D01*
X103797333Y-130915648D01*
X104076509Y-130497832D01*
X104431832Y-130142509D01*
X104849648Y-129863333D01*
X104849650Y-129863332D01*
X105313902Y-129671033D01*
X105806747Y-129573000D01*
X106309253Y-129573000D01*
X106802098Y-129671033D01*
G37*
G36*
X84422425Y-126508599D02*
G01*
X84546621Y-126533302D01*
X84683022Y-126589801D01*
X84805779Y-126671825D01*
X84910175Y-126776221D01*
X84992199Y-126898978D01*
X85048698Y-127035379D01*
X85077500Y-127180181D01*
X85077500Y-127327819D01*
X85048698Y-127472621D01*
X84992199Y-127609022D01*
X84910175Y-127731779D01*
X84805779Y-127836175D01*
X84683022Y-127918199D01*
X84546621Y-127974698D01*
X84422425Y-127999401D01*
X84401820Y-128003500D01*
X84254180Y-128003500D01*
X84233575Y-127999401D01*
X84109379Y-127974698D01*
X83972978Y-127918199D01*
X83850221Y-127836175D01*
X83745825Y-127731779D01*
X83663801Y-127609022D01*
X83607302Y-127472621D01*
X83578500Y-127327819D01*
X83578500Y-127180181D01*
X83607302Y-127035379D01*
X83663801Y-126898978D01*
X83745825Y-126776221D01*
X83850221Y-126671825D01*
X83972978Y-126589801D01*
X84109379Y-126533302D01*
X84233575Y-126508599D01*
X84254180Y-126504500D01*
X84401820Y-126504500D01*
X84422425Y-126508599D01*
G37*
G36*
X81882425Y-126508599D02*
G01*
X82006621Y-126533302D01*
X82143022Y-126589801D01*
X82265779Y-126671825D01*
X82370175Y-126776221D01*
X82452199Y-126898978D01*
X82508698Y-127035379D01*
X82537500Y-127180181D01*
X82537500Y-127327819D01*
X82508698Y-127472621D01*
X82452199Y-127609022D01*
X82370175Y-127731779D01*
X82265779Y-127836175D01*
X82143022Y-127918199D01*
X82006621Y-127974698D01*
X81882425Y-127999401D01*
X81861820Y-128003500D01*
X81714180Y-128003500D01*
X81693575Y-127999401D01*
X81569379Y-127974698D01*
X81432978Y-127918199D01*
X81310221Y-127836175D01*
X81205825Y-127731779D01*
X81123801Y-127609022D01*
X81067302Y-127472621D01*
X81038500Y-127327819D01*
X81038500Y-127180181D01*
X81067302Y-127035379D01*
X81123801Y-126898978D01*
X81205825Y-126776221D01*
X81310221Y-126671825D01*
X81432978Y-126589801D01*
X81569379Y-126533302D01*
X81693575Y-126508599D01*
X81714180Y-126504500D01*
X81861820Y-126504500D01*
X81882425Y-126508599D01*
G37*
G36*
X81882425Y-123968599D02*
G01*
X82006621Y-123993302D01*
X82143022Y-124049801D01*
X82265779Y-124131825D01*
X82370175Y-124236221D01*
X82452199Y-124358978D01*
X82508698Y-124495379D01*
X82537500Y-124640181D01*
X82537500Y-124787819D01*
X82508698Y-124932621D01*
X82452199Y-125069022D01*
X82370175Y-125191779D01*
X82265779Y-125296175D01*
X82143022Y-125378199D01*
X82006621Y-125434698D01*
X81882425Y-125459401D01*
X81861820Y-125463500D01*
X81714180Y-125463500D01*
X81693575Y-125459401D01*
X81569379Y-125434698D01*
X81432978Y-125378199D01*
X81310221Y-125296175D01*
X81205825Y-125191779D01*
X81123801Y-125069022D01*
X81067302Y-124932621D01*
X81038500Y-124787819D01*
X81038500Y-124640181D01*
X81067302Y-124495379D01*
X81123801Y-124358978D01*
X81205825Y-124236221D01*
X81310221Y-124131825D01*
X81432978Y-124049801D01*
X81569379Y-123993302D01*
X81693575Y-123968599D01*
X81714180Y-123964500D01*
X81861820Y-123964500D01*
X81882425Y-123968599D01*
G37*
G36*
X84422425Y-123968599D02*
G01*
X84546621Y-123993302D01*
X84683022Y-124049801D01*
X84805779Y-124131825D01*
X84910175Y-124236221D01*
X84992199Y-124358978D01*
X85048698Y-124495379D01*
X85077500Y-124640181D01*
X85077500Y-124787819D01*
X85048698Y-124932621D01*
X84992199Y-125069022D01*
X84910175Y-125191779D01*
X84805779Y-125296175D01*
X84683022Y-125378199D01*
X84546621Y-125434698D01*
X84422425Y-125459401D01*
X84401820Y-125463500D01*
X84254180Y-125463500D01*
X84233575Y-125459401D01*
X84109379Y-125434698D01*
X83972978Y-125378199D01*
X83850221Y-125296175D01*
X83745825Y-125191779D01*
X83663801Y-125069022D01*
X83607302Y-124932621D01*
X83578500Y-124787819D01*
X83578500Y-124640181D01*
X83607302Y-124495379D01*
X83663801Y-124358978D01*
X83745825Y-124236221D01*
X83850221Y-124131825D01*
X83972978Y-124049801D01*
X84109379Y-123993302D01*
X84233575Y-123968599D01*
X84254180Y-123964500D01*
X84401820Y-123964500D01*
X84422425Y-123968599D01*
G37*
G36*
X81882425Y-121428599D02*
G01*
X82006621Y-121453302D01*
X82143022Y-121509801D01*
X82265779Y-121591825D01*
X82370175Y-121696221D01*
X82452199Y-121818978D01*
X82508698Y-121955379D01*
X82537500Y-122100181D01*
X82537500Y-122247819D01*
X82508698Y-122392621D01*
X82452199Y-122529022D01*
X82370175Y-122651779D01*
X82265779Y-122756175D01*
X82143022Y-122838199D01*
X82006621Y-122894698D01*
X81882425Y-122919401D01*
X81861820Y-122923500D01*
X81714180Y-122923500D01*
X81693575Y-122919401D01*
X81569379Y-122894698D01*
X81432978Y-122838199D01*
X81310221Y-122756175D01*
X81205825Y-122651779D01*
X81123801Y-122529022D01*
X81067302Y-122392621D01*
X81038500Y-122247819D01*
X81038500Y-122100181D01*
X81067302Y-121955379D01*
X81123801Y-121818978D01*
X81205825Y-121696221D01*
X81310221Y-121591825D01*
X81432978Y-121509801D01*
X81569379Y-121453302D01*
X81693575Y-121428599D01*
X81714180Y-121424500D01*
X81861820Y-121424500D01*
X81882425Y-121428599D01*
G37*
G36*
X84422425Y-121428599D02*
G01*
X84546621Y-121453302D01*
X84683022Y-121509801D01*
X84805779Y-121591825D01*
X84910175Y-121696221D01*
X84992199Y-121818978D01*
X85048698Y-121955379D01*
X85077500Y-122100181D01*
X85077500Y-122247819D01*
X85048698Y-122392621D01*
X84992199Y-122529022D01*
X84910175Y-122651779D01*
X84805779Y-122756175D01*
X84683022Y-122838199D01*
X84546621Y-122894698D01*
X84422425Y-122919401D01*
X84401820Y-122923500D01*
X84254180Y-122923500D01*
X84233575Y-122919401D01*
X84109379Y-122894698D01*
X83972978Y-122838199D01*
X83850221Y-122756175D01*
X83745825Y-122651779D01*
X83663801Y-122529022D01*
X83607302Y-122392621D01*
X83578500Y-122247819D01*
X83578500Y-122100181D01*
X83607302Y-121955379D01*
X83663801Y-121818978D01*
X83745825Y-121696221D01*
X83850221Y-121591825D01*
X83972978Y-121509801D01*
X84109379Y-121453302D01*
X84233575Y-121428599D01*
X84254180Y-121424500D01*
X84401820Y-121424500D01*
X84422425Y-121428599D01*
G37*
G36*
X84422425Y-118888599D02*
G01*
X84546621Y-118913302D01*
X84683022Y-118969801D01*
X84805779Y-119051825D01*
X84910175Y-119156221D01*
X84992199Y-119278978D01*
X85048698Y-119415379D01*
X85077500Y-119560181D01*
X85077500Y-119707819D01*
X85048698Y-119852621D01*
X84992199Y-119989022D01*
X84910175Y-120111779D01*
X84805779Y-120216175D01*
X84683022Y-120298199D01*
X84546621Y-120354698D01*
X84422425Y-120379401D01*
X84401820Y-120383500D01*
X84254180Y-120383500D01*
X84233575Y-120379401D01*
X84109379Y-120354698D01*
X83972978Y-120298199D01*
X83850221Y-120216175D01*
X83745825Y-120111779D01*
X83663801Y-119989022D01*
X83607302Y-119852621D01*
X83578500Y-119707819D01*
X83578500Y-119560181D01*
X83607302Y-119415379D01*
X83663801Y-119278978D01*
X83745825Y-119156221D01*
X83850221Y-119051825D01*
X83972978Y-118969801D01*
X84109379Y-118913302D01*
X84233575Y-118888599D01*
X84254180Y-118884500D01*
X84401820Y-118884500D01*
X84422425Y-118888599D01*
G37*
G36*
X81882425Y-118888599D02*
G01*
X82006621Y-118913302D01*
X82143022Y-118969801D01*
X82265779Y-119051825D01*
X82370175Y-119156221D01*
X82452199Y-119278978D01*
X82508698Y-119415379D01*
X82537500Y-119560181D01*
X82537500Y-119707819D01*
X82508698Y-119852621D01*
X82452199Y-119989022D01*
X82370175Y-120111779D01*
X82265779Y-120216175D01*
X82143022Y-120298199D01*
X82006621Y-120354698D01*
X81882425Y-120379401D01*
X81861820Y-120383500D01*
X81714180Y-120383500D01*
X81693575Y-120379401D01*
X81569379Y-120354698D01*
X81432978Y-120298199D01*
X81310221Y-120216175D01*
X81205825Y-120111779D01*
X81123801Y-119989022D01*
X81067302Y-119852621D01*
X81038500Y-119707819D01*
X81038500Y-119560181D01*
X81067302Y-119415379D01*
X81123801Y-119278978D01*
X81205825Y-119156221D01*
X81310221Y-119051825D01*
X81432978Y-118969801D01*
X81569379Y-118913302D01*
X81693575Y-118888599D01*
X81714180Y-118884500D01*
X81861820Y-118884500D01*
X81882425Y-118888599D01*
G37*
G36*
X84422425Y-116348599D02*
G01*
X84546621Y-116373302D01*
X84683022Y-116429801D01*
X84805779Y-116511825D01*
X84910175Y-116616221D01*
X84992199Y-116738978D01*
X85048698Y-116875379D01*
X85077500Y-117020181D01*
X85077500Y-117167819D01*
X85048698Y-117312621D01*
X84992199Y-117449022D01*
X84910175Y-117571779D01*
X84805779Y-117676175D01*
X84683022Y-117758199D01*
X84546621Y-117814698D01*
X84422425Y-117839401D01*
X84401820Y-117843500D01*
X84254180Y-117843500D01*
X84233575Y-117839401D01*
X84109379Y-117814698D01*
X83972978Y-117758199D01*
X83850221Y-117676175D01*
X83745825Y-117571779D01*
X83663801Y-117449022D01*
X83607302Y-117312621D01*
X83578500Y-117167819D01*
X83578500Y-117020181D01*
X83607302Y-116875379D01*
X83663801Y-116738978D01*
X83745825Y-116616221D01*
X83850221Y-116511825D01*
X83972978Y-116429801D01*
X84109379Y-116373302D01*
X84233575Y-116348599D01*
X84254180Y-116344500D01*
X84401820Y-116344500D01*
X84422425Y-116348599D01*
G37*
G36*
X81882425Y-116348599D02*
G01*
X82006621Y-116373302D01*
X82143022Y-116429801D01*
X82265779Y-116511825D01*
X82370175Y-116616221D01*
X82452199Y-116738978D01*
X82508698Y-116875379D01*
X82537500Y-117020181D01*
X82537500Y-117167819D01*
X82508698Y-117312621D01*
X82452199Y-117449022D01*
X82370175Y-117571779D01*
X82265779Y-117676175D01*
X82143022Y-117758199D01*
X82006621Y-117814698D01*
X81882425Y-117839401D01*
X81861820Y-117843500D01*
X81714180Y-117843500D01*
X81693575Y-117839401D01*
X81569379Y-117814698D01*
X81432978Y-117758199D01*
X81310221Y-117676175D01*
X81205825Y-117571779D01*
X81123801Y-117449022D01*
X81067302Y-117312621D01*
X81038500Y-117167819D01*
X81038500Y-117020181D01*
X81067302Y-116875379D01*
X81123801Y-116738978D01*
X81205825Y-116616221D01*
X81310221Y-116511825D01*
X81432978Y-116429801D01*
X81569379Y-116373302D01*
X81693575Y-116348599D01*
X81714180Y-116344500D01*
X81861820Y-116344500D01*
X81882425Y-116348599D01*
G37*
G36*
X81882425Y-113808599D02*
G01*
X82006621Y-113833302D01*
X82143022Y-113889801D01*
X82265779Y-113971825D01*
X82370175Y-114076221D01*
X82452199Y-114198978D01*
X82508698Y-114335379D01*
X82537500Y-114480181D01*
X82537500Y-114627819D01*
X82508698Y-114772621D01*
X82452199Y-114909022D01*
X82370175Y-115031779D01*
X82265779Y-115136175D01*
X82143022Y-115218199D01*
X82006621Y-115274698D01*
X81882425Y-115299401D01*
X81861820Y-115303500D01*
X81714180Y-115303500D01*
X81693575Y-115299401D01*
X81569379Y-115274698D01*
X81432978Y-115218199D01*
X81310221Y-115136175D01*
X81205825Y-115031779D01*
X81123801Y-114909022D01*
X81067302Y-114772621D01*
X81038500Y-114627819D01*
X81038500Y-114480181D01*
X81067302Y-114335379D01*
X81123801Y-114198978D01*
X81205825Y-114076221D01*
X81310221Y-113971825D01*
X81432978Y-113889801D01*
X81569379Y-113833302D01*
X81693575Y-113808599D01*
X81714180Y-113804500D01*
X81861820Y-113804500D01*
X81882425Y-113808599D01*
G37*
G36*
X84422425Y-113808599D02*
G01*
X84546621Y-113833302D01*
X84683022Y-113889801D01*
X84805779Y-113971825D01*
X84910175Y-114076221D01*
X84992199Y-114198978D01*
X85048698Y-114335379D01*
X85077500Y-114480181D01*
X85077500Y-114627819D01*
X85048698Y-114772621D01*
X84992199Y-114909022D01*
X84910175Y-115031779D01*
X84805779Y-115136175D01*
X84683022Y-115218199D01*
X84546621Y-115274698D01*
X84422425Y-115299401D01*
X84401820Y-115303500D01*
X84254180Y-115303500D01*
X84233575Y-115299401D01*
X84109379Y-115274698D01*
X83972978Y-115218199D01*
X83850221Y-115136175D01*
X83745825Y-115031779D01*
X83663801Y-114909022D01*
X83607302Y-114772621D01*
X83578500Y-114627819D01*
X83578500Y-114480181D01*
X83607302Y-114335379D01*
X83663801Y-114198978D01*
X83745825Y-114076221D01*
X83850221Y-113971825D01*
X83972978Y-113889801D01*
X84109379Y-113833302D01*
X84233575Y-113808599D01*
X84254180Y-113804500D01*
X84401820Y-113804500D01*
X84422425Y-113808599D01*
G37*
G36*
X81882425Y-111268599D02*
G01*
X82006621Y-111293302D01*
X82143022Y-111349801D01*
X82265779Y-111431825D01*
X82370175Y-111536221D01*
X82452199Y-111658978D01*
X82508698Y-111795379D01*
X82537500Y-111940181D01*
X82537500Y-112087819D01*
X82508698Y-112232621D01*
X82452199Y-112369022D01*
X82370175Y-112491779D01*
X82265779Y-112596175D01*
X82143022Y-112678199D01*
X82006621Y-112734698D01*
X81882425Y-112759401D01*
X81861820Y-112763500D01*
X81714180Y-112763500D01*
X81693575Y-112759401D01*
X81569379Y-112734698D01*
X81432978Y-112678199D01*
X81310221Y-112596175D01*
X81205825Y-112491779D01*
X81123801Y-112369022D01*
X81067302Y-112232621D01*
X81038500Y-112087819D01*
X81038500Y-111940181D01*
X81067302Y-111795379D01*
X81123801Y-111658978D01*
X81205825Y-111536221D01*
X81310221Y-111431825D01*
X81432978Y-111349801D01*
X81569379Y-111293302D01*
X81693575Y-111268599D01*
X81714180Y-111264500D01*
X81861820Y-111264500D01*
X81882425Y-111268599D01*
G37*
G36*
X84422425Y-111268599D02*
G01*
X84546621Y-111293302D01*
X84683022Y-111349801D01*
X84805779Y-111431825D01*
X84910175Y-111536221D01*
X84992199Y-111658978D01*
X85048698Y-111795379D01*
X85077500Y-111940181D01*
X85077500Y-112087819D01*
X85048698Y-112232621D01*
X84992199Y-112369022D01*
X84910175Y-112491779D01*
X84805779Y-112596175D01*
X84683022Y-112678199D01*
X84546621Y-112734698D01*
X84422425Y-112759401D01*
X84401820Y-112763500D01*
X84254180Y-112763500D01*
X84233575Y-112759401D01*
X84109379Y-112734698D01*
X83972978Y-112678199D01*
X83850221Y-112596175D01*
X83745825Y-112491779D01*
X83663801Y-112369022D01*
X83607302Y-112232621D01*
X83578500Y-112087819D01*
X83578500Y-111940181D01*
X83607302Y-111795379D01*
X83663801Y-111658978D01*
X83745825Y-111536221D01*
X83850221Y-111431825D01*
X83972978Y-111349801D01*
X84109379Y-111293302D01*
X84233575Y-111268599D01*
X84254180Y-111264500D01*
X84401820Y-111264500D01*
X84422425Y-111268599D01*
G37*
G36*
X84422425Y-108728599D02*
G01*
X84546621Y-108753302D01*
X84683022Y-108809801D01*
X84805779Y-108891825D01*
X84910175Y-108996221D01*
X84992199Y-109118978D01*
X85048698Y-109255379D01*
X85077500Y-109400181D01*
X85077500Y-109547819D01*
X85048698Y-109692621D01*
X84992199Y-109829022D01*
X84910175Y-109951779D01*
X84805779Y-110056175D01*
X84683022Y-110138199D01*
X84546621Y-110194698D01*
X84422425Y-110219401D01*
X84401820Y-110223500D01*
X84254180Y-110223500D01*
X84233575Y-110219401D01*
X84109379Y-110194698D01*
X83972978Y-110138199D01*
X83850221Y-110056175D01*
X83745825Y-109951779D01*
X83663801Y-109829022D01*
X83607302Y-109692621D01*
X83578500Y-109547819D01*
X83578500Y-109400181D01*
X83607302Y-109255379D01*
X83663801Y-109118978D01*
X83745825Y-108996221D01*
X83850221Y-108891825D01*
X83972978Y-108809801D01*
X84109379Y-108753302D01*
X84233575Y-108728599D01*
X84254180Y-108724500D01*
X84401820Y-108724500D01*
X84422425Y-108728599D01*
G37*
G36*
X81882425Y-108728599D02*
G01*
X82006621Y-108753302D01*
X82143022Y-108809801D01*
X82265779Y-108891825D01*
X82370175Y-108996221D01*
X82452199Y-109118978D01*
X82508698Y-109255379D01*
X82537500Y-109400181D01*
X82537500Y-109547819D01*
X82508698Y-109692621D01*
X82452199Y-109829022D01*
X82370175Y-109951779D01*
X82265779Y-110056175D01*
X82143022Y-110138199D01*
X82006621Y-110194698D01*
X81882425Y-110219401D01*
X81861820Y-110223500D01*
X81714180Y-110223500D01*
X81693575Y-110219401D01*
X81569379Y-110194698D01*
X81432978Y-110138199D01*
X81310221Y-110056175D01*
X81205825Y-109951779D01*
X81123801Y-109829022D01*
X81067302Y-109692621D01*
X81038500Y-109547819D01*
X81038500Y-109400181D01*
X81067302Y-109255379D01*
X81123801Y-109118978D01*
X81205825Y-108996221D01*
X81310221Y-108891825D01*
X81432978Y-108809801D01*
X81569379Y-108753302D01*
X81693575Y-108728599D01*
X81714180Y-108724500D01*
X81861820Y-108724500D01*
X81882425Y-108728599D01*
G37*
G36*
X81882425Y-106188599D02*
G01*
X82006621Y-106213302D01*
X82143022Y-106269801D01*
X82265779Y-106351825D01*
X82370175Y-106456221D01*
X82452199Y-106578978D01*
X82508698Y-106715379D01*
X82537500Y-106860181D01*
X82537500Y-107007819D01*
X82508698Y-107152621D01*
X82452199Y-107289022D01*
X82370175Y-107411779D01*
X82265779Y-107516175D01*
X82143022Y-107598199D01*
X82006621Y-107654698D01*
X81882425Y-107679401D01*
X81861820Y-107683500D01*
X81714180Y-107683500D01*
X81693575Y-107679401D01*
X81569379Y-107654698D01*
X81432978Y-107598199D01*
X81310221Y-107516175D01*
X81205825Y-107411779D01*
X81123801Y-107289022D01*
X81067302Y-107152621D01*
X81038500Y-107007819D01*
X81038500Y-106860181D01*
X81067302Y-106715379D01*
X81123801Y-106578978D01*
X81205825Y-106456221D01*
X81310221Y-106351825D01*
X81432978Y-106269801D01*
X81569379Y-106213302D01*
X81693575Y-106188599D01*
X81714180Y-106184500D01*
X81861820Y-106184500D01*
X81882425Y-106188599D01*
G37*
G36*
X84422425Y-106188599D02*
G01*
X84546621Y-106213302D01*
X84683022Y-106269801D01*
X84805779Y-106351825D01*
X84910175Y-106456221D01*
X84992199Y-106578978D01*
X85048698Y-106715379D01*
X85077500Y-106860181D01*
X85077500Y-107007819D01*
X85048698Y-107152621D01*
X84992199Y-107289022D01*
X84910175Y-107411779D01*
X84805779Y-107516175D01*
X84683022Y-107598199D01*
X84546621Y-107654698D01*
X84422425Y-107679401D01*
X84401820Y-107683500D01*
X84254180Y-107683500D01*
X84233575Y-107679401D01*
X84109379Y-107654698D01*
X83972978Y-107598199D01*
X83850221Y-107516175D01*
X83745825Y-107411779D01*
X83663801Y-107289022D01*
X83607302Y-107152621D01*
X83578500Y-107007819D01*
X83578500Y-106860181D01*
X83607302Y-106715379D01*
X83663801Y-106578978D01*
X83745825Y-106456221D01*
X83850221Y-106351825D01*
X83972978Y-106269801D01*
X84109379Y-106213302D01*
X84233575Y-106188599D01*
X84254180Y-106184500D01*
X84401820Y-106184500D01*
X84422425Y-106188599D01*
G37*
G36*
X84422425Y-103648599D02*
G01*
X84546621Y-103673302D01*
X84683022Y-103729801D01*
X84805779Y-103811825D01*
X84910175Y-103916221D01*
X84992199Y-104038978D01*
X85048698Y-104175379D01*
X85077500Y-104320181D01*
X85077500Y-104467819D01*
X85048698Y-104612621D01*
X84992199Y-104749022D01*
X84910175Y-104871779D01*
X84805779Y-104976175D01*
X84683022Y-105058199D01*
X84546621Y-105114698D01*
X84422425Y-105139401D01*
X84401820Y-105143500D01*
X84254180Y-105143500D01*
X84233575Y-105139401D01*
X84109379Y-105114698D01*
X83972978Y-105058199D01*
X83850221Y-104976175D01*
X83745825Y-104871779D01*
X83663801Y-104749022D01*
X83607302Y-104612621D01*
X83578500Y-104467819D01*
X83578500Y-104320181D01*
X83607302Y-104175379D01*
X83663801Y-104038978D01*
X83745825Y-103916221D01*
X83850221Y-103811825D01*
X83972978Y-103729801D01*
X84109379Y-103673302D01*
X84233575Y-103648599D01*
X84254180Y-103644500D01*
X84401820Y-103644500D01*
X84422425Y-103648599D01*
G37*
G36*
X81882425Y-103648599D02*
G01*
X82006621Y-103673302D01*
X82143022Y-103729801D01*
X82265779Y-103811825D01*
X82370175Y-103916221D01*
X82452199Y-104038978D01*
X82508698Y-104175379D01*
X82537500Y-104320181D01*
X82537500Y-104467819D01*
X82508698Y-104612621D01*
X82452199Y-104749022D01*
X82370175Y-104871779D01*
X82265779Y-104976175D01*
X82143022Y-105058199D01*
X82006621Y-105114698D01*
X81882425Y-105139401D01*
X81861820Y-105143500D01*
X81714180Y-105143500D01*
X81693575Y-105139401D01*
X81569379Y-105114698D01*
X81432978Y-105058199D01*
X81310221Y-104976175D01*
X81205825Y-104871779D01*
X81123801Y-104749022D01*
X81067302Y-104612621D01*
X81038500Y-104467819D01*
X81038500Y-104320181D01*
X81067302Y-104175379D01*
X81123801Y-104038978D01*
X81205825Y-103916221D01*
X81310221Y-103811825D01*
X81432978Y-103729801D01*
X81569379Y-103673302D01*
X81693575Y-103648599D01*
X81714180Y-103644500D01*
X81861820Y-103644500D01*
X81882425Y-103648599D01*
G37*
G36*
X84422425Y-101108599D02*
G01*
X84546621Y-101133302D01*
X84683022Y-101189801D01*
X84805779Y-101271825D01*
X84910175Y-101376221D01*
X84992199Y-101498978D01*
X85048698Y-101635379D01*
X85077500Y-101780181D01*
X85077500Y-101927819D01*
X85048698Y-102072621D01*
X84992199Y-102209022D01*
X84910175Y-102331779D01*
X84805779Y-102436175D01*
X84683022Y-102518199D01*
X84546621Y-102574698D01*
X84422425Y-102599401D01*
X84401820Y-102603500D01*
X84254180Y-102603500D01*
X84233575Y-102599401D01*
X84109379Y-102574698D01*
X83972978Y-102518199D01*
X83850221Y-102436175D01*
X83745825Y-102331779D01*
X83663801Y-102209022D01*
X83607302Y-102072621D01*
X83578500Y-101927819D01*
X83578500Y-101780181D01*
X83607302Y-101635379D01*
X83663801Y-101498978D01*
X83745825Y-101376221D01*
X83850221Y-101271825D01*
X83972978Y-101189801D01*
X84109379Y-101133302D01*
X84233575Y-101108599D01*
X84254180Y-101104500D01*
X84401820Y-101104500D01*
X84422425Y-101108599D01*
G37*
G36*
X81882425Y-101108599D02*
G01*
X82006621Y-101133302D01*
X82143022Y-101189801D01*
X82265779Y-101271825D01*
X82370175Y-101376221D01*
X82452199Y-101498978D01*
X82508698Y-101635379D01*
X82537500Y-101780181D01*
X82537500Y-101927819D01*
X82508698Y-102072621D01*
X82452199Y-102209022D01*
X82370175Y-102331779D01*
X82265779Y-102436175D01*
X82143022Y-102518199D01*
X82006621Y-102574698D01*
X81882425Y-102599401D01*
X81861820Y-102603500D01*
X81714180Y-102603500D01*
X81693575Y-102599401D01*
X81569379Y-102574698D01*
X81432978Y-102518199D01*
X81310221Y-102436175D01*
X81205825Y-102331779D01*
X81123801Y-102209022D01*
X81067302Y-102072621D01*
X81038500Y-101927819D01*
X81038500Y-101780181D01*
X81067302Y-101635379D01*
X81123801Y-101498978D01*
X81205825Y-101376221D01*
X81310221Y-101271825D01*
X81432978Y-101189801D01*
X81569379Y-101133302D01*
X81693575Y-101108599D01*
X81714180Y-101104500D01*
X81861820Y-101104500D01*
X81882425Y-101108599D01*
G37*
G36*
X81882425Y-98568599D02*
G01*
X82006621Y-98593302D01*
X82143022Y-98649801D01*
X82265779Y-98731825D01*
X82370175Y-98836221D01*
X82452199Y-98958978D01*
X82508698Y-99095379D01*
X82537500Y-99240181D01*
X82537500Y-99387819D01*
X82508698Y-99532621D01*
X82452199Y-99669022D01*
X82370175Y-99791779D01*
X82265779Y-99896175D01*
X82143022Y-99978199D01*
X82006621Y-100034698D01*
X81882425Y-100059401D01*
X81861820Y-100063500D01*
X81714180Y-100063500D01*
X81693575Y-100059401D01*
X81569379Y-100034698D01*
X81432978Y-99978199D01*
X81310221Y-99896175D01*
X81205825Y-99791779D01*
X81123801Y-99669022D01*
X81067302Y-99532621D01*
X81038500Y-99387819D01*
X81038500Y-99240181D01*
X81067302Y-99095379D01*
X81123801Y-98958978D01*
X81205825Y-98836221D01*
X81310221Y-98731825D01*
X81432978Y-98649801D01*
X81569379Y-98593302D01*
X81693575Y-98568599D01*
X81714180Y-98564500D01*
X81861820Y-98564500D01*
X81882425Y-98568599D01*
G37*
G36*
X84422425Y-98568599D02*
G01*
X84546621Y-98593302D01*
X84683022Y-98649801D01*
X84805779Y-98731825D01*
X84910175Y-98836221D01*
X84992199Y-98958978D01*
X85048698Y-99095379D01*
X85077500Y-99240181D01*
X85077500Y-99387819D01*
X85048698Y-99532621D01*
X84992199Y-99669022D01*
X84910175Y-99791779D01*
X84805779Y-99896175D01*
X84683022Y-99978199D01*
X84546621Y-100034698D01*
X84422425Y-100059401D01*
X84401820Y-100063500D01*
X84254180Y-100063500D01*
X84233575Y-100059401D01*
X84109379Y-100034698D01*
X83972978Y-99978199D01*
X83850221Y-99896175D01*
X83745825Y-99791779D01*
X83663801Y-99669022D01*
X83607302Y-99532621D01*
X83578500Y-99387819D01*
X83578500Y-99240181D01*
X83607302Y-99095379D01*
X83663801Y-98958978D01*
X83745825Y-98836221D01*
X83850221Y-98731825D01*
X83972978Y-98649801D01*
X84109379Y-98593302D01*
X84233575Y-98568599D01*
X84254180Y-98564500D01*
X84401820Y-98564500D01*
X84422425Y-98568599D01*
G37*
G36*
X84422425Y-96028599D02*
G01*
X84546621Y-96053302D01*
X84683022Y-96109801D01*
X84805779Y-96191825D01*
X84910175Y-96296221D01*
X84992199Y-96418978D01*
X85048698Y-96555379D01*
X85077500Y-96700181D01*
X85077500Y-96847819D01*
X85048698Y-96992621D01*
X84992199Y-97129022D01*
X84910175Y-97251779D01*
X84805779Y-97356175D01*
X84683022Y-97438199D01*
X84546621Y-97494698D01*
X84422425Y-97519401D01*
X84401820Y-97523500D01*
X84254180Y-97523500D01*
X84233575Y-97519401D01*
X84109379Y-97494698D01*
X83972978Y-97438199D01*
X83850221Y-97356175D01*
X83745825Y-97251779D01*
X83663801Y-97129022D01*
X83607302Y-96992621D01*
X83578500Y-96847819D01*
X83578500Y-96700181D01*
X83607302Y-96555379D01*
X83663801Y-96418978D01*
X83745825Y-96296221D01*
X83850221Y-96191825D01*
X83972978Y-96109801D01*
X84109379Y-96053302D01*
X84233575Y-96028599D01*
X84254180Y-96024500D01*
X84401820Y-96024500D01*
X84422425Y-96028599D01*
G37*
G36*
X81882425Y-96028599D02*
G01*
X82006621Y-96053302D01*
X82143022Y-96109801D01*
X82265779Y-96191825D01*
X82370175Y-96296221D01*
X82452199Y-96418978D01*
X82508698Y-96555379D01*
X82537500Y-96700181D01*
X82537500Y-96847819D01*
X82508698Y-96992621D01*
X82452199Y-97129022D01*
X82370175Y-97251779D01*
X82265779Y-97356175D01*
X82143022Y-97438199D01*
X82006621Y-97494698D01*
X81882425Y-97519401D01*
X81861820Y-97523500D01*
X81714180Y-97523500D01*
X81693575Y-97519401D01*
X81569379Y-97494698D01*
X81432978Y-97438199D01*
X81310221Y-97356175D01*
X81205825Y-97251779D01*
X81123801Y-97129022D01*
X81067302Y-96992621D01*
X81038500Y-96847819D01*
X81038500Y-96700181D01*
X81067302Y-96555379D01*
X81123801Y-96418978D01*
X81205825Y-96296221D01*
X81310221Y-96191825D01*
X81432978Y-96109801D01*
X81569379Y-96053302D01*
X81693575Y-96028599D01*
X81714180Y-96024500D01*
X81861820Y-96024500D01*
X81882425Y-96028599D01*
G37*
G36*
X81882425Y-93488599D02*
G01*
X82006621Y-93513302D01*
X82143022Y-93569801D01*
X82265779Y-93651825D01*
X82370175Y-93756221D01*
X82452199Y-93878978D01*
X82508698Y-94015379D01*
X82537500Y-94160181D01*
X82537500Y-94307819D01*
X82508698Y-94452621D01*
X82452199Y-94589022D01*
X82370175Y-94711779D01*
X82265779Y-94816175D01*
X82143022Y-94898199D01*
X82006621Y-94954698D01*
X81882425Y-94979401D01*
X81861820Y-94983500D01*
X81714180Y-94983500D01*
X81693575Y-94979401D01*
X81569379Y-94954698D01*
X81432978Y-94898199D01*
X81310221Y-94816175D01*
X81205825Y-94711779D01*
X81123801Y-94589022D01*
X81067302Y-94452621D01*
X81038500Y-94307819D01*
X81038500Y-94160181D01*
X81067302Y-94015379D01*
X81123801Y-93878978D01*
X81205825Y-93756221D01*
X81310221Y-93651825D01*
X81432978Y-93569801D01*
X81569379Y-93513302D01*
X81693575Y-93488599D01*
X81714180Y-93484500D01*
X81861820Y-93484500D01*
X81882425Y-93488599D01*
G37*
G36*
X84422425Y-93488599D02*
G01*
X84546621Y-93513302D01*
X84683022Y-93569801D01*
X84805779Y-93651825D01*
X84910175Y-93756221D01*
X84992199Y-93878978D01*
X85048698Y-94015379D01*
X85077500Y-94160181D01*
X85077500Y-94307819D01*
X85048698Y-94452621D01*
X84992199Y-94589022D01*
X84910175Y-94711779D01*
X84805779Y-94816175D01*
X84683022Y-94898199D01*
X84546621Y-94954698D01*
X84422425Y-94979401D01*
X84401820Y-94983500D01*
X84254180Y-94983500D01*
X84233575Y-94979401D01*
X84109379Y-94954698D01*
X83972978Y-94898199D01*
X83850221Y-94816175D01*
X83745825Y-94711779D01*
X83663801Y-94589022D01*
X83607302Y-94452621D01*
X83578500Y-94307819D01*
X83578500Y-94160181D01*
X83607302Y-94015379D01*
X83663801Y-93878978D01*
X83745825Y-93756221D01*
X83850221Y-93651825D01*
X83972978Y-93569801D01*
X84109379Y-93513302D01*
X84233575Y-93488599D01*
X84254180Y-93484500D01*
X84401820Y-93484500D01*
X84422425Y-93488599D01*
G37*
G36*
X81882425Y-90948599D02*
G01*
X82006621Y-90973302D01*
X82143022Y-91029801D01*
X82265779Y-91111825D01*
X82370175Y-91216221D01*
X82452199Y-91338978D01*
X82508698Y-91475379D01*
X82537500Y-91620181D01*
X82537500Y-91767819D01*
X82508698Y-91912621D01*
X82452199Y-92049022D01*
X82370175Y-92171779D01*
X82265779Y-92276175D01*
X82143022Y-92358199D01*
X82006621Y-92414698D01*
X81882425Y-92439401D01*
X81861820Y-92443500D01*
X81714180Y-92443500D01*
X81693575Y-92439401D01*
X81569379Y-92414698D01*
X81432978Y-92358199D01*
X81310221Y-92276175D01*
X81205825Y-92171779D01*
X81123801Y-92049022D01*
X81067302Y-91912621D01*
X81038500Y-91767819D01*
X81038500Y-91620181D01*
X81067302Y-91475379D01*
X81123801Y-91338978D01*
X81205825Y-91216221D01*
X81310221Y-91111825D01*
X81432978Y-91029801D01*
X81569379Y-90973302D01*
X81693575Y-90948599D01*
X81714180Y-90944500D01*
X81861820Y-90944500D01*
X81882425Y-90948599D01*
G37*
G36*
X84422425Y-90948599D02*
G01*
X84546621Y-90973302D01*
X84683022Y-91029801D01*
X84805779Y-91111825D01*
X84910175Y-91216221D01*
X84992199Y-91338978D01*
X85048698Y-91475379D01*
X85077500Y-91620181D01*
X85077500Y-91767819D01*
X85048698Y-91912621D01*
X84992199Y-92049022D01*
X84910175Y-92171779D01*
X84805779Y-92276175D01*
X84683022Y-92358199D01*
X84546621Y-92414698D01*
X84422425Y-92439401D01*
X84401820Y-92443500D01*
X84254180Y-92443500D01*
X84233575Y-92439401D01*
X84109379Y-92414698D01*
X83972978Y-92358199D01*
X83850221Y-92276175D01*
X83745825Y-92171779D01*
X83663801Y-92049022D01*
X83607302Y-91912621D01*
X83578500Y-91767819D01*
X83578500Y-91620181D01*
X83607302Y-91475379D01*
X83663801Y-91338978D01*
X83745825Y-91216221D01*
X83850221Y-91111825D01*
X83972978Y-91029801D01*
X84109379Y-90973302D01*
X84233575Y-90948599D01*
X84254180Y-90944500D01*
X84401820Y-90944500D01*
X84422425Y-90948599D01*
G37*
G36*
X112438997Y-88548342D02*
G01*
X112523666Y-88565183D01*
X112589738Y-88592551D01*
X112683177Y-88631255D01*
X112826736Y-88727178D01*
X112948822Y-88849264D01*
X113044745Y-88992823D01*
X113110817Y-89152335D01*
X113144500Y-89321671D01*
X113144500Y-89494329D01*
X113110817Y-89663665D01*
X113044745Y-89823177D01*
X112948822Y-89966736D01*
X112826736Y-90088822D01*
X112683177Y-90184745D01*
X112589738Y-90223449D01*
X112523666Y-90250817D01*
X112438997Y-90267658D01*
X112354329Y-90284500D01*
X112181671Y-90284500D01*
X112097003Y-90267658D01*
X112012334Y-90250817D01*
X111946262Y-90223449D01*
X111852823Y-90184745D01*
X111709264Y-90088822D01*
X111587178Y-89966736D01*
X111491255Y-89823177D01*
X111425183Y-89663665D01*
X111391500Y-89494329D01*
X111391500Y-89321671D01*
X111425183Y-89152335D01*
X111491255Y-88992823D01*
X111587178Y-88849264D01*
X111709264Y-88727178D01*
X111852823Y-88631255D01*
X111946262Y-88592551D01*
X112012334Y-88565183D01*
X112097003Y-88548342D01*
X112181671Y-88531500D01*
X112354329Y-88531500D01*
X112438997Y-88548342D01*
G37*
G36*
X114978997Y-88548342D02*
G01*
X115063666Y-88565183D01*
X115129738Y-88592551D01*
X115223177Y-88631255D01*
X115366736Y-88727178D01*
X115488822Y-88849264D01*
X115584745Y-88992823D01*
X115650817Y-89152335D01*
X115684500Y-89321671D01*
X115684500Y-89494329D01*
X115650817Y-89663665D01*
X115584745Y-89823177D01*
X115488822Y-89966736D01*
X115366736Y-90088822D01*
X115223177Y-90184745D01*
X115129738Y-90223449D01*
X115063666Y-90250817D01*
X114978997Y-90267658D01*
X114894329Y-90284500D01*
X114721671Y-90284500D01*
X114637003Y-90267658D01*
X114552334Y-90250817D01*
X114486262Y-90223449D01*
X114392823Y-90184745D01*
X114249264Y-90088822D01*
X114127178Y-89966736D01*
X114031255Y-89823177D01*
X113965183Y-89663665D01*
X113931500Y-89494329D01*
X113931500Y-89321671D01*
X113965183Y-89152335D01*
X114031255Y-88992823D01*
X114127178Y-88849264D01*
X114249264Y-88727178D01*
X114392823Y-88631255D01*
X114486262Y-88592551D01*
X114552334Y-88565183D01*
X114637003Y-88548342D01*
X114721671Y-88531500D01*
X114894329Y-88531500D01*
X114978997Y-88548342D01*
G37*
G36*
X134988500Y-90030500D02*
G01*
X133235500Y-90030500D01*
X133235500Y-88277500D01*
X134988500Y-88277500D01*
X134988500Y-90030500D01*
G37*
G36*
X131742997Y-88294341D02*
G01*
X131827666Y-88311183D01*
X131893738Y-88338551D01*
X131987177Y-88377255D01*
X132130736Y-88473178D01*
X132252822Y-88595264D01*
X132348745Y-88738823D01*
X132414817Y-88898335D01*
X132448500Y-89067671D01*
X132448500Y-89240329D01*
X132414817Y-89409665D01*
X132348745Y-89569177D01*
X132252822Y-89712736D01*
X132130736Y-89834822D01*
X131987177Y-89930745D01*
X131900287Y-89966736D01*
X131827666Y-89996817D01*
X131742997Y-90013659D01*
X131658329Y-90030500D01*
X131485671Y-90030500D01*
X131401003Y-90013659D01*
X131316334Y-89996817D01*
X131243713Y-89966736D01*
X131156823Y-89930745D01*
X131013264Y-89834822D01*
X130891178Y-89712736D01*
X130795255Y-89569177D01*
X130729183Y-89409665D01*
X130695500Y-89240329D01*
X130695500Y-89067671D01*
X130729183Y-88898335D01*
X130795255Y-88738823D01*
X130891178Y-88595264D01*
X131013264Y-88473178D01*
X131156823Y-88377255D01*
X131250262Y-88338551D01*
X131316334Y-88311183D01*
X131401003Y-88294342D01*
X131485671Y-88277500D01*
X131658329Y-88277500D01*
X131742997Y-88294341D01*
G37*
G36*
X81882425Y-88408599D02*
G01*
X82006621Y-88433302D01*
X82143022Y-88489801D01*
X82265779Y-88571825D01*
X82370175Y-88676221D01*
X82452199Y-88798978D01*
X82508698Y-88935379D01*
X82537500Y-89080181D01*
X82537500Y-89227819D01*
X82508698Y-89372621D01*
X82452199Y-89509022D01*
X82370175Y-89631779D01*
X82265779Y-89736175D01*
X82143022Y-89818199D01*
X82006621Y-89874698D01*
X81882425Y-89899401D01*
X81861820Y-89903500D01*
X81714180Y-89903500D01*
X81693575Y-89899401D01*
X81569379Y-89874698D01*
X81432978Y-89818199D01*
X81310221Y-89736175D01*
X81205825Y-89631779D01*
X81123801Y-89509022D01*
X81067302Y-89372621D01*
X81038500Y-89227819D01*
X81038500Y-89080181D01*
X81067302Y-88935379D01*
X81123801Y-88798978D01*
X81205825Y-88676221D01*
X81310221Y-88571825D01*
X81432978Y-88489801D01*
X81569379Y-88433302D01*
X81693575Y-88408599D01*
X81714180Y-88404500D01*
X81861820Y-88404500D01*
X81882425Y-88408599D01*
G37*
G36*
X84422425Y-88408599D02*
G01*
X84546621Y-88433302D01*
X84683022Y-88489801D01*
X84805779Y-88571825D01*
X84910175Y-88676221D01*
X84992199Y-88798978D01*
X85048698Y-88935379D01*
X85077500Y-89080181D01*
X85077500Y-89227819D01*
X85048698Y-89372621D01*
X84992199Y-89509022D01*
X84910175Y-89631779D01*
X84805779Y-89736175D01*
X84683022Y-89818199D01*
X84546621Y-89874698D01*
X84422425Y-89899401D01*
X84401820Y-89903500D01*
X84254180Y-89903500D01*
X84233575Y-89899401D01*
X84109379Y-89874698D01*
X83972978Y-89818199D01*
X83850221Y-89736175D01*
X83745825Y-89631779D01*
X83663801Y-89509022D01*
X83607302Y-89372621D01*
X83578500Y-89227819D01*
X83578500Y-89080181D01*
X83607302Y-88935379D01*
X83663801Y-88798978D01*
X83745825Y-88676221D01*
X83850221Y-88571825D01*
X83972978Y-88489801D01*
X84109379Y-88433302D01*
X84233575Y-88408599D01*
X84254180Y-88404500D01*
X84401820Y-88404500D01*
X84422425Y-88408599D01*
G37*
G36*
X112438997Y-86008342D02*
G01*
X112523666Y-86025183D01*
X112589738Y-86052551D01*
X112683177Y-86091255D01*
X112826736Y-86187178D01*
X112948822Y-86309264D01*
X113044745Y-86452823D01*
X113110817Y-86612335D01*
X113144500Y-86781671D01*
X113144500Y-86954329D01*
X113110817Y-87123665D01*
X113044745Y-87283177D01*
X112948822Y-87426736D01*
X112826736Y-87548822D01*
X112683177Y-87644745D01*
X112589738Y-87683449D01*
X112523666Y-87710817D01*
X112438997Y-87727658D01*
X112354329Y-87744500D01*
X112181671Y-87744500D01*
X112097003Y-87727658D01*
X112012334Y-87710817D01*
X111946262Y-87683449D01*
X111852823Y-87644745D01*
X111709264Y-87548822D01*
X111587178Y-87426736D01*
X111491255Y-87283177D01*
X111425183Y-87123665D01*
X111391500Y-86954329D01*
X111391500Y-86781671D01*
X111425183Y-86612335D01*
X111491255Y-86452823D01*
X111587178Y-86309264D01*
X111709264Y-86187178D01*
X111852823Y-86091255D01*
X111946262Y-86052551D01*
X112012334Y-86025183D01*
X112097003Y-86008341D01*
X112181671Y-85991500D01*
X112354329Y-85991500D01*
X112438997Y-86008342D01*
G37*
G36*
X114978997Y-86008342D02*
G01*
X115063666Y-86025183D01*
X115129738Y-86052551D01*
X115223177Y-86091255D01*
X115366736Y-86187178D01*
X115488822Y-86309264D01*
X115584745Y-86452823D01*
X115650817Y-86612335D01*
X115684500Y-86781671D01*
X115684500Y-86954329D01*
X115650817Y-87123665D01*
X115584745Y-87283177D01*
X115488822Y-87426736D01*
X115366736Y-87548822D01*
X115223177Y-87644745D01*
X115129738Y-87683449D01*
X115063666Y-87710817D01*
X114978997Y-87727658D01*
X114894329Y-87744500D01*
X114721671Y-87744500D01*
X114637003Y-87727658D01*
X114552334Y-87710817D01*
X114486262Y-87683449D01*
X114392823Y-87644745D01*
X114249264Y-87548822D01*
X114127178Y-87426736D01*
X114031255Y-87283177D01*
X113965183Y-87123665D01*
X113931500Y-86954329D01*
X113931500Y-86781671D01*
X113965183Y-86612335D01*
X114031255Y-86452823D01*
X114127178Y-86309264D01*
X114249264Y-86187178D01*
X114392823Y-86091255D01*
X114486262Y-86052551D01*
X114552334Y-86025183D01*
X114637003Y-86008341D01*
X114721671Y-85991500D01*
X114894329Y-85991500D01*
X114978997Y-86008342D01*
G37*
G36*
X134282997Y-85754342D02*
G01*
X134367666Y-85771183D01*
X134433738Y-85798551D01*
X134527177Y-85837255D01*
X134670736Y-85933178D01*
X134792822Y-86055264D01*
X134888745Y-86198823D01*
X134954817Y-86358335D01*
X134988500Y-86527671D01*
X134988500Y-86700329D01*
X134954817Y-86869665D01*
X134888745Y-87029177D01*
X134792822Y-87172736D01*
X134670736Y-87294822D01*
X134527177Y-87390745D01*
X134440287Y-87426736D01*
X134367666Y-87456817D01*
X134282997Y-87473658D01*
X134198329Y-87490500D01*
X134025671Y-87490500D01*
X133941003Y-87473658D01*
X133856334Y-87456817D01*
X133783713Y-87426736D01*
X133696823Y-87390745D01*
X133553264Y-87294822D01*
X133431178Y-87172736D01*
X133335255Y-87029177D01*
X133269183Y-86869665D01*
X133235500Y-86700329D01*
X133235500Y-86527671D01*
X133269183Y-86358335D01*
X133335255Y-86198823D01*
X133431178Y-86055264D01*
X133553264Y-85933178D01*
X133696823Y-85837255D01*
X133790262Y-85798551D01*
X133856334Y-85771183D01*
X133941003Y-85754342D01*
X134025671Y-85737500D01*
X134198329Y-85737500D01*
X134282997Y-85754342D01*
G37*
G36*
X131742997Y-85754342D02*
G01*
X131827666Y-85771183D01*
X131893738Y-85798551D01*
X131987177Y-85837255D01*
X132130736Y-85933178D01*
X132252822Y-86055264D01*
X132348745Y-86198823D01*
X132414817Y-86358335D01*
X132448500Y-86527671D01*
X132448500Y-86700329D01*
X132414817Y-86869665D01*
X132348745Y-87029177D01*
X132252822Y-87172736D01*
X132130736Y-87294822D01*
X131987177Y-87390745D01*
X131900287Y-87426736D01*
X131827666Y-87456817D01*
X131742997Y-87473658D01*
X131658329Y-87490500D01*
X131485671Y-87490500D01*
X131401003Y-87473658D01*
X131316334Y-87456817D01*
X131243713Y-87426736D01*
X131156823Y-87390745D01*
X131013264Y-87294822D01*
X130891178Y-87172736D01*
X130795255Y-87029177D01*
X130729183Y-86869665D01*
X130695500Y-86700329D01*
X130695500Y-86527671D01*
X130729183Y-86358335D01*
X130795255Y-86198823D01*
X130891178Y-86055264D01*
X131013264Y-85933178D01*
X131156823Y-85837255D01*
X131250262Y-85798551D01*
X131316334Y-85771183D01*
X131401003Y-85754342D01*
X131485671Y-85737500D01*
X131658329Y-85737500D01*
X131742997Y-85754342D01*
G37*
G36*
X81882425Y-85868599D02*
G01*
X82006621Y-85893302D01*
X82143022Y-85949801D01*
X82265779Y-86031825D01*
X82370175Y-86136221D01*
X82452199Y-86258978D01*
X82508698Y-86395379D01*
X82537500Y-86540181D01*
X82537500Y-86687819D01*
X82508698Y-86832621D01*
X82452199Y-86969022D01*
X82370175Y-87091779D01*
X82265779Y-87196175D01*
X82143022Y-87278199D01*
X82006621Y-87334698D01*
X81882425Y-87359401D01*
X81861820Y-87363500D01*
X81714180Y-87363500D01*
X81693575Y-87359401D01*
X81569379Y-87334698D01*
X81432978Y-87278199D01*
X81310221Y-87196175D01*
X81205825Y-87091779D01*
X81123801Y-86969022D01*
X81067302Y-86832621D01*
X81038500Y-86687819D01*
X81038500Y-86540181D01*
X81067302Y-86395379D01*
X81123801Y-86258978D01*
X81205825Y-86136221D01*
X81310221Y-86031825D01*
X81432978Y-85949801D01*
X81569379Y-85893302D01*
X81693575Y-85868599D01*
X81714180Y-85864500D01*
X81861820Y-85864500D01*
X81882425Y-85868599D01*
G37*
G36*
X84422425Y-85868599D02*
G01*
X84546621Y-85893302D01*
X84683022Y-85949801D01*
X84805779Y-86031825D01*
X84910175Y-86136221D01*
X84992199Y-86258978D01*
X85048698Y-86395379D01*
X85077500Y-86540181D01*
X85077500Y-86687819D01*
X85048698Y-86832621D01*
X84992199Y-86969022D01*
X84910175Y-87091779D01*
X84805779Y-87196175D01*
X84683022Y-87278199D01*
X84546621Y-87334698D01*
X84422425Y-87359401D01*
X84401820Y-87363500D01*
X84254180Y-87363500D01*
X84233575Y-87359401D01*
X84109379Y-87334698D01*
X83972978Y-87278199D01*
X83850221Y-87196175D01*
X83745825Y-87091779D01*
X83663801Y-86969022D01*
X83607302Y-86832621D01*
X83578500Y-86687819D01*
X83578500Y-86540181D01*
X83607302Y-86395379D01*
X83663801Y-86258978D01*
X83745825Y-86136221D01*
X83850221Y-86031825D01*
X83972978Y-85949801D01*
X84109379Y-85893302D01*
X84233575Y-85868599D01*
X84254180Y-85864500D01*
X84401820Y-85864500D01*
X84422425Y-85868599D01*
G37*
G36*
X114978997Y-83468342D02*
G01*
X115063666Y-83485183D01*
X115129738Y-83512551D01*
X115223177Y-83551255D01*
X115366736Y-83647178D01*
X115488822Y-83769264D01*
X115584745Y-83912823D01*
X115650817Y-84072335D01*
X115684500Y-84241671D01*
X115684500Y-84414329D01*
X115650817Y-84583665D01*
X115584745Y-84743177D01*
X115488822Y-84886736D01*
X115366736Y-85008822D01*
X115223177Y-85104745D01*
X115129738Y-85143449D01*
X115063666Y-85170817D01*
X114978997Y-85187659D01*
X114894329Y-85204500D01*
X114721671Y-85204500D01*
X114637003Y-85187658D01*
X114552334Y-85170817D01*
X114486262Y-85143449D01*
X114392823Y-85104745D01*
X114249264Y-85008822D01*
X114127178Y-84886736D01*
X114031255Y-84743177D01*
X113965183Y-84583665D01*
X113931500Y-84414329D01*
X113931500Y-84241671D01*
X113965183Y-84072335D01*
X114031255Y-83912823D01*
X114127178Y-83769264D01*
X114249264Y-83647178D01*
X114392823Y-83551255D01*
X114486262Y-83512551D01*
X114552334Y-83485183D01*
X114637003Y-83468342D01*
X114721671Y-83451500D01*
X114894329Y-83451500D01*
X114978997Y-83468342D01*
G37*
G36*
X113144500Y-85204500D02*
G01*
X111391500Y-85204500D01*
X111391500Y-83451500D01*
X113144500Y-83451500D01*
X113144500Y-85204500D01*
G37*
G36*
X131742997Y-83214342D02*
G01*
X131827666Y-83231183D01*
X131893738Y-83258551D01*
X131987177Y-83297255D01*
X132130736Y-83393178D01*
X132252822Y-83515264D01*
X132348745Y-83658823D01*
X132414817Y-83818335D01*
X132448500Y-83987671D01*
X132448500Y-84160329D01*
X132414817Y-84329665D01*
X132348745Y-84489177D01*
X132252822Y-84632736D01*
X132130736Y-84754822D01*
X131987177Y-84850745D01*
X131900287Y-84886736D01*
X131827666Y-84916817D01*
X131742997Y-84933659D01*
X131658329Y-84950500D01*
X131485671Y-84950500D01*
X131401003Y-84933659D01*
X131316334Y-84916817D01*
X131243713Y-84886736D01*
X131156823Y-84850745D01*
X131013264Y-84754822D01*
X130891178Y-84632736D01*
X130795255Y-84489177D01*
X130729183Y-84329665D01*
X130695500Y-84160329D01*
X130695500Y-83987671D01*
X130729183Y-83818335D01*
X130795255Y-83658823D01*
X130891178Y-83515264D01*
X131013264Y-83393178D01*
X131156823Y-83297255D01*
X131250262Y-83258551D01*
X131316334Y-83231183D01*
X131401003Y-83214342D01*
X131485671Y-83197500D01*
X131658329Y-83197500D01*
X131742997Y-83214342D01*
G37*
G36*
X134282997Y-83214342D02*
G01*
X134367666Y-83231183D01*
X134433738Y-83258551D01*
X134527177Y-83297255D01*
X134670736Y-83393178D01*
X134792822Y-83515264D01*
X134888745Y-83658823D01*
X134954817Y-83818335D01*
X134988500Y-83987671D01*
X134988500Y-84160329D01*
X134954817Y-84329665D01*
X134888745Y-84489177D01*
X134792822Y-84632736D01*
X134670736Y-84754822D01*
X134527177Y-84850745D01*
X134440287Y-84886736D01*
X134367666Y-84916817D01*
X134282997Y-84933659D01*
X134198329Y-84950500D01*
X134025671Y-84950500D01*
X133941003Y-84933659D01*
X133856334Y-84916817D01*
X133783713Y-84886736D01*
X133696823Y-84850745D01*
X133553264Y-84754822D01*
X133431178Y-84632736D01*
X133335255Y-84489177D01*
X133269183Y-84329665D01*
X133235500Y-84160329D01*
X133235500Y-83987671D01*
X133269183Y-83818335D01*
X133335255Y-83658823D01*
X133431178Y-83515264D01*
X133553264Y-83393178D01*
X133696823Y-83297255D01*
X133790262Y-83258551D01*
X133856334Y-83231183D01*
X133941003Y-83214342D01*
X134025671Y-83197500D01*
X134198329Y-83197500D01*
X134282997Y-83214342D01*
G37*
G36*
X81882425Y-83328599D02*
G01*
X82006621Y-83353302D01*
X82143022Y-83409801D01*
X82265779Y-83491825D01*
X82370175Y-83596221D01*
X82452199Y-83718978D01*
X82508698Y-83855379D01*
X82537500Y-84000181D01*
X82537500Y-84147819D01*
X82508698Y-84292621D01*
X82452199Y-84429022D01*
X82370175Y-84551779D01*
X82265779Y-84656175D01*
X82143022Y-84738199D01*
X82006621Y-84794698D01*
X81882425Y-84819401D01*
X81861820Y-84823500D01*
X81714180Y-84823500D01*
X81693575Y-84819401D01*
X81569379Y-84794698D01*
X81432978Y-84738199D01*
X81310221Y-84656175D01*
X81205825Y-84551779D01*
X81123801Y-84429022D01*
X81067302Y-84292621D01*
X81038500Y-84147819D01*
X81038500Y-84000181D01*
X81067302Y-83855379D01*
X81123801Y-83718978D01*
X81205825Y-83596221D01*
X81310221Y-83491825D01*
X81432978Y-83409801D01*
X81569379Y-83353302D01*
X81693575Y-83328599D01*
X81714180Y-83324500D01*
X81861820Y-83324500D01*
X81882425Y-83328599D01*
G37*
G36*
X84422425Y-83328599D02*
G01*
X84546621Y-83353302D01*
X84683022Y-83409801D01*
X84805779Y-83491825D01*
X84910175Y-83596221D01*
X84992199Y-83718978D01*
X85048698Y-83855379D01*
X85077500Y-84000181D01*
X85077500Y-84147819D01*
X85048698Y-84292621D01*
X84992199Y-84429022D01*
X84910175Y-84551779D01*
X84805779Y-84656175D01*
X84683022Y-84738199D01*
X84546621Y-84794698D01*
X84422425Y-84819401D01*
X84401820Y-84823500D01*
X84254180Y-84823500D01*
X84233575Y-84819401D01*
X84109379Y-84794698D01*
X83972978Y-84738199D01*
X83850221Y-84656175D01*
X83745825Y-84551779D01*
X83663801Y-84429022D01*
X83607302Y-84292621D01*
X83578500Y-84147819D01*
X83578500Y-84000181D01*
X83607302Y-83855379D01*
X83663801Y-83718978D01*
X83745825Y-83596221D01*
X83850221Y-83491825D01*
X83972978Y-83409801D01*
X84109379Y-83353302D01*
X84233575Y-83328599D01*
X84254180Y-83324500D01*
X84401820Y-83324500D01*
X84422425Y-83328599D01*
G37*
G36*
X84422425Y-80788599D02*
G01*
X84546621Y-80813302D01*
X84683022Y-80869801D01*
X84805779Y-80951825D01*
X84910175Y-81056221D01*
X84992199Y-81178978D01*
X85048698Y-81315379D01*
X85077500Y-81460181D01*
X85077500Y-81607819D01*
X85048698Y-81752621D01*
X84992199Y-81889022D01*
X84910175Y-82011779D01*
X84805779Y-82116175D01*
X84683022Y-82198199D01*
X84546621Y-82254698D01*
X84422425Y-82279401D01*
X84401820Y-82283500D01*
X84254180Y-82283500D01*
X84233575Y-82279401D01*
X84109379Y-82254698D01*
X83972978Y-82198199D01*
X83850221Y-82116175D01*
X83745825Y-82011779D01*
X83663801Y-81889022D01*
X83607302Y-81752621D01*
X83578500Y-81607819D01*
X83578500Y-81460181D01*
X83607302Y-81315379D01*
X83663801Y-81178978D01*
X83745825Y-81056221D01*
X83850221Y-80951825D01*
X83972978Y-80869801D01*
X84109379Y-80813302D01*
X84233575Y-80788599D01*
X84254180Y-80784500D01*
X84401820Y-80784500D01*
X84422425Y-80788599D01*
G37*
G36*
X81882425Y-80788599D02*
G01*
X82006621Y-80813302D01*
X82143022Y-80869801D01*
X82265779Y-80951825D01*
X82370175Y-81056221D01*
X82452199Y-81178978D01*
X82508698Y-81315379D01*
X82537500Y-81460181D01*
X82537500Y-81607819D01*
X82508698Y-81752621D01*
X82452199Y-81889022D01*
X82370175Y-82011779D01*
X82265779Y-82116175D01*
X82143022Y-82198199D01*
X82006621Y-82254698D01*
X81882425Y-82279401D01*
X81861820Y-82283500D01*
X81714180Y-82283500D01*
X81693575Y-82279401D01*
X81569379Y-82254698D01*
X81432978Y-82198199D01*
X81310221Y-82116175D01*
X81205825Y-82011779D01*
X81123801Y-81889022D01*
X81067302Y-81752621D01*
X81038500Y-81607819D01*
X81038500Y-81460181D01*
X81067302Y-81315379D01*
X81123801Y-81178978D01*
X81205825Y-81056221D01*
X81310221Y-80951825D01*
X81432978Y-80869801D01*
X81569379Y-80813302D01*
X81693575Y-80788599D01*
X81714180Y-80784500D01*
X81861820Y-80784500D01*
X81882425Y-80788599D01*
G37*
G36*
X81882425Y-78248599D02*
G01*
X82006621Y-78273302D01*
X82143022Y-78329801D01*
X82265779Y-78411825D01*
X82370175Y-78516221D01*
X82452199Y-78638978D01*
X82508698Y-78775379D01*
X82537500Y-78920181D01*
X82537500Y-79067819D01*
X82508698Y-79212621D01*
X82452199Y-79349022D01*
X82370175Y-79471779D01*
X82265779Y-79576175D01*
X82143022Y-79658199D01*
X82006621Y-79714698D01*
X81882425Y-79739401D01*
X81861820Y-79743500D01*
X81714180Y-79743500D01*
X81693575Y-79739401D01*
X81569379Y-79714698D01*
X81432978Y-79658199D01*
X81310221Y-79576175D01*
X81205825Y-79471779D01*
X81123801Y-79349022D01*
X81067302Y-79212621D01*
X81038500Y-79067819D01*
X81038500Y-78920181D01*
X81067302Y-78775379D01*
X81123801Y-78638978D01*
X81205825Y-78516221D01*
X81310221Y-78411825D01*
X81432978Y-78329801D01*
X81569379Y-78273302D01*
X81693575Y-78248599D01*
X81714180Y-78244500D01*
X81861820Y-78244500D01*
X81882425Y-78248599D01*
G37*
G36*
X84422425Y-78248599D02*
G01*
X84546621Y-78273302D01*
X84683022Y-78329801D01*
X84805779Y-78411825D01*
X84910175Y-78516221D01*
X84992199Y-78638978D01*
X85048698Y-78775379D01*
X85077500Y-78920181D01*
X85077500Y-79067819D01*
X85048698Y-79212621D01*
X84992199Y-79349022D01*
X84910175Y-79471779D01*
X84805779Y-79576175D01*
X84683022Y-79658199D01*
X84546621Y-79714698D01*
X84422425Y-79739401D01*
X84401820Y-79743500D01*
X84254180Y-79743500D01*
X84233575Y-79739401D01*
X84109379Y-79714698D01*
X83972978Y-79658199D01*
X83850221Y-79576175D01*
X83745825Y-79471779D01*
X83663801Y-79349022D01*
X83607302Y-79212621D01*
X83578500Y-79067819D01*
X83578500Y-78920181D01*
X83607302Y-78775379D01*
X83663801Y-78638978D01*
X83745825Y-78516221D01*
X83850221Y-78411825D01*
X83972978Y-78329801D01*
X84109379Y-78273302D01*
X84233575Y-78248599D01*
X84254180Y-78244500D01*
X84401820Y-78244500D01*
X84422425Y-78248599D01*
G37*
G36*
X83802098Y-71671033D02*
G01*
X84266350Y-71863332D01*
X84266352Y-71863333D01*
X84684168Y-72142509D01*
X85039491Y-72497832D01*
X85318667Y-72915648D01*
X85318668Y-72915650D01*
X85510967Y-73379902D01*
X85609000Y-73872747D01*
X85609000Y-74375253D01*
X85510967Y-74868098D01*
X85318668Y-75332350D01*
X85318667Y-75332352D01*
X85039491Y-75750168D01*
X84684168Y-76105491D01*
X84266352Y-76384667D01*
X84266351Y-76384668D01*
X84266350Y-76384668D01*
X83802098Y-76576967D01*
X83309253Y-76675000D01*
X82806747Y-76675000D01*
X82313902Y-76576967D01*
X81849650Y-76384668D01*
X81849649Y-76384668D01*
X81849648Y-76384667D01*
X81431832Y-76105491D01*
X81076509Y-75750168D01*
X80797333Y-75332352D01*
X80797332Y-75332350D01*
X80605033Y-74868098D01*
X80507000Y-74375253D01*
X80507000Y-73872747D01*
X80605033Y-73379902D01*
X80797332Y-72915650D01*
X80797333Y-72915648D01*
X81076509Y-72497832D01*
X81431832Y-72142509D01*
X81849648Y-71863333D01*
X81849650Y-71863332D01*
X82313902Y-71671033D01*
X82806747Y-71573000D01*
X83309253Y-71573000D01*
X83802098Y-71671033D01*
G37*
G36*
X106802098Y-71671033D02*
G01*
X107266350Y-71863332D01*
X107266352Y-71863333D01*
X107684168Y-72142509D01*
X108039491Y-72497832D01*
X108318667Y-72915648D01*
X108318668Y-72915650D01*
X108510967Y-73379902D01*
X108609000Y-73872747D01*
X108609000Y-74375253D01*
X108510967Y-74868098D01*
X108318668Y-75332350D01*
X108318667Y-75332352D01*
X108039491Y-75750168D01*
X107684168Y-76105491D01*
X107266352Y-76384667D01*
X107266351Y-76384668D01*
X107266350Y-76384668D01*
X106802098Y-76576967D01*
X106309253Y-76675000D01*
X105806747Y-76675000D01*
X105313902Y-76576967D01*
X104849650Y-76384668D01*
X104849649Y-76384668D01*
X104849648Y-76384667D01*
X104431832Y-76105491D01*
X104076509Y-75750168D01*
X103797333Y-75332352D01*
X103797332Y-75332350D01*
X103605033Y-74868098D01*
X103507000Y-74375253D01*
X103507000Y-73872747D01*
X103605033Y-73379902D01*
X103797332Y-72915650D01*
X103797333Y-72915648D01*
X104076509Y-72497832D01*
X104431832Y-72142509D01*
X104849648Y-71863333D01*
X104849650Y-71863332D01*
X105313902Y-71671033D01*
X105806747Y-71573000D01*
X106309253Y-71573000D01*
X106802098Y-71671033D01*
G37*
M02*
